<svg xmlns="http://www.w3.org/2000/svg" viewBox="0 0 969.9 2072.19"><g id="Layer_2" data-name="Layer 2"><g id="Layer_1-2" data-name="Layer 1"><path d="M297.14,2072.19c-1-4.45-1.86-9-3.14-13.33-7.15-24.44-18-47.39-28.57-70.46-25-54.62-61.55-100.7-104.61-142-15.15-14.53-31.12-28.13-44.86-44.21a402.67,402.67,0,0,1-46.1-66.49c-15.21-27.44-31.42-54.33-42.32-84-21.71-59-25.09-119-8.48-179.63,12.27-44.74,38.55-81,72.61-111.85,35.53-32.12,76.21-56.57,119.57-76.23,44.39-20.14,89.61-38.47,134.41-57.74,18.88-8.12,37.57-16.68,56.4-24.92,15.71-6.87,26.58-18.39,34.36-33.55,13.48-26.26,18.53-54,16.4-83.27-1.54-21.31-3.93-42.51-9.54-63.13-6.75-24.78-15.9-48.77-32.31-68.83-12.31-15.05-28-26.52-45-36.31-9.15-5.29-18.45-7.77-28.82-6.13-6.66,1.06-13.32,2.19-19.93,3.52-24.33,4.88-45.57,17.34-67.83,27.41-20,9.07-40.46,17.59-61.33,24.46-15.71,5.17-29.8,0-42.65-11.25-16.36-14.32-22-32-21.18-52.65.4-10.64,2.14-21.25,2.15-31.87,0-8.9-1.25-17.87-2.68-26.69-.87-5.35-4.27-6.09-9-3.06a41.35,41.35,0,0,1-8.65,4.66c-6,2.11-10.92,0-14-5.59C85.8,827.86,88,819.86,98.5,809.58a45.38,45.38,0,0,0,4.5-4.37c1-1.33,1.52-3.07,2.65-5.47-3.88-.38-7-.36-10-1-7.83-1.83-15.84-3.31-23.3-6.17-8-3.06-10.85-9.22-10-17.67.1-1,.11-2.4.75-3,4.74-4.36,6.85-11.38,13.93-13.53,1.38-.41,2.83-2.91,3-4.57.49-4.87,1-9.89.31-14.7-1.06-7.85-3-15.58-4.57-23.37-.63-3.19-2.46-4.6-5.68-4.44-9.09.46-18.19.94-27.29,1.25-3.86.14-7.84.44-11.58-.28-10.72-2.08-15.27-8.15-16-19.16-1.28-20,2.87-39,9.45-57.76,7.19-20.52,13.94-41.23,19.67-62.2,2.44-8.92,1.89-18.69,2.46-28.09A13.91,13.91,0,0,0,45,538.12l-1.65,16.67-1.74.26c-1.78-6.65-3.76-13.26-5.15-20-.22-1.05,2-3.19,3.47-3.91,7-3.38,9.43-7.76,6.1-14.8-5.5-11.65-11.73-22.94-17.74-34.35A85.75,85.75,0,0,0,22,471.14,6.25,6.25,0,0,0,16.9,469c-7.36,1.41-8.87,1-13.2-5a34.65,34.65,0,0,1-1.95-3c-3.29-5.79-2-7.93,4.65-8.69,1.27-.14,3.27-1.6,3.42-2.67.94-6.54.8-6.56,7.8-6.84C13,428.55,14.08,414.05,14,399.56c-.12-30.63,6.74-59.76,17-88.4,15.85-44.3,33.66-87.73,56.58-128.89,4.34-7.8,10.17-14.83,15.74-21.88,13.31-16.85,26.87-33.51,40.34-50.23,14.73-18.27,33.23-32,53.18-44C241.77,39.29,290.62,23.56,342,15.08,383.23,8.29,424.69,3.74,466.34,1c52.3-3.45,103.55,1.61,152.51,21.48,37.77,15.33,70.95,38.4,102.23,64.16,27.41,22.57,51.14,48.68,69.8,79,21.31,34.61,32.83,72.66,36.63,112.94,1.9,20.16,3.42,40.5,2.85,60.69-.69,24.71-3.74,49.35-5.8,74-.82,9.83-1.74,19.66-2.71,30.54,14.22-4.09,27.74-5.53,41.52-2.95-1.75,0-3.51.08-5.26,0-11-.57-21.93.09-32.47,3.62-1.43.48-3.36,2.38-3.39,3.66-1.08,41.45-1.73,82.9,6.58,123.84a115.13,115.13,0,0,0,14,36.86c4.88,8.12,10.85,15.21,18.94,20.4l-.58,1a26.3,26.3,0,0,1-3.62-2.1c-11.77-9.41-19-21.93-24.18-35.76-7.28-19.59-10.74-40-11.4-60.83-.86-27.3-1-54.63-1.38-81.95,0-.88-.12-1.77-.23-3.33-1.76.36-3.29.57-4.77,1-16,4.48-29.25,13.77-41.85,24.08C737.45,501,712.18,538.17,701.35,584c-10.14,42.9-2.27,83.64,19.5,121.52,14.76,25.67,38.6,38.78,67.12,43.83,20.51,3.62,41.19,5,61.72.18a86.25,86.25,0,0,0,19.84-7.14c33.58-17.43,62.44-40,78.74-75.49,8.27-18,12.77-37.11,16.47-56.47,5.81-30.43,4.65-60.57-2.55-90.67C956.49,496,941.55,479,923,464.25c-15-12-32.67-17.4-50.91-21.58a8.62,8.62,0,0,1-4.51-2.13c3.76.69,7.55,1.24,11.27,2.08,27.56,6.2,49.82,20.87,67.79,42.45,10.62,12.76,15.48,27.86,18.85,43.76,9.69,45.82,2.45,89.92-13.57,133-9.51,25.56-27.1,45.23-48.79,61.11a277.71,277.71,0,0,1-34,21.07c-16.19,8.58-34,10.51-52.09,9.75-17.6-.73-35-2.65-51.61-9.19-21.85-8.62-38.31-23.2-49.27-44a179,179,0,0,1-20.38-77.76,153.41,153.41,0,0,1,11.8-64.21c16.16-39.45,41.25-72,76.15-96.68,10.24-7.26,21.05-13.28,33.23-16.67,1.49-.42,3.56-2.19,3.7-3.51,2.33-21.33,4.38-42.7,6.52-64.05,2.91-29.08,2.41-58.15.14-87.26A312.62,312.62,0,0,0,810.68,210c-11.78-33.29-31-61.83-54.55-87.79C722,84.55,681.62,55,636.61,32.15,590.86,8.9,541.49.24,490.42,1.63A1020.3,1020.3,0,0,0,318.81,21,380.11,380.11,0,0,0,190.92,71.44c-19.25,12-36.34,26.45-50.3,44.57-13.37,17.37-27.36,34.26-41,51.41a45.9,45.9,0,0,0-6.26,10.27c4.06-1.48,8.18-2.85,12.19-4.47,5.94-2.39,11.24-1.63,16.5,2.11,35.23,25.09,69.86,50.94,103.2,78.54,19.88,16.47,41.09,31.33,60.89,47.88,23.26,19.45,45.69,39.9,68.39,60,13.93,12.34,28.81,23.07,46.53,29.38a84.24,84.24,0,0,0,30.42,5.24c9-.2,18-.07,27-.41a6.12,6.12,0,0,0,4.36-2.74c14.89-28.26,39.89-41.38,70.09-45.09,13.12-1.61,24.76,5.33,34.63,13.92,14.47,12.6,21.69,29.2,24.91,47.75,3.62,20.81,1.64,41.59-.26,62.4-3,33.2-15.9,62.22-36.48,88.17-10.07,12.69-19.29,26.06-29.61,38.54-5.8,7-12.77,13.14-19.77,19a49.61,49.61,0,0,1-13.65,7.61c-6.56,2.57-11.6.1-13.12-6.7-1.57-7.07-1.92-14.41-2.81-21.63l1.81-.23c.09,1.15.15,2.31.27,3.46.6,5.94.7,12,2,17.8,1.38,6.26,5.61,8.37,11.61,6,4.67-1.88,9.66-4.08,13.17-7.5,10.84-10.55,21.6-21.28,31.3-32.86,9-10.79,16.66-22.76,25-34.18,17.4-23.95,26.65-50.83,29.27-80.19,1.59-17.82,3.14-35.64.89-53.49-2.7-21.35-10-40.67-27.36-54.51-13.51-10.75-28.39-14.89-45.89-9.54-20.06,6.13-37.25,15.75-49.43,33.17-2.3,3.29-4.11,6.9-5.8,9.77l21,14.13,8.83-11.18c8-10.2,18.71-16.35,31.05-19.64,12.61-3.36,23.59,1.41,29.36,13.14,12,24.48,12.52,50,4,75.36-9.59,28.39-24.73,54-43.28,77.48a46,46,0,0,1-10.15,9.46c-7,4.72-14.36,2.08-17.52-5.82-2.56-6.4-1.94-13-.57-19.52,1.32-6.31,3-12.55,4.38-18.85,2-9.31.33-17.43-7.12-24.14-5.22-4.71-4.55-7.3,1.69-10.61,4.45-2.36,8.91-2.15,13.5-.56a57.35,57.35,0,0,0,8.59,2.61c3.64.64,5.77-1.1,5.65-5a12.42,12.42,0,0,0-.35-3.57c-6-18.26-11.46-36.78-24.54-51.67-1.15-1.32-2.39-2.56-4.14-4.43-3.62,5.91-6.82,11.29-10.17,16.58a66.18,66.18,0,0,1-6.45,9.17c-3.5,3.85-6,3.24-7.93-1.51-4.48-10.76-4.24-21.64-.72-32.59.59-1.82,1.15-3.64,2-6.4-5.06,0-9.56-.43-13.95.07-34.14,3.86-62.79-8.18-88-30.21C335.47,346.77,313.38,324.9,289,306c-54.11-41.93-106.15-86.52-162.16-126-9.75-6.88-18.18-7.25-28.28-2.81a26.79,26.79,0,0,0-13.73,12.72c-24.62,46.43-44.13,94.94-60,145-9.8,30.86-10.53,62.6-8.75,94.52.24,4.23,2,8.4,3.26,12.55s4.72,4.85,9.09,4.93c-1.19-2.1-2.25-4.28-3.6-6.27-3.15-4.68-3.14-5,1.39-8.14,13.16-9.2,26.54-18.12,39.4-27.72,7.42-5.55,14.2-12,20.89-18.44,3.48-3.36,7-5,11.69-3.81,3.48.89,7,1.59,10.47,2.57,18.9,5.35,37.73,11,56.7,16,8.09,2.18,16.46,3.28,24.68,5a34.65,34.65,0,0,1,5.23,2l-.16,1.66c-6.88,0-13.85.69-20.64-.15-12-1.5-23.9-4.62-35.95-5.77-16.82-1.61-33.13,1.54-47.52,10.64-10.48,6.63-20.2,14.49-30,22.1-2.67,2.06-4.65,5.07-6.72,7.82-3.74,5-4.57,10.4-1.78,16.09Q57.6,471,62.94,481.37c1.74,3.4,4.58,4.87,8.44,4.93,4,.06,8.07.6,12.12.79,3.38.16,5,2,5.92,5.1,1.41,4.66,3.2,9.21,5.34,15.27,3.28-3.39,6.4-5.29,7.5-8,2.39-5.94,5.75-10.76,12.67-14.34l-12.19-3.88.06-1.51c4-.45,8.06-1.2,12.11-1.29,8.4-.19,16.83.29,25.22-.07,15.68-.69,31.35-1.78,46.46-2.66-13.69,3.36-28.4,3.85-42.81,4.12,0,4.12.1,7.7,0,11.27a14,14,0,0,1-6.17,11.46c-4.68,3.3-8.93,1.7-11-3.61a44.8,44.8,0,0,0-5.14-10.26c-2.21-3-5.79-3.57-8.64-.68a118.19,118.19,0,0,0-8.08,9.85c-.36.45-.31,1.26-.7,1.63-2.88,2.71-5.82,5.34-8.73,8-1.78-2.85-4.08-5.49-5.23-8.57-4-10.73-3.87-11.22-15.2-11-7.49.12-12.22-2.65-15.19-9.36-2.67-6-5.77-11.87-8.58-17.85S48.79,449,52.85,444.14c4.48-5.4,9.14-10.84,14.56-15.22,15.52-12.57,32-23.31,52.57-26,14.25-1.87,28.11.15,42,2.78,7.32,1.38,14.77,2.08,22.18,2.94a16.16,16.16,0,0,0,4.19-.59c0-.41,0-.81,0-1.22-5.94-1.13-12-1.9-17.83-3.44-20-5.28-39.93-10.85-59.9-16.26-4.77-1.29-9.53-2.83-14.4-3.42-2.34-.28-5.7.64-7.25,2.29-16.43,17.49-36.64,30-56.1,43.56-2.71,1.88-5.44,3.74-8.13,5.66-.33.23-.49.71-.93,1.38a39.71,39.71,0,0,1,3.58,5.51,37.64,37.64,0,0,1,1.69,6.21,36.74,36.74,0,0,1-6.25-.85c-2.13-.65-4-2.11-6.11-2.83-4-1.38-5.7-.24-5.41,4,.26,3.77-1.14,5.07-4.83,5.13C1,453.85.16,455.48,3,460.33a43.81,43.81,0,0,0,4,5.44c2.24,2.72,5,3.68,8.39,2.11,3.14-1.44,6-1,7.71,2.23,8.05,14.91,16.11,29.81,24,44.8,2.19,4.16,2.55,8.49-.17,12.84a7,7,0,0,0-.44,4.71c4.81,21.53.36,42-6.57,62.31-6.73,19.74-13.14,39.59-19.68,59.4-4.52,13.71-4.07,27.88-3.25,42,.54,9.44,7.56,15,18.46,15.42,3.85.17,7.72-.88,11.6-1.13,6.26-.39,12.54-.63,18.81-.82,2.35-.06,4.7.21,8.08.38-1.6-3.15-2.42-5.84-4.13-7.72-1.07-1.18-3.57-1.76-5.27-1.51-3.52.51-6.9,1.92-10.41,2.59a3.82,3.82,0,0,1-3.33-1.4c-.46-.91,0-2.68.66-3.67,3.09-4.58,11.89-5.69,15.81-2.63-2.53,0-5.66-.44-8.6.12s-6.18,1.52-7.06,6.83c4.12-1,7.66-1.57,11-2.72,5.53-1.91,7.78-1.84,9.52,3.58,3.14,9.81,11,8.07,18,8.36s11.93-3.55,14.83-9.8c4.1-8.82,4.22-18.08,2-27.32-.52-2.21-2.75-4-4.24-6.09,3.46.42,5.1,3,5.75,6.08,1.77,8.36,1.81,16.73-1,24.89-3.44,9.95-10.1,14.3-20.64,13.6-3.26-.22-6.5-.64-10.21-1,3,15.66,9.29,30.7,3.23,47.15,26.37,12.88,54.08,20.2,84.38,18.49-14.2,20.11-26.52,41.43-46.41,58.42,6,.85,6.86,4.47,7.89,8.06,3.86,13.5,2.15,27,.7,40.66-1.51,14.23-1.9,28.58,2.28,42.46a43.49,43.49,0,0,0,7.3,14.23,112.84,112.84,0,0,0,15.45,15.69c10.58,9,23.09,9.94,36.16,7.27a46.19,46.19,0,0,0,8.67-2.33c18.38-7.75,36.87-15.25,55-23.6,20.28-9.35,39.79-20.55,61.86-25.45,8.49-1.88,17.08-3.36,25.68-4.59,9.19-1.32,17.71.78,25.93,5.33,16.05,8.87,30.68,19.7,43.05,33.06,7.14,7.71,13,16.9,18.06,26.18,14.79,27.26,22.71,56.73,26.13,87.46,2,17.77,3.78,35.54,1.93,53.46a146.89,146.89,0,0,1-22.78,65.28,55.7,55.7,0,0,1-24.23,20.92q-37.74,17.07-75.75,33.53c-43.74,19.07-88,37.1-131.2,57.25-39,18.19-75.38,41.17-107.46,70.27C60.2,1390.62,35.31,1425,22,1466.87c-10.52,33-13.06,67-11,101.49,3,50,19.75,95.49,44.34,138.52,6.85,12,13.6,24,20.37,36.08a348.86,348.86,0,0,0,72.05,89.3c36.44,32.63,68.8,68.87,94.65,110.49,22.1,35.57,38.86,73.77,52.29,113.4,1.73,5.1,2.5,10.51,3.71,15.78ZM485.48,410.82a4.62,4.62,0,0,0,.6,1.24c14.34,14.89,20.66,33.88,27,52.83a23.65,23.65,0,0,1,1.15,6.62c.18,5-2.35,7.3-7.31,6.51-2.92-.46-5.68-2.18-8.6-2.45-4-.38-8.44-.86-12.12.38-5.87,2-6.22,4.41-1.71,8.46,7.84,7,9.57,15.59,7.4,25.37-1.37,6.15-3.47,12.21-4.14,18.42s-1,12.68.38,18.59c1.87,7.86,9.27,10,15.95,5.39a41.11,41.11,0,0,0,8.51-7.94c18.86-23.48,33.94-49.25,43.76-77.69,8.42-24.39,8-49.05-2.88-72.88-6.15-13.44-17.51-17.87-31.65-13.43C505.42,385.41,494.32,396.7,485.48,410.82ZM160,780.11l-.29-1.38c-2.45,0-4.9,0-7.35,0-5.39-.12-10.89.38-16.14-.53-17.73-3.1-35.26-7-51.57-15.14-7.35-3.65-15.81,1.61-16.49,9.91-.45,5.48,2.11,9.4,6.14,12.78,6.82,5.73,15.33,7.16,23.41,9.84a34.91,34.91,0,0,0,23.73-.52q17.11-6.21,34.14-12.62A37.42,37.42,0,0,0,160,780.11Zm-51.49,20.36c2.54,5.43,2.4,6.33-2.32,12.16C101,819,102.05,829,108.37,833.9c2.57,2,4.63,2.31,7.44,0,7.74-6.48,14.76-13.48,20.42-21.94,6.12-9.15,12.75-18,19.37-27.23ZM464,397.22c-1.22,1.4-2.32,2.17-2.73,3.22-4.31,10.92-5.57,22-1.36,33.29.68,1.8,2.12,3.32,3.2,5,1.64-1.21,3.75-2.1,4.82-3.68,3.51-5.21,6.59-10.7,9.93-16,5.44-8.7,5.58-8.81-2.73-15.19C471.89,401.31,468.05,399.57,464,397.22ZM107.24,802.51c-2.89,3-5.42,5.85-8.27,8.4-8.87,7.92-11.08,18-5.81,27.34,4.3,7.61,14.65,7.86,19.65.47-6.48,1.36-8.85,0-10.33-6.71-.9-4.06-1.67-8.34-1.26-12.4.29-2.87,2.17-6,4.2-8.19C108.4,808.14,109.33,805.42,107.24,802.51ZM121,484.45c2.31,4.56,4.85,8.68,6.55,13.12,2.22,5.78,6.59,7.2,10.73,2.5,2.18-2.48,3.26-5.93,5-9.35C134.66,489,129.26,480.41,121,484.45ZM94.9,796.83c-13.06-4.85-28-7.36-28.59-27.34-1.25,2.35-2.23,3.5-2.48,4.79-1.17,6.11.42,11.49,5.66,15A43.87,43.87,0,0,0,94.9,796.83Zm46.14-308c1.25-6.78.39-8.93-3.28-9q-11.7-.17-23.41-.08a41.78,41.78,0,0,0-5.53.77l-.08,1.59c3.57.39,7.38,1.74,10.66,1,5.9-1.43,10.91-.65,15.82,2.64C137,486.91,138.94,487.75,141,488.86Zm-97.2,43.08L42.63,531c-1.64,1.39-4.79,3-4.66,4.15.53,4.8,2.08,9.5,3.26,14.24l1.39-.24Q43.24,540.55,43.84,531.94Z"/></g></g></svg>