<svg width="601" height="342" viewBox="0 0 601 342" fill="none" xmlns="http://www.w3.org/2000/svg">
<path d="M41.1078 340.286C41.1078 340.286 -25.7008 268.578 29.8088 190.947C79.0612 122.066 136.484 126.773 178.613 154.726C196.557 166.631 248.291 156.195 292.319 86.1037C352.371 -9.47776 560.518 48.4933 522.564 195.549C504.199 266.714 578.458 269.3 540.618 340.437L41.1078 340.286" fill="#D9E9FE"/>
<path d="M582.871 245.105C578.163 227.741 548.854 233.168 548.854 233.168C548.854 233.168 528.949 263.554 523.162 264.277C517.375 265.001 535.104 234.977 535.104 234.977C523.885 233.89 495.299 247.638 495.299 247.638C495.299 247.638 497.108 283.089 491.321 282.364C485.528 281.642 491.321 250.893 491.321 250.893C480.464 254.149 470.33 266.81 470.33 266.81C457.665 287.429 484.804 302.623 484.804 302.623C484.804 302.623 485.166 314.921 477.57 329.029C477.57 329.029 475.852 331.634 474.11 336.061H477.07C477.311 335.269 477.576 334.501 477.872 333.765C477.872 333.76 477.878 333.755 477.878 333.753C477.884 333.741 477.884 333.731 477.89 333.719C478.095 333.264 478.384 332.613 478.746 331.819C478.746 331.819 478.746 331.819 478.752 331.817C478.752 331.814 478.752 331.814 478.752 331.814C479.656 330.044 480.265 328.736 480.657 327.793C480.657 327.79 480.657 327.786 480.657 327.783C483.363 322.229 487.27 314.994 489.874 313.474C489.874 313.474 489.542 313.014 489.241 312.117C489.44 312.551 489.651 313.002 489.874 313.474C494.938 324.327 520.268 326.135 534.38 323.242C548.492 320.349 542.344 316.368 534.742 309.909C527.146 303.451 511.22 305.154 506.518 302.623C501.81 300.089 508.688 297.558 518.098 298.28C527.502 299.005 532.21 308.41 547.407 309.857C562.604 311.303 574.185 282.727 574.185 282.727C563.69 285.982 544.875 280.195 544.152 276.577C543.423 272.959 571.291 273.321 575.631 272.237C579.978 271.15 587.573 262.467 582.871 245.105" fill="#7DB6FD"/>
<path d="M183.416 249.842C183.416 249.842 184.71 260.157 182.773 260.279C180.841 260.402 182.163 248.681 182.163 248.681C182.163 248.681 172.961 243.54 169.219 243.672C169.219 243.672 174.486 253.991 172.586 253.633C170.678 253.276 164.696 242.791 164.696 242.791C164.696 242.791 155.086 240.397 153.175 246.059C151.257 251.721 153.601 254.756 155.021 255.205C156.437 255.651 165.686 256.1 165.371 257.285C165.057 258.47 158.699 260.006 155.288 258.712C155.288 258.712 158.543 268.424 163.612 268.254C168.684 268.084 170.436 265.061 173.572 265.013C176.704 264.965 178.933 265.944 177.322 266.687C175.711 267.431 170.465 266.544 167.813 268.53C165.162 270.517 163.041 271.712 167.662 272.959C172.282 274.207 180.721 274.123 182.622 270.627C182.705 270.474 182.784 270.329 182.86 270.19C182.737 270.481 182.622 270.627 182.622 270.627C183.453 271.184 184.601 273.662 185.385 275.56C185.497 275.881 185.671 276.327 185.934 276.934C186.043 277.21 186.126 277.434 186.184 277.59C187.578 281.817 186.27 288.89 186.27 288.89L187.249 289.219C189.908 282.174 186.386 276.035 186.386 276.035C184.153 271.203 184.522 267.131 184.522 267.131C184.522 267.131 193.832 262.645 190.053 255.548C190.053 255.548 186.95 251.143 183.416 249.842" fill="#AFCDFB"/>
<path d="M113.797 295.881C112.962 283.158 133.862 280.068 133.862 280.068C133.862 280.068 154.189 295.876 158.238 295.032C162.282 294.187 143.501 278.125 143.501 278.125C150.773 274.821 173.097 277.479 173.097 277.479C173.097 277.479 180.029 301.666 183.745 299.852C187.46 298.038 176.517 278.749 176.517 278.749C184.543 278.439 194.245 284.603 194.245 284.603C207.473 295.524 192.762 311.939 192.762 311.939C192.762 311.939 195.347 320.269 203.68 327.985C203.68 327.985 205.433 329.341 207.618 331.908L205.632 332.587C205.288 332.112 204.933 331.658 204.567 331.231C204.564 331.229 204.564 331.227 204.56 331.224C204.556 331.219 204.549 331.212 204.542 331.205C204.305 330.946 203.957 330.576 203.532 330.128C203.532 330.125 203.529 330.125 203.529 330.125C202.515 329.146 201.806 328.41 201.329 327.865C201.329 327.863 201.329 327.863 201.325 327.86C198.234 324.758 193.953 320.799 191.86 320.38C191.86 320.38 191.975 319.996 191.971 319.324C191.938 319.66 191.901 320.013 191.86 320.38C190.954 328.82 174.383 335.847 164.257 337.145C154.13 338.443 157.339 334.365 160.951 328.29C164.564 322.215 175.633 319.701 178.206 316.922C180.78 314.147 175.589 314.026 169.444 316.671C163.303 319.314 162.305 326.702 152.448 331.159C142.591 335.62 128.261 319.115 128.261 319.115C136.043 318.887 147.335 310.689 146.991 308.096C146.643 305.505 128.043 312.143 124.881 312.412C121.72 312.681 114.629 308.604 113.797 295.881" fill="#7DB6FD"/>
<path d="M505.226 67.6879C505.226 67.6879 503 66.0062 502.42 63.4935C501.995 61.6289 503.066 59.2885 503.155 59.1825L500.167 58.5878C500.167 58.5878 499.283 62.5477 500.78 65.1813C501.238 65.9879 502.569 67.0988 503.431 67.514C504.37 67.9717 505.226 67.6879 505.226 67.6879" fill="#6D89D0"/>
<path d="M510.409 65.872L513.128 68.9782C513.128 68.9782 505.45 71.0178 501.066 65.5874C501.066 65.5874 507.529 67.7718 510.409 65.872Z" fill="#3A4ACE"/>
<path d="M370.432 26.8789C370.432 26.8789 373.207 22.2818 378.09 25.0947L380.77 22.1813C380.77 22.1813 377.976 20.33 372.06 24.3572C368.186 26.9917 370.432 26.8789 370.432 26.8789" fill="#FB7369"/>
<path d="M367.698 31.3877C367.698 31.3877 366.762 26.3764 375.015 22.6795C375.015 22.6795 372.058 24.358 371.439 29.4528L367.698 31.3877" fill="#FB7369"/>
<path d="M199.504 176.081C199.504 176.081 194.963 174.293 196.748 169.493L193.733 167.535C193.733 167.535 192.496 170.318 196.997 175.009C199.942 178.075 199.504 176.081 199.504 176.081Z" fill="#5685D8"/>
<path d="M203.956 177.852C203.956 177.852 199.608 179.443 195.048 172.612C195.048 172.612 196.999 175.009 201.655 174.793L203.956 177.852Z" fill="#739AF0"/>
<path d="M212.578 113.186C212.578 113.186 215.081 111.605 215.344 109.695C215.344 109.695 217.782 109.825 218.309 110.617C218.309 110.617 217.192 113.779 215.871 114.372C215.871 114.372 212.906 114.568 212.578 113.186Z" fill="#3A4ACE"/>
<path d="M48.204 227.464C48.204 227.464 45.5338 225.778 45.251 223.738C45.251 223.738 42.6514 223.88 42.0885 224.722C42.0885 224.722 43.285 228.095 44.6881 228.729C44.6881 228.729 47.8532 228.94 48.204 227.464Z" fill="#3A4ACE"/>
<path d="M347.549 78.5534C347.549 78.5534 343.818 76.197 343.426 73.352C343.426 73.352 339.791 73.5487 339.007 74.7265C339.007 74.7265 340.675 79.4387 342.643 80.3213C342.643 80.3213 347.062 80.6164 347.549 78.5534" fill="#3A4ACE"/>
<path d="M576.655 67.5986L599.847 140.202C600.874 143.405 599.09 146.866 595.882 147.887L468.48 188.569C465.272 189.59 461.808 187.806 460.788 184.603L437.595 112C436.568 108.797 438.353 105.337 441.56 104.313L568.962 63.634C572.17 62.6109 575.628 64.395 576.655 67.5986Z" fill="#CDE0FB"/>
<path d="M503.385 159.889L469.425 170.731C467.989 171.189 466.436 170.39 465.978 168.953L465.878 168.627C465.414 167.192 466.215 165.639 467.652 165.182L501.611 154.339C503.042 153.881 504.595 154.68 505.053 156.117L505.158 156.444C505.617 157.878 504.816 159.43 503.385 159.889" fill="#AFCDFB"/>
<path d="M548.127 145.602L514.174 156.444C512.736 156.902 511.187 156.103 510.729 154.666L510.625 154.339C510.167 152.903 510.967 151.353 512.4 150.894L546.358 140.052C547.791 139.594 549.345 140.393 549.804 141.83L549.908 142.157C550.366 143.591 549.566 145.144 548.127 145.602Z" fill="#AFCDFB"/>
<path d="M506.153 121.565C505.904 120.79 505.61 120.166 505.261 119.693C504.74 118.988 504.17 118.734 503.554 118.93C502.923 119.132 502.601 119.667 502.59 120.536C502.574 121.121 502.69 121.807 502.939 122.592C503.615 124.703 504.491 125.586 505.571 125.243C506.192 125.044 506.508 124.502 506.519 123.619C506.53 123.043 506.403 122.357 506.153 121.565V121.565ZM507.71 121.075C508.109 122.311 508.215 123.395 508.037 124.324C507.81 125.495 507.134 126.26 505.998 126.622C504.862 126.984 503.865 126.755 503.006 125.929C502.319 125.277 501.781 124.331 501.388 123.094C500.989 121.858 500.878 120.78 501.055 119.862C501.277 118.691 501.958 117.923 503.1 117.558C504.247 117.193 505.245 117.424 506.109 118.247C506.779 118.894 507.317 119.837 507.71 121.075" fill="#AFCDFB"/>
<path d="M513.129 119.337C512.878 118.562 512.582 117.938 512.236 117.466C511.716 116.761 511.141 116.506 510.527 116.703C509.896 116.905 509.578 117.439 509.566 118.308C509.55 118.894 509.667 119.58 509.918 120.364C510.594 122.475 511.465 123.358 512.543 123.015C513.168 122.816 513.481 122.274 513.492 121.391C513.503 120.815 513.38 120.131 513.129 119.337V119.337ZM514.687 118.848C515.084 120.086 515.19 121.168 515.011 122.096C514.788 123.267 514.106 124.035 512.973 124.394C511.839 124.757 510.84 124.527 509.98 123.701C509.293 123.049 508.757 122.103 508.36 120.865C507.964 119.63 507.858 118.552 508.031 117.634C508.249 116.463 508.935 115.695 510.08 115.33C511.219 114.966 512.219 115.196 513.085 116.019C513.755 116.667 514.291 117.61 514.687 118.848" fill="#AFCDFB"/>
<path d="M523.694 115.964C523.446 115.19 523.146 114.565 522.802 114.093C522.276 113.388 521.711 113.133 521.096 113.33C520.463 113.532 520.141 114.066 520.13 114.935C520.113 115.52 520.231 116.207 520.48 116.991C521.158 119.102 522.033 119.985 523.112 119.642C523.734 119.443 524.05 118.901 524.056 118.018C524.067 117.442 523.948 116.756 523.694 115.964V115.964ZM525.253 115.475C525.649 116.71 525.756 117.795 525.575 118.724C525.355 119.894 524.671 120.659 523.536 121.022C522.406 121.384 521.406 121.154 520.548 120.328C519.864 119.676 519.322 118.73 518.926 117.492C518.531 116.257 518.418 115.177 518.593 114.261C518.819 113.09 519.497 112.322 520.644 111.958C521.785 111.593 522.785 111.821 523.649 112.646C524.321 113.294 524.858 114.237 525.253 115.475Z" fill="#AFCDFB"/>
<path d="M530.661 113.737C530.416 112.962 530.12 112.339 529.773 111.866C529.249 111.161 528.68 110.907 528.065 111.103C527.434 111.305 527.115 111.84 527.098 112.708C527.087 113.293 527.2 113.98 527.451 114.764C528.128 116.876 529.005 117.758 530.08 117.415C530.706 117.216 531.019 116.674 531.025 115.791C531.037 115.216 530.917 114.532 530.661 113.737V113.737ZM532.22 113.248C532.619 114.486 532.727 115.568 532.545 116.496C532.323 117.667 531.646 118.435 530.507 118.795C529.375 119.158 528.379 118.927 527.519 118.101C526.83 117.449 526.295 116.504 525.897 115.266C525.504 114.03 525.39 112.953 525.567 112.034C525.789 110.863 526.472 110.095 527.61 109.73C528.754 109.366 529.756 109.596 530.621 110.42C531.293 111.067 531.828 112.01 532.22 113.248" fill="#AFCDFB"/>
<path d="M537.634 111.514C537.387 110.737 537.089 110.113 536.745 109.643C536.223 108.937 535.649 108.681 535.036 108.877C534.405 109.079 534.084 109.614 534.073 110.482C534.055 111.071 534.176 111.754 534.422 112.539C535.099 114.65 535.976 115.533 537.054 115.189C537.68 114.991 537.989 114.448 538.001 113.565C538.006 112.99 537.886 112.306 537.634 111.514V111.514ZM539.193 111.022C539.589 112.26 539.698 113.342 539.52 114.271C539.297 115.442 538.614 116.209 537.479 116.572C536.349 116.932 535.351 116.701 534.485 115.876C533.803 115.223 533.264 114.278 532.868 113.043C532.473 111.804 532.364 110.727 532.536 109.808C532.759 108.638 533.442 107.87 534.589 107.505C535.724 107.14 536.728 107.371 537.593 108.194C538.264 108.842 538.798 109.784 539.193 111.022" fill="#AFCDFB"/>
<path d="M544.607 109.288C544.358 108.51 544.064 107.887 543.717 107.416C543.191 106.711 542.625 106.457 542.007 106.651C541.377 106.853 541.054 107.388 541.042 108.256C541.025 108.844 541.146 109.528 541.395 110.312C542.071 112.424 542.949 113.309 544.023 112.963C544.647 112.765 544.965 112.222 544.971 111.339C544.982 110.763 544.861 110.08 544.607 109.288ZM546.167 108.796C546.559 110.034 546.669 111.116 546.49 112.044C546.265 113.216 545.589 113.983 544.457 114.345C543.318 114.708 542.319 114.475 541.458 113.652C540.776 112.997 540.233 112.054 539.841 110.816C539.448 109.578 539.332 108.501 539.505 107.582C539.731 106.411 540.412 105.643 541.556 105.279C542.694 104.914 543.7 105.144 544.561 105.97C545.236 106.615 545.768 107.558 546.167 108.796Z" fill="#AFCDFB"/>
<path d="M555.174 105.914C554.928 105.136 554.63 104.513 554.286 104.043C553.76 103.337 553.193 103.083 552.58 103.277C551.949 103.479 551.622 104.014 551.61 104.882C551.598 105.47 551.715 106.154 551.961 106.938C552.638 109.05 553.515 109.932 554.595 109.59C555.215 109.39 555.53 108.848 555.542 107.965C555.548 107.39 555.425 106.706 555.174 105.914V105.914ZM556.734 105.422C557.131 106.66 557.236 107.742 557.061 108.67C556.833 109.841 556.155 110.609 555.022 110.971C553.888 111.331 552.89 111.101 552.031 110.276C551.341 109.623 550.804 108.678 550.407 107.442C550.009 106.204 549.904 105.127 550.074 104.208C550.301 103.037 550.979 102.269 552.124 101.905C553.269 101.54 554.268 101.771 555.133 102.594C555.805 103.241 556.336 104.184 556.734 105.422" fill="#AFCDFB"/>
<path d="M562.145 103.687C561.898 102.91 561.604 102.286 561.256 101.816C560.733 101.111 560.162 100.856 559.55 101.051C558.92 101.252 558.597 101.787 558.585 102.656C558.567 103.244 558.685 103.927 558.938 104.712C559.609 106.823 560.486 107.709 561.568 107.363C562.186 107.164 562.504 106.622 562.51 105.738C562.522 105.163 562.398 104.479 562.145 103.687ZM563.705 103.195C564.099 104.434 564.211 105.516 564.028 106.444C563.805 107.615 563.128 108.382 561.992 108.745C560.862 109.107 559.862 108.875 559.003 108.052C558.314 107.396 557.779 106.454 557.378 105.215C556.984 103.978 556.872 102.901 557.049 101.982C557.272 100.811 557.955 100.043 559.097 99.6784C560.238 99.3137 561.239 99.5437 562.104 100.367C562.775 101.014 563.31 101.957 563.705 103.195Z" fill="#AFCDFB"/>
<path d="M569.119 101.461C568.87 100.684 568.574 100.06 568.23 99.5893C567.702 98.8842 567.133 98.6299 566.523 98.8267C565.889 99.0281 565.568 99.5632 565.557 100.429C565.539 101.017 565.657 101.701 565.906 102.485C566.582 104.597 567.459 105.482 568.538 105.136C569.161 104.937 569.475 104.397 569.481 103.512C569.493 102.936 569.368 102.253 569.119 101.461ZM570.678 100.969C571.069 102.207 571.182 103.289 571.004 104.217C570.779 105.388 570.097 106.156 568.965 106.518C567.833 106.881 566.831 106.648 565.972 105.825C565.29 105.173 564.75 104.227 564.353 102.989C563.956 101.751 563.843 100.674 564.015 99.7552C564.247 98.5843 564.922 97.8163 566.066 97.4519C567.21 97.0869 568.212 97.3174 569.078 98.1428C569.747 98.7905 570.281 99.7309 570.678 100.969Z" fill="#AFCDFB"/>
<path d="M576.087 99.2352C575.842 98.4599 575.544 97.8362 575.203 97.3635C574.678 96.6586 574.105 96.4038 573.49 96.6007C572.863 96.8024 572.541 97.3372 572.523 98.2033C572.511 98.7912 572.63 99.4776 572.875 100.259C573.556 102.371 574.433 103.256 575.508 102.911C576.135 102.712 576.445 102.172 576.451 101.287C576.463 100.711 576.344 100.027 576.087 99.2352V99.2352ZM577.651 98.7434C578.045 99.9813 578.153 101.063 577.974 101.992C577.747 103.163 577.072 103.931 575.938 104.293C574.803 104.655 573.806 104.425 572.941 103.599C572.26 102.947 571.717 102.002 571.323 100.763C570.929 99.5253 570.815 98.448 570.988 97.5318C571.215 96.3584 571.896 95.5908 573.036 95.2262C574.182 94.8615 575.186 95.0919 576.045 95.9167C576.72 96.5649 577.251 97.5055 577.651 98.7434" fill="#AFCDFB"/>
<path d="M484.362 102.876L451.136 113.486C449.697 113.944 448.15 113.145 447.685 111.708C447.231 110.273 448.031 108.721 449.464 108.263L482.696 97.6532C484.135 97.1952 485.682 97.9944 486.141 99.4316C486.601 100.866 485.8 102.418 484.362 102.876" fill="#AFCDFB"/>
<path d="M565.08 83.2315C564.774 82.2815 564.167 81.5163 563.395 81.0027C563.171 80.8543 562.864 80.9355 562.747 81.1753L562.641 81.3844C562.54 81.5835 562.599 81.8279 562.788 81.9528C563.342 82.3274 563.784 82.8864 564.002 83.5726C564.225 84.2611 564.19 84.9709 563.949 85.5994C563.872 85.8085 563.966 86.0435 564.161 86.1489L564.367 86.2573C564.608 86.3816 564.903 86.2714 564.997 86.0193C565.327 85.1558 565.38 84.1793 565.08 83.2315" fill="#AFCDFB"/>
<path d="M567.229 82.543C566.733 80.9835 565.694 79.7454 564.394 78.9654C564.17 78.8337 563.886 78.9222 563.768 79.1525L563.709 79.2706C563.603 79.4814 563.679 79.7359 563.88 79.8581C564.973 80.5153 565.835 81.5521 566.249 82.8571C566.668 84.1596 566.568 85.5059 566.06 86.6721C565.965 86.8905 566.048 87.142 566.261 87.2525L566.373 87.3151C566.603 87.4349 566.887 87.3387 566.993 87.1037C567.601 85.7125 567.731 84.1024 567.229 82.543" fill="#AFCDFB"/>
<path d="M569.118 81.941C568.45 79.8564 567.047 78.2079 565.283 77.1907C565.058 77.0635 564.774 77.1522 564.661 77.3806C564.549 77.5913 564.626 77.8505 564.833 77.9682C566.413 78.8753 567.668 80.3505 568.266 82.2126C568.858 84.0765 568.692 86.0055 567.929 87.6587C567.834 87.8747 567.917 88.1286 568.13 88.2416C568.355 88.3593 568.639 88.2682 568.745 88.0351C569.592 86.183 569.781 84.0262 569.118 81.941" fill="#AFCDFB"/>
<path d="M571.163 81.2875C570.314 78.6317 568.511 76.5393 566.25 75.2748C566.025 75.1503 565.74 75.2363 565.628 75.4646L565.527 75.6687C565.42 75.8822 565.497 76.1413 565.705 76.2588C567.722 77.3933 569.33 79.258 570.089 81.6303C570.848 84.0009 570.617 86.4551 569.632 88.5475C569.531 88.7634 569.614 89.0225 569.828 89.1328L570.03 89.2408C570.255 89.3582 570.534 89.2645 570.647 89.0344C571.756 86.6929 572.011 83.9434 571.163 81.2875" fill="#AFCDFB"/>
<path d="M485.423 339.506H412.886V130.64H485.423V339.506Z" fill="#F2564B"/>
<path d="M412.887 339.506H221.253V130.64H412.887V339.506Z" fill="#FB7369"/>
<path d="M221.253 247.431V232.813H412.887V247.431H221.253" fill="#293EB7"/>
<path d="M412.886 247.431V232.813H485.423V247.431H412.886Z" fill="#293EB7"/>
<path d="M353.379 132.877C353.379 132.877 396.672 104.756 426.102 113.791L420.032 119.46L422.767 128.985C422.767 128.985 390.038 118.33 352.482 134.479L353.379 132.877" fill="#FB7369"/>
<path d="M350.956 126.509C350.956 126.509 343.318 125.585 331.936 124.021C301.708 119.863 245.095 111.168 234.935 103.121C218.963 90.4819 256.802 36.7989 273.182 29.3474C289.557 21.9033 350.956 126.509 350.956 126.509" fill="#FB7369"/>
<path d="M470.74 59.6596C473.469 72.9582 349.833 130.414 349.833 130.414C349.833 130.414 352.082 124.335 355.742 114.813C355.742 114.813 355.747 114.805 355.753 114.796C369.121 80.0238 401.325 -0.669059 411.901 0.447902C412.967 0.55816 414.208 0.937943 415.599 1.54623C431.85 8.69541 468.226 47.4114 470.74 59.6596" fill="#FB7369"/>
<path d="M414.555 13.3725C407.007 26.4841 356.544 113.442 355.75 114.796C369.12 80.0241 401.321 -0.668899 411.899 0.448025C411.899 0.448025 413.996 0.388124 415.599 1.54647C417.526 2.95136 418.724 6.13244 414.555 13.3725" fill="#F2564B"/>
<path d="M331.952 124.021H331.934C301.709 119.863 245.094 111.169 234.934 103.122C230.345 90.202 242.248 89.1489 250.914 88.242C259.571 87.3325 331.952 124.021 331.952 124.021Z" fill="#F2564B"/>
<path d="M327.9 130.623C327.9 130.623 334.83 114.863 348.469 113.99C362.719 113.078 370.81 130.623 370.81 130.623H327.9Z" fill="#F2564B"/>
<path d="M415.962 159.367H215.444V130.639H415.962V159.367Z" fill="#3A4ACE"/>
<path d="M491.538 159.368H415.962V130.64H491.538V159.368Z" fill="#293EB7"/>
<path d="M334.921 128.234C334.921 128.234 295.648 115.799 269.145 124.021C238.6 133.498 240.409 171.178 240.409 171.178L247.596 168.224L257.296 172.773C257.296 172.773 258.926 132.875 283.834 127.289C305.37 122.459 334.921 128.234 334.921 128.234" fill="#FB7369"/>
<path d="M314.775 339.484H300.152V130.64H314.775V339.484Z" fill="#293EB7"/>
<path d="M193.488 106.597L180.064 111.096L167.098 72.437L180.526 67.9394L193.488 106.597" fill="#F2564B"/>
<path d="M180.061 111.096L144.593 122.979L131.63 84.3202L167.099 72.436L180.061 111.096Z" fill="#FB7369"/>
<path d="M138.881 105.938L137.973 103.232L173.438 91.3486L174.346 94.0549L138.881 105.938Z" fill="#293EB7"/>
<path d="M174.346 94.0542L173.438 91.3481L186.864 86.8495L187.772 89.5556L174.346 94.0542Z" fill="#3A4ACE"/>
<path d="M157.305 75.0564C157.305 75.0564 166.526 66.4784 174.732 65.8143L173.561 67.3348L174.921 68.8658C174.921 68.8658 165.753 69.495 157.186 75.4199L157.305 75.0564" fill="#293EB7"/>
<path d="M155.381 75.5147C155.381 75.5147 153.909 75.8152 151.704 76.2304C145.852 77.3376 134.833 79.2381 132.453 78.3806C128.715 77.0304 132.385 64.7498 134.955 62.3531C137.525 59.9598 155.381 75.5147 155.381 75.5147" fill="#3A4ACE"/>
<path d="M173.405 55.7098C174.733 58.0021 155.417 76.3054 155.417 76.3054C155.417 76.3054 155.456 75.0405 155.54 73.0522C155.54 73.0522 155.54 73.0487 155.543 73.0452C155.858 65.784 156.808 48.8504 158.839 48.3997C159.042 48.3542 159.297 48.3473 159.591 48.3752C163.044 48.6897 172.178 53.5992 173.405 55.7098" fill="#3A4ACE"/>
<path d="M160.13 50.6291C159.548 53.5248 155.601 72.749 155.54 73.0488C155.854 65.7857 156.808 48.8507 158.835 48.401C158.835 48.401 159.221 48.2614 159.589 48.3772C160.032 48.5169 160.451 49.0313 160.13 50.6291Z" fill="#293EB7"/>
<path d="M151.711 76.228H151.708C145.855 77.3345 134.836 79.2391 132.455 78.3774C130.804 76.2716 132.944 75.3394 134.491 74.6319C136.037 73.9277 151.711 76.228 151.711 76.228Z" fill="#293EB7"/>
<path d="M151.367 77.7039C151.367 77.7039 151.67 74.3585 154.142 73.3488C156.72 72.2983 159.308 75.0453 159.308 75.0453L151.367 77.7039Z" fill="#293EB7"/>
<path d="M169.448 77.562L132.338 89.9983L130.555 84.6818L167.668 72.248L169.448 77.562Z" fill="#F2564B"/>
<path d="M183.441 72.8752L169.452 77.561L167.67 72.2437L181.66 67.5571L183.441 72.8752Z" fill="#F2564B"/>
<path d="M152.521 76.8252C152.521 76.8252 144.479 76.9596 140.085 80.1229C135.016 83.7732 137.69 90.6338 137.69 90.6338L138.839 89.6431L140.919 89.8849C140.919 89.8849 138.742 82.3997 143.005 79.8207C146.693 77.5909 152.521 76.8252 152.521 76.8252Z" fill="#293EB7"/>
<path d="M162.011 117.512L159.305 118.419L146.233 79.4311L148.94 78.5223L162.011 117.512Z" fill="#293EB7"/>
<path d="M414.404 152.796C414.404 152.796 409.096 155.925 412.353 161.98C412.353 161.98 407.703 161.131 406.698 159.745C406.698 159.745 406.819 160.32 406.991 160.613C406.991 160.613 402.714 159.644 401.32 157.863C399.922 156.081 406.774 134.726 417.883 140.256C417.883 140.256 428.042 142.139 424.063 153.413C420.084 164.687 423.846 165.683 423.846 165.683C423.846 165.683 422.659 165.92 422.16 165.788C422.16 165.788 421.493 165.311 421.458 164.864C421.458 164.864 421.432 165.543 421.569 165.798C421.569 165.798 417.408 165.107 415.787 163.039C414.166 160.973 413.197 155.02 414.404 152.796" fill="#293EB7"/>
<path d="M406.737 170.947C406.732 170.949 406.727 170.951 406.718 170.954C406.684 170.949 406.693 170.947 406.737 170.947Z" fill="#FC9490"/>
<path d="M419.642 167.232C419.797 168.631 419.982 169.884 420.067 170.481C420.252 171.82 407.548 170.949 406.738 170.946C407.303 170.702 409.023 165.236 409.569 163.151C410.234 160.623 410.749 157.89 410.749 157.89L419.722 158.459L420.257 158.49C419.927 159.713 419.692 160.867 419.527 161.94C419.507 162.084 419.482 162.23 419.467 162.372C419.307 163.562 419.447 165.507 419.642 167.232" fill="#FC9490"/>
<path d="M409.511 156.988C409.511 156.988 408.06 152.375 408.354 148.841C408.561 146.315 412.16 137.704 420.8 141.367C420.8 141.367 423.343 142.315 425.36 144.62C426.958 146.454 429.02 150.043 423.808 157.007L422.292 159.426L409.511 156.988" fill="#293EB7"/>
<path d="M419.639 167.233C413.362 165.395 410.703 158.15 410.703 158.15C413.357 158.226 416.815 160.069 419.524 161.94C419.504 162.084 419.484 162.231 419.464 162.372C419.304 163.562 419.449 165.508 419.639 167.233Z" fill="#FF8585"/>
<path d="M420.081 164.688C420.081 164.688 408.746 161.886 410.598 154.854C412.45 147.822 412.238 142.726 419.556 144.216C426.874 145.708 427.565 148.76 427.52 151.257C427.469 153.755 423.079 165.235 420.081 164.688Z" fill="#FC9490"/>
<path d="M424.745 145.405C424.745 145.405 419.469 152.833 414.405 152.797C409.335 152.761 407.615 150.947 407.615 150.947C407.615 150.947 412.021 149.02 414.113 144.176C414.113 144.176 423.452 140.863 424.745 145.405Z" fill="#293EB7"/>
<path d="M423.803 145.871C423.803 145.871 425.62 148.323 425.711 150.264C425.797 152.202 425.074 155.954 426.187 156.113C426.187 156.113 429.998 151.123 428.222 147.26C426.334 143.162 423.803 145.871 423.803 145.871" fill="#293EB7"/>
<path d="M424.157 146.265C424.157 146.265 419.663 154.319 412.947 155.499C412.947 155.499 420.336 151.778 422.357 146.212C424.373 140.643 424.157 146.265 424.157 146.265Z" fill="#293EB7"/>
<path d="M418.314 160.179C418.314 160.179 418.459 161.249 419.141 161.503C419.824 161.755 421.635 162.213 421.82 162.1C422.006 161.988 422.683 161.153 422.683 161.153C422.683 161.153 419.824 160.056 418.314 160.179" fill="white"/>
<path d="M414.08 267.746C413.935 268.347 413.795 268.943 413.65 269.533C412.796 273.084 412.002 276.378 411.497 279.132C410.848 282.719 410.693 285.387 411.547 286.507C415.069 291.124 411.547 327.75 411.547 327.75L407.54 331.877C407.54 331.877 400.576 295.715 398.687 290.049C397.828 287.474 396.574 276.471 395.47 265.24C395.41 264.679 395.36 264.118 395.305 263.556C395.11 261.592 394.931 259.634 394.751 257.724C393.761 247.098 393.017 237.997 393.017 237.997C393.017 237.997 400.406 232.806 407.121 232.228C411.077 231.882 414.794 233.139 416.633 237.997C419.311 245.068 416.598 257.273 414.08 267.746" fill="#FC9490"/>
<path d="M414.08 267.746C408.589 263.782 400.866 256.728 398.063 245.164C397.523 239.416 402.06 233.952 407.121 232.227C411.077 231.882 414.794 233.139 416.633 237.997C419.311 245.068 416.598 257.273 414.08 267.746" fill="#FF8585"/>
<path d="M434.105 197.902L461.091 204.869V208.019C461.091 208.019 434.236 207.705 432.503 204.713C430.77 201.724 434.105 197.902 434.105 197.902Z" fill="#FC9490"/>
<path d="M461.087 301.721L459.826 306.927C459.826 306.927 423.323 288.082 418.602 284.461C416.706 283.007 414.2 275.109 411.879 266.177C408.423 252.861 405.376 237.245 405.376 237.245C405.376 237.245 410.492 217.571 424.19 229.611C432.389 236.815 431.112 250.702 430.214 261.501C429.621 268.744 429.19 274.603 431.906 276.121C437.21 279.079 452.767 292.705 457.689 302.081L461.087 301.721" fill="#FC9490"/>
<path d="M399.165 214.269C389.633 211.846 379.156 197.06 379.156 197.06L381.838 194.732C384.618 198.007 396.173 203.65 396.173 203.65C396.114 200.651 396.188 197.919 396.38 195.431C397.664 178.519 404.037 172.883 405.779 171.647C406.06 171.446 406.222 171.362 406.222 171.362C406.222 171.362 406.227 171.487 406.237 171.719C406.262 172.221 406.311 173.233 406.36 174.622C406.709 184.972 407.133 216.299 399.165 214.269" fill="#FC9490"/>
<path d="M406.715 193.975C406.223 206.038 404.417 217.986 399.16 217.216C392.723 216.278 391.044 210.268 390.705 205.8C390.488 203.019 390.798 200.836 390.798 200.836C390.798 200.836 393.968 200.822 394.48 200.349C396.916 198.101 396.192 176.055 397.398 173.766C398.599 171.475 406.42 170.006 406.42 170.006C406.42 170.006 407.207 182.048 406.715 193.975" fill="white"/>
<path d="M406.714 193.975C406.222 206.039 404.417 217.987 399.159 217.217C392.721 216.278 391.043 210.268 390.699 205.801C392.283 205.722 395.067 205.335 396.174 203.649C397.757 201.236 402.696 185.693 402.696 185.693C402.696 185.693 404.639 189.182 406.714 193.975" fill="#DFEBFD"/>
<path d="M447.347 197.901C449.093 200.38 448.129 205.185 444.468 209.056C442.195 211.457 439.113 212.88 434.106 212.141C431.92 211.819 425.815 208.374 425.172 204.173C425.059 203.41 424.996 202.966 424.996 202.966C424.996 202.966 422.215 205.747 422.112 206.273C422.065 206.51 421.827 208.612 421.786 208.897C421.744 209.245 421.993 210.521 421.993 210.521C421.993 210.521 408.715 216.327 397.741 209.715C397.741 209.715 394.608 182.906 396.856 178.446C397.974 176.23 404.24 171.913 406.421 170.006C406.913 169.577 407.41 168.283 407.275 167.45C407.161 166.747 407.974 165.56 408.653 165.776C409.963 166.196 413.676 168.034 416.286 167.333C417.586 166.988 419.238 165.483 420.501 165.829C422.039 166.249 420.413 169.958 421.288 170.006C422.49 170.066 428.994 171.366 429.538 172.415C429.725 172.779 431.599 177.727 433.94 184.271C433.94 184.271 433.94 184.276 433.94 184.289C438.337 196.567 444.784 194.264 447.347 197.901Z" fill="white"/>
<path d="M424.995 202.966C424.995 202.966 424.673 192.738 423.848 192.863C423.018 192.988 411.09 204.463 413.927 209.055C416.76 213.645 424.995 202.966 424.995 202.966Z" fill="#DFEBFD"/>
<path d="M434.106 244.9C434.106 244.9 429.507 246.318 422.737 247.256C414.354 248.415 402.634 248.832 392.166 244.9C392.166 244.9 391.301 229.329 393.783 221.213C396.261 213.094 397.42 209.209 397.42 209.209C397.42 209.209 407.36 211.699 417.452 209.768C418.866 209.5 420.29 209.14 421.684 208.674C421.684 208.674 427.91 221.887 429.624 227.549C431.334 233.211 434.106 244.9 434.106 244.9" fill="#3A4ACE"/>
<path d="M434.106 244.9C434.106 244.9 429.508 246.318 422.737 247.256C410.321 240.217 416.374 210.598 416.374 210.598C416.745 210.299 417.106 210.023 417.452 209.768C418.866 209.5 420.291 209.14 421.684 208.674C421.684 208.674 427.91 221.887 429.625 227.549C431.334 233.211 434.106 244.9 434.106 244.9" fill="#293EB7"/>
<path d="M407.975 212.141C400.61 212.141 397.578 209.608 397.352 209.435L396.881 205.97C396.946 206.023 406.827 211.952 422.112 206.273L421.786 208.898C415.911 211.083 411.795 212.141 407.975 212.141Z" fill="#FB7369"/>
<path d="M461.087 204.869C461.087 204.869 466.036 202.432 468.007 202.197C469.972 201.959 473.281 201.88 473.281 202.197C473.281 202.511 469.738 204.711 468.795 204.869C467.847 205.03 466.036 206.366 466.59 206.525C467.138 206.681 470.052 206.014 470.09 206.525C470.132 207.036 468.321 207.351 468.007 207.744C467.692 208.137 466.59 208.61 464.816 208.375C463.047 208.137 461.087 208.019 461.087 208.019V204.869" fill="#FC9490"/>
<path d="M381.834 194.725L379.146 197.072C379.146 197.072 374.366 193.579 374.137 192.149V192.005C374.137 190.517 377.173 187.427 379.69 187.312C379.947 187.312 380.176 187.369 380.376 187.484C381.72 188.324 381.877 191.82 381.868 193.629C381.863 194.288 381.834 194.725 381.834 194.725" fill="#FC9490"/>
<path d="M461.087 301.721L459.826 306.927C459.826 306.927 423.323 288.082 418.602 284.461C416.705 283.007 414.2 275.109 411.879 266.177C414.993 266.815 421.721 267.156 430.214 261.501C429.621 268.744 429.19 274.603 431.905 276.121C437.21 279.079 452.767 292.705 457.689 302.081L461.087 301.721" fill="#3A4ACE"/>
<path d="M468.306 303.744C468.306 303.744 468.29 303.742 468.269 303.734C468.109 303.693 467.358 303.446 466.862 302.254C466.532 301.467 466.43 300.821 466.132 300.044L464.901 297.918C463.612 296.22 463.159 296.618 463.159 296.618C463.159 296.618 462.823 297.05 462.322 297.621C461.501 298.559 460.239 299.872 459.349 300.207C458.715 300.445 458.315 300.841 458.075 301.205C457.761 301.666 457.691 302.081 457.691 302.081C457.691 302.081 460.34 302.542 460.111 303.844C459.658 306.368 459.764 306.826 459.812 306.911L459.828 306.928C459.828 306.928 464.342 309.289 465.786 309.754C468.354 310.574 469.692 312.321 470.528 313.118C470.864 313.441 471.333 313.59 471.791 313.516C472.468 313.41 473.347 313.192 473.539 312.777L468.306 303.744" fill="#293EB7"/>
<path d="M411.551 286.508C415.07 291.124 411.551 327.75 411.551 327.75L407.541 331.877C407.541 331.877 400.573 295.716 398.684 290.049C397.825 287.474 396.572 276.472 395.469 265.241C398.809 266.731 406.954 269.974 413.654 269.533C412.799 273.084 411.999 276.378 411.497 279.132C410.851 282.719 410.697 285.387 411.551 286.508" fill="#293EB7"/>
<path d="M415.577 333.712L413.415 334.883C412.627 335.161 411.979 335.24 411.187 335.545C409.976 336.008 409.129 336.917 409.089 337.081C408.476 339.561 407.609 339.403 407.609 339.403L398.927 339.484C398.513 339.281 399.211 337.527 399.54 337.201C400.362 336.39 402.819 336.797 403.716 334.254C404.225 332.827 406.716 328.383 406.716 328.383L406.731 328.369C406.816 328.323 407.28 328.232 409.791 328.753C411.087 329.022 411.625 326.389 411.625 326.389C411.625 326.389 412.039 326.471 412.488 326.795C412.846 327.049 413.23 327.457 413.449 328.098C413.758 329 415.034 330.298 415.946 331.147C416.504 331.661 416.928 332.011 416.928 332.011C416.928 332.011 417.312 332.474 415.577 333.712" fill="#293EB7"/>
<path d="M328.259 339.77H291.367V233.549H328.259V339.77Z" fill="#4A75CB"/>
<path d="M291.369 339.77H193.914V233.549H291.369V339.77Z" fill="#739AF0"/>
<path d="M193.914 292.944V285.509H291.369V292.944H193.914Z" fill="#AFCDFB"/>
<path d="M291.367 292.944V285.509H328.259V292.944H291.367Z" fill="#88B3FF"/>
<path d="M265.003 231.916C265.003 231.916 294.885 218.358 315.71 223.509L311.55 226.292L313.647 231.203C313.647 231.203 290.477 225.164 264.406 232.717L265.003 231.916" fill="#4A75CB"/>
<path d="M259.886 231.395C259.886 231.395 256.004 230.925 250.211 230.128C234.838 228.015 206.05 223.593 200.883 219.5C192.759 213.072 212.005 185.771 220.33 181.983C228.659 178.197 259.886 231.395 259.886 231.395Z" fill="#72A9F7"/>
<path d="M320.802 197.398C322.188 204.161 259.315 233.381 259.315 233.381C259.315 233.381 260.459 230.289 262.316 225.447C262.316 225.447 262.32 225.443 262.325 225.438C269.123 207.755 285.496 166.717 290.877 167.285C291.418 167.34 292.052 167.535 292.756 167.844C301.023 171.479 319.521 191.169 320.802 197.398" fill="#72A9F7"/>
<path d="M292.223 173.857C288.383 180.527 262.724 224.75 262.322 225.438C269.119 207.756 285.494 166.718 290.874 167.286C290.874 167.286 291.94 167.255 292.756 167.845C293.737 168.558 294.346 170.178 292.223 173.857Z" fill="#4A75CB"/>
<path d="M250.219 230.129H250.211C234.836 228.015 206.046 223.593 200.88 219.5C198.544 212.931 204.601 212.396 209.007 211.933C213.412 211.47 250.219 230.129 250.219 230.129" fill="#4A75CB"/>
<path d="M248.159 233.487C248.159 233.487 251.684 225.471 258.62 225.028C265.866 224.564 269.982 233.487 269.982 233.487H248.159Z" fill="#4A75CB"/>
<path d="M292.934 248.158H190.959V233.549H292.934V248.158Z" fill="#88B3FF"/>
<path d="M331.369 248.158H292.933V233.549H331.369V248.158" fill="#3969B7"/>
<path d="M251.717 232.326C251.717 232.326 231.744 226.002 218.269 230.181C202.735 235.001 203.652 254.164 203.652 254.164L207.306 252.664L212.238 254.977C212.238 254.977 213.071 234.685 225.736 231.844C236.687 229.387 251.717 232.326 251.717 232.326Z" fill="#4A75CB"/>
<path d="M241.472 340.686H234.033V233.549H241.472V340.686Z" fill="#AFCDFB"/>
<path d="M75.895 189.932C75.895 189.932 103.36 210.056 110.08 209.572C116.8 209.087 140.597 194.409 140.597 194.409L135.563 188.425C135.563 188.425 114.013 196.407 110.067 194.207C106.12 192.007 90.7052 173.327 84.2415 174.322C77.7713 175.321 71.3833 182.698 75.895 189.932" fill="#293EB7"/>
<path d="M59.6951 341.142H51.4831C50.4476 340.581 49.5292 339.297 49.2362 337.383C48.8342 334.736 45.8699 333.294 45.2279 331.133C44.5887 328.969 47.874 325.924 47.874 325.924L48.4239 325.216L48.9961 324.482L54.4475 325.766C54.4475 325.766 54.5815 327.064 54.6624 328.714C54.721 329.907 54.7546 331.286 54.6876 332.496C54.5257 335.379 55.4914 338.486 58.0594 339.048C59.9519 339.461 59.8682 340.586 59.6951 341.142" fill="#293EB7"/>
<path d="M107.349 341.142H88.5704C87.6673 340.041 87.9971 335.977 88.1358 334.648C88.1635 334.381 88.182 334.225 88.182 334.225C88.182 334.225 94.5958 329.098 95.4773 333.023C95.502 333.146 95.5359 333.268 95.5729 333.386C96.6824 337.059 101.66 338.729 104.536 339.192C106.4 339.494 107.094 340.466 107.349 341.142Z" fill="#293EB7"/>
<path d="M103.774 236.351C103.774 236.351 102.801 248.498 101.653 263.097C100.099 282.927 98.229 307.289 98.0453 311.903C97.724 319.916 96.4388 332.735 96.4388 332.735C96.4388 332.735 93.397 335.779 87.3043 334.496C87.3043 334.496 81.8725 316.197 80.3241 296.838C80.2996 296.521 80.2751 296.2 80.2507 295.881C78.8093 276.171 76.5663 234.669 76.5663 234.669L103.774 236.351Z" fill="#FB7369"/>
<path d="M103.774 236.351C103.774 236.351 102.801 248.498 101.653 263.097L80.3241 296.838C80.2996 296.521 80.2751 296.199 80.2507 295.88C78.8093 276.171 76.5663 234.669 76.5663 234.669L103.774 236.351Z" fill="#F2564B"/>
<path d="M99.3259 237.796C99.3259 237.796 81.7748 281.781 70.2318 302.45C58.6949 323.12 55.0858 328.89 55.0858 328.89C55.0858 328.89 48.4742 326.246 47.8737 324.441C47.8737 324.441 52.2865 284.538 60.0172 274.809C64.3814 269.312 69.513 252.818 69.7526 247.05C69.9922 241.28 71.3145 229.864 71.3145 229.864L99.3259 237.796" fill="#FB7369"/>
<path d="M87.7543 175.169C81.2056 178.137 68.7244 173.758 68.7244 173.758C68.7244 173.758 74.4348 168.293 72.9243 158.538L78.7029 162.146L82.6243 164.596C82.6243 164.596 82.8139 166.295 82.7843 169.32C82.7754 170.114 82.7517 171.004 82.7043 171.976C85.8202 173.228 87.7543 175.169 87.7543 175.169" fill="#FC9490"/>
<path d="M82.623 164.597C82.623 164.597 82.8135 166.296 82.7813 169.321C78.7358 169.12 73.4707 163.259 73.4707 163.259C75.4172 162.431 77.1703 162.114 78.7006 162.148L82.623 164.597" fill="#FF8585"/>
<path d="M84.6867 164.183C84.6867 164.183 73.6683 167.405 71.7648 160.514C69.8642 153.622 67.1585 149.394 74.1153 147.045C81.0721 144.697 83.171 146.947 84.3669 149.095C85.5629 151.239 87.5079 163.168 84.6867 164.183" fill="#FC9490"/>
<path d="M104.456 232.021C104.8 235.198 104.959 237.177 104.883 237.254C104.699 237.451 104.472 237.583 104.199 237.614C101.64 237.89 94.3523 240.205 87.9659 240.32C82.5857 240.45 77.6871 239.442 72.359 237.784C71.6504 237.564 70.0063 236.925 69.9511 236.172C69.8744 235.349 69.813 234.145 69.7333 232.633C69.4603 227.374 69.0063 218.327 67.1474 208.048C66.807 206.134 66.5186 204.226 66.2855 202.345C64.5402 188.325 65.8377 175.65 70.9234 170.798C71.3621 170.398 74.4663 171.477 77.319 172.483C79.96 173.411 82.463 173.246 84.7574 172.485L87.3616 174.282C90.5487 176.595 94.1191 179.831 96.1436 185.155C97.8675 189.685 99.5638 198.022 100.99 206.703C101.637 210.637 102.254 214.608 102.745 218.389L102.76 218.523C102.84 218.895 102.892 219.305 102.935 219.682C103.027 220.352 103.113 221.011 103.199 221.662C103.729 225.7 104.159 229.301 104.456 232.021" fill="#3A4ACE"/>
<path d="M71.6742 159.838C71.6742 159.838 72.806 159.507 72.4258 157.941C72.0515 156.374 71.802 154.296 73.1417 154.527C74.4815 154.759 74.6686 155.786 75.1261 155.117C75.5865 154.45 75.2865 151.904 79.1127 151.263C82.9389 150.62 84.6618 151.772 86.3551 150.769C88.0484 149.769 87.8167 147.05 87.8167 147.05C87.8167 147.05 87.4245 148.08 86.6937 148.478C86.6937 148.478 89.1861 144.039 85.3956 141.657C81.6021 139.277 78.3017 141.532 76.3173 141.895C71.9445 142.691 69.1284 143.298 68.0411 146.364C66.9509 149.433 68.5134 157.393 71.6742 159.838" fill="#3A4ACE"/>
<path d="M104.455 232.022C103.915 232.123 94.5139 233.809 88.1218 229.601C81.5457 225.268 73.8359 199.582 73.8359 199.582C73.8359 199.582 88.6151 216.012 88.9001 216.66C89.1391 217.204 99.7998 220.592 103.198 221.662C103.728 225.7 104.16 229.301 104.455 232.022Z" fill="#293EB7"/>
<path d="M182.088 222.665L108.982 223.706L107.941 150.624L181.047 149.582L182.088 222.665" fill="#F2564B"/>
<path d="M166.487 222.887L93.3833 223.926L92.3429 150.843L165.447 149.805L166.487 222.887" fill="#FB7369"/>
<path d="M148.628 197.571C148.581 194.296 146.728 191.465 143.939 191.506C141.015 191.547 139.52 194.356 139.568 197.701C139.612 200.976 141.464 203.807 144.254 203.766C147.181 203.725 148.676 200.846 148.628 197.571ZM132.248 197.804C132.15 190.906 136.883 185.263 143.99 185.162C151.029 185.062 155.85 190.498 155.948 197.466C156.046 204.296 151.316 210.009 144.206 210.109C137.164 210.21 132.35 204.771 132.248 197.804V197.804ZM118.302 173.051C118.255 169.777 116.402 166.945 113.613 166.986C110.686 167.027 109.195 169.836 109.242 173.181C109.286 176.456 111.139 179.287 113.928 179.246C116.855 179.205 118.35 176.326 118.302 173.051ZM142.249 160.794L150.542 160.676L115.621 209.958L107.325 210.076L142.249 160.794ZM101.922 173.284C101.824 166.386 106.554 160.743 113.664 160.643C120.703 160.542 125.521 165.981 125.622 172.948C125.717 179.776 120.99 185.489 113.877 185.59C106.838 185.69 102.024 180.254 101.922 173.284Z" fill="white"/>
<path d="M129.167 226.238C126.7 226.193 123.535 225.132 122.518 224.626C120.801 223.774 119.928 222.947 119.928 222.947L120.191 221.322L120.502 219.384C120.502 219.384 120.691 219.353 121.009 219.321C121.324 219.288 121.765 219.254 122.272 219.244C122.272 219.244 123.083 219.492 123.755 218.892C124.424 218.292 125.658 217.884 126.596 218.11C127.531 218.333 129.544 218.124 129.605 218.45C129.765 219.242 126.833 219.098 126.492 219.595C126.18 220.041 126.463 220.346 126.521 220.401C126.525 220.403 126.528 220.406 126.534 220.411C128.248 222.138 134.151 222.767 133.917 224.139C133.826 224.652 130.209 226.258 129.167 226.238" fill="#FC9490"/>
<path d="M69.3394 189.739C69.3394 189.739 82.8606 220.987 88.9019 223.964C94.9431 226.941 122.519 224.626 122.519 224.626L122.7 219.293C122.7 219.293 98.9515 214.593 96.6614 210.699C94.3682 206.805 90.5186 182.899 84.436 180.49C78.3504 178.081 69.1075 181.217 69.3394 189.739" fill="#3A4ACE"/>
<path d="M547.528 273.388C547.229 273.57 546.929 273.748 546.618 273.919C546.512 273.976 546.406 274.034 546.3 274.087C546.06 274.216 545.825 274.338 545.584 274.458C534.012 280.137 519.908 275.778 513.616 264.374C507.619 253.498 510.844 240.027 520.683 232.954C521.47 232.39 522.299 231.865 523.162 231.387C523.473 231.217 523.791 231.051 524.102 230.895C524.413 230.744 524.719 230.598 525.03 230.461C525.982 230.037 526.951 229.679 527.926 229.389C529.371 228.952 530.845 228.657 532.32 228.501C536.896 228.017 541.501 228.852 545.584 230.848C549.913 232.966 553.661 236.39 556.163 240.932C562.466 252.366 558.583 266.668 547.528 273.388" fill="#FB7369"/>
<path d="M535.01 232.098C531.52 232.098 528.053 232.993 524.984 234.687C520.114 237.369 516.583 241.786 515.039 247.125C513.49 252.463 514.121 258.082 516.805 262.947C520.464 269.588 527.451 273.712 535.045 273.712C538.53 273.712 541.997 272.817 545.072 271.124C549.942 268.442 553.473 264.024 555.017 258.686C556.56 253.348 555.934 247.729 553.251 242.861C549.591 236.222 542.599 232.098 535.01 232.098V232.098ZM535.045 275.032C526.971 275.032 519.541 270.646 515.647 263.585C512.794 258.41 512.128 252.434 513.77 246.758C515.407 241.081 519.167 236.383 524.341 233.53C527.609 231.731 531.298 230.779 535.01 230.779C543.078 230.779 550.515 235.164 554.408 242.225C557.261 247.4 557.928 253.377 556.285 259.053C554.642 264.73 550.889 269.425 545.709 272.28C542.441 274.079 538.752 275.032 535.045 275.032Z" fill="#F2564B"/>
<path d="M535.031 236.616L539.905 246.5L550.82 248.086L542.923 255.78L544.791 266.647L535.031 261.517L525.265 266.647L527.127 255.78L519.236 248.086L530.145 246.5L535.031 236.616" fill="#F2564B"/>
<path d="M562.088 214.298C561.916 214.401 561.744 214.5 561.572 214.596C561.513 214.629 561.454 214.66 561.395 214.692C561.258 214.763 561.122 214.833 560.986 214.9C554.458 218.105 546.497 215.646 542.948 209.212C539.56 203.072 541.379 195.469 546.935 191.477C547.379 191.158 547.841 190.862 548.333 190.594C548.511 190.495 548.688 190.404 548.866 190.315C549.038 190.229 549.21 190.147 549.387 190.07C549.926 189.831 550.471 189.629 551.016 189.463C551.84 189.217 552.669 189.051 553.504 188.964C556.087 188.691 558.682 189.161 560.986 190.289C563.432 191.484 565.547 193.415 566.957 195.98C570.517 202.434 568.325 210.505 562.088 214.298" fill="#FB7369"/>
<path d="M555.016 190.992C553.049 190.992 551.094 191.499 549.357 192.454C546.609 193.968 544.619 196.463 543.744 199.474C542.876 202.487 543.23 205.659 544.743 208.406C546.81 212.154 550.757 214.481 555.04 214.481C557.007 214.481 558.963 213.975 560.7 213.02C563.447 211.506 565.438 209.013 566.312 206C567.187 202.986 566.826 199.815 565.314 197.069C563.246 193.322 559.306 190.992 555.016 190.992ZM555.04 215.224C550.485 215.224 546.285 212.749 544.093 208.763C542.48 205.844 542.102 202.47 543.029 199.268C543.957 196.064 546.078 193.414 549.002 191.804C550.845 190.786 552.925 190.249 555.016 190.249C559.571 190.249 563.772 192.724 565.97 196.71C567.577 199.63 567.955 203.003 567.027 206.206C566.1 209.411 563.979 212.062 561.06 213.672C559.211 214.687 557.131 215.224 555.04 215.224Z" fill="#F2564B"/>
<path d="M555.028 193.543L557.781 199.124L563.941 200.018L559.481 204.361L560.54 210.494L555.028 207.598L549.521 210.494L550.568 204.361L546.115 200.018L552.274 199.124L555.028 193.543" fill="#F2564B"/>
<path d="M326.954 36.7254C326.851 36.8483 326.749 36.9693 326.642 37.0886C326.606 37.1287 326.571 37.1687 326.535 37.2079C326.455 37.2982 326.37 37.3868 326.281 37.474C322.208 41.6349 315.534 41.8988 311.14 37.9827C306.942 34.2474 306.292 28.0183 309.421 23.5223C309.671 23.1636 309.947 22.8165 310.245 22.4822C310.347 22.3621 310.459 22.245 310.57 22.1311C310.677 22.0198 310.788 21.9113 310.9 21.8062C311.242 21.4822 311.599 21.1849 311.973 20.9134C312.525 20.5088 313.108 20.1622 313.713 19.8742C315.592 18.9792 317.68 18.6432 319.724 18.8804C321.887 19.1314 323.997 20.0286 325.752 21.5881C330.159 25.5153 330.653 32.1974 326.954 36.7254" fill="#CDE0FB"/>
<path d="M318.554 20.4644C318.372 20.4644 318.185 20.4697 318.003 20.4803C315.495 20.625 313.19 21.7378 311.516 23.6139C309.847 25.4897 309.008 27.9042 309.15 30.4124C309.292 32.9206 310.406 35.2224 312.284 36.8935C314.162 38.5651 316.573 39.4062 319.086 39.261C321.595 39.1163 323.899 38.0032 325.569 36.1275C327.243 34.2517 328.082 31.8372 327.935 29.329C327.793 26.8208 326.679 24.5189 324.801 22.8474C323.065 21.2997 320.862 20.4644 318.554 20.4644ZM318.531 39.874C316.076 39.874 313.736 38.9854 311.889 37.3392C309.891 35.562 308.71 33.1141 308.555 30.4466C308.399 27.7795 309.292 25.2118 311.072 23.2171C312.848 21.2215 315.299 20.0387 317.968 19.8847C320.632 19.7289 323.202 20.6245 325.2 22.4022C327.194 24.1794 328.379 26.6268 328.53 29.2948C328.686 31.9619 327.793 34.5296 326.013 36.5242C324.237 38.5194 321.786 39.7031 319.118 39.8567C318.922 39.8682 318.727 39.874 318.531 39.874" fill="#AFCDFB"/>
<path d="M316.092 22.9251L319.66 26.406L324.553 25.4406L322.341 29.9094L324.774 34.2617L319.841 33.5425L316.45 37.1978L315.606 32.2848L311.084 30.1915L315.496 27.8743L316.092 22.9251" fill="#AFCDFB"/>
<path d="M294.844 332.291C294.665 332.512 294.481 332.728 294.289 332.939C294.225 333.011 294.161 333.083 294.097 333.153C293.947 333.316 293.798 333.472 293.648 333.628C286.367 341.061 274.446 341.533 266.596 334.537C259.102 327.865 257.935 316.74 263.528 308.71C263.977 308.066 264.464 307.447 264.998 306.85C265.186 306.637 265.383 306.426 265.579 306.224C265.772 306.025 265.968 305.831 266.169 305.643C266.78 305.065 267.417 304.532 268.083 304.048C269.07 303.326 270.113 302.707 271.194 302.191C274.548 300.593 278.278 299.993 281.923 300.418C285.79 300.867 289.563 302.467 292.691 305.252C300.57 312.267 301.455 324.204 294.844 332.291" fill="#CDE0FB"/>
<path d="M279.836 303.25C279.508 303.25 279.181 303.256 278.849 303.276C274.364 303.535 270.253 305.524 267.265 308.873C264.28 312.225 262.779 316.536 263.039 321.018C263.298 325.497 265.283 329.61 268.638 332.594C271.988 335.581 276.303 337.08 280.784 336.824C285.265 336.565 289.376 334.576 292.364 331.227C295.353 327.875 296.854 323.564 296.594 319.082C296.335 314.602 294.35 310.49 290.995 307.505C287.892 304.742 283.959 303.25 279.836 303.25V303.25ZM279.793 337.918C275.406 337.918 271.227 336.33 267.928 333.391C264.361 330.216 262.248 325.843 261.976 321.078C261.7 316.313 263.298 311.728 266.474 308.165C269.645 304.603 274.02 302.489 278.786 302.213C283.551 301.935 288.138 303.535 291.705 306.709C295.268 309.883 297.385 314.257 297.661 319.022C297.933 323.784 296.339 328.372 293.159 331.934C289.984 335.497 285.613 337.611 280.847 337.887C280.495 337.908 280.142 337.918 279.793 337.918Z" fill="#AFCDFB"/>
<path d="M275.439 307.644L281.81 313.86L290.551 312.136L286.604 320.118L290.947 327.894L282.134 326.607L276.078 333.138L274.576 324.362L266.496 320.622L274.378 316.483L275.439 307.644" fill="#AFCDFB"/>
<path d="M574.253 341.008H0.166941C0.152669 341.008 0.137817 340.994 0.137817 340.979V339.511C0.137817 339.496 0.152669 339.484 0.166941 339.484H574.253C574.264 339.484 574.276 339.496 574.276 339.511V340.979C574.276 340.994 574.264 341.008 574.253 341.008Z" fill="#2E3552"/>
<path d="M356.308 205.864C356.308 205.864 353.593 207.716 350.574 207.412C348.329 207.186 346.121 205.111 346.034 204.974L344.25 208.079C344.25 208.079 348.334 210.557 351.837 209.878C352.911 209.669 354.649 208.604 355.437 207.805C356.304 206.925 356.308 205.864 356.308 205.864" fill="#6D89D0"/>
<path d="M356.233 199.397L360.721 197.538C360.721 197.538 360.105 206.865 352.394 209.716C352.394 209.716 357.267 203.332 356.233 199.397" fill="#3A4ACE"/>
<path d="M387.733 310.909C387.733 310.909 389.693 313.128 391.624 313.085C391.624 313.085 391.88 315.513 391.185 316.159C391.185 316.159 387.883 315.557 387.086 314.35C387.086 314.35 386.42 311.454 387.733 310.909Z" fill="#FB7369"/>
<path d="M356.973 280.387C356.973 280.387 355.197 278.233 355.225 275.656C355.243 273.744 356.826 271.717 356.936 271.633L354.173 270.361C354.173 270.361 352.392 274.006 353.236 276.916C353.495 277.808 354.528 279.197 355.266 279.8C356.074 280.464 356.973 280.387 356.973 280.387" fill="#CDE0FB"/>
<path d="M362.44 279.828L364.359 283.48C364.359 283.48 356.42 283.677 353.415 277.376C353.415 277.376 359.192 281.004 362.44 279.828" fill="#CDE0FB"/>
</svg>
