<svg xmlns="http://www.w3.org/2000/svg" viewBox="0 0 1455.8 2097.37"><g id="Layer_2" data-name="Layer 2"><g id="Layer_1-2" data-name="Layer 1"><path d="M318,1031.64a9.4,9.4,0,0,1,1.45,1.36c19.32,27.74,41.37,53.24,64.22,78.07q12.08,13.11,24.26,26.12c11.38,12.14,25,20.86,40.42,27q40.9,16.47,81.76,33.09c22.61,9.19,45.92,16.11,69.4,22.68,16.85,4.71,33.42,10.57,49.77,16.82,12.84,4.91,25.37,10.79,37.67,17,26.26,13.16,53.36,16.27,82.26,10.65,29.43-5.73,58.12-13.59,85.85-24.85,6.18-2.51,12.5-6.21,17.06-11,18.24-19.12,36.51-38.29,53.43-58.56,15.3-18.32,23.75-40.52,28.35-63.77q7.62-38.44,13.06-77.3c3.8-26.76,6.81-53.64,9.45-80.55,1.68-17.13,2.17-34.39,3-51.6,1-20,1.24-40.11,2.66-60.11,2.22-31.27,5.78-62.45,7.52-93.73.94-16.84-.73-33.83-1.24-50.75-.7-23.52-2.46-46.88-9.33-69.58-5.64-18.63-11.12-37.3-16.65-56q-14.88-50.21-29.68-100.43c-.95-3.23-2.57-3.87-5.53-3.31C881,471.71,835,481.12,790.51,496.53c-5,1.74-10.07,3.4-13.66,7.91-2.43,3-3.09,5.59-.22,8.54.72.74,1.27,1.64,1.93,2.44,6,7.24,7.15,15.44,4.93,24.34-2.88,11.52-6.46,22.92-8.45,34.59a168.4,168.4,0,0,0,1.1,62.49c.29,1.4.75,2.76,1.47,5.36,1.69-2.36,2.69-3.87,3.8-5.28,10.7-13.67,21.05-27.64,32.25-40.89,11.57-13.66,27.58-19.41,44.8-21.39,19.62-2.25,39.33-3.59,59-5.43,4.58-.43,9.12-1.29,13.68-1.92,1.36-.19,2.74-.28,4.11-.42.13.42.26.85.38,1.27a18.21,18.21,0,0,1-3.14,1.39c-12.68,3.17-25.5,5.83-38,9.54-11.78,3.49-18.9,12.16-22.73,23.7-2.23,6.72-4.6,13.41-7.17,20a12.32,12.32,0,0,1-3.58,4.45c-3,2.52-6.26,2.33-7.9-1.06-5.49-11.3-14-20.21-22.27-29.35-3.07-3.39-2.55-5.07,1.91-6.1,16.06-3.7,32.16-7.23,48.25-10.78,9.57-2.11,19.15-4.14,28.72-6.24a33.72,33.72,0,0,0,3.52-1.29,9.52,9.52,0,0,0-2.3-.8c-22.71,1.06-45.39,2.2-67.58,7.88-14.07,3.6-24.81,12.11-33.54,23.09-10.51,13.24-20.26,27.07-30.33,40.66a12.21,12.21,0,0,0-1,2l-1.62-.39a65.6,65.6,0,0,1-2.05-6.76c-5.95-30.33-4.66-60.29,4.68-89.82.72-2.27,1.34-4.57,2-6.84,3.59-11.76.36-21.61-8.82-30.33a27.21,27.21,0,0,0-2.39,2.78c-19.14,29.46-24.74,62-21.49,96.41.49,5.17,1.05,10.35,1.77,15.49a93.5,93.5,0,0,0,9.12,29.62C773,681.66,779.32,710.09,785,738.71q6.81,34.08,14.53,68c5.42,23.52,17.25,42.82,38.57,55.45,16.49,9.76,16.2,26.67,5.1,39.89a11.83,11.83,0,0,1-6.79,3.72c-14.22,2.12-26.53,8.58-38,16.65-2.11,1.49-3.14,5.56-3.35,8.53-1.06,14.73-.48,29.38,3.62,43.73,2,7,3.74,14,5.8,21.7,2.79-1.42,5-2.5,7.12-3.64,3.25-1.73,6.72-2.4,9.66,0,8.43,7,18.54,7.73,28.66,7.59,15-.22,30-1.17,45-1.75,5.78-.22,11.57-.37,17.36-.32a4.26,4.26,0,0,1,3.11,1.78c.38.6-.34,2.13-.91,3-8.35,13.49-17.39,26.6-25,40.51-7.33,13.45-17.17,22.41-32.19,26.55-21.89,6-43.5,13.12-65.21,19.85-18.28,5.67-35.94,4.79-53.18-4a88.57,88.57,0,0,0-17.42-6.74c-20-5.27-40-10.18-60.07-15-2.59-.62-5.52,0-8.28.26a40.11,40.11,0,0,0-4.43.83c-.2-.42-.39-.84-.59-1.25,1.16-.93,2.27-1.91,3.47-2.76,16.59-11.85,35.61-18.21,54.79-24.17,15-4.66,29.52-10.35,42.26-19.58,5.56-4,10.13-9.5,14.78-14.66,2.25-2.48,4.32-4.14,7.85-4.07,8.9.17,17.81,0,26.71.07,4.86,0,5.32-.59,4.16-5.48-2.94-12.27-6.65-24.44-8.44-36.88-1.33-9.27-.16-18.9-.11-28.38,0-1,0-2,0-3.24a16.63,16.63,0,0,0-3.55,0,41.74,41.74,0,0,1-27-2.69c-8-3.62-16-5.42-24.63-3.33-.87.21-1.89-.18-4.11-.44,5.34-5.57,10-10.4,14.92-15.6-5.52-4-11.23-6.17-17.11-5.24-6.8,1.07-13.48,3.33-20,5.69-3.85,1.4-4.37,4.13-1.75,7.46,2.45,3.13,5.52,5.78,8.33,8.64,3,3,2.91,4.88-1.13,6.11-6.32,1.94-12.82,4-19.35,4.4-9.77.66-16.36-5-18.6-14.49-3.76-16,6-36.48,20.47-45.8a13.14,13.14,0,0,1,2.76-.85c-4,3.71-7.6,6.59-10.6,10-8.37,9.55-12.89,20.63-11.54,33.52,1.12,10.68,7.92,16.45,18.63,16.3,6.81-.1,15.17-2.63,19.67-6.2-1.07-1.16-2.1-2.31-3.17-3.42-2-2-4.14-3.87-5.91-6.05-4.43-5.46-3.66-8.78,2.72-11.77,10.84-5.08,21.89-7.61,33.47-2.21,5,2.35,5.46,4.09,1.44,8.12-2.8,2.81-5.89,5.33-8.86,8,.25.47.49,1,.73,1.43a16.38,16.38,0,0,0,3.55.15c6.45-1.11,12.3.57,18.14,3.14,9.43,4.16,19.27,6.54,29.44,3.24a55.27,55.27,0,0,0,14-6.54,67.83,67.83,0,0,1,28.72-11.49c9.23-1.34,12.4-7.94,15-15.14,2.72-7.55,1.41-14.77-4.07-20.77a36.68,36.68,0,0,0-8-6.36c-20.54-12.5-32.46-31.21-37.72-54.07-7.26-31.55-13.39-63.36-20.44-95a303.5,303.5,0,0,0-22.19-63.37c-4.32-9.17-6.06-19.84-7.46-30-3.44-24.94-3.57-50,4.9-74,4.16-11.81,10.7-22.78,16.13-34.15.89-1.85,1.5-3.83,2.43-5.66a18.34,18.34,0,0,1,3-4.75c3.74-3.77,8-7,11.52-11,13.4-15.34,29.88-26.11,48.62-33.71,20.45-8.31,41.21-15.53,63.54-16.21,6.93-.21,13.89.9,20.84,1.43,1.72.13,3.43.36,5.94.63-.53-2.2-.79-3.74-1.27-5.21-8.66-26.7-17.84-53.25-25.9-80.14C891,333.43,883,309.62,872.36,286.87c-12.08-25.95-19.94-53.07-25.74-80.9-6.06-29-20.46-53.72-39.7-75.71-21.34-24.39-43.57-48-68.17-69.15a333.15,333.15,0,0,0-51.67-36.38C665.77,12.48,642.53,7.14,618.37,4.41c-65.18-7.36-129.25-.13-192.93,13.68-43.25,9.38-85,23.66-126.52,38.5C280.18,63.28,261.44,70,242.77,76.9a273,273,0,0,0-67.61,36.52c-27.31,20.1-54.18,40.68-77.53,65.47a200.78,200.78,0,0,0-48.89,87.83c-5.84,22.11-13.25,43.8-19,65.93a390.44,390.44,0,0,0-12,78.73c-1.41,27,3.55,53,13.47,78,13.62,34.39,27.52,68.67,41.25,103a113.65,113.65,0,0,1,4.92,13.86c4.14,16.18,13.37,29,25.77,39.75,17.39,15.07,29.55,34,40.1,54.11,11.47,21.84,22.21,44.09,38.77,62.77.25.28.24.78-.21,1.73-1-1.08-2.07-2.13-3-3.25-13-15.09-22.84-32.26-31.32-50.13-4.78-10.06-11.75-18-19.81-25.25a13.61,13.61,0,0,1-1.25-1.27c-18-21.54-41.39-32-69.21-33-2.82-.1-5.64-.27-8.46-.49-11.93-.92-21.49,3.43-27.51,13.75C5.82,691.24-2.48,719.06,3.92,749.79c2.77,13.29,9.28,24.77,17.87,35,16.9,20.14,34.63,39.61,51.12,60.07,19.19,23.82,37.44,48.41,56.08,72.68,10.22,13.31,19.77,27.3,33.54,37.32,14.49,10.53,30.65,16.75,48.82,13.91C229,966,241.59,955,251.42,940.67c1-1.44,1.09-4.66.14-6a40.81,40.81,0,0,0-8.89-9.76c-8-5.87-16.4-11.27-24.84-16.54-3-1.85-6.51-2.81-9.82-4.09-9.69-3.74-19.54-7.11-29.06-11.24s-17-11.19-23.89-19c-14.73-16.72-29.79-33.15-44.34-50-12-14-12.3-28.58-1-43.28a59.21,59.21,0,0,1,12-11.8c8.17-5.91,16.82-11.18,25.44-16.44,1.64-1,4.49-1.49,6-.71,1.07.54,1.46,3.79,1.07,5.59-2.24,10.45-4.94,20.81-7.23,31.25-2,9.22-2.72,18.44.07,27.76A31.31,31.31,0,0,0,158.39,833c9,6.8,18,13.59,27.18,20.2,5.3,3.82,7.79,8.37,5.51,14.91-1.69,4.87-.46,9.5,2.15,13.64,7.62,12.13,17.27,21.66,31.66,25.75a189.57,189.57,0,0,1,25,9.24c9.53,4.26,11,9.56,6.73,19a10.51,10.51,0,0,0-.79,5.09c1.08,11.68,2.32,23.34,3.5,35,0,.55-.06,1.12-1.14,1.81-.73-5.86-1.52-11.71-2.18-17.58s-1.2-11.73-1.79-17.59l-1.27-.38c-1.18,1.37-2.4,2.71-3.53,4.12-9.52,11.75-20.91,20.9-36.1,23.74-19.37,3.62-36.42-2.86-51.83-14-13.93-10.06-23.94-23.94-33.8-37.68a1356.3,1356.3,0,0,0-92-114.08c-6.82-7.63-13.08-15.79-19.21-24C3.14,762.41-2,742.17.71,720.15c2.62-21,8.4-41,20.91-58.56,5.89-8.24,14.07-12.36,24.12-11.89a280.92,280.92,0,0,1,29.7,2.63A60,60,0,0,1,92.68,658a216.28,216.28,0,0,1,23.4,13.77c3.6,2.4,6.33,6.13,9.41,9.3a55,55,0,0,0,9.07,8.14,24,24,0,0,0-1.13-2.82,141.19,141.19,0,0,0-29.78-37.52C90.32,637.07,81.19,623.07,75.26,606,66,579.37,54.49,553.53,44.37,527.19c-7.93-20.65-15.95-41.31-22.57-62.39-7-22.42-6.74-45.69-4.63-68.95,3.74-41.13,14.63-80.6,27.31-119.66,4.81-14.82,9.09-29.9,15.18-44.19,11.49-27,30.22-48.86,51.42-68.75,24.77-23.26,51.78-43.66,80-62.53,21.66-14.5,45.79-23.92,70.21-32.44C299,55.11,336.68,41.92,374.72,29.72,414.71,16.9,456,9.45,497.55,4c40.83-5.32,81.73-5,122.73-1.11,35.28,3.37,65.92,17.18,94.46,37.49,29.9,21.28,55,47.51,80.08,73.93,16.14,17,31,35,41.15,56.25a178.07,178.07,0,0,1,12,35.3c6.54,27.51,13.73,54.64,25.91,80.38,12.91,27.31,21.37,56.35,30.51,85.08C911.6,394,919,416.58,926.18,439.24c1,3.27,2.8,4.58,6.17,5.3,7.67,1.64,15.22,3.87,22.77,6,1.11.32,1.94,1.58,2.91,2.41-.93,1-1.66,2.65-2.8,3-5.33,1.81-10.72,3.52-16.19,4.82-5.93,1.41-6.08,1.22-4.28,7.25,7.48,25.05,15.1,50.06,22.53,75.13q12.23,41.22,24.19,82.53c5.91,20.57,7.75,41.73,8.18,63,.42,21.08,1.82,42.2.82,63.21-1.35,28.47-4.94,56.83-6.88,85.28-1.54,22.52-2.27,45.11-3,67.68-1.18,37.93-5.18,75.59-10.6,113.1-3.79,26.17-7.46,52.37-12.24,78.36-5.27,28.64-14.69,56-34,78.49-16.14,18.81-33.29,36.77-50.42,54.7-4.09,4.29-9.72,7.25-15,10.26-3.37,1.93-5.25,4-6,8-4.85,25-8.62,50.08-8.94,75.59-.48,37.74,1.4,75,15.29,111s37.55,62.38,72.24,79.25c28.4,13.82,58.35,23.61,87.72,34.93,60.14,23.17,120.79,45.15,178.21,74.81,43.57,22.5,86.58,45.93,126.57,74.6,39.37,28.24,72.39,62.06,94.93,105.24,12.64,24.23,25.32,48.8,29.74,76a633,633,0,0,1,7.11,70c2,39.09-1.85,78.1-3.77,117.13q-.65,13.37-1.36,26.71a7.3,7.3,0,0,1-1.32,4.27,30.17,30.17,0,0,1-.22-3.54c1.61-31.16,3.44-62.31,4.82-93.49a610,610,0,0,0-3.33-100.56c-3.06-25.28-11.24-48.64-21.4-71.81-16-36.44-37.59-68.79-66.43-96.11-25.34-24-54-43.8-83.84-61.72-41.43-24.86-83.84-48-128.2-67.18-34.62-15-69.78-28.72-104.89-42.51-30.42-12-61.24-22.87-91.62-34.88-23-9.09-45-20.25-63.07-37.78-14.78-14.36-24.77-31.74-32.37-50.7-10.13-25.25-14.86-51.49-16-78.64-1.56-36.56.68-72.76,8.25-108.59.38-1.8.4-3.68.68-6.36-2.42.75-4.08,1.2-5.69,1.78-30.27,10.92-61.22,19-93.23,23-19.16,2.39-37.32-1.08-54.87-8.32-8.91-3.68-17.26-8.73-26.19-12.33-17.74-7.14-35.58-14.12-53.64-20.4-13-4.52-26.63-7.35-39.71-11.75-20.12-6.76-40.15-13.84-60-21.47-22.86-8.8-45.32-18.66-68.18-27.47-19.49-7.51-35.47-19.6-49.41-34.84-26.78-29.28-53.66-58.46-77.15-90.53-2.13-2.9-4-6-6-9Zm352.73,32.29c1.57.54,3,1.15,4.43,1.52,8.92,2.26,18,4.15,26.76,6.78,12.5,3.72,25.38,6.82,37.12,12.29,17.73,8.25,35.22,9.53,53.65,3.75,22-6.89,43.92-13.79,66-20.17,12.5-3.6,21.38-11,27.71-22.11,7.17-12.66,14.69-25.11,22-37.67a28.86,28.86,0,0,0,1.32-3.09c-1.37.3-2.08.4-2.74.61q-13.78,4.38-27.57,8.78c-14.13,4.52-28.44,8.55-42.31,13.75-9.54,3.59-19.49,7.49-27.45,13.61-11.34,8.72-23.47,12-37.25,12-11.88,0-23.86-.53-35.62.77C714.86,1057.16,693,1060.75,670.69,1063.93ZM208,902.66l.61-1.12c-1.15-1.07-2.39-2.06-3.44-3.23-4.15-4.61-8.61-9-12.26-14-3.49-4.77-5.37-10.37-3.34-16.42,2-5.86-.11-9.94-4.91-13.39-8.8-6.31-17.42-12.89-26.15-19.32a34.47,34.47,0,0,1-13.25-19.46c-2.52-9.36-1.68-18.59.3-27.79,2.22-10.3,4.85-20.51,7.14-30.8.29-1.28-.38-2.77-.6-4.17-1.37.26-3,.13-4.07.82-9,5.72-18.12,11.36-26.85,17.52A49.49,49.49,0,0,0,111.4,781c-11.16,13.92-11.09,28.64.47,42,14.4,16.61,29.33,32.74,43.62,49.43C166,884.62,179,892.59,194,897.83,198.68,899.46,203.35,901.05,208,902.66Zm448.63,157.2.48,1.18c2.5-.57,5-1.18,7.52-1.72,17.26-3.74,34.36-8.75,51.82-10.92,28.13-3.49,56.48-5.13,84.75-7.49,7.94-.67,9.41-2.62,7.83-10.6-1.75-8.88-3.51-17.76-5-26.68-.47-2.82-2-3.19-4.3-3.18-9.21,0-18.41.13-27.61-.08-3.54-.08-5.73,1.31-7.76,4.09a60.08,60.08,0,0,1-8,8.94c-13.74,12.51-30.72,18.8-47.89,24.82-13.58,4.77-27,9.88-40.42,15.17C664,1055,660.43,1057.67,656.64,1059.86ZM783.85,496.51a33,33,0,0,0,4.09-.77c29.52-10.63,59.94-18,90.55-24.54,15.94-3.43,32-6.56,48-9.6,3.55-.67,4.62-2,3.33-5.35-.94-2.49-1.25-5.28-2.49-7.59-.91-1.7-2.78-3.91-4.38-4.05-10.29-.89-20.7-2.32-30.94-1.62-21.42,1.47-41.29,9.1-60.87,17.49a118.47,118.47,0,0,0-43.6,31.57C786.51,493.22,785.56,494.43,783.85,496.51Zm28,542.08c3.11-1.51,6-2.84,8.85-4.3a234.79,234.79,0,0,1,49.35-18.86c13-3.32,25.75-8,38.58-12.1a21.4,21.4,0,0,0,3.89-2.18l-.31-1.18a46.42,46.42,0,0,0-5.5-.35c-12.89.64-25.77,1.73-38.67,2-16.59.32-33.5,2.9-48.6-7.83-5.22-3.71-14.79,3.22-13.84,9.69C807.27,1015,809.64,1026.39,811.85,1038.59Zm17.72-445.86c2.59,3.11,4.22,4.92,5.69,6.85,6,7.88,12.1,15.65,17.76,23.75,3.27,4.66,6.05,5.38,8.9.46,3-5.19,5.94-10.81,7.06-16.6a39.92,39.92,0,0,1,12.25-22.11,28.55,28.55,0,0,0,2.37-2.86l-.66-1.41Zm-25,450c-45.52,4.78-91.81,3.12-136,18a8.42,8.42,0,0,0,4.08.78c7.66-.72,15.45-.92,23-2.46,21.74-4.48,43.6-7.09,65.83-6.65a203.38,203.38,0,0,0,23.55-.82A32.44,32.44,0,0,0,804.56,1042.72ZM955.7,454.37l-.11-2.69-27.06-6.74c.52,2.68.63,4,1,5.17,3.94,12,.88,10.87,13.83,8.16C947.57,457.4,951.6,455.7,955.7,454.37Zm-731.87,455c10,8.85,23.31,13.45,30.43,25.67,4.72-5.72,4.36-10.69-1.16-14.52C244.34,914.38,234,912,223.83,909.32Z"/><path d="M399.2,703.29c.75-.9,1.44-1.86,2.26-2.69,18.15-18.37,40.82-28.7,64.77-37,16.7-5.79,33.89-8.5,51.3-10.9,16.44-2.26,32.68-6.05,49-9.06,7.44-1.37,14.93-2.45,22.39-3.7,4-.67,5.76-3,5.65-7.14-.82-33.49,16-57.76,40.82-77.81l3.3-2.66-.33-1.31c-3.41.16-6.86,0-10.22.52a454.17,454.17,0,0,0-80.85,19.63c-18.31,6.19-37.21,8.9-56.5,9.33-15.89.35-31.94-.41-47.61,1.66-13.7,1.82-26.94,7-40.45,10.48-10.92,2.81-21.94,5.29-32.93,7.83a29.71,29.71,0,0,1-5,.3l-.49-1.13a26.73,26.73,0,0,1,3.25-3.06q30.8-20.9,61.63-41.72c8.11-5.51,16.84-8.54,26.78-8.13,9.64.4,19.3.26,28.95.6,26.14.94,52.29,1.94,78.24-2.32,18.89-3.11,37.7-6.76,56.55-10.09,7.75-1.37,15.53-2.57,23.31-3.78,2.07-.33,4.17-.41,6.26-.61l.12,1.2c-7.21,1.19-14.43,2.28-21.61,3.59q-23.23,4.21-46.42,8.63c-31.59,6-63.45,6.51-95.44,4.95-10.38-.5-20.79-.32-31.18-.6A37.86,37.86,0,0,0,432.08,555q-30.48,20.57-61,41.09a33.37,33.37,0,0,0-2.64,2.46c2.85-.25,4.51-.17,6-.58,15.5-4.1,31.17-7.66,46.4-12.61,16.3-5.3,32.92-6.05,49.73-6.1,21-.06,42-.22,62.4-5.63,11.76-3.11,23.18-7.57,35-10.44,19.89-4.82,39.94-9,60-13.09,4.58-.92,9.5-.14,14.27-.14l.51,1.18c-1.87,1.53-3.71,3.09-5.62,4.58-17.85,13.92-32.16,30.57-38.1,52.88-2.11,7.94-2.35,16.43-2.85,24.71-.28,4.67-2.14,7.29-6.56,8.08-7.59,1.36-15.24,2.46-22.82,3.87-15.47,2.87-30.89,6-46.38,8.8-12.12,2.15-24.53,3-36.43,6-21.39,5.34-42,13.17-60.82,24.84-4.65,2.88-8.74,6.67-13.08,10l.89,1.36c4.29-1.87,8.62-3.63,12.85-5.63,18.88-8.93,38.29-16.2,59.06-19.34,11.36-1.72,13.74-.6,19.61,9.17,5.06,8.44,11.52,14.55,22.1,15.1,9.27.49,13.76-3.25,13.93-12.44,0-1.48,0-3-.07-4.45-.22-5.34-1-10.72,3-15.29,6.21-7.16,12.92-13.57,22.36-16.22.35-.1.8.16,2.22.48-2.09.9-3.33,1.47-4.6,2-8.26,3.34-14.65,9.06-19.61,16.25-1.47,2.13-1.74,5.29-1.94,8-.27,3.69.31,7.43.1,11.12-.47,7.9-4.62,11.85-12.57,12.09-9.17.27-16.94-2.71-22.44-10.4a75.24,75.24,0,0,1-5.34-8.2c-2.47-4.62-6.17-6.93-11.29-6.14-7.62,1.18-15.32,2.21-22.73,4.24-22.45,6.13-43.59,15.53-63.9,26.84a9.19,9.19,0,0,1-1.91.57Z"/><path d="M256.91,1185.79c.9-8.3,1.77-16.61,2.71-24.91,3.35-29.65,6.56-59.27,7.11-89.18.54-29.14-3-57.77-7.67-86.37a12.47,12.47,0,0,1-.08-4.72,419.06,419.06,0,0,1,9.08,102.52c-1.18,34.51-6.34,68.55-9.64,102.8Z"/></g></g></svg>