<svg width="1167" height="385" viewBox="0 0 1167 385" fill="none" xmlns="http://www.w3.org/2000/svg">
<path d="M458.081 151.486C458.893 150.598 459.512 149.955 460.091 149.277C463.936 144.796 468.143 140.694 472.87 137.13C482.154 130.13 492.561 125.794 504.037 123.948C513.608 122.405 523.203 122.469 532.82 123.328C539.926 123.965 546.873 125.35 553.581 127.781C575.195 135.605 588.979 150.738 595.301 172.738C596.984 178.587 597.808 184.593 598.258 190.67C598.608 195.339 598.661 200.002 598.661 204.676C598.661 245.239 598.667 285.802 598.655 326.365C598.655 330.397 599.169 329.994 595.114 329.994C575.762 330.006 556.409 330 537.062 330C536.782 330 536.501 330 536.221 330C533.317 330 533.475 330.14 533.475 327.254C533.475 293.328 533.481 259.397 533.469 225.472C533.469 219.863 533.235 214.259 532.476 208.696C531.932 204.711 531.021 200.802 529.542 197.045C525.674 187.211 518.645 180.918 508.378 178.359C500.794 176.471 493.186 176.582 485.655 178.668C477.153 181.023 470.819 186.37 465.881 193.487C462.253 198.716 460.196 204.6 459.051 210.817C458.133 215.796 457.841 220.821 457.841 225.881C457.859 259.339 457.859 292.802 457.841 326.26C457.841 330.473 458.385 329.988 454.125 329.994C442.813 330.012 431.5 330 420.188 330C419.347 330 418.505 329.994 417.664 330.052C417.138 330.088 416.817 330.409 416.863 330.97C416.904 331.431 416.957 331.905 417.062 332.355C420.17 345.467 424.091 358.31 429.771 370.563C430.828 372.853 432.003 375.086 433.066 377.37C434.691 380.876 433.499 383.202 429.765 383.961C428.176 384.283 426.645 384.195 425.061 383.786C415.256 381.268 405.837 377.709 396.699 373.374C391.206 370.767 385.854 367.916 380.729 364.638C375.909 361.553 371.351 358.158 367.448 353.939C367.267 353.741 367.004 353.612 366.682 353.378C365.829 353.898 364.959 354.418 364.1 354.956C350.561 363.44 336.14 369.967 320.773 374.355C310.962 377.154 300.982 379.041 290.798 379.877C282.302 380.578 273.823 380.602 265.327 379.889C254.19 378.954 243.34 376.687 232.804 372.97C211.576 365.485 193.696 353.232 179.825 335.381C172.305 325.699 166.689 314.989 162.897 303.326C162.675 302.636 162.523 301.929 161.81 301.146C161.781 302.298 161.74 303.186 161.74 304.074C161.734 310.805 161.74 317.531 161.734 324.262C161.734 324.916 161.723 325.571 161.723 326.225C161.723 326.845 161.448 327.289 160.905 327.581C160.332 327.891 159.765 328.218 159.181 328.522C149.113 333.693 138.467 336.965 127.225 338.361C119.594 339.308 111.945 339.606 104.279 339.267C86.6734 338.49 69.8394 334.563 54.4135 325.84C27.5467 310.642 10.327 288.005 2.9705 257.977C0.235916 246.811 -0.506162 235.435 0.31772 224.017C2.24596 197.191 12.3429 173.895 31.263 154.647C44.6847 140.992 60.8351 131.993 79.428 127.401C90.9389 124.561 102.637 123.679 114.463 123.93C129.696 124.257 144.293 127.43 158.223 133.583C162.476 135.458 161.705 134.506 161.717 138.807C161.752 156.096 161.729 173.386 161.729 190.676C161.729 191.699 161.729 192.715 161.729 193.715C160.706 194.065 160.256 193.311 159.713 192.897C155.377 189.601 150.767 186.779 145.777 184.605C139.04 181.672 132.01 179.972 124.677 179.34C116.935 178.674 109.362 179.34 101.982 181.736C86.2527 186.843 75.6182 197.255 70.1899 212.863C66.2049 224.315 65.8777 236.001 69.3427 247.588C74.7651 265.714 86.8955 277.324 105.12 282.098C123.357 286.878 140.284 283.22 155.856 272.778C157.013 272.007 157.37 271.124 157.364 269.775C157.218 247.851 162.552 227.248 172.527 207.797C181.058 191.161 192.352 176.618 206.055 163.915C217.712 153.105 230.672 144.165 244.835 136.984C256.294 131.175 268.301 126.805 280.782 123.766C288.595 121.867 296.518 120.617 304.541 119.939C311.541 119.349 318.552 119.215 325.547 119.641C343.561 120.734 360.769 125.011 376.931 133.18C377.843 133.641 378.778 134.12 379.578 134.74C381.115 135.926 381.658 137.638 381.109 139.186C380.472 140.98 379.076 141.792 377.288 142.014C375.652 142.213 374.167 141.746 372.718 140.98C369.329 139.192 365.823 137.65 362.247 136.259C354.032 133.069 345.565 130.842 336.847 129.545C329.713 128.482 322.549 127.95 315.345 128.055C309.455 128.137 303.6 128.675 297.757 129.469C286.222 131.035 275.068 134.033 264.223 138.216C253.816 142.231 243.947 147.326 234.622 153.438C223.07 161.005 212.634 169.886 203.419 180.182C195.408 189.134 188.508 198.857 182.846 209.468C176.78 220.838 172.381 232.799 169.821 245.42C168.74 250.732 168.022 256.096 167.712 261.518C167.443 266.193 167.437 270.844 167.741 275.519C169.068 295.934 175.676 314.399 188.14 330.66C199.499 345.478 214.089 356.06 231.332 363.084C240.465 366.806 249.937 369.289 259.689 370.592C268.313 371.743 276.979 372.176 285.697 371.562C291.201 371.177 296.676 370.61 302.11 369.657C311.237 368.056 320.154 365.637 328.831 362.371C341.306 357.679 353.033 351.555 363.983 343.947C364.666 343.474 365.403 343.048 366.157 342.697C369.008 341.382 372.701 343.182 373.227 345.765C373.484 347.009 374.278 347.932 375.102 348.832C376.885 350.766 378.912 352.414 381.021 353.974C385.848 357.533 390.99 360.577 396.313 363.323C403.208 366.893 410.319 369.973 417.664 372.485C418.277 372.696 418.908 372.871 419.539 373.023C419.943 373.122 420.27 372.731 420.112 372.351C419.113 369.932 418.061 367.542 417.097 365.111C413.036 354.845 409.898 344.298 407.356 333.564C406.392 329.509 407.292 330.023 402.892 329.994C400.088 329.971 397.283 330.006 394.478 329.982C392.696 329.965 392.673 329.912 392.626 328.025C392.614 327.464 392.62 326.903 392.62 326.342C392.62 261.477 392.62 196.619 392.626 131.754C392.626 127.594 392.194 128.079 396.43 128.079C415.782 128.067 435.135 128.073 454.481 128.073C458.174 128.073 457.818 127.746 457.824 131.351C457.835 137.241 457.824 143.125 457.829 149.015C457.847 149.722 457.765 150.452 458.081 151.486Z" fill="#666666"/>
<path d="M770.782 150.002C770.782 148.757 770.782 147.741 770.782 146.73C770.782 99.0732 770.776 51.4107 770.788 3.75413C770.788 -0.511365 770.256 0.0320499 774.492 0.0320499C793.839 0.0145204 813.192 0.0203579 832.538 0.026201C836.377 0.026201 835.933 -0.35359 835.933 3.50872C835.939 111.163 835.939 218.817 835.939 326.471C835.939 327.032 835.951 327.592 835.933 328.153C835.892 329.895 835.828 329.959 833.97 329.994C832.661 330.017 831.352 330 830.043 330C811.351 330 792.653 330.006 773.961 329.994C770.484 329.994 770.788 330.292 770.782 326.845C770.77 320.861 770.782 314.884 770.776 308.9C770.776 308.246 770.753 307.591 770.724 306.943C770.724 306.873 770.636 306.762 770.572 306.756C770.408 306.732 770.157 306.674 770.081 306.762C769.701 307.165 769.339 307.597 769.012 308.041C758.219 322.567 743.88 331.443 726.17 335.013C719.631 336.334 713.04 336.813 706.391 336.813C696.159 336.813 686.086 335.668 676.217 332.822C664.075 329.316 653.271 323.391 643.764 315.106C625.381 299.084 613.911 279.007 608.711 255.243C606.216 243.843 605.433 232.314 606.064 220.704C606.964 204.185 610.855 188.415 618.621 173.719C630.412 151.404 648.339 136.107 671.992 127.488C680.991 124.21 690.299 122.352 699.864 121.639C705.666 121.207 711.439 121.225 717.218 121.797C732.229 123.287 746.007 128.008 757.956 137.463C762.082 140.723 765.751 144.439 769.035 148.541C769.38 148.974 769.754 149.388 770.122 149.803C770.198 149.844 770.315 149.85 770.782 150.002Z" fill="#666666"/>
<path d="M1101.28 149.803C1101.28 148.798 1101.28 147.793 1101.28 146.788C1101.28 99.2135 1101.27 51.6387 1101.29 4.06386C1101.29 -0.604802 1100.62 0.0321155 1105.24 0.0262724C1124.59 0.00289985 1143.94 0.0145804 1163.29 0.0204236C1166.76 0.0204236 1166.43 -0.283418 1166.43 3.19909C1166.43 111.063 1166.43 218.922 1166.43 326.786C1166.43 330.263 1166.75 329.982 1163.31 329.988C1143.67 329.994 1124.04 329.994 1104.41 329.988C1100.95 329.988 1101.29 330.245 1101.29 326.786C1101.28 320.803 1101.29 314.819 1101.27 308.842C1101.27 308.129 1101.45 307.381 1101.09 306.662C1100.22 306.674 1100.03 307.405 1099.68 307.878C1096.99 311.477 1094.04 314.849 1090.75 317.922C1081.93 326.149 1071.57 331.449 1059.91 334.301C1053.35 335.907 1046.68 336.661 1039.93 336.772C1029.32 336.953 1018.85 336.059 1008.56 333.307C995.211 329.743 983.449 323.292 973.177 314.095C955.238 298.026 944.113 278.049 939.134 254.559C936.914 244.082 936.043 233.489 936.499 222.802C937.171 207.247 940.309 192.236 947.005 178.102C959.509 151.697 979.92 134.383 1007.76 125.771C1015.1 123.498 1022.63 122.235 1030.3 121.634C1036.2 121.172 1042.07 121.207 1047.94 121.803C1062.55 123.276 1076.02 127.827 1087.77 136.867C1092.09 140.186 1095.94 143.99 1099.35 148.232C1099.82 148.81 1100.3 149.377 1100.77 149.944C1100.93 149.897 1101.1 149.85 1101.28 149.803Z" fill="#666666"/>
<path d="M924.661 229.042C924.661 261.466 924.667 293.895 924.655 326.319C924.655 330.514 925.199 329.977 920.886 329.977C901.54 329.994 882.187 329.988 862.841 329.982C859.113 329.982 859.498 330.315 859.498 326.728C859.493 261.594 859.493 196.461 859.493 131.327C859.493 130.673 859.475 130.019 859.51 129.364C859.563 128.312 859.767 128.125 860.889 128.079C861.45 128.055 862.011 128.067 862.572 128.067C882.199 128.067 901.832 128.067 921.459 128.067C924.93 128.067 924.667 127.781 924.667 131.199C924.661 163.815 924.661 196.432 924.661 229.042Z" fill="#666666"/>
<path d="M892.191 4.05798C913.209 4.169 930.206 20.5064 930.124 42.2955C930.043 63.4184 913.594 80.27 891.829 80.1473C870.6 80.0305 854.018 63.5528 854.035 42.0676C854.053 20.261 871.167 4.05798 892.191 4.05798Z" fill="#666666"/>
<path d="M722.798 280.655C710.417 280.508 699.624 276.179 690.357 268.074C680.996 259.888 675.288 249.552 673.505 237.275C670.654 217.63 677.824 196.841 697.007 184.611C703.352 180.562 710.341 178.464 717.814 177.763C723.155 177.26 728.437 177.482 733.719 178.318C743.956 179.936 752.622 184.57 759.815 191.95C766.61 198.921 771.285 207.119 773.365 216.678C776.111 229.311 775.124 241.564 769.193 253.198C764.033 263.324 755.964 270.47 745.797 275.291C738.546 278.738 730.897 280.678 722.798 280.655Z" fill="white"/>
<path d="M1003.5 229.141C1003.54 217.806 1006.49 207.347 1013.2 198.132C1019.89 188.952 1028.52 182.355 1039.6 179.329C1045.68 177.669 1051.89 177.161 1058.19 177.628C1062.49 177.944 1066.73 178.557 1070.84 179.849C1080.92 183.004 1088.85 189.139 1095.1 197.536C1100.57 204.887 1103.79 213.137 1104.85 222.241C1106.01 232.186 1104.95 241.798 1100.81 250.983C1097.72 257.825 1093.28 263.645 1087.4 268.331C1078 275.834 1067.3 280.018 1055.25 280.584C1045.54 281.046 1036.54 278.551 1028.3 273.497C1015.53 265.673 1007.62 254.343 1004.44 239.718C1003.69 236.241 1003.5 232.694 1003.5 229.141Z" fill="white"/>
</svg>
