<?xml version="1.0" encoding="utf-8"?>
<!-- Generator: Adobe Illustrator 25.0.1, SVG Export Plug-In . SVG Version: 6.00 Build 0)  -->
<svg version="1.1" id="Layer_1" xmlns="http://www.w3.org/2000/svg" xmlns:xlink="http://www.w3.org/1999/xlink" x="0px" y="0px"
	 viewBox="0 0 2040 2040" enable-background="new 0 0 2040 2040" xml:space="preserve">
<path fill="#666666" d="M811.52,851.53c1.39-1.52,2.45-2.62,3.44-3.78c6.58-7.67,13.78-14.69,21.87-20.79
	c15.89-11.98,33.7-19.4,53.34-22.56c16.38-2.64,32.8-2.53,49.26-1.06c12.16,1.09,24.05,3.46,35.53,7.62
	c36.99,13.39,60.58,39.29,71.4,76.94c2.88,10.01,4.29,20.29,5.06,30.69c0.6,7.99,0.69,15.97,0.69,23.97
	c0,69.42,0.01,138.84-0.01,208.26c0,6.9,0.88,6.21-6.06,6.21c-33.12,0.02-66.24,0.01-99.35,0.01c-0.48,0-0.96,0-1.44,0
	c-4.97,0-4.7,0.24-4.7-4.7c0-58.06,0.01-116.13-0.01-174.19c0-9.6-0.4-19.19-1.7-28.71c-0.93-6.82-2.49-13.51-5.02-19.94
	c-6.62-16.83-18.65-27.6-36.22-31.98c-12.98-3.23-26-3.04-38.89,0.53c-14.55,4.03-25.39,13.18-33.84,25.36
	c-6.21,8.95-9.73,19.02-11.69,29.66c-1.57,8.52-2.07,17.12-2.07,25.78c0.03,57.26,0.03,114.53,0,171.79c0,7.21,0.93,6.38-6.36,6.39
	c-19.36,0.03-38.72,0.01-58.08,0.01c-1.44,0-2.88-0.01-4.32,0.09c-0.9,0.06-1.45,0.61-1.37,1.57c0.07,0.79,0.16,1.6,0.34,2.37
	c5.32,22.44,12.03,44.42,21.75,65.39c1.81,3.92,3.82,7.74,5.64,11.65c2.78,6,0.74,9.98-5.65,11.28c-2.72,0.55-5.34,0.4-8.05-0.3
	c-16.78-4.31-32.9-10.4-48.54-17.82c-9.4-4.46-18.56-9.34-27.33-14.95c-8.25-5.28-16.05-11.09-22.73-18.31
	c-0.31-0.34-0.76-0.56-1.31-0.96c-1.46,0.89-2.95,1.78-4.42,2.7c-23.17,14.52-47.85,25.69-74.15,33.2
	c-16.79,4.79-33.87,8.02-51.3,9.45c-14.54,1.2-29.05,1.24-43.59,0.02c-19.06-1.6-37.63-5.48-55.66-11.84
	c-36.33-12.81-66.93-33.78-90.67-64.33c-12.87-16.57-22.48-34.9-28.97-54.86c-0.38-1.18-0.64-2.39-1.86-3.73
	c-0.05,1.97-0.12,3.49-0.12,5.01c-0.01,11.52,0,23.03-0.01,34.55c0,1.12-0.02,2.24-0.02,3.36c0,1.06-0.47,1.82-1.4,2.32
	c-0.98,0.53-1.95,1.09-2.95,1.61c-17.23,8.85-35.45,14.45-54.69,16.84c-13.06,1.62-26.15,2.13-39.27,1.55
	c-30.13-1.33-58.94-8.05-85.34-22.98c-45.98-26.01-75.45-64.75-88.04-116.14c-4.68-19.11-5.95-38.58-4.54-58.12
	c3.3-45.91,20.58-85.78,52.96-118.72c22.97-23.37,50.61-38.77,82.43-46.63c19.7-4.86,39.72-6.37,59.96-5.94
	c26.07,0.56,51.05,5.99,74.89,16.52c7.28,3.21,5.96,1.58,5.98,8.94c0.06,29.59,0.02,59.18,0.02,88.77c0,1.75,0,3.49,0,5.2
	c-1.75,0.6-2.52-0.69-3.45-1.4c-7.42-5.64-15.31-10.47-23.85-14.19c-11.53-5.02-23.56-7.93-36.11-9.01
	c-13.25-1.14-26.21,0-38.84,4.1c-26.92,8.74-45.12,26.56-54.41,53.27c-6.82,19.6-7.38,39.6-1.45,59.43
	c9.28,31.02,30.04,50.89,61.23,59.06c31.21,8.18,60.18,1.92,86.83-15.95c1.98-1.32,2.59-2.83,2.58-5.14
	c-0.25-37.52,8.88-72.78,25.95-106.07c14.6-28.47,33.93-53.36,57.38-75.1c19.95-18.5,42.13-33.8,66.37-46.09
	c19.61-9.94,40.16-17.42,61.52-22.62c13.37-3.25,26.93-5.39,40.66-6.55c11.98-1.01,23.98-1.24,35.95-0.51
	c30.83,1.87,60.28,9.19,87.94,23.17c1.56,0.79,3.16,1.61,4.53,2.67c2.63,2.03,3.56,4.96,2.62,7.61c-1.09,3.07-3.48,4.46-6.54,4.84
	c-2.8,0.34-5.34-0.46-7.82-1.77c-5.8-3.06-11.8-5.7-17.92-8.08c-14.06-5.46-28.55-9.27-43.47-11.49
	c-12.21-1.82-24.47-2.73-36.8-2.55c-10.08,0.14-20.1,1.06-30.1,2.42c-19.74,2.68-38.83,7.81-57.39,14.97
	c-17.81,6.87-34.7,15.59-50.66,26.05c-19.77,12.95-37.63,28.15-53.4,45.77c-13.71,15.32-25.52,31.96-35.21,50.12
	c-10.38,19.46-17.91,39.93-22.29,61.53c-1.85,9.09-3.08,18.27-3.61,27.55c-0.46,8-0.47,15.96,0.05,23.96
	c2.27,34.94,13.58,66.54,34.91,94.37c19.44,25.36,44.41,43.47,73.92,55.49c15.63,6.37,31.84,10.62,48.53,12.85
	c14.76,1.97,29.59,2.71,44.51,1.66c9.42-0.66,18.79-1.63,28.09-3.26c15.62-2.74,30.88-6.88,45.73-12.47
	c21.35-8.03,41.42-18.51,60.16-31.53c1.17-0.81,2.43-1.54,3.72-2.14c4.88-2.25,11.2,0.83,12.1,5.25c0.44,2.13,1.8,3.71,3.21,5.25
	c3.05,3.31,6.52,6.13,10.13,8.8c8.26,6.09,17.06,11.3,26.17,16c11.8,6.11,23.97,11.38,36.54,15.68c1.05,0.36,2.13,0.66,3.21,0.92
	c0.69,0.17,1.25-0.5,0.98-1.15c-1.71-4.14-3.51-8.23-5.16-12.39c-6.95-17.57-12.32-35.62-16.67-53.99
	c-1.65-6.94-0.11-6.06-7.64-6.11c-4.8-0.04-9.6,0.02-14.4-0.02c-3.05-0.03-3.09-0.12-3.17-3.35c-0.02-0.96-0.01-1.92-0.01-2.88
	c0-111.01,0-222.01,0.01-333.02c0-7.12-0.74-6.29,6.51-6.29c33.12-0.02,66.24-0.01,99.35-0.01c6.32,0,5.71-0.56,5.72,5.61
	c0.02,10.08,0,20.15,0.01,30.23C811.12,848.51,810.98,849.76,811.52,851.53z"/>
<path fill="#666666" d="M1346.68,848.99c0-2.13,0-3.87,0-5.6c0-81.56-0.01-163.13,0.01-244.69c0-7.3-0.91-6.37,6.34-6.37
	c33.11-0.03,66.23-0.02,99.34-0.01c6.57,0,5.81-0.65,5.81,5.96c0.01,184.24,0.01,368.48,0.01,552.72c0,0.96,0.02,1.92-0.01,2.88
	c-0.07,2.98-0.18,3.09-3.36,3.15c-2.24,0.04-4.48,0.01-6.72,0.01c-31.99,0-63.99,0.01-95.98-0.01c-5.95,0-5.43,0.51-5.44-5.39
	c-0.02-10.24,0-20.47-0.01-30.71c0-1.12-0.04-2.24-0.09-3.35c0-0.12-0.15-0.31-0.26-0.32c-0.28-0.04-0.71-0.14-0.84,0.01
	c-0.65,0.69-1.27,1.43-1.83,2.19c-18.47,24.86-43.01,40.05-73.32,46.16c-11.19,2.26-22.47,3.08-33.85,3.08
	c-17.51,0-34.75-1.96-51.64-6.83c-20.78-6-39.27-16.14-55.54-30.32c-31.46-27.42-51.09-61.78-59.99-102.45
	c-4.27-19.51-5.61-39.24-4.53-59.11c1.54-28.27,8.2-55.26,21.49-80.41c20.18-38.19,50.86-64.37,91.34-79.12
	c15.4-5.61,31.33-8.79,47.7-10.01c9.93-0.74,19.81-0.71,29.7,0.27c25.69,2.55,49.27,10.63,69.72,26.81
	c7.06,5.58,13.34,11.94,18.96,18.96c0.59,0.74,1.23,1.45,1.86,2.16C1345.68,848.72,1345.88,848.73,1346.68,848.99z"/>
<path fill="#666666" d="M1912.29,848.65c0-1.72,0-3.44,0-5.16c0-81.42-0.01-162.84,0.02-244.26c0-7.99-1.14-6.9,6.76-6.91
	c33.12-0.04,66.24-0.02,99.36-0.01c5.93,0,5.36-0.52,5.36,5.44c0.01,184.6,0.01,369.19,0,553.79c0,5.95,0.56,5.47-5.34,5.48
	c-33.6,0.01-67.2,0.01-100.8,0c-5.92,0-5.33,0.44-5.34-5.48c-0.02-10.24,0.01-20.48-0.03-30.71c0-1.22,0.31-2.5-0.31-3.73
	c-1.48,0.02-1.81,1.27-2.41,2.08c-4.61,6.16-9.65,11.93-15.28,17.19c-15.09,14.08-32.83,23.15-52.78,28.03
	c-11.23,2.75-22.64,4.04-34.2,4.23c-18.16,0.31-36.08-1.22-53.69-5.93c-22.84-6.1-42.97-17.14-60.55-32.88
	c-30.7-27.5-49.74-61.69-58.26-101.89c-3.8-17.93-5.29-36.06-4.51-54.35c1.15-26.62,6.52-52.31,17.98-76.5
	c21.4-45.19,56.33-74.82,103.97-89.56c12.56-3.89,25.46-6.05,38.59-7.08c10.09-0.79,20.14-0.73,30.18,0.29
	c25.01,2.52,48.05,10.31,68.17,25.78c7.39,5.68,13.98,12.19,19.82,19.45c0.8,0.99,1.62,1.96,2.42,2.93
	C1911.7,848.81,1911.99,848.73,1912.29,848.65z"/>
<path fill="#666666" d="M1610.03,984.26c0,55.49,0.01,110.99-0.01,166.48c0,7.18,0.93,6.26-6.45,6.26
	c-33.11,0.03-66.23,0.02-99.34,0.01c-6.38,0-5.72,0.57-5.72-5.57c-0.01-111.47-0.01-222.94-0.01-334.41c0-1.12-0.03-2.24,0.03-3.36
	c0.09-1.8,0.44-2.12,2.36-2.2c0.96-0.04,1.92-0.02,2.88-0.02c33.59,0,67.19,0,100.78,0c5.94,0,5.49-0.49,5.49,5.36
	C1610.03,872.63,1610.03,928.45,1610.03,984.26z"/>
<path fill="#666666" d="M1554.46,599.22c35.97,0.19,65.06,28.15,64.92,65.44c-0.14,36.15-28.29,64.99-65.54,64.78
	c-36.33-0.2-64.71-28.4-64.68-65.17C1489.19,626.95,1518.48,599.22,1554.46,599.22z"/>
<path fill="#FFFFFF" d="M1264.56,1072.59c-21.19-0.25-39.66-7.66-55.52-21.53c-16.02-14.01-25.79-31.7-28.84-52.71
	c-4.88-33.62,7.39-69.2,40.22-90.13c10.86-6.93,22.82-10.52,35.61-11.72c9.14-0.86,18.18-0.48,27.22,0.95
	c17.52,2.77,32.35,10.7,44.66,23.33c11.63,11.93,19.63,25.96,23.19,42.32c4.7,21.62,3.01,42.59-7.14,62.5
	c-8.83,17.33-22.64,29.56-40.04,37.81C1291.51,1069.31,1278.42,1072.63,1264.56,1072.59z"/>
<path fill="#FFFFFF" d="M1744.96,984.43c0.07-19.4,5.11-37.3,16.6-53.07c11.44-15.71,26.21-27,45.18-32.18
	c10.41-2.84,21.03-3.71,31.82-2.91c7.36,0.54,14.61,1.59,21.65,3.8c17.25,5.4,30.81,15.9,41.51,30.27
	c9.37,12.58,14.87,26.7,16.69,42.28c1.99,17.02,0.17,33.47-6.92,49.19c-5.28,11.71-12.89,21.67-22.94,29.69
	c-16.1,12.84-34.41,20-55.03,20.97c-16.62,0.79-32.02-3.48-46.12-12.13c-21.85-13.39-35.4-32.78-40.83-57.81
	C1745.28,996.58,1744.95,990.51,1744.96,984.43z"/>
<g>
</g>
<g>
</g>
<g>
</g>
<g>
</g>
<g>
</g>
</svg>
