<svg xmlns="http://www.w3.org/2000/svg" viewBox="0 0 1612.39 605.5">
  <defs>
    <style>
      .a {
        fill: #6d7968;
      }

      .b {
        fill: none;
      }
    </style>
  </defs>
  <g>
    <g>
      <path class="a" d="M832.74,1156.3l0,0Z" transform="translate(-213.29 -716.69)"/>
      <path class="a" d="M1016.49,982.3v-3.23c0-1.33-.14-2.49-.14-3.79,0-.71-.15-1.27-.15-1.94a6.68,6.68,0,0,0,0-1,5.52,5.52,0,0,1-.14-.86c0-.71-.14-1.25-.14-1.93a5.43,5.43,0,0,0-.15-.94c0-.3.05-.62,0-.93a2.5,2.5,0,0,1-.14-.57,3.09,3.09,0,0,0,0-.43c0-.29-.09-.59-.14-.93-.09-.61-.2-1.23-.29-1.86-.05-.33-.09-.65-.14-1,0-.15-.12-.25-.15-.43s0-.33,0-.5-.24-.66-.28-.93.09-.61-.15-.86v-.57h-.14V959h-.14a4.79,4.79,0,0,0-.29-1.44c-.13-.45-.14-.92-.29-1.36a18.68,18.68,0,0,1-.71-2.86,5.42,5.42,0,0,0-.29-.72c-.06-.2-.08-.38-.14-.57-.14-.41-.3-.82-.43-1.22-.27-.85-.58-1.67-.86-2.51a48.76,48.76,0,0,0-2.08-5.08,52.81,52.81,0,0,0-2.58-5c-.5-.84-1-1.69-1.5-2.51-.28-.43-.6-.84-.86-1.29s-.76-.83-.72-1.21h-.14a39.29,39.29,0,0,0-3.51-4.59,50.76,50.76,0,0,0-4.16-4.58,63,63,0,0,0-16.47-11.86c-2.67-1.33-5.39-2.44-8.17-3.51s-5.55-1.53-8.24-2.54h-.71l-1.15-.43h-.72v-.14h-.71v-.15h-.72v-.14H958v-.14h-.71V905h-.86v-.14h-.86v-.14h-1v-.15h-.86v-.14h-1.15v-.14h-1.15v-.15H950.3V904h-1.43v-.14h-1.58v-.15h-2v-.14h-2.72v-.14H930.67v.14h-2.44v.14h-1.72v.15h-1.57V904h-1.29v.14H922.5v.15h-1v.14h-.86v.14h-1v.15h-.72v.14h-.86V905h-.71v.15h-.72v.14h-.72v.14h-.57v.15h-.72v.14h-.57l-1.15.43h-.57a34.29,34.29,0,0,1-4.51,1.43c-1.51.5-3,1.11-4.44,1.68a53.3,53.3,0,0,0-7.88,3.87,72.24,72.24,0,0,0-7.88,5.23,92.79,92.79,0,0,0-8,7.06,57.63,57.63,0,0,0-6.87,7.81h-.15V908.87H805.88v206.46h14.18c0,.24-.17.38-.14.64a4,4,0,0,1,.29.43c0-.05-.07.18-.07.18s.18.2.21.25,0,.22,0,.29a3.64,3.64,0,0,1,.14.43,1.31,1.31,0,0,1,0,.28c0,.17-.09.24-.07.32s.19.08.22.18.07.43.14.65c.14.42.15.87.29,1.29a8.78,8.78,0,0,1,.14,1.29,5.9,5.9,0,0,0,.29.71c.07.23.15.52.21.65-.09-.18.12.49.07.29s.2.3.15.21a2.7,2.7,0,0,1,.14.64c.06.46.15.86.21,1.29,0,.2.19.48.22.65s0,.21,0,.29.14.25.14.28a2.81,2.81,0,0,0,0,.29s.14.25.15.29,0,.24,0,.28.18.43.14.22l.14.07c-.11,0-.16.11-.14.21s.07.23.07.25.18.1.22.18-.08.28-.08.29l.22.43a4.1,4.1,0,0,1,.14.5,7.57,7.57,0,0,1,.29,1.29c0,.1.12.15.14.29a2.62,2.62,0,0,1,0,.28c0,.07,0,.15,0,.22s.2.1.22.18-.14.18-.07.32c0,0,.15.26.14.21s.16.25.14.22-.15.25-.14.29.26.06.29.14,0,.2,0,.29.07.37.14.57c.13.39.25.82.36,1.22,0,.15.1.4.14.53s.2.06.21.11-.13.3-.14.29c.09.19.18.11.29.28s0,.23,0,.29a2.5,2.5,0,0,1,.14.57s.13.25.14.29,0,.15,0,.22.17.4.22.53l.21.11-.14.14c0,.09,0,.2,0,.29s.27.08.29.14,0,.22,0,.29c-.18.08-.2.14-.07.18l.07,0c0-.11.16.25.14.22.15.23.1.3.14.57s.17.48.22.65a2.86,2.86,0,0,0,.07.28c0,.07.2.13.22.18a1,1,0,0,0,.07.25c0,.13-.16.14-.15.22s.28.08.29.14,0,.21,0,.29c.16.42.15.85.29,1.29.06.19.28.25.36.39a.66.66,0,0,1,0,.25l.14.18a8.42,8.42,0,0,0,.36,1.18,2.24,2.24,0,0,0,.14.58c0,.07.27.06.29.14s0,.2,0,.29l-.15.14.22.11a1.61,1.61,0,0,0,.07.25c.12.23.07.32.14.57s.09.34.15.5.11.21.14.29,0,.2,0,.29.28.28.29.28a1,1,0,0,1,.14.29c.06.2.08.38.14.57s.08.34.15.5.2.13.21.18-.11.14-.07.25c.12.36.5.65.57,1.08s0,.31.15.57c0,.08.24.06.28.14s0,.22,0,.29c.15.4.21.83.36,1.22s.37.54.5.93a5.42,5.42,0,0,1,.29.72,1.57,1.57,0,0,0,.14.5.61.61,0,0,1,.09.16l.13.16c.05.15.17.38.21.54a2.18,2.18,0,0,0,.29.57,1.62,1.62,0,0,1,.28.5c.06.34,0,.81.29,1.08h-.43c.08-.31-.87-.47-1.14-.58h-.29c-.22-.08-.66-.11-.57-.43h-.72c-.38-.38-3.4-1-3.3-1.43h-.86c.09-.34-.82-.34-1-.72h-.71l.14-.28h-.72c-.23-.12-.46-.19-.57-.43h-.72c.07-.37-.72-.36-1-.5,0,0-.16-.17-.22-.2s-.2,0-.28-.07-.29-.27-.5-.38h-.72c.33-.31-.52-.43-.79-.54-.46-.18-.63-.37-1.07-.5a8.52,8.52,0,0,1-1-.43,8.19,8.19,0,0,1-1.14-.41c-.31-.19.12-.1-.07-.22a1.87,1.87,0,0,0-.22-.07,5.32,5.32,0,0,0-.57-.16c-.34-.12-.67-.36-1-.51a13.56,13.56,0,0,1-1.79-.88c-.58-.36-1.31-.5-1.94-.89-.24-.14.1-.1-.07-.21a1.42,1.42,0,0,0-.22-.07c-.14-.09-.34-.09-.5-.17a3.89,3.89,0,0,0-.36-.26c-.15-.09-.34-.09-.5-.17s-.61-.44-.93-.6a6.67,6.67,0,0,1-1-.5,4,4,0,0,0-.43-.31c-.18-.09-.4-.1-.57-.19s-.17-.17-.29-.24-.4-.1-.57-.19a.84.84,0,0,0-.15-.19c-.08,0-.2,0-.28-.1s-.15-.23-.36-.35-.61-.28-.86-.43-1.88-.78-1.79-1.29h-.72c0-.46-.4-.5-.71-.65s-.86-.36-.58-.64h-.71c-.19-.53-.73-.68-1.15-.93a12.58,12.58,0,0,0-1.22-.84,1.27,1.27,0,0,1-.64-.45,2.24,2.24,0,0,0-.58-.43,2.77,2.77,0,0,1-.64-.4,2.16,2.16,0,0,0-.65-.54h-.14c0-.26-.09-.24-.28-.35l-.29-.1c-.14,0-.19-.06-.14-.19a7.58,7.58,0,0,0-.86-.64c-.15-.09-.47-.11-.58-.22l.15-.14c0-.13,0-.2-.15-.19s-.36-.24-.43-.29l-.28-.1a.16.16,0,0,0-.08-.21l-.35-.36a1.39,1.39,0,0,1-.43-.29c-.09-.08-.25-.4-.29-.43l-.29-.09c-.14,0-.19-.06-.14-.19-.12-.09-.38-.4-.43-.43s-.33-.06-.43-.14v-.29l-.29-.1c-.14,0-.18-.06-.14-.19s.2-.15.07-.17l-.21-.07c-.14,0-.19-.06-.15-.19s-.21-.35-.28-.43a4.76,4.76,0,0,1-.72-.86,5.68,5.68,0,0,1-.29-.5c-.11,0-.16,0-.14-.14s0-.17.14-.22c0-.53-.35-.52-.43-1,0-.11.06-.35,0-.43l-.28-.1c-.2,0-.2-.08,0-.19-.09-.18,0-.19-.14-.33l-.29-.1v-.28l-.29-.1c-.14,0-.19-.06-.14-.19s-.21-.27-.29-.36-.69-.38-.86-.71h-.71v-.43h-1.58v-.15H780v.15h-.15v.14h-.71l-.15.29h-.71c.08.33-.63.5-.86.64a1.46,1.46,0,0,0-.29.22s0,.18,0,.21-.26.06-.36.12,0,.12-.14.19a10.24,10.24,0,0,0-1.07.6c-.08.07-.24.12-.29.17s0,.18,0,.21a3.37,3.37,0,0,1-.65.25,6.14,6.14,0,0,0-1.14.59c-.09.09-.14.25-.22.35a2.19,2.19,0,0,1-.35.27,5.6,5.6,0,0,1-1,.51,9.11,9.11,0,0,0-.93.66c-.31.19-.57.41-.86.57s-.7.24-1,.43a1.85,1.85,0,0,0-.29.17s0,.18,0,.21-.21,0-.28.1-.28.26-.15.19a4.93,4.93,0,0,1-.86.43,2,2,0,0,0-.57.36c-.09.06-.28.13-.43.21.07,0-.19.23-.14.19s-.23.06-.29.1,0,.12-.07.17-.2,0-.29.09c-.75.32-1.24.78-1.86,1.1-.4.2-.71.19-1,.43a8.7,8.7,0,0,1-.93.5s0,.13-.15.19a2.31,2.31,0,0,1-.28.1,2.15,2.15,0,0,0-.43.21c-.32.17-.49.39-.86.57h-.43v.43h-.15v-.14h-.43v.14H759c.08.32-1.15.65-1.43.79-.54.26-1.09.5-1.65.74-.38.17-.27.24-.5.46a3.56,3.56,0,0,1-.86.33c-.55.2-.91.43-1.51.66a8.62,8.62,0,0,0-.86.43c-.11.06-.25.09-.35.15l-.29.1v.14c-.52.32-1.18.49-1.72.77s-3.1.8-3,1.45h-.14v-.14h-.57v.14H746c.12.54-4.65,1.92-5.3,2.18-.92.35-1.87.65-2.79,1-.43.17-2.59.63-2.51,1.11h-.14V1150h-.43v.14h-.58c-.31.16-1.07.29-1,.72H733v-.15h-.43v.15h-.43c.06.31-.59.44-.85.57h-1a39,39,0,0,0-3.87,1.29h-.71c-.15.09-.29.19-.43.29h-.72c-.82.41-1.76.45-2.58.86h-.71v.14h-1.15l-.57.29h-.72l-.43.28h-.72c-.34.13-.67.27-1,.43h-.72l-.57.29h-.71v.14h-.29v-.14h-.57v.14H713v.14h-.57v.15h-.72v.14h-.86v.14h-.72v.15H710V1156h-.43v.15h-.86v.14h-.86v.14h-.71v.15h-.58v-.15H706v.15h-.57v.14H704.3v.14h-.72v.15h-.28v-.15h-.72v.15h-1.15v.14h-.86v.14h-.28v-.14h-.57v.14h-1v.15h-.86v-.15h-.57v.15H696v.14h-.72v-.14h-.57v.14h-1.29v.14h-.57v-.14h-.72v.14h-1.29v-.14h-.43v.14h-2v.15h-.15v-.15h-1.72v.15h-.28v-.15h-1.58v-.14H684v.14h-1.29v-.14h-1.58v-.14h-.86v.14h-1.15v-.14h-1.72v-.15h-1.57v-.14h-1.58V1157h-1.43v-.29h-1.29v-.14h-1.58v-.15h-1l-.14-.28h-1.58l-1.14-.43h-1.58v-.29h-1.15a9.71,9.71,0,0,1-1-.43h-1l-.14-.28H660v-.29h-1.29v-.29h-1.29v-.28h-1v-.29H655.3v-.29h-1V1153h-.86l-.29-.29h-.71c-.51-.25-1.33-.32-1.72-.72h-.86v-.28H649c.07-.31-.74-.44-1-.58h-.71c-.26-.13-1.21-.46-1.15-.71h-.71c-.23-.12-.46-.19-.58-.43H644c0-.27-.62-.45-.86-.54s-1.08-.11-.71-.47h-.72c-.25-.21-1.06-.39-1-.71H640a6,6,0,0,0-2-.9c-.7-.28-1.45-.76-2.07-1a5.9,5.9,0,0,1-1-.43c-.26-.16-.58-.25-.93-.44-.56-.3-1.24-.69-1.86-1a5.41,5.41,0,0,1-.93-.57c-.33-.23-.74-.29-1.07-.5,0,0-.05-.13-.15-.19a1.83,1.83,0,0,0-.28-.1,3.51,3.51,0,0,1-.58-.14,4.59,4.59,0,0,0-.36-.32,3,3,0,0,0-.35-.3c-.38-.21-.69-.29-1-.48s-.72-.39-1.07-.6c-.15-.09-.27-.19-.5-.31a3.52,3.52,0,0,1-.5-.36c-.36-.23-.73-.41-1.08-.64,0,0-.06-.13-.14-.19a2.47,2.47,0,0,0-.29-.1,3,3,0,0,1-.57-.36c-.33-.24-.68-.41-1-.64a12.33,12.33,0,0,1-1.15-.72c-.24-.21-.15-.21-.43-.38s-.35-.16-.5-.26a7.62,7.62,0,0,1-1-.72c-.11-.1,0-.16-.14-.24s-.17,0-.21-.07a5.11,5.11,0,0,0-.43-.4c-.17-.12-.41-.11-.58-.22,0,0,0-.23-.14-.28s-.2,0-.29-.1a7.13,7.13,0,0,1-.71-.55c-.15-.13-.37-.19-.5-.33s-.08-.23-.22-.36-.42-.13-.57-.24.18-.05,0-.19-.16,0-.22-.07-.27,0-.36-.12-.1-.16-.14-.19-.22-.3-.14-.2-.17,0-.22-.07a4.39,4.39,0,0,0-.43-.41c-.15-.12-.35-.21-.5-.33s-.25-.37-.36-.46-.31-.37-.35-.4-.34-.14-.43-.21-.34-.31-.51-.43l-.93-.72c-.1-.09-.3-.24-.43-.36s.12-.11-.14-.28c-.08-.06-.21,0-.29-.1-.6-.48-1-1.12-1.72-1.62.06,0-.21-.22-.21-.22a2,2,0,0,0-.22-.14s0-.18,0-.21-.25-.05-.28-.1-.19,0-.07-.12l.07-.07c-.08-.08-.23-.15-.29-.22s-.24-.16-.36-.28l-.21-.22c.06.06-.22-.29-.14-.19,0,0-.17,0-.22-.07s0-.15-.14-.24-.35-.22-.5-.36-.12-.26-.15-.28-.24,0-.28-.1l-.29-.38c0-.07-.22,0-.29-.1a2.61,2.61,0,0,1,0-.28,3.4,3.4,0,0,0-.21-.46c-.06-.06-.22,0-.29-.09s-.05-.16-.07-.17c-.19-.14-.37-.36-.5-.45a2.08,2.08,0,0,1-.36-.27c.18-.09.2-.14.07-.16l-.07,0s-.26-.07-.29-.09,0-.25,0-.29-.16-.05-.21-.11-.27-.09-.36-.18.05-.24,0-.28-.34-.14-.43-.22,0-.18-.07-.24-.18,0-.22-.07a3.84,3.84,0,0,1-.28-.48,1.11,1.11,0,0,0-.43-.43s-.13-.17-.15-.19-.21,0-.28-.09,0-.25,0-.29-.19,0-.22-.07l-.14-.14s.08-.2.07-.22-.38-.37-.29-.28a1.22,1.22,0,0,0-.07-.17c0-.07-.22,0-.28-.1s.08-.15.07-.16a5.79,5.79,0,0,1-.43-.43c-.06-.07-.25-.07-.29-.15s0-.27.07-.21.09-.11-.07-.12l-.14,0c.09.19-.23-.27-.14-.19s-.23-.36-.15-.22c0,0-.17-.09-.21-.14s-.16-.4-.29-.52-.25-.11-.36-.27-.1-.48-.21-.59-.18,0-.22-.08a1.89,1.89,0,0,1-.14-.19l-.14-.28c-.06-.08-.23-.07-.29-.15s-.1-.31-.22-.5a7.84,7.84,0,0,0-.5-.64c-.09-.13-.25-.26-.36-.4s-.11-.3-.21-.46-.28-.23-.43-.43-.07-.5-.14-.57-.31-.11-.43-.29a3.31,3.31,0,0,1-.22-.47s-.18-.06-.21-.1c.17-.09.2-.15.07-.18l-.07,0c-.22-.32-.53-.62-.72-.93-.07-.12-.07-.48-.14-.57s-.33-.24-.43-.36-.17-.46-.29-.65-.2-.18-.36-.35-.12-.36-.21-.51-.31-.2-.43-.43-.06-.43-.14-.57-.26-.07-.29-.14.08-.39.14-.29a5.12,5.12,0,0,0-.43-.36,1.59,1.59,0,0,1-.28-.36,5,5,0,0,1-.36-.64c-.12-.26-.15-.26-.22-.43a5.59,5.59,0,0,1-.28-.5c0-.07,0-.23,0-.29s-.19-.12-.22-.18-.16-.16-.21-.25-.2-.43-.15-.28a4.25,4.25,0,0,0-.14-.51c0-.07-.2-.11-.22-.17s0-.24.08-.18c-.11-.15-.29-.25-.43-.43s-.08-.44-.15-.58-.33-.35-.43-.57c0-.07.05-.22,0-.29s-.2-.14-.21-.18-.18-.1-.22-.17.12-.15.08-.26l-.22-.25s0-.16,0-.21-.16-.18-.21-.29,0-.24-.08-.28-.21-.21-.28-.36.15-.22.14-.29-.2-.06-.21-.11a2.49,2.49,0,0,0-.08-.32s-.27-.19-.28-.21l-.15-.08.15-.14-.07-.18c0-.07-.18-.08-.22-.18s.07-.29.07-.28a3.41,3.41,0,0,0-.21-.36,5.37,5.37,0,0,1-.29-.65s0-.16,0-.21-.24-.07-.29-.14a5.09,5.09,0,0,1-.35-1l-.15-.07c-.12,0-.1-.1.07-.18,0-.08,0-.21,0-.29s-.32-.3-.35-.36a7.91,7.91,0,0,1-.36-1.07c0-.08,0-.22,0-.29s-.24-.07-.29-.14a4.92,4.92,0,0,1-.14-.58c-.11-.33-.18-.66-.29-1a5.46,5.46,0,0,0-.21-.61s-.21-.06-.22-.11,0-.2,0-.28c.18-.09.2-.15.07-.18l-.07,0a1.91,1.91,0,0,1-.14-.21c-.14-.23-.08-.24-.14-.5a2.28,2.28,0,0,0-.15-.36c0,.07-.19-.42-.14-.22l-.07-.14s.1-.21.07-.29-.23-.26-.29-.35a1.08,1.08,0,0,1-.14-.51.51.51,0,0,0-.14-.43v-.14h-.15a2.78,2.78,0,0,0,0-.5l-.28-.14a.23.23,0,0,0,.14-.29v-.29a.14.14,0,0,0-.14-.21c-.2,0-.2-.11,0-.22a.23.23,0,0,0-.15-.28.23.23,0,0,1-.14-.29c.19-.09.19-.19,0-.29s-.22-.36-.29-.57a7.71,7.71,0,0,1-.28-1.15v-.28c0-.13,0-.2-.15-.22s-.19-.11,0-.21v-.29l-.28-.14a.22.22,0,0,1,.14-.29,4,4,0,0,0-.29-.43,2.64,2.64,0,0,1-.14-.57v-.29a.22.22,0,0,0-.14-.28c-.06-.39-.17-.72-.22-1.08-.11-.76-.23-1.45-.36-2.22a.23.23,0,0,1-.14-.29v-.28c0-.22-.11-.34-.14-.58-.06-.41-.08-.72-.15-1.14a.23.23,0,0,1-.14-.29V1072c0-.13,0-.2-.14-.22s-.2-.11,0-.21v-.29c0-.13,0-.2-.15-.22s-.19-.11,0-.21v-.29c0-.27-.11-.37-.14-.57s0-.39,0-.57a6.75,6.75,0,0,1-.14-1.08h-.15v-.86h-.14v-.71c-.05-.37-.08-.75-.14-1.15,0-.17-.12-.3-.15-.5s0-.39,0-.57-.18-.29-.14-.58.18-.43.14-.57-.27-.11-.28-.43c0-.14.23-.34.14-.57s-.25-.05-.29-.22.15-.15.15-.29a5.42,5.42,0,0,0,0-.57,6.9,6.9,0,0,1-.15-1.07,8.2,8.2,0,0,1-.14-1.29c0-.17.24-.33.14-.58,0-.07-.26-.06-.28-.14s.14-.13.14-.29a6.2,6.2,0,0,0,0-1.14c0-.2-.14-.31-.14-.57a3.74,3.74,0,0,1,0-.58c0-.21.21-.16.14-.43,0-.06-.07-.16-.07-.18s-.13-.12-.14-.18a1.59,1.59,0,0,0,.07-.28v-1.15c0-.1,0-.17.14-.21l-.14-.07c0,.09-.14-.21-.15-.22-.09-.27.12-.38.15-.57a4.92,4.92,0,0,0,0-1.15,3.56,3.56,0,0,1-.15-1.15,2,2,0,0,0,.15-.57v-.57a3.83,3.83,0,0,1,.14-.72c0-.28-.11-.36-.14-.57a4.34,4.34,0,0,1,0-1.08c.09-.75.18-1.61.28-2.36.06-.4,0-.82,0-1.22,0-.19.12-.33.15-.57s0-.34,0-.5c0-.49.14-.8.14-1.29a7.87,7.87,0,0,1,.14-1.15c.06-.37-.05-.77,0-1.14a6.67,6.67,0,0,0,.15-1.15,4,4,0,0,1,.28-1.22,3.75,3.75,0,0,0,.15-1.14c0-.46.14-.75.14-1.22s.29-.51.29-1a6.83,6.83,0,0,1,.14-1.15c0-.19,0-.39,0-.57s0-.22,0-.29.26-.07.29-.14c.14-.39,0-.91.14-1.29a3,3,0,0,0,.29-1.08,4.56,4.56,0,0,1,0-.64c0-.29.2-.33.28-.58s0-.78.15-1.14.21-.25.28-.5a2.25,2.25,0,0,0,0-.58,2.18,2.18,0,0,1,0-.57c.07-.17.22-.17.29-.36s.07-.49.14-.71.08-.39.15-.58.11-.74.21-1c0-.08.17-.12.22-.25a1.31,1.31,0,0,0,0-.28,1.88,1.88,0,0,1,0-.58c0-.07.25-.07.28-.14s0-.2,0-.29-.06-.41,0-.57.24-.1.29-.21,0-.2,0-.29a3.65,3.65,0,0,1,.14-.57,4.48,4.48,0,0,0,.29-.58,4.93,4.93,0,0,1,.07-.57c.11-.3.22-.28.22-.64a.91.91,0,0,1,.14-.51c0-.09.09-.08.14-.21s0-.21,0-.29,0-.2,0-.28.26-.07.29-.15-.07-.46,0-.64.22-.17.29-.36-.07-.41,0-.57.25-.07.28-.15,0-.2,0-.28,0-.32,0-.43.11-.14.15-.22.09-.08.14-.21,0-.2,0-.29.22-.19.28-.36,0-.4,0-.57.25-.11.29-.21,0-.21,0-.29,0-.21,0-.29.11-.12.14-.21.11-.11.15-.22,0-.2,0-.28.21-.23.28-.43,0-.26,0-.36.19-.1.22-.18,0-.37.07-.54.22-.18.29-.43-.06-.35,0-.5l.28-.29s0-.23,0-.28.26-.07.29-.15,0-.2,0-.28,0-.21,0-.29.26-.07.29-.14-.05-.35,0-.5.24-.11.28-.22,0-.2,0-.29,0-.2,0-.28.26-.07.29-.15,0-.23,0-.28l.14-.22c0,.1.16-.23.15-.21s0-.21,0-.29.22-.24.28-.36,0-.2,0-.28.21-.37.29-.58.13-.4.21-.57.17-.19.22-.29,0-.2,0-.28a3.69,3.69,0,0,1,.57-1.08,1.91,1.91,0,0,0,.29-.43c0-.06,0-.23,0-.28s.11-.14.14-.22a2.6,2.6,0,0,1,.15-.28c0-.08,0-.21,0-.29s.22-.26.28-.36,0-.21,0-.29.24-.06.29-.14.06-.41.14-.57.22-.3.29-.43,0-.22,0-.29.26-.1.29-.14,0-.17,0-.22.19-.13.21-.18,0-.19.07-.25,0-.2,0-.28.19-.11.22-.18.16-.4.21-.54c0,.1.16-.24.15-.21s0-.21,0-.29.34-.4.42-.57,0-.22,0-.29.24-.07.29-.14,0-.25.07-.33.17-.09.22-.18,0-.21,0-.28.18-.11.21-.18c.16-.31.34-.7.5-1s.32-.45.43-.64.07-.29.15-.51.34-.27.43-.43.13-.34.21-.5a2,2,0,0,1,.36-.64,4.61,4.61,0,0,0,.29-.43c0-.07,0-.21,0-.29s.24-.07.28-.14a6.1,6.1,0,0,0,.29-.57c.09-.2.14-.44.21-.61s.19-.14.22-.18,0-.2.07-.25.17-.1.22-.18,0-.22,0-.29.25-.29.35-.43.24-.48.36-.64.26-.07.29-.15,0-.22,0-.28a9.17,9.17,0,0,1,.72-1,2.52,2.52,0,0,0,.21-.25s0-.2.07-.25,0-.16,0-.21.24-.08.29-.15.19-.44.29-.57.4-.35.43-.43,0-.3,0-.43.26-.11.28-.14l.36-.5c.07-.1,0-.21.07-.29s.15-.1.22-.18a4.25,4.25,0,0,0,.35-.39c.1-.2.19-.4.29-.58a4.61,4.61,0,0,0,.29-.43c0-.12.21-.31.28-.43a3.06,3.06,0,0,1,.29-.21s0-.24,0-.29.23-.1.29-.21,0-.21,0-.29a2.64,2.64,0,0,1,.36-.39,2.06,2.06,0,0,0,.35-.47s0-.17,0-.21.22-.07.29-.15.16-.09.29-.28,0-.24,0-.29.26-.12.28-.14,0-.17.15-.29.24-.06.28-.14,0-.22,0-.29a2,2,0,0,1,.36-.36,8.19,8.19,0,0,0,.65-.93c.18-.21.27-.36.43-.57s.22-.07.28-.14,0-.22,0-.29.24-.15.29-.22a2.44,2.44,0,0,0,.14-.28c.1-.14.26-.27.36-.4s.16-.1.22-.18,0-.18.07-.28.43-.3.57-.47,0-.23.07-.32.22-.17.29-.29.18-.34.28-.5.34-.21.43-.36.18-.34.29-.5.3-.27.43-.43a6.08,6.08,0,0,1,.43-.5c.25-.24.54-.62.86-.93s.54-.75.79-1,.29-.2.43-.39,0-.22.07-.29.16-.1.21-.18.35-.21.51-.46c0,0,0-.25,0-.29s.21-.08.28-.14a2.9,2.9,0,0,0,.43-.43c.07-.08.22-.38.29-.43.39-.31.58-.68.93-1,.12-.1.4-.21.5-.32s0-.22,0-.29.22-.07.29-.14a6.68,6.68,0,0,1,.86-1c.17-.14.32-.18.43-.35a3.75,3.75,0,0,1,.21-.4c.14-.17.51-.22.65-.39s.15-.35.28-.5a3.9,3.9,0,0,1,.43-.36s.08-.13.15-.19.21,0,.28-.1,0-.27.08-.32.18-.14.21-.18.37-.25.5-.39a2.53,2.53,0,0,1,.22-.18c0-.06,0-.2.07-.29s.41-.17.57-.32.23-.39.36-.54a2.64,2.64,0,0,1,.43-.36,4.33,4.33,0,0,0,.43-.43,4.61,4.61,0,0,1,.29-.43c.26-.16.33-.13.5-.32s.17-.05.21-.11,0-.25,0-.28c.3-.26.72-.3,1-.65a2.49,2.49,0,0,1,.43-.5c.15-.12.33-.26.43-.36s0-.18.08-.24.21,0,.28-.09.24-.29.36-.38l.43-.36a5.76,5.76,0,0,1,.43-.43,9.26,9.26,0,0,0,.86-.79c.27-.29.6-.42.93-.72.14-.12.28-.28.36-.35-.08.07.16-.22.14-.2s.23-.05.29-.09a3.87,3.87,0,0,1,.29-.29,3.4,3.4,0,0,0,.28-.21c.12-.15.19-.27.29-.41s.32-.15.43-.31.14-.28.21-.38a2.71,2.71,0,0,1,.51-.3c.08,0,.2,0,.28-.07s0-.11.14-.18a4.83,4.83,0,0,0,.58-.43,1.83,1.83,0,0,0,.14-.29c.07,0,.22,0,.29-.09a7.88,7.88,0,0,0,.86-.69c0-.06,0-.17.07-.24s.21,0,.29-.1,0-.12.14-.19.21,0,.29-.1a4.18,4.18,0,0,1,.5-.35c.08,0,.21,0,.28-.1s0-.25,0-.29c.3-.25.73-.29,1-.64.11-.15.18-.27.28-.41a2.54,2.54,0,0,1,.43-.27c.09,0,.2,0,.29-.07s.08-.15.14-.18a1.59,1.59,0,0,0,.43-.29c.08-.07.16-.18.29-.28a2.21,2.21,0,0,1,.29-.22,4.26,4.26,0,0,1,.5-.32c.18-.1.38-.16.5-.25s0-.19.07-.24.22,0,.29-.1l.5-.38a1.46,1.46,0,0,0,.28-.21s0-.26,0-.29.43-.07.58-.14c0,0,.13-.19.14-.2s.21,0,.29-.09a4.75,4.75,0,0,0,1.07-.65,2,2,0,0,1,.22-.14s0-.18,0-.21.41-.17.57-.29.2-.31.57-.43a2,2,0,0,0,.58-.29c-.06,0,.19-.23.14-.19a1.61,1.61,0,0,1,.29-.09s0-.14.07-.17.2,0,.28-.1.11-.12.22-.21.21,0,.29-.1,0-.24,0-.28.2-.06.28-.1c.4-.2.7-.17,1-.43s.6-.36.94-.59a5,5,0,0,1,1-.71,16.14,16.14,0,0,0,2.08-1.25c.3-.19.61-.37,1-.58.16-.08.44-.1.57-.21s0-.25,0-.29.22,0,.29-.09c.29-.24.66-.25,1.07-.46.05,0,.33-.21.43-.28a2.11,2.11,0,0,1,.43-.29c.1,0,.28,0,.36-.12s.1-.15.14-.19a2.25,2.25,0,0,1,.15-.19s.22-.07.28-.1.36-.21.58-.28a1.83,1.83,0,0,0,.28-.1.46.46,0,0,0,.15-.19,10.06,10.06,0,0,0,1.22-.5c.15-.11.14-.24.35-.36s.2-.05.29-.09.11-.18.14-.2c.75-.4,1.46-.48,2.22-.93.34-.19.66-.49,1.08-.71a9.36,9.36,0,0,1,1.14-.46,9.8,9.8,0,0,0,2.08-1,5.32,5.32,0,0,1,1.22-.6,9.51,9.51,0,0,0,1-.48,11.31,11.31,0,0,1,1.15-.43c.15-.06.45-.08.57-.19s.12-.24.29-.38a6.83,6.83,0,0,1,1.22-.46c.37-.16.77-.28,1.14-.43.54-.2,2-.44,2.22-1h.72a1,1,0,0,1,.43-.57h.29v.14h.43v-.14h.14c-.09-.37,2.7-1.21,3.15-1.43h.43a4.6,4.6,0,0,0,1.15-.58h.71c.21-.46,1.27-.55,1.72-.69.63-.19,1.25-.41,1.87-.62a26.73,26.73,0,0,0,3.72-1.27h.72c.56-.28,1.16-.43,1.72-.71h.71c1.09-.55,2.35-.6,3.44-1.15H695v-.14h.14v.14h.57v-.14h.43l.58-.29h.71v-.14h.72a9.71,9.71,0,0,1,1-.43h.72c.57-.21,1.15-.36,1.72-.57h.14v.14h.57v-.14h.58v-.15h.71v-.14h.72l.57-.29h.86V911H706v.14h.57V911h.72l.43-.29h.86v-.14h.86v-.14h.43v.14h.43v-.14H711v-.15h1.15l.57-.28h.58v.14h.57V910h.86v-.15h1.14v-.14h.29v.14h.57v-.14h.86v-.14h1.29v-.15h.29v.15h.72v-.15h1.14v-.14h.58v.14h.71v-.14h1.58v-.14h.14v.14h1.15v-.14h1v.14h.72v-.14h1.29v.14h.43v-.14h3.58v.14H733v-.14h1.44v.14h1.86v-.14h.14v.14H738v.14h1.57v.15h1.58v.14h1.58v.14h1.57V910h1.58l.43.28H747v.15h1.57v.14h.86l.29.29h1.57l1.15.43h1.15v.28h1.57v.29h1.15l.43.29h.71v.14h.72c.51.25,1.05.37,1.58.57h.71V913h.29v.14h.86l.29.28h.71c.57.29,1.41.29,1.86.72h.86c.24.24.93.22.86.57h1V915h.71l.86.43h.72v.29h.86V916h.71a1,1,0,0,0,.58.43h.71c.12.29.35.21.58.33s.31.26.57.39h.72v.29h.71v.28h.72a3.77,3.77,0,0,0,.64.39c.19.09.33.23.43.28.26.12,1,.08.94.48h.71c.13.24.34.31.57.43h.72c-.32.3.58.49.86.6.44.16.58.32,1,.44a4.44,4.44,0,0,1,1.08.5c.31.16.92.42,1.07.75h.72c-.06.28.16.25.36.34a1.31,1.31,0,0,1,.28.09c.09.05.21.19.15.14s.13.12.21.17.2,0,.29.1.35,0,.29.31h.71a.39.39,0,0,0,.29.43h.86v.14h1.57v.14h1.44v-.14h.28v-.14h.72c.23-.12.46-.19.57-.43h.43c.08-.17.18-.17.29-.27l.29-.09v-.14c.17-.18.12-.21.28-.36s.31-.18.43-.29a.81.81,0,0,1,.14-.57c.06-.09.23-.1.29-.22s0-.2,0-.28a3.72,3.72,0,0,0,.14-1.22v-.43c.35-.36,0-.78,0-1.15h-.28v-.57h.14c-.4-.19-.17-.45-.43-.72h-.28a.47.47,0,0,1-.15-.43h-.14l-.29-.28-.14-.29H793a1,1,0,0,1-.43-.43h-.43v-.29h-.43c-.21-.37-.49-.43-.86-.57h-.43c.1-.47-.8-.2-.72-.72H789l-.14-.28V913h-.72v-.15c-.19-.19-.79-.26-.71-.57H787v-.14h-.58l-.14-.29H786l-.29-.29h-.14v-.14h-.72v-.14l-.86-.43h-.14l-.58-.29v-.14h-.71v-.15h-.43L782,910h-.43v-.15h-.14v-.14H781v-.14h-.43v-.29h-.72v-.14h-.14c-.27-.14-1.06-.26-1-.58h-.72c-.12-.24-.34-.31-.57-.43h-.72l.15-.28h-.86v-.29h-.72l-.57-.43h-.86v-.29h-.86c.05-.3-1.13-.56-1.44-.71h-.71l-.15-.29h-.85v-.28h-.86v-.29h-1V905h-.86v-.14h-.28v-.14h-.72l-.43-.29h-.72l-.43-.29h-.57a9.71,9.71,0,0,1-1-.43h-.72v-.14h-.86l-.28-.29h-1.15V903H758.6v-.29h-1.43l-.29-.29H756v-.14h-1.29V902H753.3v-.14h-.86v-.14h-.29v-.15h-1.57v-.14h-1.29v-.29h-1.44V901h-1.57v-.14H744.7v-.15h-1.57v-.14h-1.58v-.14H740v-.15H738.4v-.14h-1.58V900h-1.57v-.15h-.58V900h-1.43v-.15h-1.86V900h-.29v-.15h-1.57v-.14h-.43v.14h-1.58v-.14h-.57v.14h-1.72V900h-.15v-.15H723.5V900h-.43v-.15h-1V900h-1.44v.14h-.14V900h-1.15v.14H718.2v.14h-.15v-.14h-.86v.14h-1.14v.15h-.57v-.15h-.58v.15h-1v.14H713v.14h-.43v-.14h-.72v.14H711v.15h-.86V901h-.71v.14h-.29V901h-.72v.14h-.71v.15H707v.14h-1v.14h-.29v-.14h-.43v.14h-.57v.15H704v.14h-.71V902h-1v.15H702V902h-.43v.29h-.15v-.14H701v.14h-.71v.14h-.72l-.57.29h-.72l-.43.29h-.71l-.58.28h-.28v-.14h-.43v.14h-.58l-.43.29h-.71v.14h-.72a9.71,9.71,0,0,1-1,.43h-.72l-.43.29h-.71c-.15.09-.29.19-.43.29h-.43v.14H689V905h-.43l-.43.29H688v-.14h-.43v.14c-.15.09-.29.19-.43.29H686l-.43.28h-.43l-.43.29H684c-.56.28-1.16.43-1.72.71h-.58c-.14.1-.28.2-.43.29h-.43l-.86.43h-.43l-.43.29h-.43l-.43.28h-.57l-.86.43h-.43c-.42.22-.86.36-1.29.58h-.28v.14h-.58v.14h-.28v.15h-.43v.28h-.43V910h-.43l-.29.28h-.43v.15h-.43v.14h-.43v.14h-.29l-.43.29h-.43v.14h-.28l-.43.29h-.43v.14h-.43v.15h-.29c-.31.15-.85.24-1,.57h-.57c-.13.24-.34.31-.58.43h-.43v.14h-.28v.29h-.29v.14h-.57a5.06,5.06,0,0,1-1.15.55,3.61,3.61,0,0,0-1.15.6h-.43a15.84,15.84,0,0,1-1.43.71H660c.06.28-.9.59-1.15.7l-1.36.59a6.22,6.22,0,0,0-.71.29c-.23.15-.18.25-.36.41a8.5,8.5,0,0,1-1.44.59c-.26.13-.92.25-.86.58h-.71c.07.31-.28.29-.5.38s-.29,0-.36.12,0,.24,0,.28a8.1,8.1,0,0,1-1.43.65,3.44,3.44,0,0,0-1.15.57h-.43c.15.52-1.43,1-1.79,1.2s-.61.5-.93.66-.69.39-1,.55c-.85.43-1.43.89-2.29,1.32a5.84,5.84,0,0,0-1,.57s0,.17-.07.24-.21,0-.29.09a6,6,0,0,1-.57.28c-.11,0-.25.07-.36.13s-.11.18-.14.19a1.11,1.11,0,0,0-.29.1c.08-.1-.21.24-.14.19s-.11.15-.15.19-.23.07-.28.09c-.22.11-.38.25-.58.36a23.94,23.94,0,0,0-2.07,1.39c-.22.15-.33.17-.5.31s-.22,0-.29.09,0,.26,0,.29c-.28.22-.82.28-1.15.48a4,4,0,0,0-.57.33c-.09.08-.35.18-.43.29a2.2,2.2,0,0,1-.64.69c-.41.24-.84.39-1.22.65.1-.07-.16.21-.15.19s-.21,0-.28.09c.13-.07-.17.21-.15.19s-.2,0-.28.1c.11-.07-.33.34-.29.29s-.1.24-.14.28a2.13,2.13,0,0,1-.43.34,10.89,10.89,0,0,0-1.15.52c-.2.16-.27.35-.5.54s-.45.27-.57.39-.19.12-.22.15,0,.18,0,.21-.21,0-.28.1-.22.22-.15.19a4.18,4.18,0,0,0-1,.64,5.39,5.39,0,0,1-1,.65,1.83,1.83,0,0,1-.22.25c-.08.06-.21.07-.28.14s-.19.41-.29.48a3,3,0,0,1-.5.2,4,4,0,0,0-.43.29c-.33.24-.59.6-.86.83s-.29.17-.43.29-.22,0-.29.1,0,.25,0,.28c-.21.31-.67.43-.93.65a1.75,1.75,0,0,0-.43.43c-.19.24-.16.14-.43.33s0,.13-.21.2-.23,0-.29.08-.13.25-.29.46a2.76,2.76,0,0,1-.57.36,1.6,1.6,0,0,0-.43.36,2,2,0,0,1-.57.5c-.18.11-.41.23-.58.36s-.21.28-.28.36l-.43.43a5.08,5.08,0,0,0-.58.43,4.85,4.85,0,0,0-.28.4c-.11.14-.32.15-.43.31s-.19.28-.29.41-.39.23-.57.38a5.76,5.76,0,0,0-.43.43,5.78,5.78,0,0,1-.43.43c-.18.14-.29.21-.43.33a1.54,1.54,0,0,1-.29.17s0,.19-.07.25a1.85,1.85,0,0,1-.43.32,3.47,3.47,0,0,0-.64.7c-.12.16-.46.18-.58.38s-.1.36-.28.5-.21.08-.29.14-.11.19-.14.22a5.76,5.76,0,0,0-.43.43c-.06,0-.13.16-.22.25a2.92,2.92,0,0,1-.28.21,3,3,0,0,0-.43.36c-.3.29-.49.59-.79.83-.13.09-.34.27-.43.35s-.22.38-.29.43c-.4.32-.47.54-.86.86a2.51,2.51,0,0,0-.5.4c-.13.18-.08.29-.29.5s-.39.21-.5.32-.2.32-.36.47-.25.34-.35.46-.26.26-.43.43-.29.19-.43.43c0,0,0,.25,0,.29s-.22.07-.29.14l-.29.29c-.11.12-.07.17-.14.28s-.33.26-.43.36c-.28.28-.37.6-.65.83a4,4,0,0,0-.78.89c-.13.18-.44.3-.58.5,0,0,0,.24,0,.29s-.21.07-.28.14-.16.09-.29.29a2.53,2.53,0,0,0-.14.29,3.58,3.58,0,0,1-.29.43c-.4.31-.65.41-.86.78a8.62,8.62,0,0,1-.79.9c-.09.13-.2.36-.28.5s-.18.13-.22.18,0,.17,0,.22c-.18.21-.53.3-.71.57-.05.06,0,.22,0,.28s-.25.11-.29.15-.21.34-.29.43-.4.38-.43.43.06.27,0,.36-.15.1-.21.17-.37.38-.5.54-.42.55-.65.86c-.09.12,0,.25-.07.36s-.22.08-.29.14l-.43.43c-.09.1-.2.47-.28.58s-.24.07-.29.14,0,.22,0,.29-.24.15-.29.21-.09.23-.14.29-.16.1-.21.18,0,.19-.08.25c-.24.3-.48.65-.71,1-.11.17-.32.26-.43.43a3.88,3.88,0,0,0-.29.5,3.8,3.8,0,0,1-.71.93,1.52,1.52,0,0,0-.29.36c0,.07,0,.22,0,.29s-.26.06-.29.14.05.22,0,.29c-.18.28-.44.49-.64.79-.09.12,0,.25-.07.35s-.23.08-.29.15a2.69,2.69,0,0,0-.29.43c0,.06,0,.21,0,.28s-.24.07-.28.15-.16.38-.29.57-.3.38-.43.57,0,.24,0,.29-.26.09-.29.14-.15.39-.28.58-.11.24-.15.28-.25.07-.28.15,0,.26,0,.35-.18.11-.22.18-.18.37-.28.54-.37.33-.43.47-.09.36-.15.5L586,981a1,1,0,0,0-.15.28c-.08.18-.19.42-.28.58s-.26.06-.29.14,0,.22,0,.29a3.23,3.23,0,0,1-.29.43c-.1.1-.22.08-.28.21s0,.21,0,.29a6.1,6.1,0,0,1-.29.57,2.59,2.59,0,0,1-.14.29c0,.06-.19.12-.22.18s-.07.36-.14.5-.45.25-.5.39,0,.21,0,.29a1.92,1.92,0,0,0-.14.29,4,4,0,0,1-.58,1,2.34,2.34,0,0,0-.07.32s-.19.15-.21.18,0,.2-.08.25-.17.09-.21.18c-.18.35-.25.79-.43,1.15-.06.12-.22.1-.29.21s0,.22,0,.29-.23.06-.28.14,0,.22,0,.29-.27.09-.29.14,0,.22,0,.29l-.29.57c-.1.23-.2.48-.28.72a3.68,3.68,0,0,1-.15.57c0,.08-.25.06-.28.14s0,.22,0,.29l-.29.43c0,.06,0,.21,0,.29s-.23.07-.29.14a3.77,3.77,0,0,0-.28.57,9.34,9.34,0,0,0-.43,1.15,5.08,5.08,0,0,1-.58,1.14c0,.06,0,.24,0,.29s-.25.07-.28.14,0,.22,0,.29-.19.33-.15.22a2.43,2.43,0,0,1-.14.28c0,.08,0,.21,0,.29s-.19.1-.21.18-.06.23-.08.25-.06.23-.07.25-.18.13-.21.18,0,.2-.07.29-.18.16-.22.28,0,.25,0,.36-.09.13-.14.29-.23.38-.29.57c-.13.38-.3.77-.43,1.15-.06.19-.14.44-.21.64s-.18.17-.22.29,0,.21,0,.28a2,2,0,0,0-.07.25c0,.08-.18.07-.21.18s0,.4-.08.58-.16.25-.21.35,0,.21,0,.29-.26.07-.29.14,0,.2,0,.29,0,.21,0,.29-.1.12-.14.21c0-.12-.17.25-.14.22s0,.21,0,.28-.24.1-.29.22,0,.2,0,.29,0,.19,0,.28-.19.1-.22.18,0,.37-.07.54-.21.2-.28.43,0,.25,0,.36-.11.12-.15.21-.1.11-.14.22,0,.2,0,.28,0,.22,0,.29-.26.07-.29.14.07.41,0,.58-.22.11-.28.28,0,.22,0,.29,0,.21,0,.29-.26.06-.29.14,0,.4,0,.57a4.37,4.37,0,0,1-.29.57c-.06.2-.08.39-.14.58s-.24.39-.29.57.06.4,0,.57-.21.23-.28.43,0,.31,0,.43-.12.14-.15.22-.09.08-.14.21a1.4,1.4,0,0,0,0,.29,2.17,2.17,0,0,1,0,.57c-.07.21-.21.23-.29.43s.06.45,0,.65-.19.1-.21.18a2,2,0,0,1-.07.25c-.05.09-.12.49-.15.57s-.09.39-.14.57a4.14,4.14,0,0,0-.14.65c0,.08,0,.21,0,.28s-.26.07-.29.15c-.13.33.12.81,0,1.14,0,.13-.19.18-.21.25s0,.2-.08.26-.14.56-.14.57a2.54,2.54,0,0,1-.07.57c-.1.28-.18.25-.22.57s0,.44,0,.65,0,.21,0,.29-.25.07-.28.14,0,.4,0,.57-.11.35-.15.58a3.41,3.41,0,0,1-.07.6c0,.08-.17.09-.21.18s0,.2,0,.29a8.19,8.19,0,0,1-.15,1.15c0,.11,0,.24,0,.35s-.24.18-.28.29a2.18,2.18,0,0,0,0,.57,3.53,3.53,0,0,1-.14,1.15,3.63,3.63,0,0,0-.29,1.29,7.87,7.87,0,0,1-.14,1.15c0,.33.12.82,0,1.14,0,.08-.26.07-.29.15s0,.2,0,.28a2.81,2.81,0,0,0,0,.29c0,.14-.13.18-.14.28-.07.42.06.87,0,1.29a6.67,6.67,0,0,0-.15,1.15,9.48,9.48,0,0,1-.14,1.22c-.05.38,0,.8-.07,1.14s0,.82-.07,1.22a6.8,6.8,0,0,0-.15,1.15,9.48,9.48,0,0,1-.14,1.22c0,.37,0,.8-.07,1.14s0,.82-.07,1.22a6.8,6.8,0,0,0-.15,1.15,15.44,15.44,0,0,0-.07,2.36,3.84,3.84,0,0,1-.07,1.22c-.05.37.06.77,0,1.14s-.19.41-.14.72a2.64,2.64,0,0,1,.14.57v.58a2.5,2.5,0,0,1-.14.57,1.65,1.65,0,0,0,.07.61c0,.09.13.09.14.18a1,1,0,0,0-.07.21,5.53,5.53,0,0,1,0,1.15c-.13.52-.75.69-1.15,1s-.74.6-1.14.86c-.77.52-1.59,1-2.37,1.47a42.78,42.78,0,0,1-4.73,2.65c-1.54.77-3.12,1.54-4.72,2.15s-3.17,1.27-4.8,1.72-3.21.83-4.73,1.4h-.72l-.57.28h-.72v.15h-.71v.14h-.86v.14h-.86v.15h-.86v.14h-1.15v.14h-1.14v.15h-1.58v.14h-2.15v.14h-5.87v-.14h-2.15v-.14h-1.43v-.15h-1.15v-.14h-1v-.14h-1v-.15H517v-.14h-.71v-.14h-.72V1067h-.72a31.77,31.77,0,0,0-3.08-.84,59.94,59.94,0,0,1-6.23-2.09,44.38,44.38,0,0,1-6.3-3,52.34,52.34,0,0,1-6.31-4.3l-1.57-1.29c-.53-.42-1-.92-1.51-1.36-1.08-.93-1.94-1.94-2.93-2.94a40.64,40.64,0,0,1-4.88-6.3,52.21,52.21,0,0,1-3.43-6.31,48.11,48.11,0,0,1-2.44-6.16,37.71,37.71,0,0,1-1.58-6.3c0-.27-.09-.55-.14-.86a4.38,4.38,0,0,1-.14-.43c0-.12,0-.24,0-.36s-.11-.51-.14-.79-.11-.43-.15-.71c-.08-.56-.06-1-.14-1.58s-.07-1-.14-1.58a44,44,0,0,1-.29-6.23c0-1.07.14-2,.14-3.08,0-.6.15-1.08.15-1.72a3.72,3.72,0,0,1,.14-.71c0-.24,0-.49,0-.72.08-.56.21-1.16.29-1.72a2.8,2.8,0,0,1,0-.29,4.38,4.38,0,0,1,.14-.43c0-.11,0-.25,0-.35s.14-.34.14-.36c0-.19,0-.39,0-.58s.13-.2.14-.28,0-.29,0-.43.13-.21.15-.36a8.12,8.12,0,0,1,.28-1.5c.18-.52.27-1.07.43-1.58s.26-1.06.43-1.58c.36-1,.66-2.1,1-3.15a50.34,50.34,0,0,1,2.72-6.16,26.8,26.8,0,0,1,1.72-3.15l1.14-1.72c.3-.44.54-1,.86-1.43a69.06,69.06,0,0,1,5.31-6.31,48,48,0,0,1,12.46-9c2.05-1,4.17-1.87,6.3-2.7s4.26-1.12,6.31-1.89h.71v-.14h.72v-.14h.72V962h.86v-.14h.86v-.14h1v-.15h1.15v-.14h1.43v-.14h1.86v-.15h7.45v.15h2v.14h1.57v.14h1.15v.15h1.15v.14h1V962h.86v.15h.86v.14h.71v.14h.72v.15h.72l1.14.43h.72c2,.73,4,1.22,6,1.88a53.42,53.42,0,0,1,10.46,4.71c1.8,1.08,3.56,2.2,5.3,3.36.9.61,1.79,1.22,2.65,1.9.44.36.92.68,1.36,1s.91.58,1.14,1h.15V917c0-.36.07-.71-.15-.94s-.51-.22-.71-.31c-.53-.22-1.05-.49-1.58-.71-2.2-.92-4.37-1.91-6.59-2.77s-4.38-1.56-6.59-2.3-4.45-1.13-6.59-1.93h-.57l-.58-.29h-.71v-.14h-.58l-.57-.29h-.71v-.14h-.72V907h-.72v-.15h-.71v-.14h-.72v-.14h-.72v-.15h-.86v-.14H539v-.14h-.86V906h-.86v-.14h-1v-.14H535.1v-.14h-1v-.15H532.8v-.14h-1.29v-.14h-1.57V905h-1.72v-.14h-2.15v-.14h-3.15v-.15H512.6v.15h-3.29v.14h-2.15V905H505.3v.15h-1.58v.14h-1.43v.14H501v.15h-1.15v.14H498.7v.14h-1V906h-1v.15h-.86v.14h-1v.14H494v.15h-.72v.14h-.86v.14h-.72V907H491v.14h-.72v.14h-.71l-.58.29h-.71v.14h-.58l-.57.29h-.72c-.59.22-1.19.35-1.79.53a114.65,114.65,0,0,0-14.61,5,139.4,139.4,0,0,0-14.62,7.59,68.49,68.49,0,0,0-7.3,5.09,82.59,82.59,0,0,0-7.31,6.05c-1.18,1.18-2.46,2.32-3.65,3.51s-2.29,2.44-3.44,3.59a20.26,20.26,0,0,0-1.72,1.86c-.47.59-1,1.17-1.5,1.79-1,1.23-2,2.42-2.94,3.65-1.84,2.33-3.34,4.93-5,7.31-.84,1.19-1.5,2.44-2.29,3.65s-1.24,2.42-2,3.58v.15H418v.28h-.14v.29h-.14v.29h-.15v.28h-.14a21.35,21.35,0,0,1-1.22,2.44c-.26.43-.42.91-.64,1.36s-.42.81-.58,1.22c-.34.86-.76,1.66-1.14,2.51-.05.1-.11.32-.15.43a1.47,1.47,0,0,1-.14.28c-.09.2-.11.45-.21.65a9.13,9.13,0,0,0-.51,1.21c-.29.88-.71,1.71-1,2.58-.56,1.7-1.19,3.37-1.72,5.09-.26.85-.58,1.71-.79,2.58-.1.45-.21.92-.35,1.36s-.17.77-.29,1.15a16.34,16.34,0,0,0-.72,2.57c-.13.89-.44,1.71-.57,2.58-.25,1.71-.66,3.38-.93,5.09s-.54,3.4-.79,5.09c0,.23,0,.48,0,.71s-.11.4-.14.65,0,.43,0,.64-.11.36-.15.57c-.06.43.07.87,0,1.29,0,.09-.12.23-.14.36a2.81,2.81,0,0,0,0,.29v.64c0,.5-.14.8-.14,1.29a9.26,9.26,0,0,1,0,1.29,18.51,18.51,0,0,0-.15,2.51c0,1.72-.14,3.33-.14,5.09,0,.92.14,1.7.14,2.57v2.58c0,.5.15.8.15,1.29a9.26,9.26,0,0,0,0,1.29c.11.79.2,1.72.28,2.51s0,1.65.15,2.51c0,.11.12.27.14.43a2.61,2.61,0,0,1,0,.28,3.51,3.51,0,0,0,.14.65c0,.21,0,.43,0,.64s.12.36.15.58c.13.88.14,1.69.28,2.58,0,.11.12.26.15.42a2.8,2.8,0,0,0,0,.29c0,.24.11.36.14.57.07.45.07.83.14,1.29,0,.07.12.34.15.43a2.81,2.81,0,0,1,0,.29c0,.1.12.15.14.29s0,.19,0,.28a6.73,6.73,0,0,0,.29,1.29,8.25,8.25,0,0,1,.28,1.29,9.06,9.06,0,0,0,.29,1.22c.25.83.3,1.7.57,2.51s.44,1.73.72,2.58.43,1.73.72,2.58.57,1.71.86,2.57.6,1.67.86,2.51.72,1.7,1,2.58.72,1.66,1,2.51.85,1.69,1.15,2.58a22.17,22.17,0,0,0,1.29,2.58c.2.41.37.86.57,1.28s.56.76.57,1.22h.15v.29h.14v.29h.14v.28h.15v.29h.14v.14c1.61,2.92,3.3,5.74,5.16,8.53.25.38.49.69.78,1.07s.41.78.65,1.08c.58.7,1,1.47,1.58,2.14s1.14,1.4,1.71,2.15a19,19,0,0,1,1.58,2.08h.14v.14h.15a.46.46,0,0,0,.14.43h.14a11.21,11.21,0,0,0,1.44,1.65c.39.48.91,1.08,1.29,1.58s1.1,1,1.57,1.57,1,1.12,1.51,1.65c1.05,1.06,2.18,2,3.22,3.08s2.19,1.91,3.22,2.94a34.73,34.73,0,0,0,2.87,2.4c1,.76,1.92,1.58,2.94,2.26,1.93,1.29,3.78,2.71,5.73,4s3.8,2.36,5.73,3.51c.92.55,1.89,1,2.86,1.5s1.87,1.07,2.87,1.48c1.93.81,3.8,1.78,5.73,2.58s3.82,1.43,5.73,2.17,3.86,1.29,5.8,1.85,3.95.89,5.81,1.59H489l.58.29h.71v.14h.57v.15h.72v.14h.72v.14H493v.15h.86v.14h.72v.14h.86v.15h.86v.14h1v.14h.86v.15h1v.14h1.15v.14h1.15v.14h1.29v.15h1.43v.14h1.57v.14h1.87v.15h2.29v.14h3.44v.14h8.59v-.14h3.73v-.14h2.44v-.15h1.86v-.14h1.57v-.14H533v-.15h1.14v-.14h1.15v-.14h1.15v-.14h1v-.15h.86v-.14h.86v-.14H540v-.15h.86v-.14h.71v-.14h.72v-.15H543v-.14h.71v-.14h.58v-.15H545v-.14h.57l.58-.29h.57c1.77-.66,3.7-1.08,5.52-1.62s3.7-1.19,5.51-1.89c3.32-1.28,6.55-2.77,9.75-4.37a17.12,17.12,0,0,0,2.43-1.29c.53-.38.29-1.7.29-2.36V1086h.28c0,.19-.15.42-.14.51s.2.29.29.5-.17.16-.15.21.2.06.22.11a3.35,3.35,0,0,1,.21.47,8.8,8.8,0,0,0,.22,1.07c0,.12.2.36.21.43s.12.08.15.14-.16.18-.15.22.2.28.29.43.07.25.14.5.09.36.15.5.2.06.21.11-.11.13-.07.25.19.23.29.43-.17.16-.15.21.27.07.29.15a2.53,2.53,0,0,0,.29.93s.17.41.14.28c0,0,.12.08.14.15s-.16.17-.14.21a1.64,1.64,0,0,0,.14.22.92.92,0,0,1,.15.14c0,.06,0,.16,0,.22s.08.34.14.5a3.06,3.06,0,0,0,.29.57s0,.2.07.25.2.06.21.11c.05.2-.08.38-.07.46s.2.07.22.11,0,.21,0,.29.19.42.28.57l.29.29c0,.2-.12.27-.07.46s.18.07.21.11,0,.21,0,.29.19.41.29.57.23.24.29.36-.17.16-.15.21.19,0,.22.11a4.13,4.13,0,0,1,.21.47,5.27,5.27,0,0,0,.14.57c.09.14.27.19.36.36s.22.63.36.93a11.5,11.5,0,0,1,.5,1.07,2.45,2.45,0,0,0,.22.43c0,.06.17.08.21.15s0,.19.07.28c.36.64.57,1.22.94,1.83,0,.09.16.17.21.25s.05.17.07.22.14.35.22.5c.17.32.38.44.5.79a9.75,9.75,0,0,0,1.07,1.79c.12.18.15.38.29.57s.22.19.29.29c-.18.08-.2.14-.08.17l.08,0s.12.1.14.14,0,.19.07.29.2.1.22.14l.14.08-.14.14c-.07-.1.16.31.14.21,0,0,.18.36.21.43.17.35.47.47.65.79.06.11,0,.24.07.36s.16.07.22.14a1.88,1.88,0,0,1,.28.43,3.29,3.29,0,0,0,.43.79c.13.17.17.43.29.57s.32.19.43.36,0,.39.14.5.34.22.43.36.11.41.22.54.25.24.35.39c.21.31.49.63.72.93,0,.07.1.22.14.29s.17.07.22.14.11.33.21.51.33.37.43.5,0,.18,0,.21.18,0,.22.07.14.12.21.22.11.17.15.21,0,.18.07.24.18,0,.21.07c.17.23.38.59.58.84s.32.27.43.43c0,0,.15.23.07.14s.1.24.07.15l.21.38c.07.06.24,0,.29.09s0,.15.07.17l-.14.14.14,0c0,.07.23,0,.29.1s0,.18,0,.21.16.12.21.18c.18.22.35.45.51.66,0,.06.24.11.28.16s0,.17,0,.22a1.72,1.72,0,0,0,.22.45s.16,0,.21.08a1,1,0,0,1,.14.19c.15.1.33.28.43.35s.35.14.43.22.12.45.15.5,0,.16.07.24.18,0,.21.07.13.25.22.37.31.19.43.32.16,0,.21.08,0,.26,0,.28.19,0,.22.11,0,.22-.07.18c.11.12.37.21.5.32a2,2,0,0,1,.43.47,2,2,0,0,0,.36.35c.3.31.61.67.86.94a8.66,8.66,0,0,1,.57.69s.24.06.29.09,0,.19,0,.22.31.12.43.21,0,.25,0,.29.23,0,.28.1l.15.12s0,.18,0,.21.35.09.5.21.23.29.36.41.23.11.28.17,0,.17,0,.21a4.1,4.1,0,0,0,.43.36,9.28,9.28,0,0,1,.72.79,2.47,2.47,0,0,0,.43.33c.07.06.21,0,.28.1s0,.18,0,.21a5.44,5.44,0,0,0,.72.72c.08.06.34.24.43.29a2.12,2.12,0,0,1,.36.19,3.1,3.1,0,0,1,.21.36,1.9,1.9,0,0,0,.29.09s-.14.1-.07.18a5.56,5.56,0,0,0,.43.42s.16,0,.21.07.28.26.15.19c.12.07.32.06.43.14s0,.25,0,.29.16,0,.21.07a4.07,4.07,0,0,0,.93.72,2.63,2.63,0,0,1,.5.29s.17,0,.22.07-.07.36-.14.28.23,0,.28.1.28.29.15.19a2.31,2.31,0,0,0,.43.29,1.82,1.82,0,0,1,.42.21s0,.19,0,.22.23,0,.29.09c.25.25.59.36.86.62,0,0,0,.25,0,.29s.17,0,.22.07a1.77,1.77,0,0,0,.35.26l.86.6c.1.06.29.29.43.36s.33.06.43.14,0,.23.08.31.15,0,.21.07.34.17.5.27a2.67,2.67,0,0,1,.5.31c.12.13.11.23.22.36s.22,0,.28.09,0,.13.15.2.29.13.43.22.16.17.36.27.39.07.5.17,0,.36-.07.31.17,0,.21.07a2.72,2.72,0,0,0,.5.29,7.68,7.68,0,0,1,.93.57,5.4,5.4,0,0,0,.93.65c.18.08.36.08.51.21s.19.3.35.41c.32.21.69.36,1,.59s.73.28.86.58h.28c.17.34.68.55,1,.71h.14c.2.39,1.36.67,1.29,1h.43c.21.1.49.15.43.43h.43c.42.21.55.49,1,.71.26.13.92.25.86.58h.43l.29.28c.45.23.84.5,1.29.72l.57.29h.43v.28h.43l.43.29v.14h.72v.15l.14.28h.57v.29h.43l.57.29.43.28h.29l.86.43.57.29h.43c0,.31.33.34.58.43h.14l.57.28h.43v.15h-.14v.14h.72l.14.29h.43v.14h.43v.29h.72v.14h.28v.14h.29v.15h.43c-.08.43,1,.28,1.14.71h.86v.29h.86v.29h.43v.14h.72v.14h-.14v.15h.71l.15.28h.86c.25.23,1.37.41,1.29.72h1v.29h.71l.15.28h.86l.57.43h.86l.43.29h.72l.14.29h.86v.28H653v.29h1v.28h1.29v.29h1v.14h.29v.15h.86v.14H658l.58.29h1l.14.28h1.58v.29h1.14v.14h.86v.15h.29v.14h1.58v.14h.57v.15h.57v.14h1.58v.14h1.57v.15h.15v.14h1v.14h1.58v.15h1.57v.14h1.58v.14h1.58v.15h1.57v.14h1.58v.14h1.43v-.14h.72v.14h1.57v.15h1.58v-.15h.43v.15h1.57v.14H688v-.14h1.43v.14h.86v-.14h1.15v.14h.71v-.14h1.72v-.15H694v.15h1.15v-.15H696v.15h.72v-.15h1.14v-.14h.58v.14h.71v-.14h1.29v-.14h.86v-.15h.14v.15h.86v-.15h1.15v-.14h.43v.14h.72v-.14h.86v-.14h.86V1166h.57v.15h.43V1166H708v-.14h.85v-.14h.86v-.15h.72v-.14h.29v.14h.71v-.14h.72v-.14h.72v-.15h.86V1165h.57v-.14h.29v.14h.43v-.14h.71v-.15h.57v-.14h.86v-.14h.72v-.15h.72l.57-.28h.14v.14h.58V1164h.43l.57-.29h.72v-.14h.43v-.15h.71v-.14h.58l.42-.29h.72l.43-.28h.72l.57-.29h.43v-.14h.14v.14h.58v-.14h.43v-.14h.71l.43-.29h.58l.57-.29h.43c.33-.16.66-.3,1-.43h.57l.43-.28H733l.58-.29H734c.62-.24,1.26-.42,1.86-.72h.43l.43-.28h.43v-.15h.72v-.14H738v-.14h.72l.43-.29h.28l.43-.29h.43c.56-.28,1.16-.43,1.72-.71h.57v-.15H743v-.14h.43v-.14h.15v-.15H744v-.14h.57V1157H745v-.15h.14v-.14h.43v-.14H746v-.15h.58v-.14h.14v-.14h.71V1156h.15v-.14h.28v-.29h.29v.15h.43v-.15h.14v-.28h.43l.29-.29h.72a1,1,0,0,1,.43-.43H751l.43-.28h.28l.43-.29h.15v-.14h.43a6.72,6.72,0,0,0,1.86-.86h.29v-.29h.42c.14-.34,1-.52,1.29-.65.5-.2.94-.45,1.44-.64h.43c.12-.31.66-.23.57-.57h.14a12.89,12.89,0,0,1,1.44-.72h.28c.6-.57,1.55-.47,2.15-1,.17-.15.12-.23.29-.38s.41-.1.57-.19a8.32,8.32,0,0,1,1-.52,2.21,2.21,0,0,0,.58-.2c.17-.14.12-.23.28-.38a5.36,5.36,0,0,1,1.15-.48c.77-.35,1.33-.71,2.15-1.12-.06-.34,1-.64,1.29-.75a3.5,3.5,0,0,0,.71-.32c.11-.09,0-.2.15-.32v.1h.43v-.14h-.31a1.69,1.69,0,0,0,.24-.05c.13-.07.35-.22.57-.33a2.47,2.47,0,0,0,.64-.36c.17-.14.38-.17.58-.34s-.05-.22.07-.3a1.36,1.36,0,0,1,.36-.09,4.15,4.15,0,0,0,1.21-.68,15.34,15.34,0,0,1,1.37-.79c.49-.23,1-.59,1.43-.79l.29-.16s.18-.3.14-.27c.17-.14.5-.22.71-.43h.15a1,1,0,0,0,.43-.43h.28c-.09.44.65.57.86.79,0,0-.22.2-.14.29s.28,0,.36.12,0,.19.07.24.19.14.22.18a7.7,7.7,0,0,0,1,1.07c.16.16.27.25.43.43a1.51,1.51,0,0,0,.5.47,4.35,4.35,0,0,1,.43.43c.07,0,.26.11.36.19s.53.44.5.67h.43c0,.51.55.54.86.78s.25.28.43.43c-.05.13,0,.2.14.2l.22.07c.12.13,0,.22.21.35s.43.07.57.2.15.23.29.38.37.13.5.27l.22.11c-.2.11-.2.17,0,.19a4,4,0,0,0,.43.29l.28.09v.29c.12.1.36.1.51.17l.21.07c.14,0,.19.06.14.19a.61.61,0,0,0,.29.21c.14,0,.19.09.14.22a7.89,7.89,0,0,1,.93.54c.69.59,1.37.79,2.08,1.32s1.28.81,2,1.29,1.28.86,1.86,1.2a12.47,12.47,0,0,0,1.86,1h.15c-.12.52,1.84.62,1.72,1.15h.43a1,1,0,0,1,.42.43h.15l.28.28h.29a5.36,5.36,0,0,1,.57.41c.21.13.5.2.72.31a11.15,11.15,0,0,0,1.29.65,2.11,2.11,0,0,1,1.15.78h.43a.9.9,0,0,0,.43.43h.71c-.3.31.44.44.72.58s.66.36,1,.5a8.34,8.34,0,0,1,.86.5H811c-.08.36,1.77,1,2.08,1.1s.63.38,1.07.55c.18.06.39.09.57.14a1.42,1.42,0,0,1,.29.1c.1,0,.11.17.14.19.8.42,1.54.57,2.29.93.35.16.64.36,1.08.52.27.11,1,.12.93.48h.72c.12.3.78.46,1,.57a5.4,5.4,0,0,1,1.15.58h.71v.28h.86c-.1.58,1.27.15,1.15.72h.71v.29h.86l.58.43h.71l-.14.28h.86v.29h.72l.86.43H831v.29h.72v.28h1l.15.29h1c.12.24.34.31.57.43h.72l.28.29h.72l.43.28h.72l.28.29h.86v.29h1.15l.29.28h.86v.14h1.57v.15h.86v-.29h1.43l.15-.28h.86l.14-.29h.43l.29-.29h.28l.15-.28h.28v-.29h.15l.28-.43h.29v-.57l.43-.29v-.43h.14v-1.29c0-.26.19-.43.14-.72v-.28h-.14c.07-.39-.15-.28-.28-.5a2,2,0,0,1-.15-.65h-.14c.07-.33-.15-.28-.22-.46s.12-.15.08-.26-.18-.09-.22-.17a9,9,0,0,1-.43-1.08l-.21-.11.14-.14c-.07-.11-.24-.17-.29-.29s-.07-.37-.14-.57a1.88,1.88,0,0,0-.29-.5c-.12-.18-.34-.14-.28-.43a1.27,1.27,0,0,0-.58-1c.09-.35-.13-.4-.28-.65.05.09-.18-.51-.15-.36,0,0-.12-.1-.14-.14s.2-.18.14-.36-.24-.07-.28-.14c-.15-.23-.15-.5-.29-.72a5.06,5.06,0,0,1-.57-1.14c-.06-.17-.07-.49-.15-.65s-.22-.11-.28-.21,0-.22,0-.29a3.74,3.74,0,0,1-.29-.72,2.83,2.83,0,0,0-.14-.35c0-.08-.18-.11-.22-.18-.2-.37-.31-.85-.5-1.26,0-.1,0-.25,0-.36s-.24-.06-.29-.14a4.37,4.37,0,0,1-.28-.71c-.07-.2-.07-.39-.15-.58l-.14-.36-.14-.07.14-.14c-.08-.12-.23-.06-.29-.22s0-.2,0-.28-.14-.39-.21-.58a4.83,4.83,0,0,0-.5-.93c-.11-.18-.08-.51-.14-.71a3.92,3.92,0,0,1-.29-.58c0-.07,0-.23,0-.28s-.19-.42-.14-.22a1.79,1.79,0,0,1-.15-.14c-.06-.13.18-.15.15-.29s-.34-.32-.43-.5a3.68,3.68,0,0,1-.15-.57,2.24,2.24,0,0,0-.14-.58c-.09-.14-.2-.28-.29-.43a3.61,3.61,0,0,1-.36-1.21,4.07,4.07,0,0,0-.14-.58,2.29,2.29,0,0,0-.07-.28c0-.06-.21-.14-.22-.18a2.34,2.34,0,0,0-.07-.32l.15-.15-.15-.07c0-.1-.24-.36-.28-.5a3.4,3.4,0,0,0-.15-.57c.05.07-.19-.43-.14-.22l-.14-.07.14-.14a2.83,2.83,0,0,1-.07-.33s-.19-.06-.22-.1a4.92,4.92,0,0,1-.14-.58c-.13-.37-.16-.77-.29-1.14-.07-.21,0-.54-.14-.72s-.2-.32-.21-.36.1-.2.07-.28-.21-.13-.22-.18.06-.32,0-.5c0,0-.18-.2-.21-.25-.17-.27-.08-.09-.15-.29s-.08-.38-.14-.57-.07-.39-.14-.58,0-.2,0-.28-.27-.07-.29-.15.2-.22.14-.36-.21-.15-.21-.17,0-.56,0-.51-.18-.07-.22-.17,0-.16,0-.22-.07-.38-.14-.57a9,9,0,0,1-.29-1.29s-.13-.26-.14-.29,0-.15,0-.21-.17-.1-.21-.18,0-.18-.08-.25a16.72,16.72,0,0,1-.57-2.37c-.13-.39-.17-.82-.29-1.22-.06-.21-.08-.37-.14-.57s0-.21,0-.29-.2-.14-.21-.17,0-.57.07-.33c0,0-.18-.36-.14-.21,0-.09-.27-.37-.29-.5-.07-.41-.08-.73-.14-1.15a11.83,11.83,0,0,0-.58-2.29,3,3,0,0,0-.14-.36c0-.07-.11-.08-.14-.21a3.46,3.46,0,0,0,.14-.51c0-.14-.2-.09-.22-.18s.1-.11.08-.25a2.62,2.62,0,0,1,0-.28c0-.12-.21-.11-.22-.18s0-.4.07-.32a1.64,1.64,0,0,0-.14-.22c0,.2-.19-.28-.14-.21s0-.22,0-.29-.13-.15-.15-.29,0-.19,0-.28-.16-.27-.14-.5h41.83V1008.09c0-1.37.15-2.61.15-4,0-.73.14-1.3.14-2s.14-1.27.14-1.94c0-1.35.3-2.69.43-4,.08-.67.18-1.31.29-2,.05-.3.25-.71.29-1a4.74,4.74,0,0,1,.14-.93c.22-.64.22-1.36.43-2s.36-1.35.57-2,.35-1.34.58-2c.11-.34.31-.67.43-1a8.73,8.73,0,0,1,.28-1c.29-.64.55-1.3.86-1.93s.55-1.37.93-2a35.17,35.17,0,0,1,2.37-4c.47-.59.82-1.35,1.29-1.94s1.11-1.33,1.72-2a35.8,35.8,0,0,1,3.72-3.87c.36-.3.64-.7,1-1s.7-.47,1-.72c.64-.52,1.26-1,1.93-1.47a32.24,32.24,0,0,1,4-2.29c1.29-.64,2.61-1.17,3.94-1.68s2.71-.73,4-1.22H904v-.14h.72v-.15h.86v-.14h.86v-.14h1v-.15h1.29v-.14h2V959h5.15v.14h2v.14h1.29v.15h1v.14h.86v.14h.86v.15h.72l.57.28h.72c1.27.48,2.59.81,3.86,1.27a35.62,35.62,0,0,1,7.88,4.25,26.12,26.12,0,0,1,3.94,3.51,22.15,22.15,0,0,1,1.65,2c.26.32.47.7.72,1a5.86,5.86,0,0,1,.71.93c.37.66.75,1.34,1.15,2a9.66,9.66,0,0,1,1,2c.23.67.64,1.26.86,1.93s.5,1.33.72,2a27.09,27.09,0,0,1,1.15,3.94,2.45,2.45,0,0,0,.14.29c0,.08,0,.19,0,.28s.11.34.14.43.09.32.15.5a1.62,1.62,0,0,1,0,.22c0,.12.13.21.14.29.11.67.18,1.26.29,1.93,0,.17.1.37.14.57s.13.4.14.5c0,.31,0,.66.07.94.11.64.12,1.26.22,1.93a26.83,26.83,0,0,1,.43,3.94c0,.72.14,1.27.14,2,0,.33,0,.67,0,1s.15.6.15,1v3.94c0,.65.14,1.23.14,1.94v108.6h66.76V986.6a24.44,24.44,0,0,0,0-3.73A2.64,2.64,0,0,1,1016.49,982.3ZM570.2,1085.52v-.14h.14v.14Z" transform="translate(-213.29 -716.69)"/>
      <path class="a" d="M1283,913.67v201.66h66.76V908.87H1283Z" transform="translate(-213.29 -716.69)"/>
      <path class="a" d="M1354,811.16c-.38-1.52-1-3-1.43-4.44a16.43,16.43,0,0,0-1-2.22,11.59,11.59,0,0,0-.5-1.22,10.58,10.58,0,0,1-.64-1.08,25.31,25.31,0,0,0-1.22-2.22,22.79,22.79,0,0,0-1.51-2.22,49.64,49.64,0,0,0-3.86-4.44,45,45,0,0,0-9-6.63c-2.78-1.66-6-2.35-9-3.47h-.72l-.57-.29H1324v-.14h-.86v-.14h-.86v-.15h-1.14v-.14h-1.44v-.14h-6.73v.14h-1.43v.14h-1.15v.15h-.86v.14h-.86v.14h-.71l-.58.29h-.57c-.73.27-1.49.42-2.22.67a35,35,0,0,0-9,4.06c-.72.51-1.49,1-2.22,1.47s-1.53,1.2-2.29,1.82-1.54,1.25-2.22,1.94a25.75,25.75,0,0,0-2.08,2.22,45.74,45.74,0,0,0-5.8,9,37.88,37.88,0,0,0-1.72,4.52,14.44,14.44,0,0,0-.57,2.22c0,.16-.19.45-.22.64s0,.34-.07.5-.12.17-.14.29a2.8,2.8,0,0,0,0,.29,3.51,3.51,0,0,1-.15.5,15.84,15.84,0,0,0-.28,2.22c0,.11-.12.26-.15.43v.21a3.29,3.29,0,0,1-.07.58,7.21,7.21,0,0,0-.07,1.07c0,.45-.14.71-.14,1.15v3.29c0,.83.14,1.52.14,2.29a7.7,7.7,0,0,0,.14,1.15c0,.19,0,.39,0,.57s.12.34.15.51c.06.4.08.78.14,1.14s.09.68.14,1.08a9.07,9.07,0,0,0,.29,1.14c.13.38.16.78.29,1.15.24.73.38,1.5.64,2.22s.54,1.48.79,2.22.71,1.47,1,2.22.77,1.45,1.15,2.22a37.63,37.63,0,0,0,15.83,15.44,46.14,46.14,0,0,0,4.44,2c1.48.55,3,.88,4.52,1.43h.57v.14h.72v.15h.71v.14h.86v.14h1v.15h1.15v.14h1.86V860h4.73v-.14h1.86v-.14h1.15v-.15h1v-.14h.86v-.14h.72v-.15h.71V859h.72c.73-.27,1.48-.45,2.22-.67a42.05,42.05,0,0,0,9-4,35.39,35.39,0,0,0,4.44-3.16c.78-.64,1.49-1.35,2.22-2.07a31,31,0,0,0,2.22-2.22,48.18,48.18,0,0,0,3.37-4.52c.23-.39.48-.75.71-1.14a4.61,4.61,0,0,0,.22-.51c.1-.22.3-.34.43-.57.39-.71.65-1.52,1.07-2.22a11.09,11.09,0,0,0,.93-2.22c.25-.75.63-1.46.86-2.22a16.84,16.84,0,0,0,.58-2.22c0-.16.18-.46.21-.65s.12-.42.14-.57a7.81,7.81,0,0,1,.22-1.07,7.09,7.09,0,0,0,.14-1.15c0-.1.12-.15.15-.29s0-.14,0-.21.12-.43.14-.57c.1-.77,0-1.45.14-2.23a32.42,32.42,0,0,0,.14-4.44A36.81,36.81,0,0,0,1354,811.16Z" transform="translate(-213.29 -716.69)"/>
      <path class="a" d="M1530,777.92V931.79h-.15c-1.06-1.64-2.43-3-3.65-4.58-.59-.77-1.41-1.52-2-2.29a17.77,17.77,0,0,0-2.29-2.3c-1.36-1.21-2.75-2.42-4.15-3.58s-2.7-2.12-4.09-3.15a94.68,94.68,0,0,0-8.23-5,38,38,0,0,0-4.09-1.9c-1.34-.59-2.7-1.15-4.08-1.67-2.7-1-5.55-1.61-8.24-2.62h-.57l-.58-.29h-.57v-.14h-.71v-.15H1486V904h-.71v-.14h-.72v-.15h-.72v-.14h-.71v-.14h-.86v-.15h-.86v-.14h-.86V903h-1v-.15h-1.15v-.14h-1.15v-.14H1476v-.15h-1.43v-.14h-1.86v-.14H1470V902h-8.74v.15h-2.73v.14h-2v.14h-1.58v.15h-1.43v.14h-1.15v.14h-1.14V903h-1v.14h-1v.14h-1v.15h-.86v.14h-.86v.14h-.72v.15H1445V904h-.86v.14h-.72v.15h-.57v.14h-.72l-.57.29h-.72c-1.75.65-3.65,1-5.44,1.5s-3.59,1.1-5.38,1.7a103.56,103.56,0,0,0-19.12,8.9,92.66,92.66,0,0,0-9.6,6.59,47.63,47.63,0,0,0-4.8,3.94c-.74.74-1.55,1.55-2.36,2.22a9.52,9.52,0,0,0-2.3,2.22h-.14a11.91,11.91,0,0,1-1.29,1.51c-.47.57-1.11,1-1.58,1.57-.82,1-1.73,2-2.57,3a88.62,88.62,0,0,0-7.74,10.75c-1.1,1.81-2.22,3.57-3.15,5.44-.13.26-.32.46-.43.72s-.32.46-.43.72c-.2.42-.37.87-.58,1.28s-.48,1-.71,1.44a3.92,3.92,0,0,0-.58,1.22h-.14v.28h-.14V960h-.15v.28h-.14v.29l-.14.29a13.48,13.48,0,0,0-.58,1.22,4.3,4.3,0,0,1-.28.57c-.09.17-.07.4-.15.57a27,27,0,0,0-1.14,2.58c-.28.85-.62,1.67-.93,2.51s-.65,1.67-.93,2.51-.45,1.7-.79,2.5-.52,1.7-.79,2.51a9,9,0,0,0-.29,1.29c0-.1-.14.28-.14.29s0,.19,0,.28-.24.46-.29.65c-.19.83-.3,1.69-.57,2.5s-.32,1.69-.57,2.51a18.24,18.24,0,0,0-.58,2.51c-.12.87-.3,1.7-.43,2.58a17.62,17.62,0,0,0-.42,2.43,3.66,3.66,0,0,1-.15.72c0,.21,0,.43,0,.64s-.12.34-.14.58,0,.24,0,.36-.13.2-.14.28c0,.24,0,.49,0,.72s-.12.36-.15.57,0,.39,0,.57-.11.36-.14.58c-.07.47-.08.94-.14,1.36a3.62,3.62,0,0,0,0,.57c0,.12,0,.25,0,.36s-.14.21-.15.29c-.06.42.06.87,0,1.29a7.31,7.31,0,0,0-.14,1.21c0,.85-.14,1.62-.14,2.51s-.15,1.61-.15,2.51a16.18,16.18,0,0,1,0,2.51,4.38,4.38,0,0,0-.14.43,2.62,2.62,0,0,0,0,.28V1011a17.52,17.52,0,0,0,0,2.51,8.35,8.35,0,0,1,.14,1.29v2.58c0,.44.15.72.15,1.14,0,1.74.28,3.32.28,5,0,.46.15.8.15,1.29s.14.8.14,1.29c0,.83.29,1.6.29,2.43a3.54,3.54,0,0,0,.14.72c0,.21,0,.43,0,.65s.12.33.14.57,0,.24,0,.36.13.21.15.28c.07.46.08.85.14,1.29s.15.82.21,1.22c.27,1.68.55,3.37.93,5,.1.41.17.88.29,1.29s.16.83.29,1.22a14.44,14.44,0,0,1,.64,2.51,8.23,8.23,0,0,0,.36,1.29c.13.4.15.82.29,1.22.27.82.56,1.67.79,2.5.46,1.73,1.08,3.4,1.64,5.09.15.43.29.85.43,1.29.06.19.23.39.29.57a5.45,5.45,0,0,0,.14.58,10.48,10.48,0,0,1,.58,1.28,3.79,3.79,0,0,0,.21.65c.11.21.12.43.22.64.37.83.77,1.62,1.14,2.44.21.45.34.92.57,1.36a2.77,2.77,0,0,1,.43,1.15h.15v.28h.14v.29h.14v.29h.15v.28h.14a4.35,4.35,0,0,0,.65,1.44c.25.43.42.91.64,1.36.48,1,1.1,1.88,1.58,2.86.84,1.72,2,3.3,2.86,5,.14.27.44.44.57.71s.17.38.29.58c.27.44.6.85.86,1.29a23.58,23.58,0,0,0,1.72,2.5c1.3,1.63,2.51,3.35,3.8,5a27.29,27.29,0,0,0,2.07,2.51c.42.41.75.83,1.15,1.28a7.39,7.39,0,0,1,1,1.22h.15a6.68,6.68,0,0,0,1.07,1.29l1.29,1.29,2.51,2.51c1.66,1.66,3.37,3.24,5.16,4.73,1.52,1.26,3,2.54,4.58,3.72s3,2.25,4.51,3.19c3,1.81,6,3.64,9.17,5.23a70.55,70.55,0,0,0,9.1,3.86c1.53.5,3,1.08,4.59,1.51s3.1.77,4.58,1.33h.72l1.14.43h.72v.14h.72l.57.29h.71v.14h.86v.14h.72v.15h.86v.14h.86v.14h.86v.15h1v.14h1v.14h1.14v.15h1.29v.14h1.29v.14h1.58v.15h1.72v.14h2.29v.14h3.44v.15h7.59v-.15h3.15v-.14h2v-.14h1.72v-.15h1.29v-.14h1.29v-.14h1v-.15h1v-.14h1v-.14h.86v-.15h.86v-.14h.72v-.14h.86v-.15h.72v-.14h.57v-.14h.72l.57-.29h.72v-.14h.57l1.14-.43h.43c1.52-.57,3.12-1,4.66-1.48s3.11-1.15,4.66-1.75a60.8,60.8,0,0,0,16.47-9.74c1.39-1.14,2.8-2.22,4.09-3.51a21.1,21.1,0,0,0,2.07-1.93,20.9,20.9,0,0,1,1.94-2.08,45.71,45.71,0,0,0,3.36-4.08,40.13,40.13,0,0,0,3-4.09h.15v24.65h66.76V777.92Zm-43.13,181.67v.14h1.72v.15h1.29V960h1v.14h1v.14h.86v.15h.71v.14h.72v.14h.72c1,.37,2,.54,3,.84a46.82,46.82,0,0,1,12.33,5.61,55.71,55.71,0,0,1,11.89,10.68,38.87,38.87,0,0,1,2.29,3.15c.37.55.79,1,1.15,1.57s.56,1,.86,1.44a8.54,8.54,0,0,1,.57.86c.12.24.3.46.43.71a8,8,0,0,0,.36.79c.14.25.37.52.5.79a13,13,0,0,1,.71,1.57c.18.52.5.94.72,1.44.07.14.08.35.14.5a3.88,3.88,0,0,1,.15.36c.08.23.2.47.28.71.17.51.43,1,.58,1.51.29,1,.66,2.06,1,3.08.17.51.26,1,.43,1.57a4,4,0,0,1,.14.72c0,.19.26.53.29.72a9.06,9.06,0,0,0,.29,1.57c.16.5.12,1.08.28,1.58a2.43,2.43,0,0,1,.15.86,3.72,3.72,0,0,0,.14.71,10,10,0,0,1,.14,1.44c0,1,.29,2,.29,3.08,0,2,.44,4.07.14,6.09a5.15,5.15,0,0,0-.14.86v.78c0,.57-.14,1-.14,1.51s-.15,1-.15,1.57a3.68,3.68,0,0,1-.14.72c0,.23,0,.48,0,.72a.21.21,0,0,0-.14.28v.29a2.8,2.8,0,0,0,0,.29c0,.11-.12.27-.15.43a2.62,2.62,0,0,1,0,.28c-.07.52-.2,1-.28,1.58,0,.23-.25.63-.29.86a5.4,5.4,0,0,1-.14.72,8.23,8.23,0,0,0-.29,1.43c0,.11-.18.37-.22.5a2.53,2.53,0,0,1-.07.36c-.08.24-.21.48-.28.71-.16.48-.28,1-.43,1.44-.36,1.06-.8,2.09-1.15,3.15a61.5,61.5,0,0,1-3.15,6.16c-.64,1-1.22,2-1.86,3s-1.58,2.05-2.37,3.08a32.19,32.19,0,0,1-2.79,3.08c-1,1-2,1.92-3,2.79a48.86,48.86,0,0,1-12.32,8c-2.07.86-4,1.82-6.16,2.54s-4.17,1.09-6.16,1.83h-.72v.15h-.72v.14h-.71v.14h-.86v.15h-.86v.14h-1v.14h-1.15v.15h-1.58v.14h-2.86v.14h-1.72v-.14h-2.72v-.14H1476v-.15h-1.14v-.14h-1v-.14H1473V1064h-.71v-.14h-.72v-.14h-.71c-1-.37-2-.58-3-.86a44,44,0,0,1-6-2.15,41.11,41.11,0,0,1-6-3.08c-2-1.36-4.11-2.62-6-4.16a40.31,40.31,0,0,1-5.87-5.58c-.86-1.06-1.85-1.92-2.58-3a9.52,9.52,0,0,0-.71-.86c-.17-.21-.28-.54-.43-.72a11.29,11.29,0,0,1-1.08-1.5c-.31-.52-.8-1-1.07-1.51a13.19,13.19,0,0,0-.86-1.5,23,23,0,0,1-1.58-3.08,49.11,49.11,0,0,1-2.58-6,19.21,19.21,0,0,1-.86-3c0-.23-.21-.63-.28-.86a3.88,3.88,0,0,1-.15-.71c0-.09-.12-.17-.14-.29s0-.29,0-.43-.26-.53-.29-.72c-.09-.55-.21-1.06-.28-1.57s-.07-.93-.15-1.44c0-.11-.12-.27-.14-.43s0-.29,0-.43a3.57,3.57,0,0,1-.14-.71c0-.53-.15-.89-.15-1.43s-.14-1-.14-1.58a10.34,10.34,0,0,0-.14-1.43,20.16,20.16,0,0,1,0-3c0-1.07.14-1.95.14-3,0-.59.14-1,.14-1.58s.15-.93.15-1.43a21.6,21.6,0,0,1,.43-3,9,9,0,0,1,.28-1.57c.16-.49.15-1,.29-1.51.28-1,.52-2,.79-3,.14-.52.35-1.06.5-1.57a5.46,5.46,0,0,1,.21-.72c.11-.24.11-.56.22-.79.48-1,.8-2,1.29-3,.12-.25.16-.59.28-.86a1.25,1.25,0,0,0,.15-.28c0-.06.11-.37.14-.43.24-.49.48-1,.72-1.44a25.54,25.54,0,0,1,1.72-3c.64-1,1.15-2.05,1.86-3a48.8,48.8,0,0,1,4.87-6c2-2,3.91-3.86,6-5.59a45.31,45.31,0,0,1,6-4,40.71,40.71,0,0,1,6.08-3c2-.76,4.1-1.22,6.09-2h.72l.57-.29h.72v-.14h.72v-.15h.86v-.14h1V960h1v-.14h1.29v-.15H1477v-.14h2.58v-.14h4.72v.14Z" transform="translate(-213.29 -716.69)"/>
      <path class="a" d="M1192.28,781.5V931.79h-.14c-1.07-1.64-2.43-3-3.65-4.58-.6-.77-1.42-1.52-2-2.29a18.43,18.43,0,0,0-2.29-2.3c-1.37-1.21-2.75-2.42-4.16-3.58s-2.7-2.12-4.08-3.15c-2.57-1.92-5.48-3.32-8.24-5a36.92,36.92,0,0,0-4.08-1.9c-1.35-.59-2.71-1.15-4.08-1.67-2.7-1-5.55-1.61-8.24-2.62h-.57l-.58-.29h-.57v-.14h-.72v-.15h-.57V904h-.72v-.14h-.71v-.15h-.72v-.14h-.72v-.14h-.85v-.15h-.86v-.14h-.86V903h-1v-.15h-1.14v-.14h-1.15v-.14h-1.29v-.15h-1.43v-.14H1135v-.14h-2.73V902h-8.74v.15h-2.72v.14h-2v.14h-1.58v.15h-1.43v.14h-1.15v.14h-1.14V903h-1v.14h-1v.14h-1v.15h-.86v.14h-.86v.14H1108v.15h-.72V904h-.86v.14h-.71v.15h-.57v.14h-.72l-.57.29h-.72c-1.75.65-3.65,1-5.44,1.5s-3.59,1.1-5.38,1.7a103.56,103.56,0,0,0-19.12,8.9,91.6,91.6,0,0,0-9.6,6.59,46.54,46.54,0,0,0-4.8,3.94c-.74.74-1.55,1.55-2.37,2.22a9.47,9.47,0,0,0-2.29,2.22H1054a11.91,11.91,0,0,1-1.29,1.51c-.47.57-1.11,1-1.58,1.57-.82,1-1.73,2-2.58,3a89.63,89.63,0,0,0-7.73,10.75c-1.1,1.81-2.23,3.57-3.16,5.44-.13.26-.31.46-.43.72s-.31.46-.43.72c-.19.42-.36.87-.57,1.28s-.48,1-.72,1.44a4.13,4.13,0,0,0-.57,1.22h-.14v.28h-.14V960h-.15v.28h-.14v.29c-.05.1-.1.19-.14.29a13.48,13.48,0,0,0-.58,1.22,4.3,4.3,0,0,1-.28.57c-.09.17-.07.4-.15.57a27,27,0,0,0-1.14,2.58c-.29.85-.63,1.67-.93,2.51s-.66,1.67-.94,2.51-.44,1.7-.78,2.5-.52,1.7-.79,2.51a7.8,7.8,0,0,0-.29,1.29c0-.1-.14.28-.14.29s0,.19,0,.28-.24.46-.29.65c-.2.83-.3,1.69-.57,2.5s-.33,1.69-.57,2.51a18.24,18.24,0,0,0-.58,2.51c-.13.87-.3,1.7-.43,2.58a17.63,17.63,0,0,0-.43,2.43,3.68,3.68,0,0,1-.14.72c0,.21,0,.43,0,.64s-.12.34-.14.58,0,.24,0,.36-.13.2-.15.28c0,.24,0,.49,0,.72s-.11.36-.14.57,0,.39,0,.57-.11.36-.14.58c-.07.47-.08.94-.15,1.36a3.62,3.62,0,0,0,0,.57,2.16,2.16,0,0,1,0,.36c0,.12-.13.21-.14.29-.07.42.06.87,0,1.29a7.31,7.31,0,0,0-.14,1.21c0,.85-.15,1.62-.15,2.51s-.14,1.61-.14,2.51a16.18,16.18,0,0,1,0,2.51,4.38,4.38,0,0,0-.14.43,1.31,1.31,0,0,0,0,.28V1011a17.52,17.52,0,0,0,0,2.51,8.35,8.35,0,0,1,.14,1.29v2.58c0,.44.14.72.14,1.14,0,1.74.29,3.32.29,5,0,.46.14.8.14,1.29s.15.8.15,1.29c0,.83.28,1.6.28,2.43a3.51,3.51,0,0,0,.15.72c0,.21,0,.43,0,.65s.11.33.14.57,0,.24,0,.36.13.21.14.28c.08.46.08.85.15,1.29s.15.82.21,1.22c.27,1.68.54,3.37.93,5,.1.41.17.88.29,1.29s.16.83.29,1.22a15.39,15.39,0,0,1,.64,2.51,8.23,8.23,0,0,0,.36,1.29c.13.4.15.82.28,1.22.28.82.57,1.67.79,2.5.46,1.73,1.09,3.4,1.65,5.09.14.43.28.85.43,1.29.06.19.22.39.29.57a3.77,3.77,0,0,0,.14.58,9.09,9.09,0,0,1,.57,1.28,5,5,0,0,0,.22.65c.11.21.12.43.21.64.38.83.77,1.62,1.15,2.44.21.45.34.92.57,1.36a2.77,2.77,0,0,1,.43,1.15h.15v.28h.14v.29h.14v.29h.14v.28h.15a4.54,4.54,0,0,0,.64,1.44c.26.43.43.91.65,1.36.48,1,1.09,1.88,1.57,2.86.84,1.72,2,3.3,2.87,5,.14.27.44.44.57.71s.17.38.29.58c.26.44.59.85.86,1.29a23.58,23.58,0,0,0,1.72,2.5c1.3,1.63,2.5,3.35,3.79,5a27.41,27.41,0,0,0,2.08,2.51c.41.41.74.83,1.15,1.28a7.93,7.93,0,0,1,1,1.22h.14a7.11,7.11,0,0,0,1.08,1.29l1.29,1.29,2.51,2.51c1.66,1.66,3.36,3.24,5.15,4.73,1.52,1.26,3,2.54,4.59,3.72s3,2.25,4.51,3.19c3,1.81,6,3.64,9.17,5.23a70,70,0,0,0,9.1,3.86c1.52.5,3,1.08,4.58,1.51s3.11.77,4.59,1.33h.71l1.15.43h.72v.14h.71l.58.29h.71v.14h.86v.14h.72v.15h.86v.14h.86v.14h.86v.15h1v.14h1v.14h1.15v.15h1.29v.14h1.29v.14h1.57v.15h1.72v.14h2.3v.14h3.43v.15h7.6v-.15h3.15v-.14h2v-.14h1.71v-.15h1.29v-.14h1.29v-.14h1v-.15h1v-.14h1v-.14h.86v-.15h.86v-.14h.72v-.14h.86v-.15h.71v-.14h.58v-.14h.71l.58-.29h.71v-.14h.58l1.14-.43h.43c1.52-.57,3.12-1,4.66-1.48s3.11-1.15,4.65-1.75a60.71,60.71,0,0,0,16.48-9.74,52.1,52.1,0,0,0,4.08-3.51,20.13,20.13,0,0,0,2.08-1.93,20.9,20.9,0,0,1,1.94-2.08,49.45,49.45,0,0,0,3.36-4.08,40.13,40.13,0,0,0,3-4.09h.14v24.65h66.77V777.92h-66.77Zm-43.12,178.09v.14h1.72v.15h1.29V960h1v.14h1v.14h.86v.15h.72v.14h.72v.14h.71c1,.37,2,.54,3,.84a46.9,46.9,0,0,1,12.32,5.61,55.23,55.23,0,0,1,11.89,10.68,36.72,36.72,0,0,1,2.3,3.15c.37.55.79,1,1.14,1.57s.57,1,.86,1.44a7.19,7.19,0,0,1,.58.86c.12.24.3.46.43.71a7.91,7.91,0,0,0,.35.79c.15.25.37.52.51.79a13,13,0,0,1,.71,1.57,13.81,13.81,0,0,0,.72,1.44c.06.14.08.35.14.5a3.84,3.84,0,0,1,.14.36c.08.23.21.47.29.71.17.51.43,1,.57,1.51.3,1,.67,2.06,1,3.08.17.51.25,1,.43,1.57a4,4,0,0,1,.14.72c0,.19.26.53.29.72a10.1,10.1,0,0,0,.28,1.57c.17.5.12,1.08.29,1.58a2.67,2.67,0,0,1,.14.86,3.71,3.71,0,0,0,.15.71,10,10,0,0,1,.14,1.44c0,1,.29,2,.29,3.08,0,2,.44,4.07.14,6.09a5.15,5.15,0,0,0-.14.86v.78c0,.57-.15,1-.15,1.51s-.14,1-.14,1.57a3.68,3.68,0,0,1-.14.72c0,.23,0,.48,0,.72a.23.23,0,0,0-.15.28v.29a2.8,2.8,0,0,1,0,.29c0,.11-.12.27-.14.43s0,.19,0,.28c-.08.52-.2,1-.29,1.58,0,.23-.25.63-.28.86a4.18,4.18,0,0,1-.15.72,9.28,9.28,0,0,0-.28,1.43c0,.11-.18.37-.22.5s0,.26-.07.36-.21.48-.29.71c-.16.48-.27,1-.43,1.44-.35,1.06-.79,2.09-1.14,3.15a26.68,26.68,0,0,1-1.43,3,28.34,28.34,0,0,1-1.72,3.15c-.64,1-1.22,2-1.87,3s-1.57,2.05-2.36,3.08a35.09,35.09,0,0,1-2.79,3.08c-1,1-2,1.92-3,2.79a49,49,0,0,1-12.32,8c-2.07.86-4,1.82-6.17,2.54s-4.16,1.09-6.16,1.83h-.71v.15h-.72v.14h-.71v.14h-.86v.15h-.86v.14h-1v.14h-1.14v.15H1147v.14h-2.86v.14h-1.72v-.14h-2.73v-.14h-1.43v-.15h-1.15v-.14h-1v-.14h-.86V1064h-.71v-.14h-.72v-.14h-.72c-1-.37-2-.58-3-.86a43.85,43.85,0,0,1-6-2.15,41.11,41.11,0,0,1-6-3.08c-2-1.36-4.11-2.62-6-4.16a40.31,40.31,0,0,1-5.87-5.58c-.86-1.06-1.85-1.92-2.58-3a9.65,9.65,0,0,0-.72-.86c-.16-.21-.28-.54-.43-.72a12.18,12.18,0,0,1-1.07-1.5c-.31-.52-.81-1-1.08-1.51a10.73,10.73,0,0,0-.86-1.5,22.88,22.88,0,0,1-1.57-3.08,49.11,49.11,0,0,1-2.58-6,19.21,19.21,0,0,1-.86-3,7.25,7.25,0,0,0-.29-.86,5,5,0,0,1-.14-.71c0-.09-.13-.17-.14-.29s0-.29,0-.43-.26-.53-.29-.72c-.09-.55-.21-1.06-.29-1.57s-.06-.93-.14-1.44a4.38,4.38,0,0,1-.14-.43c0-.14,0-.29,0-.43a3.55,3.55,0,0,1-.15-.71c0-.53-.14-.89-.14-1.43s-.14-1-.14-1.58a9,9,0,0,0-.15-1.43,21.6,21.6,0,0,1,0-3c0-1.07.15-1.95.15-3,0-.59.14-1,.14-1.58s.14-.93.14-1.43a23.21,23.21,0,0,1,.43-3,10.12,10.12,0,0,1,.29-1.57c.16-.49.15-1,.29-1.51.28-1,.52-2,.78-3,.15-.52.36-1.06.51-1.57a5.46,5.46,0,0,1,.21-.72c.1-.24.1-.56.22-.79.48-1,.8-2,1.29-3,.12-.25.15-.59.28-.86a1.84,1.84,0,0,0,.15-.28,3.59,3.59,0,0,1,.14-.43c.24-.49.48-1,.71-1.44a28.72,28.72,0,0,1,1.72-3c.65-1,1.16-2.05,1.87-3a48.8,48.8,0,0,1,4.87-6,79.2,79.2,0,0,1,6-5.59,45.21,45.21,0,0,1,6-4,41.3,41.3,0,0,1,6.09-3c2-.76,4.1-1.22,6.09-2h.72l.57-.29h.72v-.14h.71v-.15h.86v-.14h1V960h1v-.14h1.29v-.15h1.57v-.14h2.58v-.14h4.73v.14Z" transform="translate(-213.29 -716.69)"/>
    </g>
    <rect class="b" width="1612.39" height="537.71"/>
    <rect class="b" x="177.63" y="0.13" width="1258.17" height="605.37"/>
  </g>
</svg>
