<svg xmlns="http://www.w3.org/2000/svg" width="251.594" height="44.924" viewBox="0 0 251.594 44.924">
  <g id="blue" transform="translate(0 -3.69)">
    <path id="Path_1" data-name="Path 1" d="M0,51.122H3.037V20.816H0V20H14.457c5.075,0,10.562,2.267,10.562,7.533,0,4.852-4.937,6.9-9.292,7.257v.09c6.207,0,11.1,2.9,11.1,8.348,0,4.99-4.44,8.709-12.869,8.709H0ZM10.107,34.7h2.445c2.72,0,5.667-1.769,5.667-6.4,0-5.26-1.857-7.485-5.71-7.485h-2.4Zm0,16.422h2.085c4.577,0,7.027-2.315,7.027-7.845,0-4.81-2.313-7.761-6.345-7.761H10.112V51.122Z" transform="translate(0 -3.875)"/>
    <path id="Path_2" data-name="Path 2" d="M43.12,44.526V48.34c0,3.083.455,6.622,4.667,6.622,3.535,0,6.16-2.633,7.16-6.849h.815C54.767,52.6,52,56.053,46.428,56.053a9.943,9.943,0,0,1-10.107-10.3C36.32,39.631,40.945,35,46.29,35c4.757-.09,9.292,4.63,9.335,9.53H43.12Zm5.71-.816v-3.9c0-2.495-.683-3.994-2.857-3.994-1.54,0-2.858.954-2.858,3.994v3.9Z" transform="translate(-8.63 -7.439)"/>
    <path id="Path_3" data-name="Path 3" d="M61.047,54.488h3.127V36.159H61.047v-.816h3.127c1.857,0,5.212,0,6.165-1.181v4.63h.09a6.5,6.5,0,0,1,5.98-4.264,3.4,3.4,0,1,1,.138,6.8,2.894,2.894,0,0,1-3.08-2.951,3.486,3.486,0,0,1,1.09-2.675h-.18c-2.858,1.271-3.942,3.719-3.942,7.215V54.488H74.6V55.3H61.052v-.816Z" transform="translate(-14.504 -7.24)"/>
    <path id="Path_4" data-name="Path 4" d="M87.027,51.18h3.127V32.851H87.027v-.816h3.217c1.857,0,5.212,0,6.165-1.181V51.18h3.127V52H87.027Zm6.255-30.942a3.676,3.676,0,1,1-3.673,3.676A3.655,3.655,0,0,1,93.282,20.238Z" transform="translate(-20.677 -3.932)"/>
    <path id="Path_5" data-name="Path 5" d="M102.008,33.486V32.67c4.577,0,7.842-4.948,7.842-9.752h.815V32.67h4.17v.816h-4.17V48.912c0,1.5.587,2.363,1.767,2.363,1.133,0,1.857-1.091,2.4-1.907l.593.318a6.448,6.448,0,0,1-6.028,3.491,4.97,4.97,0,0,1-4.985-5.17V33.486Z" transform="translate(-24.237 -4.568)"/>
    <path id="Path_6" data-name="Path 6" d="M139.284,51.869c0,1.409.228,2.267,1.042,2.267,1.085,0,1.588-1.361,1.588-2.543h.815c0,2.675-1.905,4.444-4.847,4.444a4.644,4.644,0,0,1-4.53-2.861c-1.179,2.177-4.307,2.861-6.075,2.861-3.493,0-7.027-1.589-7.027-5.536,0-4.72,4.488-5.806,8.61-6.124l4.439-.365V40.2c0-2.723-.455-4.4-3.852-4.4-1.54,0-4.17.36-4.122,1.361.043.773,2.312.636,2.312,2.813a2.582,2.582,0,0,1-2.762,2.723,2.737,2.737,0,0,1-2.947-2.951c0-2.537,3.307-4.762,7.843-4.762,4.667,0,9.519,1.271,9.519,6.442V51.869Zm-5.98-7.03-3.583.36c-2.947.318-3.217,1.907-3.217,4.312,0,2.357.138,5.17,3.217,5.17,2.127,0,3.487-2.177,3.583-4.582Z" transform="translate(-28.571 -7.436)"/>
    <path id="Path_7" data-name="Path 7" d="M150.418,51.122h3.673V20.816h-3.673V20h14.409v.816h-3.673V34.7h11.785V20.816h-3.673V20h14.409v.816H180V51.122h3.673v.816H169.267v-.816h3.673V35.516H161.155V51.122h3.673v.816H150.418Z" transform="translate(-35.739 -3.875)"/>
    <path id="Path_8" data-name="Path 8" d="M213.209,51.869c0,1.409.227,2.267,1.042,2.267,1.085,0,1.587-1.361,1.587-2.543h.815c0,2.675-1.9,4.444-4.847,4.444a4.649,4.649,0,0,1-4.53-2.861c-1.18,2.177-4.308,2.861-6.075,2.861-3.487,0-7.022-1.589-7.022-5.536,0-4.72,4.487-5.806,8.609-6.124l4.44-.365V40.2c0-2.723-.455-4.4-3.852-4.4-1.54,0-4.17.366-4.122,1.361.042.773,2.312.636,2.312,2.813A2.582,2.582,0,0,1,198.8,42.7a2.734,2.734,0,0,1-2.947-2.951c0-2.537,3.307-4.762,7.842-4.762,4.667,0,9.52,1.271,9.52,6.442V51.869Zm-5.98-7.03-3.577.36c-2.947.318-3.217,1.907-3.217,4.312,0,2.357.132,5.17,3.217,5.17,2.127,0,3.487-2.177,3.577-4.582Z" transform="translate(-46.136 -7.436)"/>
    <path id="Path_9" data-name="Path 9" d="M223.414,54.488h3.127V36.159h-3.127v-.816h3.127c1.857,0,5.213,0,6.165-1.181v4.63h.09a6.5,6.5,0,0,1,5.98-4.264,3.308,3.308,0,0,1,3.583,3.491,3.275,3.275,0,0,1-3.445,3.311,2.894,2.894,0,0,1-3.08-2.951,3.487,3.487,0,0,1,1.09-2.675h-.185c-2.852,1.271-3.942,3.719-3.942,7.215V54.488h4.17V55.3H223.414Z" transform="translate(-53.082 -7.24)"/>
    <path id="Path_10" data-name="Path 10" d="M249.391,51.18h3.127V32.851h-3.127v-.816h3.217c1.857,0,5.212,0,6.165-1.181V51.18H261.9V52h-12.51Zm6.255-30.942a3.676,3.676,0,1,1-3.673,3.676A3.66,3.66,0,0,1,255.646,20.238Z" transform="translate(-59.254 -3.932)"/>
    <path id="Path_11" data-name="Path 11" d="M285.367,51.869c0,1.409.227,2.267,1.042,2.267,1.085,0,1.588-1.361,1.588-2.543h.814c0,2.675-1.9,4.444-4.852,4.444a4.649,4.649,0,0,1-4.53-2.861c-1.179,2.177-4.3,2.861-6.069,2.861-3.493,0-7.027-1.589-7.027-5.536,0-4.72,4.488-5.806,8.609-6.124l4.44-.365V40.2c0-2.723-.455-4.4-3.852-4.4-1.54,0-4.17.366-4.122,1.361.043.773,2.312.636,2.312,2.813a2.582,2.582,0,0,1-2.762,2.723,2.737,2.737,0,0,1-2.947-2.951c0-2.537,3.307-4.762,7.842-4.762,4.667,0,9.515,1.271,9.515,6.442Zm-5.985-7.03-3.583.36c-2.947.318-3.217,1.907-3.217,4.312,0,2.357.137,5.17,3.217,5.17,2.132,0,3.493-2.177,3.583-4.582Z" transform="translate(-63.279 -7.436)"/>
    <path id="Path_12" data-name="Path 12" d="M295.574,54.488H298.7V36.159h-3.127v-.816h3.217c1.857,0,5.213,0,6.165-1.181v4.852h.09A7.957,7.957,0,0,1,312.3,34.8c4.3,0,6.393,2.135,6.393,7.035V54.488h3.127V55.3H309.856v-.816h2.583V40.153c0-3.178-1.36-3.719-2.672-3.719-2.54,0-4.805,3.311-4.805,5.626V54.493h2.672v.816H295.579v-.821Z" transform="translate(-70.227 -7.24)"/>
    <path id="Path_13" data-name="Path 13" d="M3.6,4.754a.364.364,0,0,1-.1.118.216.216,0,0,1-.126.034A.346.346,0,0,1,3.2,4.849q-.091-.061-.221-.133a1.719,1.719,0,0,0-.3-.13,1.22,1.22,0,0,0-.408-.061,1.183,1.183,0,0,0-.374.053.781.781,0,0,0-.271.141.576.576,0,0,0-.16.221.705.705,0,0,0-.053.278.493.493,0,0,0,.107.324.931.931,0,0,0,.29.221,2.671,2.671,0,0,0,.408.164q.229.072.469.156a3.938,3.938,0,0,1,.469.191,1.554,1.554,0,0,1,.408.274,1.2,1.2,0,0,1,.286.4,1.389,1.389,0,0,1,.111.583,1.89,1.89,0,0,1-.13.7,1.6,1.6,0,0,1-.374.568,1.777,1.777,0,0,1-.6.381,2.238,2.238,0,0,1-.812.137,2.526,2.526,0,0,1-.518-.053A2.594,2.594,0,0,1,.6,8.9,2.125,2.125,0,0,1,.23,8.6l.3-.492a.3.3,0,0,1,.1-.088.24.24,0,0,1,.13-.038.359.359,0,0,1,.206.08q.111.076.263.172a2.194,2.194,0,0,0,.355.175,1.418,1.418,0,0,0,.492.076,1.012,1.012,0,0,0,.679-.206.752.752,0,0,0,.24-.6.547.547,0,0,0-.111-.355A.837.837,0,0,0,2.6,7.1a2.068,2.068,0,0,0-.408-.16q-.229-.065-.465-.141a4.011,4.011,0,0,1-.465-.183,1.507,1.507,0,0,1-.408-.278,1.293,1.293,0,0,1-.29-.427,1.675,1.675,0,0,1-.107-.637,1.523,1.523,0,0,1,.118-.587,1.54,1.54,0,0,1,.351-.507,1.709,1.709,0,0,1,.564-.355,2.072,2.072,0,0,1,.77-.133,2.571,2.571,0,0,1,.9.152,2.031,2.031,0,0,1,.7.427Zm2.278,4.51H4.853V3.751H5.882Zm5.881-5.512V9.263h-.526a.5.5,0,0,1-.206-.038.511.511,0,0,1-.156-.137L8,5.413q.023.252.023.465V9.263h-.9V3.751h.537a.684.684,0,0,1,.111.008.2.2,0,0,1,.084.023.217.217,0,0,1,.072.05A.651.651,0,0,1,8,3.915l2.89,3.69q-.011-.133-.019-.263t-.008-.24V3.751ZM17.534,6.5v2.23a2.952,2.952,0,0,1-.9.454,3.531,3.531,0,0,1-1.014.141,3.406,3.406,0,0,1-1.224-.21,2.758,2.758,0,0,1-.934-.583,2.567,2.567,0,0,1-.595-.892,2.993,2.993,0,0,1-.21-1.132,3.113,3.113,0,0,1,.2-1.14A2.5,2.5,0,0,1,14.34,3.9a3.262,3.262,0,0,1,1.189-.206,3.453,3.453,0,0,1,.625.053,3,3,0,0,1,.541.149,2.253,2.253,0,0,1,.457.225,2.718,2.718,0,0,1,.377.294l-.294.465a.288.288,0,0,1-.179.137.328.328,0,0,1-.24-.057l-.252-.145a1.6,1.6,0,0,0-.282-.126,2.223,2.223,0,0,0-.347-.088,2.521,2.521,0,0,0-.442-.034,1.917,1.917,0,0,0-.74.137,1.564,1.564,0,0,0-.56.393,1.77,1.77,0,0,0-.358.614,2.4,2.4,0,0,0-.126.8,2.505,2.505,0,0,0,.133.846,1.838,1.838,0,0,0,.381.629,1.676,1.676,0,0,0,.595.393,2.141,2.141,0,0,0,.774.133,2.1,2.1,0,0,0,.545-.065,2.68,2.68,0,0,0,.469-.175v-1h-.694a.22.22,0,0,1-.156-.053.194.194,0,0,1-.053-.137V6.5Zm3.833.682L20.7,5.348q-.05-.122-.1-.29T20.487,4.7q-.05.194-.1.366t-.1.294l-.667,1.826Zm1.811,2.081h-.793a.345.345,0,0,1-.217-.065.429.429,0,0,1-.126-.168l-.412-1.125H19.347l-.412,1.125a.366.366,0,0,1-.118.16.33.33,0,0,1-.217.072h-.8l2.169-5.512h1.044Zm2.362-2.741a1.584,1.584,0,0,0,.492-.069.947.947,0,0,0,.347-.2.826.826,0,0,0,.21-.32,1.242,1.242,0,0,0,.069-.423,1.112,1.112,0,0,0-.069-.4.791.791,0,0,0-.206-.3.9.9,0,0,0-.347-.191,1.6,1.6,0,0,0-.5-.069h-.766V6.522Zm0-2.771a3.146,3.146,0,0,1,.957.13,1.841,1.841,0,0,1,.667.362,1.418,1.418,0,0,1,.389.557,1.891,1.891,0,0,1,.13.709,1.973,1.973,0,0,1-.133.736,1.525,1.525,0,0,1-.4.572,1.858,1.858,0,0,1-.671.374,2.97,2.97,0,0,1-.938.133h-.766v1.94H23.749V3.751Zm5.147,4.685a1.34,1.34,0,0,0,.53-.1,1.086,1.086,0,0,0,.4-.278,1.208,1.208,0,0,0,.244-.435,1.753,1.753,0,0,0,.088-.572v-3.3h1.025v3.3a2.533,2.533,0,0,1-.16.911,2.023,2.023,0,0,1-1.17,1.193,2.8,2.8,0,0,1-1.91,0,2.016,2.016,0,0,1-1.174-1.193,2.59,2.59,0,0,1-.156-.911v-3.3h1.025v3.3a1.828,1.828,0,0,0,.084.572,1.3,1.3,0,0,0,.248.438,1.131,1.131,0,0,0,.4.278A1.368,1.368,0,0,0,30.688,8.436Zm5.106-2.062a1.569,1.569,0,0,0,.5-.072.971.971,0,0,0,.355-.2.81.81,0,0,0,.21-.3,1.048,1.048,0,0,0,.069-.385.78.78,0,0,0-.278-.644,1.314,1.314,0,0,0-.842-.225h-.656v1.83Zm2.638,2.89h-.926a.406.406,0,0,1-.381-.206L35.965,7.292a.4.4,0,0,0-.145-.141.488.488,0,0,0-.229-.042h-.438V9.263H34.128V3.751h1.681a3.421,3.421,0,0,1,.961.118,1.8,1.8,0,0,1,.659.324,1.264,1.264,0,0,1,.381.5,1.719,1.719,0,0,1,.038,1.166,1.465,1.465,0,0,1-.236.45,1.546,1.546,0,0,1-.381.355,1.88,1.88,0,0,1-.515.24.955.955,0,0,1,.183.137.91.91,0,0,1,.152.183Zm3.508-2.081-.671-1.834q-.05-.122-.1-.29T41.059,4.7q-.05.194-.1.366t-.1.294l-.667,1.826ZM43.75,9.263h-.793A.345.345,0,0,1,42.74,9.2a.431.431,0,0,1-.126-.168L42.2,7.906H39.919l-.412,1.125a.365.365,0,0,1-.118.16.33.33,0,0,1-.217.072h-.8L40.54,3.751h1.044Z" transform="translate(-0.055)"/>
  </g>
</svg>
