<svg xmlns="http://www.w3.org/2000/svg" width="181.146" height="55.527" viewBox="0 0 181.146 55.527">
  <g id="mccy_logo" data-name="mccy logo" transform="translate(0 0.002)">
    <g id="Layer_1" data-name="Layer 1" transform="translate(0 -0.002)">
      <path id="Path_1374" data-name="Path 1374" d="M0,188.9V181.84H1.406l1.671,5c.156.467.255.814.337,1.046.082-.255.207-.635.378-1.133L5.48,181.84H6.737V188.9h-.9v-5.908L3.8,188.9H2.941L.9,182.9v6.01Z" transform="translate(0 -135.451)"/>
      <path id="Path_1375" data-name="Path 1375" d="M31.9,182.837v-1h.867v1Zm0,6.064v-5.115h.867V188.9Z" transform="translate(-23.762 -135.451)"/>
      <path id="Path_1376" data-name="Path 1376" d="M40.48,194.244v-5.115h.778v.727a1.842,1.842,0,0,1,1.63-.842,2.166,2.166,0,0,1,.849.166,1.316,1.316,0,0,1,.579.436,1.633,1.633,0,0,1,.27.64,4.848,4.848,0,0,1,.048.842v3.145h-.867v-3.11a2.3,2.3,0,0,0-.1-.793.824.824,0,0,0-.357-.418,1.148,1.148,0,0,0-.6-.148,1.4,1.4,0,0,0-.957.352,1.733,1.733,0,0,0-.4,1.334v2.806Z" transform="translate(-30.153 -140.794)"/>
      <path id="Path_1377" data-name="Path 1377" d="M62,182.837v-1h.867v1Zm0,6.064v-5.115h.867V188.9Z" transform="translate(-46.183 -135.451)"/>
      <path id="Path_1378" data-name="Path 1378" d="M69.21,192.7l.857-.135a1.186,1.186,0,0,0,.4.788,1.393,1.393,0,0,0,.921.276,1.37,1.37,0,0,0,.888-.255.735.735,0,0,0,.288-.556.528.528,0,0,0-.255-.462,3.767,3.767,0,0,0-.888-.3,8.029,8.029,0,0,1-1.321-.418,1.253,1.253,0,0,1-.747-1.171,1.316,1.316,0,0,1,.156-.635,1.383,1.383,0,0,1,.426-.482,1.852,1.852,0,0,1,.551-.255,2.625,2.625,0,0,1,.75-.1,2.977,2.977,0,0,1,1.056.173,1.411,1.411,0,0,1,.671.469,1.839,1.839,0,0,1,.3.791l-.85.117a.934.934,0,0,0-.334-.617,1.225,1.225,0,0,0-.783-.222,1.408,1.408,0,0,0-.852.2.571.571,0,0,0-.255.462.475.475,0,0,0,.107.3.745.745,0,0,0,.332.23q.13.048.765.222a11.015,11.015,0,0,1,1.276.4,1.3,1.3,0,0,1,.571.454,1.276,1.276,0,0,1,.207.742,1.459,1.459,0,0,1-.255.816,1.633,1.633,0,0,1-.722.6,2.653,2.653,0,0,1-1.079.209,2.416,2.416,0,0,1-1.531-.413A1.934,1.934,0,0,1,69.21,192.7Z" transform="translate(-51.554 -140.776)"/>
      <path id="Path_1379" data-name="Path 1379" d="M90.378,188.6l.125.765a3.257,3.257,0,0,1-.656.079,1.485,1.485,0,0,1-.732-.15.832.832,0,0,1-.365-.393,3.061,3.061,0,0,1-.107-1.02v-2.946H88v-.673h.635V182.98l.862-.51v1.786h.872v.673h-.865v2.992a1.51,1.51,0,0,0,.046.477.383.383,0,0,0,.151.168.589.589,0,0,0,.3.061A2.725,2.725,0,0,0,90.378,188.6Z" transform="translate(-65.551 -135.921)"/>
      <path id="Path_1380" data-name="Path 1380" d="M100.6,194.235V189.12h.781v.765a2.11,2.11,0,0,1,.551-.717.974.974,0,0,1,.556-.168,1.7,1.7,0,0,1,.893.278l-.3.806a1.245,1.245,0,0,0-.638-.189.826.826,0,0,0-.51.171.931.931,0,0,0-.321.475,3.357,3.357,0,0,0-.145,1.02v2.679Z" transform="translate(-74.936 -140.785)"/>
      <path id="Path_1381" data-name="Path 1381" d="M112.014,196.554l-.1-.814a1.937,1.937,0,0,0,.495.077.967.967,0,0,0,.464-.094.819.819,0,0,0,.283-.27,4.363,4.363,0,0,0,.255-.645c.015-.048.041-.12.077-.212l-1.941-5.125h.934l1.066,2.962q.207.564.37,1.186a11.649,11.649,0,0,1,.357-1.166l1.092-2.982h.888l-1.946,5.2a10.091,10.091,0,0,1-.485,1.161,1.719,1.719,0,0,1-.531.628,1.235,1.235,0,0,1-.712.2,1.707,1.707,0,0,1-.569-.107Z" transform="translate(-83.093 -141.135)"/>
      <path id="Path_1382" data-name="Path 1382" d="M142.33,191.689a2.634,2.634,0,0,1,.788-2.1,2.38,2.38,0,0,1,1.61-.569,2.3,2.3,0,0,1,1.725.691,2.625,2.625,0,0,1,.668,1.908,3.4,3.4,0,0,1-.283,1.554,2.094,2.094,0,0,1-.862.88,2.528,2.528,0,0,1-1.235.311,2.3,2.3,0,0,1-1.737-.689A2.705,2.705,0,0,1,142.33,191.689Zm.89,0a2.173,2.173,0,0,0,.429,1.469,1.426,1.426,0,0,0,2.153,0,2.226,2.226,0,0,0,.429-1.5,2.1,2.1,0,0,0-.431-1.436,1.429,1.429,0,0,0-2.151,0A2.151,2.151,0,0,0,143.22,191.689Z" transform="translate(-106.021 -140.795)"/>
      <path id="Path_1383" data-name="Path 1383" d="M163.675,188.544V184.1h-.765v-.673h.765v-.543a2.362,2.362,0,0,1,.092-.765,1.11,1.11,0,0,1,.439-.548,1.61,1.61,0,0,1,.885-.209,4.4,4.4,0,0,1,.809.087l-.13.765a2.821,2.821,0,0,0-.51-.048.765.765,0,0,0-.559.168.908.908,0,0,0-.163.63v.472h.995v.673h-.995v4.441Z" transform="translate(-121.351 -135.094)"/>
      <path id="Path_1384" data-name="Path 1384" d="M191.293,186.079l.934.235a3.151,3.151,0,0,1-1.056,1.755,2.918,2.918,0,0,1-1.857.607,3.332,3.332,0,0,1-1.855-.464,2.883,2.883,0,0,1-1.089-1.347,4.773,4.773,0,0,1-.372-1.893,4.166,4.166,0,0,1,.421-1.923,2.906,2.906,0,0,1,1.2-1.247,3.513,3.513,0,0,1,1.712-.426,2.885,2.885,0,0,1,1.786.541,2.806,2.806,0,0,1,1.008,1.515l-.921.217a2.186,2.186,0,0,0-.712-1.122,1.916,1.916,0,0,0-1.176-.349,2.3,2.3,0,0,0-1.36.39,2.041,2.041,0,0,0-.765,1.046,4.214,4.214,0,0,0-.222,1.357,4.288,4.288,0,0,0,.255,1.571,1.957,1.957,0,0,0,.816,1.005,2.3,2.3,0,0,0,1.2.332,2,2,0,0,0,1.329-.454,2.3,2.3,0,0,0,.727-1.344Z" transform="translate(-138.547 -135.103)"/>
      <path id="Path_1385" data-name="Path 1385" d="M217.788,194.585v-.75a1.872,1.872,0,0,1-1.622.865,2.041,2.041,0,0,1-.847-.173,1.406,1.406,0,0,1-.582-.434,1.63,1.63,0,0,1-.268-.643,4.382,4.382,0,0,1-.054-.811V189.47h.867v2.837a5.006,5.006,0,0,0,.054.916.9.9,0,0,0,.347.536,1.074,1.074,0,0,0,.656.2,1.413,1.413,0,0,0,.732-.2,1.1,1.1,0,0,0,.482-.543,2.686,2.686,0,0,0,.143-1v-2.74h.867v5.115Z" transform="translate(-159.716 -141.135)"/>
      <path id="Path_1386" data-name="Path 1386" d="M235.93,188.9V181.84h.867V188.9Z" transform="translate(-175.743 -135.451)"/>
      <path id="Path_1387" data-name="Path 1387" d="M245.08,188.6l.125.765a3.234,3.234,0,0,1-.653.079,1.48,1.48,0,0,1-.732-.15.837.837,0,0,1-.367-.393,3.084,3.084,0,0,1-.1-1.02v-2.946h-.638v-.673h.638V182.98l.862-.51v1.786h.87v.673h-.867v2.992a1.53,1.53,0,0,0,.043.477.383.383,0,0,0,.15.168.589.589,0,0,0,.3.061A2.693,2.693,0,0,0,245.08,188.6Z" transform="translate(-180.793 -135.921)"/>
      <path id="Path_1388" data-name="Path 1388" d="M258.655,194.585v-.75a1.872,1.872,0,0,1-1.622.865,2.041,2.041,0,0,1-.844-.173,1.4,1.4,0,0,1-.584-.434,1.666,1.666,0,0,1-.255-.643,4.38,4.38,0,0,1-.054-.811V189.47h.867v2.837a5.009,5.009,0,0,0,.054.916.9.9,0,0,0,.344.536,1.079,1.079,0,0,0,.656.2,1.408,1.408,0,0,0,.732-.2,1.1,1.1,0,0,0,.485-.543,2.741,2.741,0,0,0,.143-1v-2.74h.865v5.115Z" transform="translate(-190.167 -141.135)"/>
      <path id="Path_1389" data-name="Path 1389" d="M276.8,194.25v-5.115h.781v.765a2.109,2.109,0,0,1,.546-.707.97.97,0,0,1,.556-.173,1.682,1.682,0,0,1,.89.278l-.3.806a1.242,1.242,0,0,0-.635-.189.822.822,0,0,0-.51.171.951.951,0,0,0-.324.474,3.441,3.441,0,0,0-.143,1.02v2.679Z" transform="translate(-206.187 -140.8)"/>
      <path id="Path_1390" data-name="Path 1390" d="M292.371,192.6l.9.112a2.173,2.173,0,0,1-.786,1.217,2.656,2.656,0,0,1-3.242-.255,2.69,2.69,0,0,1-.658-1.936,2.823,2.823,0,0,1,.666-2.005,2.247,2.247,0,0,1,1.722-.712,2.184,2.184,0,0,1,1.676.7,2.769,2.769,0,0,1,.651,1.964v.23h-3.827a1.967,1.967,0,0,0,.477,1.291,1.421,1.421,0,0,0,1.069.449,1.331,1.331,0,0,0,.814-.255A1.679,1.679,0,0,0,292.371,192.6Zm-2.847-1.4h2.857a1.729,1.729,0,0,0-.329-.967,1.326,1.326,0,0,0-1.074-.51,1.378,1.378,0,0,0-1,.4A1.569,1.569,0,0,0,289.524,191.2Z" transform="translate(-214.962 -140.803)"/>
      <path id="Path_1391" data-name="Path 1391" d="M311.958,206.637v-.987h.995v.987a1.786,1.786,0,0,1-.191.88,1.275,1.275,0,0,1-.612.51l-.24-.372a.824.824,0,0,0,.4-.355,1.506,1.506,0,0,0,.145-.671Z" transform="translate(-232.34 -153.187)"/>
      <path id="Path_1392" data-name="Path 1392" d="M337.383,186.072l.934.235a3.138,3.138,0,0,1-1.056,1.755,2.913,2.913,0,0,1-1.867.6,3.337,3.337,0,0,1-1.855-.464,2.9,2.9,0,0,1-1.089-1.347,4.773,4.773,0,0,1-.372-1.893,4.166,4.166,0,0,1,.421-1.924,2.906,2.906,0,0,1,1.2-1.247,3.513,3.513,0,0,1,1.712-.426,2.9,2.9,0,0,1,1.786.541,2.806,2.806,0,0,1,1.005,1.515l-.918.217a2.2,2.2,0,0,0-.714-1.122,1.908,1.908,0,0,0-1.174-.35,2.3,2.3,0,0,0-1.362.39,2.041,2.041,0,0,0-.765,1.046,4.216,4.216,0,0,0-.222,1.357,4.337,4.337,0,0,0,.255,1.571,1.957,1.957,0,0,0,.816,1.005,2.314,2.314,0,0,0,1.2.332,2,2,0,0,0,1.329-.454,2.3,2.3,0,0,0,.74-1.342Z" transform="translate(-247.361 -135.096)"/>
      <path id="Path_1393" data-name="Path 1393" d="M359.36,191.689a2.634,2.634,0,0,1,.788-2.1,2.38,2.38,0,0,1,1.61-.569,2.3,2.3,0,0,1,1.725.691,2.625,2.625,0,0,1,.668,1.908,3.4,3.4,0,0,1-.291,1.554,2.094,2.094,0,0,1-.862.88,2.528,2.528,0,0,1-1.235.311,2.3,2.3,0,0,1-1.737-.689A2.739,2.739,0,0,1,359.36,191.689Zm.89,0a2.173,2.173,0,0,0,.429,1.469,1.426,1.426,0,0,0,2.153,0,2.226,2.226,0,0,0,.429-1.5,2.115,2.115,0,0,0-.431-1.436,1.429,1.429,0,0,0-2.151,0A2.151,2.151,0,0,0,360.25,191.689Z" transform="translate(-267.685 -140.795)"/>
      <path id="Path_1394" data-name="Path 1394" d="M382.12,194.225V189.11h.765v.717a1.811,1.811,0,0,1,1.551-.832,1.7,1.7,0,0,1,.934.235,1.275,1.275,0,0,1,.51.661,1.834,1.834,0,0,1,1.592-.9,1.559,1.559,0,0,1,1.171.421,1.8,1.8,0,0,1,.408,1.3v3.51h-.862V191a2.355,2.355,0,0,0-.084-.747.73.73,0,0,0-.306-.37.967.967,0,0,0-.51-.14,1.207,1.207,0,0,0-.9.36,1.582,1.582,0,0,0-.355,1.148v2.972h-.888v-3.316a1.459,1.459,0,0,0-.212-.865.8.8,0,0,0-.694-.291,1.275,1.275,0,0,0-.676.194,1.087,1.087,0,0,0-.452.564,3.13,3.13,0,0,0-.14,1.069v2.653Z" transform="translate(-284.639 -140.775)"/>
      <path id="Path_1395" data-name="Path 1395" d="M414.33,194.24v-5.115h.765v.717a1.811,1.811,0,0,1,1.551-.832,1.691,1.691,0,0,1,.931.235,1.275,1.275,0,0,1,.51.661,1.839,1.839,0,0,1,1.582-.9,1.556,1.556,0,0,1,1.168.421,1.8,1.8,0,0,1,.411,1.3v3.51h-.862v-3.222a2.355,2.355,0,0,0-.084-.747.73.73,0,0,0-.306-.37.967.967,0,0,0-.51-.14,1.207,1.207,0,0,0-.9.36,1.582,1.582,0,0,0-.357,1.148v2.972h-.867v-3.316a1.442,1.442,0,0,0-.212-.865.8.8,0,0,0-.694-.291,1.275,1.275,0,0,0-.676.194,1.082,1.082,0,0,0-.449.564,3.13,3.13,0,0,0-.14,1.069v2.653Z" transform="translate(-308.632 -140.79)"/>
      <path id="Path_1396" data-name="Path 1396" d="M449.828,194.585v-.75a1.872,1.872,0,0,1-1.622.865,2.041,2.041,0,0,1-.847-.173,1.406,1.406,0,0,1-.582-.434,1.631,1.631,0,0,1-.268-.643,4.38,4.38,0,0,1-.054-.811V189.47h.867v2.837a5,5,0,0,0,.054.916.9.9,0,0,0,.347.536,1.074,1.074,0,0,0,.656.2,1.413,1.413,0,0,0,.732-.2,1.105,1.105,0,0,0,.482-.543,2.739,2.739,0,0,0,.143-1v-2.74h.867v5.115Z" transform="translate(-332.561 -141.135)"/>
      <path id="Path_1397" data-name="Path 1397" d="M468,194.244V189.13h.781v.727a1.839,1.839,0,0,1,1.628-.842,2.148,2.148,0,0,1,.849.166,1.324,1.324,0,0,1,.582.436,1.712,1.712,0,0,1,.27.64,5.2,5.2,0,0,1,.046.842v3.145h-.865v-3.11a2.365,2.365,0,0,0-.1-.793.829.829,0,0,0-.36-.418,1.135,1.135,0,0,0-.6-.158,1.4,1.4,0,0,0-.954.352,1.725,1.725,0,0,0-.4,1.334v2.806Z" transform="translate(-348.611 -140.794)"/>
      <path id="Path_1398" data-name="Path 1398" d="M489.56,182.837v-1h.878v1Zm0,6.064v-5.115h.878V188.9Z" transform="translate(-364.671 -135.451)"/>
      <path id="Path_1399" data-name="Path 1399" d="M498.637,188.6l.125.765a3.234,3.234,0,0,1-.653.079,1.48,1.48,0,0,1-.732-.15.837.837,0,0,1-.367-.393,3.152,3.152,0,0,1-.1-1.02v-2.946h-.635v-.673h.635V182.98l.862-.51v1.786h.87v.673h-.87v2.992a1.51,1.51,0,0,0,.046.477.375.375,0,0,0,.148.168.589.589,0,0,0,.3.061A2.7,2.7,0,0,0,498.637,188.6Z" transform="translate(-369.669 -135.921)"/>
      <path id="Path_1400" data-name="Path 1400" d="M507.441,196.554l-.1-.814a1.938,1.938,0,0,0,.495.077.949.949,0,0,0,.462-.094.806.806,0,0,0,.286-.27,4.362,4.362,0,0,0,.255-.645c.015-.048.041-.12.077-.212L507,189.47h.934L509,192.432q.207.564.37,1.186a11.02,11.02,0,0,1,.357-1.166l1.092-2.982h.867l-1.946,5.2a10.582,10.582,0,0,1-.485,1.161,1.719,1.719,0,0,1-.531.628,1.235,1.235,0,0,1-.712.2A1.707,1.707,0,0,1,507.441,196.554Z" transform="translate(-377.662 -141.135)"/>
      <path id="Path_1401" data-name="Path 1401" d="M541.4,193.652a3.231,3.231,0,0,1-.926.577,2.686,2.686,0,0,1-.957.168,1.86,1.86,0,0,1-1.3-.411,1.362,1.362,0,0,1-.452-1.054,1.419,1.419,0,0,1,.62-1.184,2.068,2.068,0,0,1,.622-.283,5.852,5.852,0,0,1,.765-.13,8.071,8.071,0,0,0,1.546-.3v-.227a.959.959,0,0,0-.255-.747,1.461,1.461,0,0,0-.987-.293,1.53,1.53,0,0,0-.9.214,1.3,1.3,0,0,0-.431.765l-.849-.115a2.09,2.09,0,0,1,.383-.878,1.648,1.648,0,0,1,.765-.51,3.363,3.363,0,0,1,1.161-.181,3.089,3.089,0,0,1,1.064.153,1.416,1.416,0,0,1,.6.388,1.393,1.393,0,0,1,.27.592,4.948,4.948,0,0,1,.043.8v1.156a12.625,12.625,0,0,0,.054,1.531,1.952,1.952,0,0,0,.219.615h-.906A1.842,1.842,0,0,1,541.4,193.652Zm-.071-1.936a6.359,6.359,0,0,1-1.416.327,3.226,3.226,0,0,0-.765.173.737.737,0,0,0-.342.283.729.729,0,0,0-.122.411.748.748,0,0,0,.255.579,1.136,1.136,0,0,0,.765.23,1.786,1.786,0,0,0,.893-.219,1.337,1.337,0,0,0,.571-.6,2.064,2.064,0,0,0,.14-.867Z" transform="translate(-400.58 -140.832)"/>
      <path id="Path_1402" data-name="Path 1402" d="M560.45,194.244V189.13h.781v.727a1.839,1.839,0,0,1,1.628-.842,2.169,2.169,0,0,1,.852.166,1.315,1.315,0,0,1,.579.436,1.67,1.67,0,0,1,.271.64,5.11,5.11,0,0,1,.048.842v3.145h-.867v-3.11a2.292,2.292,0,0,0-.1-.793.816.816,0,0,0-.36-.418,1.133,1.133,0,0,0-.6-.158,1.4,1.4,0,0,0-.957.352,1.746,1.746,0,0,0-.4,1.334v2.806Z" transform="translate(-417.476 -140.794)"/>
      <path id="Path_1403" data-name="Path 1403" d="M584.4,188.968v-.643a1.589,1.589,0,0,1-1.429.765,2.008,2.008,0,0,1-1.125-.337,2.225,2.225,0,0,1-.8-.941,3.275,3.275,0,0,1-.281-1.39,3.615,3.615,0,0,1,.255-1.388,2,2,0,0,1,1.908-1.276,1.7,1.7,0,0,1,.821.194,1.733,1.733,0,0,1,.589.51V181.93h.862v7.061Zm-2.74-2.551a2.212,2.212,0,0,0,.416,1.469,1.25,1.25,0,0,0,.977.487,1.23,1.23,0,0,0,.964-.464,2.145,2.145,0,0,0,.4-1.418,2.362,2.362,0,0,0-.4-1.531,1.245,1.245,0,0,0-1-.492,1.2,1.2,0,0,0-.967.472,2.254,2.254,0,0,0-.4,1.475Z" transform="translate(-432.611 -135.518)"/>
      <path id="Path_1404" data-name="Path 1404" d="M614.489,188.872v-2.99L611.77,181.8h1.135l1.393,2.13q.383.6.717,1.194.319-.556.765-1.247l1.367-2.077h1.089l-2.806,4.082v2.99Z" transform="translate(-455.704 -135.421)"/>
      <path id="Path_1405" data-name="Path 1405" d="M638.73,191.689a2.634,2.634,0,0,1,.788-2.1,2.38,2.38,0,0,1,1.61-.569,2.3,2.3,0,0,1,1.724.691,2.635,2.635,0,0,1,.668,1.908,3.4,3.4,0,0,1-.3,1.554,2.107,2.107,0,0,1-.862.88,2.528,2.528,0,0,1-1.235.311,2.3,2.3,0,0,1-1.737-.689A2.752,2.752,0,0,1,638.73,191.689Zm.89,0a2.173,2.173,0,0,0,.429,1.469,1.426,1.426,0,0,0,2.153,0,2.226,2.226,0,0,0,.429-1.5,2.115,2.115,0,0,0-.431-1.436,1.429,1.429,0,0,0-2.151,0A2.151,2.151,0,0,0,639.62,191.689Z" transform="translate(-475.787 -140.795)"/>
      <path id="Path_1406" data-name="Path 1406" d="M664.823,194.585v-.75a1.872,1.872,0,0,1-1.622.865,2.041,2.041,0,0,1-.844-.173,1.4,1.4,0,0,1-.584-.434,1.71,1.71,0,0,1-.255-.643,4.691,4.691,0,0,1-.051-.811V189.47h.865v2.837a5,5,0,0,0,.054.916.913.913,0,0,0,.347.536,1.074,1.074,0,0,0,.656.2,1.408,1.408,0,0,0,.732-.2,1.112,1.112,0,0,0,.485-.543,2.751,2.751,0,0,0,.14-1v-2.74h.867v5.115Z" transform="translate(-492.722 -141.135)"/>
      <path id="Path_1407" data-name="Path 1407" d="M683.5,188.6l.128.765a3.277,3.277,0,0,1-.656.079,1.479,1.479,0,0,1-.732-.15.837.837,0,0,1-.367-.393,3.155,3.155,0,0,1-.1-1.02v-2.946h-.635v-.673h.635V182.98l.862-.51v1.786h.87v.673h-.87v2.992a1.508,1.508,0,0,0,.046.477.375.375,0,0,0,.148.168.589.589,0,0,0,.3.061A2.694,2.694,0,0,0,683.5,188.6Z" transform="translate(-507.37 -135.921)"/>
      <path id="Path_1408" data-name="Path 1408" d="M693.74,188.9V181.84h.867v2.533a1.936,1.936,0,0,1,1.531-.7,2.059,2.059,0,0,1,.987.224,1.312,1.312,0,0,1,.6.617,2.864,2.864,0,0,1,.181,1.148v3.24h-.867v-3.24a1.332,1.332,0,0,0-.283-.946,1.036,1.036,0,0,0-.8-.3,1.411,1.411,0,0,0-.724.2,1.131,1.131,0,0,0-.485.541,2.489,2.489,0,0,0-.143.944v2.806Z" transform="translate(-516.763 -135.451)"/>
      <path id="Path_1409" data-name="Path 1409" d="M544.321,17.741a11.558,11.558,0,0,1,2.112-2.88,10.06,10.06,0,0,0,1.77-2.2,21.792,21.792,0,0,1,1.806-1.926,10.338,10.338,0,0,0,1.745-2.268,50.794,50.794,0,0,1,4.3-5.222c.974-1.151,3.791-1.1,3.423-2.9-.24-1.5-5.839,2.281-7.76,4.561a33.451,33.451,0,0,1-4.548,4.385c-2.268,2.041-4.755,5.847-7.857,2.949-2.273-2.128-4.666-3.518-7.092-6.194C530.706,4.369,525.127-.55,523.89.1s.89,2.406,2.434,2.89c1.411.444,3.408,3.847,4.151,4.676,1.786,2.005,2.245,2.878,4,4.793,1.1,1.2,1.194,1.094,2.041,2.158,1.059,1.327.855,2.061.707,2.332-.689,1.253-.921,1.577-1.551,2.885-.314.651-1,1.648-1.327,2.278a4.891,4.891,0,0,1-1.237,1.671c-2.424,2.334-3.554,5.191-5.569,7.908-1.829,2.472-3.793,4.806-4.7,7.592a5.446,5.446,0,0,0-.255,2.054c.1,1.133.589.38,1.475-.9.541-.781,1.459-1.02,1.49-1.441.043-.6-.342-.217-.283-.577s3.008-2.707,3.258-2.949a28.9,28.9,0,0,1,2.694-2.551c1.352-1.043,1.668-2.3,2.806-3.472a34.7,34.7,0,0,1,4.046-2.972c1.495-1.112,1.02-1.987,1.6-3.27.661-1.439,3.487-3.982,3.686-4.248,0,0,.51-.571.931-1.153" transform="translate(-389.261 0.002)"/>
      <path id="Path_1410" data-name="Path 1410" d="M596.732,32.3c.7-.449.788-1.128,1.194-1.725.255-.385,1.36-1.276.337-2.133a4.337,4.337,0,0,0-1.826-.908c-1.319-.209-.566.622-.727,1.227-.125.467-.48.676-.635,1.166a3.132,3.132,0,0,0,.043,1.574c.1.6.23,1.2.949,1.1a2.28,2.28,0,0,0,.666-.3" transform="translate(-443.202 -20.485)"/>
      <path id="Path_1411" data-name="Path 1411" d="M426.353,12.8a6.551,6.551,0,0,0-.041-1.709A10.85,10.85,0,0,0,424.641,6.9c-2.041-3.7-6.916-5.174-6.964-5.186a14.984,14.984,0,0,0-4.505-.5h0a23.275,23.275,0,0,0-12.265,3.061,20.758,20.758,0,0,0-8.393,9.765,21.1,21.1,0,0,0-.88,13.342,18.651,18.651,0,0,0,4.082,7.982,19.741,19.741,0,0,0,7.217,5.168,22.3,22.3,0,0,0,8.745,1.811,17.446,17.446,0,0,0,7.168-1.546,14.808,14.808,0,0,0,5.408-3.875c1.3-1.543,1.893-2.6,1.76-3.145a1,1,0,0,0-.495-.592,1.7,1.7,0,0,0-.911-.255,1.245,1.245,0,0,0-1.048.633c-2.661,4.082-6.232,6.158-10.615,6.158a10.566,10.566,0,0,1-8.393-3.827,19.8,19.8,0,0,1-4.37-8.572c-.566-2.008-.985-7.964-.089-11.174.5-1.786,1.906-6.186,4.27-8.748,1.454-1.574,4.459-4.2,8.265-4.1h.332a13.375,13.375,0,0,1,6.411,1.5l.074.043c1.694,1.059,3.446,2.153,4.11,4.865a16.278,16.278,0,0,1,.212,2.878,1.276,1.276,0,0,0,1.176,1.319h.148a1.3,1.3,0,0,0,.872-.3,1.176,1.176,0,0,0,.385-.765h0a.087.087,0,0,0,0-.026.111.111,0,0,0,0-.028Z" transform="translate(-291.221 -0.908)"/>
      <path id="Path_1412" data-name="Path 1412" d="M41.765,11.077a1.168,1.168,0,0,0,1.469,1.814l-.028.023q5.612-5.321,7.426-5.321.842,0,.842,1.074,0,.842-2.334,10.508L43.528,42.947h6.6l4.036-17.281a30.157,30.157,0,0,1,3.472-9.459A23.056,23.056,0,0,1,63.7,9.449a10.764,10.764,0,0,1,4.255-2.2c1.4-.094,1.625.431,1.719.783a2.656,2.656,0,0,1-.018,1.355c-.059.306-.255,1.469-.765,3.523L61.543,42.947h6.74C69.3,38.1,71.153,30.322,73.24,22.63a25.148,25.148,0,0,1,3.27-7.707,20.17,20.17,0,0,1,5.538-5.811c1.212-.918,2.569-1.862,3.4-1.862a2.187,2.187,0,0,1,2.321,2.163q0,1.681-2.383,9.574Q82.207,29.5,81.556,32.508a25.217,25.217,0,0,0-.653,5.255,6.047,6.047,0,0,0,1.074,3.806,3.1,3.1,0,0,0,2.475,1.378,9.571,9.571,0,0,0,4.577-1.587,43.314,43.314,0,0,0,5.14-4.2q2.7-2.475,3.689-3.268a1.191,1.191,0,0,0,.286-.827,1.125,1.125,0,0,0-1.125-1.125,1.112,1.112,0,0,0-.7.255h0a44.9,44.9,0,0,1-5.653,4.847,3.087,3.087,0,0,1-1.727.561q-1.309,0-1.309-1.589,0-2.334,3.691-14.431Q94.261,11.819,94.73,9.9A14.286,14.286,0,0,0,95.2,6.584a4.849,4.849,0,0,0-1.074-3.457A4.016,4.016,0,0,0,91.079,2,14.19,14.19,0,0,0,83.3,3.995c-3.378,2.041-7.01,6.074-7.6,8.186A30.267,30.267,0,0,0,77.1,5.5a3.776,3.776,0,0,0-.793-2.661A3.062,3.062,0,0,0,73.977,2C62.752,2,57.52,10.85,57.158,12.293c.278-1.1-.018.125,1.219-5.1A23.4,23.4,0,0,0,59.125,3.6a1.459,1.459,0,0,0-.5-1.176A2.188,2.188,0,0,0,57.158,2q-2.4,0-6.564,2.2a35.271,35.271,0,0,0-8.852,6.87" transform="translate(-30.818 -1.489)"/>
      <path id="Path_1413" data-name="Path 1413" d="M414.81,25.646a.488.488,0,0,0,.074-.036" transform="translate(-308.99 -19.076)"/>
      <path id="Path_1414" data-name="Path 1414" d="M268.176,107.163a46.424,46.424,0,0,1-1.551-5.913,17.92,17.92,0,0,0,1.25,6.066c.531,1.281,2.324,4.023,2.663,3.5A15.85,15.85,0,0,1,268.176,107.163Z" transform="translate(-198.604 -75.42)"/>
      <path id="Path_1415" data-name="Path 1415" d="M266.776,69.28c-1.862,2.615-2.765,8.788-1.832,10.332a15.162,15.162,0,0,1,.436-6.467Z" transform="translate(-197.079 -51.606)"/>
      <path id="Path_1416" data-name="Path 1416" d="M266.856,90.92c-.393,1.61-.278,4.082.191,4.559C266.894,93.869,267.272,93.645,266.856,90.92Z" transform="translate(-198.602 -67.725)"/>
      <path id="Path_1417" data-name="Path 1417" d="M339.306,134.565a12.159,12.159,0,0,1,1.3-.533c.089-.135.255-.235.413-.452l-.179.041a12.553,12.553,0,0,1-2.041.556,7.059,7.059,0,0,0-.8.378A9.475,9.475,0,0,0,339.306,134.565Z" transform="translate(-251.774 -99.503)"/>
      <path id="Path_1418" data-name="Path 1418" d="M347.6,135.258C346.833,136.422,348.514,135,347.6,135.258Z" transform="translate(-258.771 -100.729)"/>
      <path id="Path_1419" data-name="Path 1419" d="M327.086,156.708l-.135-.018h-.4Z" transform="translate(-243.245 -116.717)"/>
      <path id="Path_1420" data-name="Path 1420" d="M291.607,128.749a7.434,7.434,0,0,0,1.635,1.077,14.719,14.719,0,0,1-2.992-2.3c.092.14.122.329.224.464A4.592,4.592,0,0,1,291.607,128.749Z" transform="translate(-216.206 -94.996)"/>
      <path id="Path_1421" data-name="Path 1421" d="M300.918,3.621A4.864,4.864,0,0,1,302.512,5.2a5.941,5.941,0,0,1,.51,1.212l.079.319c-.13-.122-.186-.372-.309-.462l-.186-.209h0c-.615-.434.561.6.416,1.087-.13-.3-.161-.214-.306-.293a1.454,1.454,0,0,1-.684-.227l-.232-.255a2.3,2.3,0,0,1-.242-.278,2.313,2.313,0,0,0-.327-.4c-.546-.383-.62-.855-1.63-1a3.275,3.275,0,0,1,.931.941c.168.329.347.367.821.765a3.241,3.241,0,0,1-.837-.3c-.4-.173-.444-.431-.663-.51-.411-.413-.628-.393-.7-.383a3.554,3.554,0,0,0-1.921-.158c-1.37-.145-3.564.648-4.867.98s-2.571,1.352-3.908,1.992h0c-1.3.622-2.551,1.694-3.827,2.27h0A10.058,10.058,0,0,0,282.377,12c-.554.434-.538,1.008-1.048,1.462l-.372.342-.176.168-.087.084-.02.023h0l-.054.041h0l-.051.048c-.148.133-.242.227-.37.349l-.36.357a37.834,37.834,0,0,0-2.776,3.161,18.838,18.838,0,0,0-3.8,7.875,12.113,12.113,0,0,1,.959-3.543,16.418,16.418,0,0,1,.888-1.457,10.413,10.413,0,0,0-.834,1.469,13.159,13.159,0,0,0-.946,3.092c-.255.992-.1,1.725-.3,2.622-.092.151-.171.14-.189.3-.122,1.084-.342,2.117.173,2.842.079-.018.2.656.327.482a4.429,4.429,0,0,0,1.436,1.76,1.916,1.916,0,0,0,.934.426,10.7,10.7,0,0,0,3.924,1.9c.4.084.918.189,1.344.255l.7.048h.431c-.036.038.087.028-.056,0h.061l.015.043L282,36.106a15.392,15.392,0,0,0,2.462.112c.8-.084.962.689,2.505-.054-1.2.462-2.12.184-3.431.255l-2.041-.031a6.983,6.983,0,0,0-1.7-.133c-.255,0-.357-.314-.607-.337a18.318,18.318,0,0,0,2.23.416l.577.064h.087l-.061-.013h.066l.168.018a2.081,2.081,0,0,0,.255,0h1.02a11.319,11.319,0,0,0,2.265.186l-.043.02a12.429,12.429,0,0,1-1.824.27l-1.622-.255a10.486,10.486,0,0,0-1.658-.151,2.969,2.969,0,0,0-.4.018c-.255,0-.528,0-.788-.023a14.223,14.223,0,0,0,1.413.255c.24.036.48.066.722.094l.184.02h.176l-.056-.013h0c.13.013.3.036.4.036.227,0,.541.018.806.015s.548-.015.819-.036c.337.046.679.084,1.02.107-.038.023-.077.043-.11.066a1.859,1.859,0,0,0-.648.638c-.217.286-.349.594-.115.742a13.551,13.551,0,0,0,3.964-.408c1.191-.291,2.056-.625,2.066-.579.125.145-.878.63-1.916.969s-2.107.538-2.02.574c.255.026.51.041.765.043-.235.094-.464.184-.679.281a13.415,13.415,0,0,0-1.554.2,4.714,4.714,0,0,1-1.972.255c-.344-.018-.7-.051-1.038-.079l-.541-.048c-.184,0-.37-.023-.556-.028a18.656,18.656,0,0,1-3.122.334c-.064.163-.709-.6-.6-.36-1-.444-2.054-1.1-2.717-.977l-.12.138c-.066-.046-.128-.255-.255-.309-.735-.612-1.383-1.1-2.023-1.625a5.749,5.749,0,0,1-1.452-1.365c-.334-.571-.416-.321-.375-.541.046.112,0-.018.064.11s-.168-.194-.082-.074a9.885,9.885,0,0,0,3.367,3.342c.122.038.324.092.51.153l.255.2a1,1,0,0,1,.125-.033,14.4,14.4,0,0,0,3.811,1.342,40,40,0,0,0,6.36,1.276,21.7,21.7,0,0,1-3.23.074c.944-.255,2.589.094,3.773-.046h.546c.689,0,.342-.222.559-.237l.281-.092a6.049,6.049,0,0,0,1.276-.224c3.674-.842,6.005-2.161,9.561-3.684-.025.13-.288.273-.337.408a16.708,16.708,0,0,0-3.283,2.156c1.02-.37,1.648-.793,2.594-1.219.018.046-.255.179-.319.255.291-.12-.676.327,0-.015-.48.612-.821.375-.959.816-1.786.615.342.133.018.319a24.635,24.635,0,0,1-5.546,2.082,19.759,19.759,0,0,1-6.24.255,14.8,14.8,0,0,0,5.582-.995,23.57,23.57,0,0,1-6.151.906c-.51-.069-1.036-.161-1.531-.255s-.992-.222-1.482-.347a28.7,28.7,0,0,1-2.89-.893,18.406,18.406,0,0,1-5.316-2.952,8.635,8.635,0,0,1-2.092-2.5,12.4,12.4,0,0,1-1.357-3.725,21.57,21.57,0,0,1-.385-3.883c-.028-1.237-.092.125-.14-.89-.311,1.745-.112.24-.452,1.452.023-.582.232-3.959.237-4.482a27.143,27.143,0,0,1,3.893-8.268,28.636,28.636,0,0,1,2.85-3.5c.528-.551,1.082-1.082,1.668-1.6q.439-.383.906-.753l.834-.638c.788-.589.941-.839,1.686-1.311a12.4,12.4,0,0,1,1.153-.671c.268-.079.633-.138.6-.143,1.311-.607.865.732,2.431-.189a33.232,33.232,0,0,1,4.153-1.584c1.745-.556,3.413-1.64,5.612-1.658a12.727,12.727,0,0,1,4.258-.51,6.56,6.56,0,0,1,3.811.946m-2.526.207a8.269,8.269,0,0,0-3.4.24,7.006,7.006,0,0,1,1.7-.1c.235-.107.525.015,1.7-.148Zm-7.924.8c1.418-.75,6.041-1.454,8.209-1.263a.133.133,0,0,0,.031-.064,8.615,8.615,0,0,0-2.806-.061c-.929.115-4.515.344-5.424,1.383Zm-3.235-.816h.041l-.015-.036Zm-5.839,2.9c-.691.242-.574.329-1.607,1.066a9.284,9.284,0,0,0-1.694,1.6c-.161.135-.321.276-.487.426l-.031.028-.015.015h0c.176-.133.048-.036.087-.064h0l-.048.043-.1.089-.237.212c-.309.281-.594.556-.875.844a25.323,25.323,0,0,0-2.911,3.63c-.355.551-.625,1.168-.939,1.735-.439.878-.974,1.8-1.393,2.7a6.587,6.587,0,0,0-.727,2.48c-.015.23-.189.615-.117.88a16.33,16.33,0,0,1,2.388-5.4,18.8,18.8,0,0,1,1.02-1.885c.617-.87.931-1.457,1.477-2.133l-.569.339c1.1-1.02,1.275-2.041,2.6-2.867-.061-.061.189-.163.352-.283L277.7,10l-.031-.125.018-.013h0c.077-.059-.112.273-.092.255V9.922h.194c.117-.094.237-.2.352-.283.23-.166.429-.434.643-.577a8.1,8.1,0,0,0,1.148-.834c.85-.63.923-.531,1.577-1.077a2.338,2.338,0,0,0,.4-.281c.181-.171-.268.069.181-.171M272.726,25.53a8.619,8.619,0,0,1,1.852-5.357c.388-.615,1.125-1.758,1.684-2.806a13.6,13.6,0,0,1,3.288-3.408c-2.041.745-3.449,2.867-4.107,3.911s-1.365,2.311-2,3.495a6.938,6.938,0,0,0-.875,2.551A1.94,1.94,0,0,0,272.726,25.53Zm4.985,9.924a4.493,4.493,0,0,1-1.658-.778A10.9,10.9,0,0,0,277.711,35.453Zm-6.742-2.63a12.678,12.678,0,0,0,2.3,2.806,9.817,9.817,0,0,0,2.949,1.834c.811.321,1.628.742,2.482,1.056a5.515,5.515,0,0,0,2.589.411l.89-.043-1.02-.166a11.9,11.9,0,0,1-1.492-.7l.255.02h0a7.652,7.652,0,0,0-1.339-.411c-.184-.026-.37-.061-.554-.1a9.513,9.513,0,0,1-2.906-1.125,7.934,7.934,0,0,1-2.344-1.725,9.13,9.13,0,0,1-2.133-3.133A3.937,3.937,0,0,0,270.968,32.823Z" transform="translate(-198.745 -1.94)"/>
      <path id="Path_1422" data-name="Path 1422" d="M316.594,142.348a21.079,21.079,0,0,0,2.324-.643,16.324,16.324,0,0,0,1.8-.546c1.406-.526,2.806-1.1,4.337-1.737s-.964.235.482-.556c-.013-.275-7.166,3.179-.949-.051.852-.628,1.531-1.02-.048-.38a19.312,19.312,0,0,1-4.783,1.406l-.071.041a6.675,6.675,0,0,1-2.523.681,18.665,18.665,0,0,1-2.86.38,11.112,11.112,0,0,1-2.806-.14,10.433,10.433,0,0,0-2.577-.046,16.351,16.351,0,0,0,3.475.964C313.693,142,315.162,142.672,316.594,142.348Z" transform="translate(-230.113 -102.875)"/>
      <path id="Path_1423" data-name="Path 1423" d="M268.182,110.34a15.836,15.836,0,0,0,.24,3.046c1.02,3.592,1.388,3.492,2.778,4.934a21.682,21.682,0,0,1-2.426-5.082A11.261,11.261,0,0,1,268.182,110.34Z" transform="translate(-199.766 -82.191)"/>
      <path id="Path_1424" data-name="Path 1424" d="M276.329,131.871c-.923-.622-3.436-4.171-3.679-4.4.286,3.7,5.964,6.918,8.163,7.717a23.536,23.536,0,0,0,2.75.686q.686.128,1.362.219c.467.064.952.112,1.418.14a18.8,18.8,0,0,0,5.528-.464l1.191-.281a22.269,22.269,0,0,1-4.995.179,22.661,22.661,0,0,1-2.469-.332c-.8-.161-1.571-.347-2.349-.561a25.355,25.355,0,0,1-4.513-1.691,19.968,19.968,0,0,1-4.227-3.332c-.089-.087-.393-.054-.485-.151a15.561,15.561,0,0,0,3.773,3.518,17.183,17.183,0,0,0,3.885,1.786A18.359,18.359,0,0,1,276.329,131.871Z" transform="translate(-203.096 -94.951)"/>
      <path id="Path_1425" data-name="Path 1425" d="M335.42,153.562c.181.015.362.023.543.028a3.891,3.891,0,0,0,.628-.087l-.38-.023C335.948,153.513,335.683,153.541,335.42,153.562Z" transform="translate(-249.853 -114.326)"/>
      <path id="Path_1426" data-name="Path 1426" d="M305.919,137.885l.5.041c-.531-.122-1.684-.477-2.2-.661-.811-.375-1.518-.4-2.237-.765A9.578,9.578,0,0,0,305.919,137.885Z" transform="translate(-224.943 -101.678)"/>
      <path id="Path_1427" data-name="Path 1427" d="M290.552,96.613a5.843,5.843,0,0,0,.625,3.1,6.2,6.2,0,0,0,2.041,2.3c.11.023.541.212.656.227a16.823,16.823,0,0,1-2.564-2.9,3.517,3.517,0,0,1-.321-1.11,15.562,15.562,0,0,1-.041-4.26,12.892,12.892,0,0,0-.365,2.158Z" transform="translate(-216.429 -69.997)"/>
      <path id="Path_1428" data-name="Path 1428" d="M321.974,135.193a.658.658,0,0,0-.163-.023l-.031.013.1.025C321.946,135.229,321.979,135.213,321.974,135.193Z" transform="translate(-239.692 -100.687)"/>
      <path id="Path_1429" data-name="Path 1429" d="M321.668,135.19l-.038-.01.028.013.008,0Z" transform="translate(-239.581 -100.694)"/>
      <path id="Path_1430" data-name="Path 1430" d="M338.587,120.4c-.482.219.166.135-.3.365-.385.191-.765.37-1.11.556.806-.311,1.038-.467,1.786-.8a1.833,1.833,0,0,1,.219-.117s.112-.059.12-.066c-.071.048-.015.018.079-.036a2.1,2.1,0,0,0,.217-.112c.018,0-.122.135-.14.148-.1.051-.033.033-.1.087-.015,0,.02.031,0,0a1.512,1.512,0,0,1-.224.13,15.5,15.5,0,0,1-1.816.872h0a.645.645,0,0,1-.291.143l-.048.015c-.388.115-.791.276-1.189.383a1.087,1.087,0,0,1-.237.112c-.288.143-.584.283-.9.418a.1.1,0,0,1,.064.015c.018.028-.041.071-.138.1l-.14.043.426-.1.059-.013.444-.143a23.981,23.981,0,0,0,3.38-1.5.135.135,0,0,1,.066-.02c.02,0,.026,0,0,.02a12.786,12.786,0,0,1-1.786,1.156,28.952,28.952,0,0,1-2.921,1.258c-1.176.339-2.253.691-3.523,1.02a34.227,34.227,0,0,1-5.357.89,2.339,2.339,0,0,1-1.487-.161c-.069-.1.074-.2.339-.286h-.423a2.083,2.083,0,0,1-.607-.092l-.191-.064a8.1,8.1,0,0,1-.847-.367l.041-.054-.043-.015a.5.5,0,0,1-.288-.14l.013-.064a.469.469,0,0,1,.214-.209.084.084,0,0,1,.038-.079c-.1-.064-.148-.133-.074-.209-.059-.018-.048-.046.018-.064a.4.4,0,0,1,.082,0h0a.446.446,0,0,0-.084-.038h-.089l-.278-.02a.834.834,0,0,1-.181-.054c-.128-.115-.128-.115-.1-.163l.023-.015-.138-.023a.21.21,0,0,1-.048-.018c0-.028,0-.028-.02-.038a.043.043,0,0,1,0-.018c.059-.031.059-.031.059-.038s.023.018.023.018h.112l.148.023h.048a1.452,1.452,0,0,0,.2,0h.439c.018,0,.061-.026.071-.02a.227.227,0,0,1,.082-.013h.107l.074-.015h.015l.319-.069h.1c-.031,0,0-.033-.023-.036-.37-.041-.765-.054-1.158-.079-.066,0-.13,0-.14-.031s.041-.041.107-.043a11.669,11.669,0,0,1,2.551-.12c.212,0,.429,0,.643-.02h.156l-.138-.033h-.092a12.225,12.225,0,0,1-1.439-.028c-.255-.013-.48-.046-.722-.071a4.415,4.415,0,0,1-.587-.048c0-.018.546-.02.607-.02.607.11,1.617.041,2.3.13a1.368,1.368,0,0,1,.327-.031h.084l.209.02c.112,0-.319.061-.217.064l.2-.074a8.017,8.017,0,0,1,.821,0h.393a1.977,1.977,0,0,0,.587-.064h.222c.48-.1.439-.069.633-.1a5.956,5.956,0,0,1,1.462-.3c.99-.255,1.949-.73,2.888-1.051a.194.194,0,0,1,.122,0c.02.013,0,.036-.048.051-.645.255.625-.365-.061-.02.628-.128-.73.439-.115.255l.23-.077c.074-.023.156-.043.237-.061.778-.237,1.515-.472,2.253-.765.628-.255,1.166-.51,1.765-.786.842-.4,1.508-.663,2.416-1.02.115-.051.347-.189.4-.163s0,.092-.11.143a41.463,41.463,0,0,1-5.482,2.334l-.658.2s.24-.079.255-.077-.207.133-.227.158l.765-.217c.645-.255,1.276-.538,2.013-.781.51-.166,1-.291,1.492-.426l1.531-.74c.02,0,0,.038.018.041s-.018.071-.038.082c-.344.2-.51.283-.9.469a.273.273,0,0,1,.2.038c.031.033.015.079-.038.128l.283-.107a.191.191,0,0,1,.138,0c.018.015-.013.046-.069.066l-1.166.37c-.439.189-.883.375-1.332.554a.61.61,0,0,1,.219.026h0l.224-.069m.51.071c-.255.191-.528.383-.806.577l.7-.416m1.689-1.357c-.35.158,0,.181-.35.329l-.107.056.255-.02.278-.128m.541-.554-.054.036m-15.352,3.753h-.023l.084.013.128.061Zm-1.378.327h0l-.071-.036Zm.4-.533a1.833,1.833,0,0,1,.334.112,2.016,2.016,0,0,1,.255-.026l.7-.02c-.036-.023.018-.023.046-.028l.082-.015h-.735c-.247,0-.472-.013-.684-.031Zm-1.138,1.309.125-.184-.138.179Z" transform="translate(-239.176 -88.179)"/>
      <path id="Path_1431" data-name="Path 1431" d="M313.982,18.57c-1,.171-2.089,1.084-3.209,1.592a32.073,32.073,0,0,0-2.694,1.758,5.2,5.2,0,0,0-1.929,2.14,4.3,4.3,0,0,1,1.179-1.2,10.2,10.2,0,0,1,.921-.709c.327-.181.765-.6,1.087-.786.717-.411,1.327-.727,2.054-1.107a9.9,9.9,0,0,0,1.258-.9" transform="translate(-228.05 -13.832)"/>
      <path id="Path_1432" data-name="Path 1432" d="M323.343,17.739a1.65,1.65,0,0,1,.462-.39.622.622,0,0,1,.408.1l.309.209-.62.309-.571-.038Z" transform="translate(-240.847 -12.92)"/>
      <path id="Path_1433" data-name="Path 1433" d="M380.53,119.669a.51.51,0,0,1,.145-.12,3.571,3.571,0,0,1,.676-.4,4.725,4.725,0,0,1,.617-.176,4.331,4.331,0,0,0,.546-.156,2.243,2.243,0,0,0,.324-.191,1.038,1.038,0,0,1,.564-.217c.138,0,.255,0,.255-.173-.11.275-.324.444-.362.765a.928.928,0,0,1-.255.648c-.8.6-.536.51-.423.656.059.082-.2.018-.309.064a2.584,2.584,0,0,1-.39.153,4.359,4.359,0,0,0-1.2.531.48.48,0,0,1-.554.031c-.135-.1.028-.51-.02-.658-.071-.2.038-.352.02-.587.071,0,.153-.089.227-.1.031-.079.089-.046.13-.107" transform="translate(-283.138 -88.076)"/>
      <path id="Path_1434" data-name="Path 1434" d="M309.234,30.937l-.1.1-.186.138-.015-.168.128-.151Z" transform="translate(-230.12 -22.987)"/>
      <path id="Path_1435" data-name="Path 1435" d="M346.938,140.477a6.316,6.316,0,0,1,1.63-.61,5.418,5.418,0,0,1,.656-.153c.273-.074.538-.23.809-.319a18.939,18.939,0,0,0,1.9-.556,9.565,9.565,0,0,0,2.258-.939c-.7.666-1.275.8-1.531,1.329-.281.612-.87.656-1.184.908a5.209,5.209,0,0,1-1.9.9c-.712.135-.421.569-1.1.834-.255.1-.467-.077-.724.018a3.354,3.354,0,0,1-.737.128,2.633,2.633,0,0,1-.959-.023,15.815,15.815,0,0,0-2.388-.015c.482-.194,2.235-.727,2.712-.975a4.706,4.706,0,0,0,.8-.523,3.119,3.119,0,0,1,.469-.255,5.674,5.674,0,0,1,.661-.306c.122-.051.24-.173.372-.168" transform="translate(-255.998 -102.721)"/>
      <path id="Path_1436" data-name="Path 1436" d="M298.337,143.2a18.422,18.422,0,0,1-2.133-.857c-.214-.064-1.275-.145-1.344-.314.084.921.918.8,1.6,1.151a5.2,5.2,0,0,0,2.133.607c-.554-.209-.51-.668-.98-.921a2.3,2.3,0,0,0-.9-.314" transform="translate(-219.64 -105.797)"/>
      <path id="Path_1437" data-name="Path 1437" d="M333.6,138.888a6.516,6.516,0,0,0,1.569-.283c.666-.14,1.344-.2,2.01-.355.765-.173,1.564-.235,2.322-.444a4.847,4.847,0,0,0,.732-.288,5.543,5.543,0,0,1,.765-.189c.153-.043.714-.2.765-.36-.648.566-1.151,1.247-1.852,1.765-1.163.857-2.936.924-4.337.949a16.211,16.211,0,0,1-3.332.028c-.411-.107.722-.523.633-.9.224-.013,1.786.1,1.834-.13" transform="translate(-247.422 -102.028)"/>
      <path id="Path_1438" data-name="Path 1438" d="M265.054,105.715a4.508,4.508,0,0,0,.327,1.413,7.054,7.054,0,0,1,.3.783c.048.235.176.474.23.717.148.661.383,1.242.48,1.921a7.773,7.773,0,0,0,.449,1.135,3.823,3.823,0,0,0,.347,1.084c0-.255,0,.273-.143.079a7.623,7.623,0,0,1-.712-1.482c-.048-.222-.217-.543-.268-.765-.133-.589-.311-1.107-.472-1.676-.061-.209-.15-.431-.207-.638a7.563,7.563,0,0,1-.283-1.084,10.87,10.87,0,0,1-.15-1.5" transform="translate(-197.357 -78.735)"/>
      <path id="Path_1439" data-name="Path 1439" d="M385.76,136.122a1.515,1.515,0,0,1,.434-.587,3.009,3.009,0,0,1,.554-.276c-.255.811-.676.536-.987.862" transform="translate(-287.351 -100.754)"/>
      <path id="Path_1440" data-name="Path 1440" d="M379.86,140.561c.046-.115.467-.592.587-.569a.429.429,0,0,0,.319-.028c.171-.1.459-.1.6-.214a.949.949,0,0,1-.459.423.707.707,0,0,1-.36.115,1.541,1.541,0,0,1-.194-.031,1.8,1.8,0,0,0-.482.276" transform="translate(-282.956 -104.099)"/>
      <path id="Path_1441" data-name="Path 1441" d="M374.7,134.9c.176-.255.564-.349.809-.482.143-.079.283-.163.431-.232a7.314,7.314,0,0,0,1.048-.51.936.936,0,0,0,.255-.209,3.222,3.222,0,0,1-.724.847c-.23.156-.546.156-.788.291a1.969,1.969,0,0,1-.589.14,3.429,3.429,0,0,0-.444.148" transform="translate(-279.112 -99.421)"/>
      <path id="Path_1442" data-name="Path 1442" d="M402.149,18.989c-.023-.362-.278-.283-.365-.5-.179-.39-.469-.227-.607-.571-.071.184-.026.061.059.276.056.151.176.191.332.4a2.641,2.641,0,0,1,.5.908c.13-.143.071-.314.082-.51" transform="translate(-298.808 -13.348)"/>
      <path id="Path_1443" data-name="Path 1443" d="M377.26,146.226a1.77,1.77,0,0,1,.765-.306c.031.214-.321.449-.51.426.056-.2-.171-.1-.255-.133" transform="translate(-281.019 -108.695)"/>
      <path id="Path_1444" data-name="Path 1444" d="M406.368,20.718c0-.222-.038-.181-.179-.311s-.306-.084-.459-.074c0,.092.071.122.107.2a1.212,1.212,0,0,1,.031.212c.028.11.092.028.2-.038.056-.036.1.074.163.043s.1,0,.14-.031" transform="translate(-302.226 -15.133)"/>
      <path id="Path_1445" data-name="Path 1445" d="M265.753,83.359v2.122l-.27,2.742.367,2.725-.008.98-.423-.579-.559-2.9.161-2.281.383-1.944.255-.941" transform="translate(-197.293 -62.034)"/>
    </g>
  </g>
</svg>
