<svg width="158" height="42" viewBox="0 0 158 42" fill="none" xmlns="http://www.w3.org/2000/svg">
<path fill-rule="evenodd" clip-rule="evenodd" d="M142.359 17.1362C142.98 16.0767 143.493 15.2446 144.441 14.353C145.292 13.552 145.52 13.2088 146.185 12.2279C146.796 11.329 147.391 11.0773 147.964 10.3674C148.736 9.4099 148.315 10.2667 149.682 8.17641C150.91 6.3017 152.757 4.47961 153.922 3.13353C154.883 2.02317 157.656 2.07443 157.294 0.33107C157.06 -1.11891 151.543 2.53258 149.65 4.73455C147.66 7.05094 146.775 7.54617 145.168 8.97051C142.936 10.9478 140.486 14.618 137.429 11.8174C135.19 9.76461 132.832 8.42128 130.443 5.83714C128.947 4.22147 123.451 -0.528939 122.231 0.0948991C121.003 0.722856 123.11 2.41724 124.63 2.88546C126.02 3.31432 127.988 6.59965 128.719 7.40108C130.487 9.33758 130.93 10.1811 132.662 12.0297C133.744 13.1859 133.836 13.0866 134.673 14.1155C135.714 15.3952 135.514 16.1055 135.368 16.3655C134.689 17.5752 134.461 17.8901 133.839 19.1524C133.53 19.7808 132.852 20.7452 132.535 21.3534C132.094 22.197 131.895 22.4194 131.315 22.9659C128.927 25.2223 127.813 27.9809 125.829 30.6044C124.026 32.9917 122.091 35.2454 121.196 37.9371C120.997 38.5348 120.893 39.2946 120.953 39.9198C121.056 41.0133 121.535 40.2869 122.405 39.0562C122.939 38.3005 123.843 38.0684 123.873 37.662C123.915 37.0789 123.538 37.4538 123.594 37.1055C123.646 36.7874 126.551 34.4929 126.795 34.2572C127.743 33.3409 128.352 32.6406 129.45 31.8076C130.781 30.8003 131.093 29.5819 132.214 28.4527C133.293 27.3666 134.976 26.4792 136.201 25.5844C137.673 24.5088 137.194 23.6648 137.774 22.4263C138.424 21.0358 141.209 18.5789 141.404 18.3226C141.404 18.3226 141.9 17.7697 142.322 17.209" fill="#FFB500"/>
<path fill-rule="evenodd" clip-rule="evenodd" d="M140.852 11.4088C141.541 10.9753 141.628 10.3194 142.027 9.74504C142.286 9.37111 143.367 8.51247 142.36 7.68359C141.769 7.1966 140.997 6.8753 140.559 6.80756C139.26 6.60434 140.003 7.4076 139.845 7.99207C139.721 8.44382 139.37 8.64566 139.218 9.11846C139.044 9.65442 139.171 10.119 139.262 10.6394C139.36 11.2206 139.487 11.7992 140.197 11.6985C140.329 11.6793 140.761 11.4911 140.852 11.4088Z" fill="#FDB813"/>
<path fill-rule="evenodd" clip-rule="evenodd" d="M122.728 11.4827C122.787 10.9591 122.774 10.4048 122.688 9.83273C122.355 7.62481 121.04 5.80502 121.028 5.78991C119.03 2.22356 114.227 0.792803 114.18 0.779987C112.7 0.397813 112.362 0.376759 109.742 0.300781L109.741 0.331447V0.300781C105 0.300781 100.935 1.2981 97.6602 3.26481C93.9122 5.51621 91.2071 8.60107 89.3915 12.6947C87.7061 16.4922 87.3975 21.0691 88.5231 25.582C89.2631 28.5465 90.6138 31.1402 92.5377 33.29C94.4617 35.4412 96.8539 37.1209 99.6467 38.2821C102.439 39.4419 105.338 40.0305 108.262 40.0305C110.69 40.0305 113.066 39.528 115.324 38.5375C117.58 37.5461 119.372 36.2875 120.651 34.7949C121.949 33.2772 122.517 32.2836 122.385 31.7572C122.332 31.5426 122.168 31.3503 121.898 31.1856C121.631 31.0222 121.329 30.9393 121.001 30.9393C120.594 30.9393 120.247 31.1444 119.968 31.5499C117.347 35.497 113.829 37.4985 109.51 37.4985C106.169 37.4985 103.387 36.2554 101.242 33.8045C98.8241 31.0409 97.896 28.849 96.9384 25.5275C96.3796 23.5897 95.9669 17.8351 96.8502 14.7365C97.339 13.0201 98.7284 8.76127 101.058 6.28697C102.489 4.76834 105.448 2.23088 109.199 2.33066C109.259 2.33157 109.318 2.33157 109.379 2.33157L109.526 2.3334V2.32883C112.072 2.3746 114.433 2.91651 115.842 3.77834L115.914 3.82274C117.584 4.84432 119.311 5.90022 119.964 8.52006C120.189 9.42218 120.172 11.3001 120.172 11.3001C120.195 11.9953 120.666 12.513 121.338 12.5652C121.388 12.5688 121.436 12.5711 121.483 12.5711C121.825 12.5711 122.119 12.4732 122.342 12.2841C122.559 12.1001 122.687 11.8406 122.721 11.5354L122.723 11.5358C122.724 11.5271 122.724 11.5193 122.726 11.5106C122.726 11.501 122.73 11.4923 122.73 11.4827H122.728Z" fill="#FF272F"/>
<path fill-rule="evenodd" clip-rule="evenodd" d="M0.389367 9.25872C0.150331 9.4656 0 9.76859 0 10.1055C0 10.7284 0.515421 11.2332 1.15083 11.2332C1.40854 11.2332 1.64664 11.1508 1.83852 11.0103L1.81098 11.0332C5.49176 7.6069 7.92974 5.89237 9.12679 5.89237C9.67862 5.89237 9.95548 6.23839 9.95548 6.93042C9.95548 7.47188 9.18795 10.8552 7.65475 17.0793L2.12425 40.0387H8.62771L12.6035 23.3484C13.5527 19.2607 14.6928 16.2148 16.0248 14.2146C17.3572 12.2159 18.9632 9.82305 21.9946 7.68745C23.7402 6.42467 25.3621 5.61867 26.187 5.56512C27.5662 5.47404 27.7884 5.98254 27.8804 6.32078C28.006 6.78259 27.9691 7.0984 27.8645 7.62978C27.8061 7.92545 27.6082 9.04909 27.1175 11.0332L19.8736 40.0387H26.5129C27.5242 35.3478 29.3412 27.8452 31.3964 20.4173C32.3175 17.0189 33.4837 14.605 34.6177 12.9743C36.1785 10.7311 37.0814 9.58505 40.074 7.36157C41.2692 6.47365 42.6759 5.53537 43.4028 5.56512C45.3515 5.64201 45.7072 6.63018 45.7072 7.65129C45.7072 8.7342 44.9238 11.8168 43.3598 16.8981C41.2739 23.6647 40.0161 28.0182 39.5866 29.9575C39.1571 31.8967 38.9428 33.5884 38.9428 35.0329C38.9428 36.5964 39.2948 37.8221 40.0012 38.7086C40.7066 39.5956 41.519 40.0387 42.4396 40.0387C43.6661 40.0387 45.1699 39.5274 46.9486 38.5059C47.8688 37.9639 49.5566 36.6115 52.0104 34.4461C53.7887 32.8524 55.0002 31.8002 55.6454 31.288C55.8406 31.0926 55.9274 30.7868 55.9274 30.4916C55.9274 29.8911 55.4307 29.4037 54.8181 29.4037C54.5581 29.4037 54.3191 29.4911 54.13 29.6376L54.1267 29.6325C52.2252 31.4986 50.3689 33.0611 48.5589 34.3239C48.008 34.6846 47.4388 34.8658 46.8567 34.8658C45.9976 34.8658 45.5681 34.3546 45.5681 33.3321C45.5681 31.829 46.7796 27.183 49.2036 19.3944C51.1355 13.1093 52.255 9.34934 52.5618 8.11677C52.869 6.88282 53.023 5.81548 53.023 4.91382C53.023 3.41121 52.6692 2.2981 51.9637 1.5754C51.2578 0.854529 50.2597 0.493408 48.9706 0.493408C47.5266 0.493408 44.5606 0.493408 41.3112 2.41939C37.9838 4.39205 34.4044 8.2852 33.8203 10.3265C34.6934 7.27644 35.1981 5.13901 35.1981 3.87623C35.1981 2.70362 34.9385 1.84727 34.4179 1.30536C33.8978 0.763448 33.1331 0.493408 32.1228 0.493408C21.0552 0.493408 15.9104 9.03994 15.5541 10.4336C15.8268 9.36765 15.5373 10.5545 16.7563 5.50013C17.1742 3.76776 17.4926 2.62901 17.4926 2.02623C17.4926 1.54656 17.331 1.17034 17.0084 0.898926C16.6858 0.62797 16.2008 0.493408 15.5532 0.493408C13.9803 0.493408 11.8257 1.20009 9.08944 2.61345C4.95019 4.75363 2.25123 7.40048 0.366491 9.24819" fill="#636E77"/>
<path fill-rule="evenodd" clip-rule="evenodd" d="M93.8513 6.34594C93.8765 6.33587 93.8999 6.32168 93.9251 6.30933Z" fill="#B49759"/>
<path fill-rule="evenodd" clip-rule="evenodd" d="M67.3899 7.78955L67.373 7.79047C67.3483 7.84264 67.3194 7.84035 67.304 7.87194L67.3899 7.78955Z" fill="#B49759"/>
<path fill-rule="evenodd" clip-rule="evenodd" d="M72.1989 38.6223L72.0663 38.6058L71.6709 38.6035L72.1989 38.6223Z" fill="#B49759"/>
<path fill-rule="evenodd" clip-rule="evenodd" d="M81.7191 31.6026C81.8947 31.5161 81.826 31.5481 81.7191 31.6026Z" fill="#B49759"/>
<path fill-rule="evenodd" clip-rule="evenodd" d="M81.7191 31.6025C81.7111 31.6071 81.6981 31.6131 81.6892 31.6176C81.6897 31.6176 81.6901 31.6181 81.6901 31.6181C81.6999 31.6126 81.7097 31.6076 81.7191 31.6025Z" fill="#B49759"/>
<path fill-rule="evenodd" clip-rule="evenodd" d="M80.5478 35.9064C80.5791 35.8935 80.6104 35.8762 80.6412 35.8569L80.1794 36.0464C80.2112 36.0373 80.2434 36.0281 80.2752 36.0199C80.3639 35.9819 80.453 35.9457 80.5478 35.9064Z" fill="#B49759"/>
<path fill-rule="evenodd" clip-rule="evenodd" d="M80.6412 35.8572L80.9158 35.7446C80.8182 35.74 80.7285 35.8037 80.6412 35.8572Z" fill="#B49759"/>
<path fill-rule="evenodd" clip-rule="evenodd" d="M86.5519 34.1575C86.8581 33.8421 87.2723 34.1072 87.5253 33.325C87.3652 33.4128 87.1593 33.4458 86.9786 33.5904C86.8507 33.6911 86.6219 33.941 86.5519 34.1575Z" fill="#B49759"/>
<path fill-rule="evenodd" clip-rule="evenodd" d="M85.0687 35.2154C85.072 35.2072 85.0804 35.1944 85.0874 35.1838C85.086 35.1852 85.0832 35.1866 85.0818 35.1875L85.0687 35.2154Z" fill="#B49759"/>
<path fill-rule="evenodd" clip-rule="evenodd" d="M85.6479 34.6657C85.5372 34.6451 85.1749 35.0374 85.0872 35.1838C85.1605 35.1174 85.4985 34.917 85.5559 34.9216C85.6269 34.927 85.6731 34.9463 85.7459 34.9508C85.8528 34.9591 85.9877 34.9032 86.1026 34.8401C86.2268 34.7723 86.4079 34.6941 86.5545 34.4309C86.4135 34.5444 86.1292 34.5417 85.9611 34.6369C85.8482 34.7009 85.7454 34.6822 85.6479 34.6657Z" fill="#B49759"/>
<path fill-rule="evenodd" clip-rule="evenodd" d="M84.5705 33.8012C84.331 33.9302 83.9528 34.0209 83.7782 34.2643C83.9337 34.2062 84.1139 34.1426 84.2077 34.1234C84.4187 34.079 84.5887 34.095 84.7876 33.9884C85.0252 33.8597 85.3366 33.8584 85.5649 33.7087C85.8357 33.532 86.0813 33.1741 86.2778 32.8899C86.2129 32.9787 86.1139 33.035 86.028 33.0936C85.7143 33.3041 85.331 33.4231 84.9949 33.5773C84.8497 33.6442 84.7129 33.7252 84.5705 33.8012Z" fill="#B49759"/>
<path fill-rule="evenodd" clip-rule="evenodd" d="M83.7744 34.2678C83.7753 34.2664 83.7772 34.2655 83.7781 34.2642C83.7749 34.2655 83.7721 34.2664 83.7688 34.2678H83.7744Z" fill="#B49759"/>
<path fill-rule="evenodd" clip-rule="evenodd" d="M91.4088 5.44647C91.3799 5.09862 91.1427 5.16636 91.0507 4.96772C90.8738 4.58966 90.5871 4.74665 90.4527 4.41528C90.3826 4.59287 90.4275 4.47524 90.5087 4.68029C90.5661 4.82538 90.6819 4.86474 90.8364 5.06887C90.9615 5.23364 91.3467 5.75358 91.3266 5.94627C91.4555 5.80805 91.3971 5.64099 91.406 5.44281L91.4088 5.44647Z" fill="#B49759"/>
<path fill-rule="evenodd" clip-rule="evenodd" d="M84.4145 36.2469C84.4178 36.2433 84.4234 36.2396 84.4271 36.2359C84.4224 36.235 84.4168 36.235 84.4131 36.2336L84.4145 36.2469Z" fill="#B49759"/>
<path fill-rule="evenodd" clip-rule="evenodd" d="M84.6661 36.3624C84.8454 36.3844 85.1914 36.1578 85.1624 35.9514C85.02 35.9743 84.5681 36.0896 84.4266 36.2361C84.52 36.2572 84.7184 36.1734 84.6661 36.3624Z" fill="#B49759"/>
<path fill-rule="evenodd" clip-rule="evenodd" d="M92.0229 5.09229C91.8978 4.97832 91.7209 5.01036 91.5701 5.02043C91.5738 5.1106 91.6415 5.13898 91.6747 5.21449C91.7069 5.28727 91.6877 5.34448 91.7069 5.41725C91.7339 5.5239 91.7956 5.44563 91.8997 5.37972C91.9543 5.34448 91.9991 5.45204 92.0603 5.4232C92.1126 5.39757 92.1611 5.43236 92.1989 5.393C92.2031 5.17925 92.1611 5.2177 92.0229 5.09229Z" fill="#B49759"/>
<path fill-rule="evenodd" clip-rule="evenodd" d="M88.0528 1.34477C85.9159 1.16032 81.3616 1.83999 79.9638 2.56407C80.8593 1.56355 84.3935 1.33973 85.3169 1.22531C86.2404 1.10997 87.1961 1.10402 88.0817 1.28389C88.0789 1.30312 88.0691 1.32371 88.0528 1.34477ZM86.1055 1.93291C85.7049 1.80155 84.4607 2.04458 84.4247 2.0249C85.8851 1.51686 87.7143 1.79468 87.7703 1.79377C86.6083 1.95076 86.3254 1.83221 86.1055 1.93291ZM72.9468 5.33541C72.3488 5.73223 72.3128 5.89425 71.7063 6.20411C70.9902 6.57164 70.3889 6.87647 69.6834 7.27329C69.365 7.4527 68.9336 7.85685 68.6124 8.03077C68.266 8.21843 68.0386 8.4848 67.7058 8.71548C67.2356 9.04136 67.0984 9.16951 66.5437 9.87894C67.0419 9.06287 67.4537 8.37908 68.4443 7.81108C69.3561 7.28976 70.1307 6.54509 71.0985 6.11395C72.2026 5.62192 73.2774 4.73949 74.2592 4.57609L72.9468 5.33541ZM65.9704 14.8999C65.4177 15.91 64.6926 17.0144 64.3112 17.6089C63.2859 19.0328 62.4288 20.6581 62.4867 22.7814C62.1697 22.0394 62.1823 22.0088 62.3303 21.2192C62.4778 20.4343 62.5604 19.8992 63.1916 18.7614C63.8168 17.6181 64.5101 16.3915 65.1618 15.3855C65.8098 14.3776 67.2001 12.3276 69.2077 11.6104C68.3995 12.0191 66.6959 13.8083 65.9704 14.8999ZM63.2434 28.6989C63.6734 29.542 64.3228 30.223 65.0647 30.7635C64.8546 30.6894 64.6627 30.5905 64.5124 30.4532C63.9344 29.9841 63.3317 29.3955 63.0964 28.7529C62.8499 28.4229 62.8517 28.2719 62.7738 28.2888C62.2682 27.589 62.4825 26.5903 62.6029 25.544C62.6099 25.4877 62.6277 25.4557 62.6487 25.4282L62.6258 25.7037C62.6001 27.0558 62.7784 27.7844 63.2434 28.6989ZM65.4162 33.5894C65.5619 33.6608 65.7127 33.7253 65.8635 33.7894C65.7412 33.7454 65.6189 33.6983 65.4965 33.6383C66.7379 34.3313 68.2025 34.9167 69.3758 34.9684L69.5998 34.9862C69.9575 35.1689 70.324 35.3634 70.7852 35.5158L71.7955 35.6769L70.9169 35.7195C70.0817 35.8256 69.2123 35.6233 68.3725 35.3185C67.5288 35.0137 66.7253 34.6068 65.9265 34.2969C64.8836 33.8946 63.8891 33.29 63.0222 32.527C62.1486 31.7673 61.4073 30.851 60.7541 29.8266C60.5562 29.5072 60.4917 28.9492 60.4273 28.5918C60.9227 29.8079 61.6963 30.8244 62.5282 31.6167C62.6043 31.6821 62.672 31.7398 62.7402 31.7988C62.7514 31.8172 62.7574 31.84 62.7705 31.857C62.8004 31.8712 62.8349 31.8904 62.8667 31.9064C64.265 33.0987 64.0371 32.8145 64.8387 33.2832C64.8583 33.2946 64.8794 33.3042 64.8994 33.3157C65.0941 33.431 65.2925 33.5404 65.4965 33.6383C65.4685 33.6232 65.4438 33.6049 65.4162 33.5894ZM67.7431 34.3766L67.7469 34.3853C67.7319 34.3802 67.7132 34.3743 67.6992 34.3693C67.7142 34.372 67.7286 34.3743 67.7431 34.3766ZM69.9056 33.3829C70.0336 33.3715 70.1624 33.3701 70.2936 33.3669C70.4519 33.3646 70.6162 33.3715 70.7824 33.382C70.7806 33.3852 70.7731 33.3875 70.774 33.3907C70.7843 33.4099 70.8459 33.4246 70.9131 33.4214C71.1209 33.4351 71.3352 33.4461 71.5476 33.4585C71.6746 33.4754 71.8011 33.4928 71.9267 33.5115L72.0999 33.5372L72.1195 33.5422L71.9734 33.5349L71.6597 33.6022L71.6438 33.6063L71.5714 33.62V33.6218L71.5537 33.626L71.4659 33.6237C71.4328 33.6223 71.401 33.6283 71.3852 33.6351C71.3749 33.6301 71.331 33.6608 71.3146 33.6548L71.0971 33.6621C71.0971 33.6621 71.0047 33.6498 71.0117 33.6589C71.0056 33.6589 70.9468 33.6534 70.8833 33.6507C70.8492 33.6516 70.8384 33.6539 70.8123 33.6548C70.774 33.6502 70.7353 33.6452 70.6965 33.6402V33.6397H70.6909C70.6344 33.6315 70.577 33.6255 70.521 33.6173C70.0485 33.5486 69.5835 33.4635 69.1278 33.3605C69.3846 33.3774 69.6442 33.3852 69.9056 33.3829ZM73.431 36.4422C73.8427 36.4971 74.3717 36.4907 74.8899 36.4632C74.2041 36.5818 73.6723 36.7506 72.528 36.7635C71.6256 36.9026 70.7017 36.7209 69.7735 36.6289C69.4005 36.5923 69.076 36.5602 68.7557 36.5415C69.2688 36.4477 69.7544 36.3346 70.2255 36.3259C70.4103 36.3291 70.5919 36.3419 70.7731 36.3534L71.3072 36.3978C71.6443 36.4261 71.9902 36.4596 72.3292 36.4756C72.7036 36.4939 73.0724 36.487 73.431 36.4422ZM73.7755 33.3724L73.7433 33.3774C73.7269 33.3751 73.7101 33.3738 73.6938 33.3719C73.7209 33.3715 73.7484 33.3724 73.7755 33.3724ZM74.5706 33.1614L74.5421 33.1715C74.5393 33.1706 74.536 33.1701 74.5332 33.1687C74.5449 33.1664 74.5566 33.1642 74.5706 33.1614ZM63.517 35.1931C63.3434 35.1336 63.1445 35.0814 63.0231 35.0439C61.8102 34.2983 60.629 33.3005 59.7737 31.9179C59.8307 31.9536 59.9315 32.0323 60.0935 32.3037C60.6617 33.0593 60.897 33.1156 61.524 33.6223C62.1552 34.1276 62.7934 34.6018 63.517 35.1931C63.553 35.2046 63.5829 35.2343 63.6104 35.2691L63.517 35.1931ZM59.7163 31.8291C59.7135 31.8249 59.7102 31.8208 59.7079 31.8167C59.6752 31.7728 59.6906 31.7906 59.7167 31.8217C59.7167 31.824 59.7163 31.8272 59.7163 31.8291ZM58.1499 31.4304C58.1434 31.424 58.1317 31.4098 58.1271 31.4048C58.1275 31.4116 58.1289 31.4185 58.1294 31.4249C58.1018 31.3595 58.0729 31.2922 58.0477 31.2304C58.0813 31.2963 58.113 31.3613 58.1499 31.4304ZM67.012 38.5769C66.6889 38.4885 66.3738 38.3727 66.0615 38.2464C66.3775 38.3649 66.695 38.4752 67.012 38.5769ZM56.423 26.8214C56.4132 26.7665 56.4024 26.7116 56.3936 26.6567L56.4319 26.8507C56.4291 26.8411 56.4258 26.831 56.423 26.8214ZM91.9273 3.98841L91.932 3.97972L92.115 4.18156C92.2368 4.26852 92.2901 4.50881 92.4189 4.62735L92.3424 4.31978C92.2112 3.93349 92.1789 3.80396 91.8279 3.149C91.6411 2.93343 91.4544 2.41028 90.2573 1.62488V1.59375C89.1826 0.97724 87.5145 0.487049 86.5046 0.67928C85.9477 0.552957 83.1642 0.801027 82.3103 1.17542C80.1417 1.19373 78.5002 2.24048 76.7798 2.77644C74.9684 3.40531 74.2503 3.56001 72.6896 4.30743C72.4062 4.47036 72.191 4.5587 72.0187 4.60035L72.0196 4.60081L71.45 4.83606C71.2325 5.00083 71.2362 4.97291 71.1629 5.02463C70.521 5.55098 70.4477 5.45395 69.611 6.0636C69.301 6.3492 68.908 6.59727 68.4808 6.87006C68.2679 7.00737 68.0718 7.26642 67.8468 7.42616C67.7342 7.50671 67.801 7.4495 67.6866 7.54058L67.5989 7.60466L67.3729 7.81199L67.3001 7.87653L67.2478 7.92642C67.089 8.04313 67.0227 8.07654 66.9014 8.1992C65.9237 9.00429 66.0171 9.54757 64.9316 10.5298L64.899 10.6415C64.3611 11.2932 64.0511 11.8617 63.4433 12.6993C62.9073 13.3327 62.7911 14.0298 62.4306 14.5204C61.3582 16.2583 60.3503 18.068 60.079 19.74C60.009 19.4841 60.1794 19.112 60.1934 18.89C60.199 18.2085 60.4955 17.3627 60.9096 16.494C61.3232 15.6239 61.8508 14.7333 62.2831 13.8851C62.5917 13.3382 62.8578 12.7423 63.207 12.21C64.0418 10.9856 64.9022 9.82448 66.0012 8.71823C66.2776 8.44087 66.6329 8.15893 66.9373 7.88797L67.1712 7.68475L67.2678 7.59916L67.3164 7.5566L67.3197 7.55431L67.3206 7.55294C67.2828 7.58131 67.4084 7.48749 67.2352 7.61656L67.2436 7.60969L67.2585 7.59642L67.2889 7.56896C67.4513 7.42341 67.6105 7.28793 67.7688 7.15703C68.329 6.5364 68.7894 6.05033 69.4332 5.61277C70.3464 4.97291 70.3473 4.84018 70.83 4.6507V4.64795C70.83 4.64795 71.0373 4.50286 71.2245 4.41498C71.0289 4.31658 70.7885 4.26532 70.2936 4.49005C70.3216 4.49508 69.9617 4.55046 69.6974 4.62735C68.9817 5.03562 68.9458 5.00358 68.562 5.27362C67.8281 5.7304 67.6787 5.97298 66.9023 6.54143L66.0797 7.1584C65.7734 7.39595 65.4765 7.63807 65.187 7.88522C64.6095 8.38091 64.0637 8.89536 63.545 9.42582C62.5081 10.489 61.5786 11.6182 60.7364 12.8091C59.7854 14.1685 58.9441 15.6097 58.2386 17.1453L58.2671 17.0689C56.6592 19.2814 55.7773 24.1329 56.2026 26.3024C56.2194 26.4704 56.2568 26.7944 56.3385 27.4933C56.3791 27.8435 56.5318 28.232 56.6186 28.541C56.6746 28.7405 56.7619 28.9543 56.8208 29.1566C56.98 29.7063 57.1569 30.2047 57.2872 30.7736C57.3366 30.9887 57.5033 31.2995 57.5514 31.5123C57.6116 31.7792 58.0874 32.7335 58.2512 32.9445C58.2662 32.9637 58.2783 32.9692 58.2905 32.9751C58.7293 33.772 59.1812 34.0814 59.9768 34.891C59.9712 34.8819 59.966 34.8736 59.9604 34.8649C61.8639 36.8472 64.7477 38.3535 66.159 38.8588C67.0671 39.1421 67.9714 39.3536 68.8692 39.5206C69.3188 39.6025 69.7661 39.6744 70.2124 39.733C70.6722 39.7939 71.148 39.8396 71.6088 39.8675C73.4585 39.9806 75.3022 39.8195 77.0487 39.4103L78.2234 39.1403C76.5982 39.3751 74.9371 39.4369 73.303 39.3119C72.4823 39.2474 71.6867 39.143 70.8707 38.9897C70.0793 38.8364 69.3207 38.6569 68.5555 38.4492C67.0339 38.0354 65.5414 37.5127 64.1104 36.8147C62.7771 36.1648 61.3708 34.9176 60.199 33.8315C59.4777 32.9083 58.4795 31.6675 58.1443 30.6564C57.7816 29.7122 57.3805 28.2563 57.0308 26.7944C56.9235 25.6813 57.0845 25.2511 57.0308 24.1201C57.0514 24.013 57.0752 23.8858 57.1037 23.7288C57.1494 24.7082 57.2139 23.3919 57.2405 24.587C57.2657 25.7802 57.3535 27.0663 57.62 28.3387C57.8819 29.6083 58.3381 30.8533 58.9483 31.8927C59.5543 32.9348 60.2985 33.7596 61.0095 34.3056C62.6006 35.5835 64.3887 36.4779 66.2449 37.1553C67.1745 37.493 68.1264 37.7754 69.0928 38.0189C69.576 38.1388 70.0634 38.2519 70.5541 38.3521C71.0453 38.4524 71.5649 38.5393 72.0663 38.6057C73.9272 38.592 75.7896 38.3247 77.6043 37.8656C77.6388 37.8661 77.6715 37.867 77.7056 37.8679C76.0921 38.3906 74.6308 38.7384 72.627 38.6917C74.7881 38.9691 76.5982 38.8368 78.7733 38.4597C81.1688 37.8015 82.0134 37.5342 84.2357 36.4481C84.5569 36.2692 82.4602 36.7337 84.2203 36.1396C84.3505 35.7268 84.6755 35.9245 85.1278 35.3918C85.211 35.3538 85.2665 35.3254 85.1647 35.3666C85.2324 35.3048 85.4948 35.1785 85.4789 35.1332C85.1717 35.2686 84.8991 35.4037 84.6339 35.5364C84.7091 35.4558 84.7791 35.3638 84.8337 35.2453C84.9934 34.9038 85.302 34.7304 85.6946 34.4635C85.838 34.3894 85.9897 34.3121 86.1578 34.2292C86.2049 34.0974 86.4622 33.9592 86.4892 33.8351C85.6246 34.1976 84.8365 34.5468 84.0807 34.8819C83.9131 34.9528 83.7399 35.0096 83.5643 35.0599C83.3463 35.0856 82.6922 35.243 83.5956 34.7574C83.5881 34.5935 80.8817 35.8101 80.279 36.0188C80.278 36.0193 80.2766 36.0193 80.2752 36.0202C80.2729 36.0211 80.2706 36.0215 80.2687 36.0225C80.2225 36.038 80.1935 36.0458 80.1767 36.0472L80.1795 36.0463C80.1777 36.0467 80.1763 36.0472 80.1749 36.0476C80.0726 36.054 80.6651 35.7254 82.66 34.7098C83.5004 34.1033 84.1619 33.7116 82.6124 34.3413C82.2319 34.496 81.8495 34.6448 81.4657 34.7849C81.6394 34.6123 81.8117 34.4384 81.984 34.264C82.3626 34.1523 82.7422 34.0406 83.132 33.9303C84.1787 33.5536 85.1162 33.1486 86.0093 32.7161C86.7591 32.3527 87.1975 31.9755 87.761 31.6002C87.7787 31.5901 87.7717 31.5814 87.753 31.5792C87.7302 31.5801 87.7012 31.5906 87.6872 31.6002C86.6881 32.1151 85.6279 32.6149 84.358 33.0452C84.2119 33.0937 84.0657 33.1404 83.9191 33.1838C83.9014 33.1866 83.8822 33.1907 83.8636 33.1962L83.4429 33.2983L83.5816 33.2548C83.6759 33.2282 83.7347 33.1861 83.7174 33.1596C83.7058 33.1495 83.6834 33.1445 83.6549 33.1436C83.9672 33.0149 84.2585 32.8785 84.5433 32.7408C84.6362 32.7078 84.7165 32.6712 84.7777 32.6328C85.1685 32.5289 85.5653 32.3746 85.9491 32.2634L85.9958 32.2483C86.1195 32.2099 86.2581 32.1563 86.2833 32.1092C86.2913 32.0954 86.2917 32.1165 86.2875 32.1055C87.056 31.7682 87.4379 31.6336 88.0766 31.2615C88.1102 31.2428 88.3161 31.1443 88.2969 31.1366C88.325 31.1663 88.2913 31.1453 88.3053 31.1366C88.3716 31.0853 88.3091 31.1027 88.4039 31.0533C88.4216 31.0414 88.5598 30.9105 88.542 30.9095C88.325 31.0272 88.346 31.0093 88.3292 31.0189C88.2344 31.0707 88.1793 31.0986 88.2503 31.0533C88.2433 31.0592 88.1293 31.1137 88.1317 31.1173C88.1018 31.1192 87.9459 31.2157 87.9151 31.2313C87.176 31.5544 86.9454 31.7073 86.1508 32.0071C86.4986 31.8268 86.8655 31.6542 87.2442 31.4698C87.6657 31.2661 87.1718 31.3142 87.4543 31.1608C87.5504 31.1608 87.6382 31.1654 87.6008 31.116C87.4916 30.9709 87.2362 31.0665 88.0178 30.4848C88.2302 30.3269 88.2545 30.0193 88.275 29.8582C88.3058 29.6198 88.4445 29.4674 88.5547 29.2811C88.5682 29.2747 88.5813 29.2692 88.5948 29.2623C88.7092 29.2129 88.7577 29.1506 88.7036 29.1245C88.6471 29.0994 88.4188 29.2316 88.3044 29.2811C88.2442 29.3044 88.1919 29.3246 88.1335 29.347C88.1116 29.3548 88.0883 29.363 88.0668 29.3726C87.6032 29.5516 87.1891 29.715 86.7764 29.8893C86.6358 29.9228 86.4953 29.9585 86.3566 30.0143C86.1727 30.0884 85.9827 30.2038 85.8095 30.3182C85.2651 30.5704 84.7637 30.7892 84.1866 31.0231C83.4607 31.3174 82.7328 31.543 81.9686 31.7718C81.8883 31.7906 81.8075 31.8089 81.7337 31.8327L81.5087 31.906C80.9503 32.0616 82.0302 31.613 81.73 31.6355C81.7305 31.6313 81.7347 31.6258 81.7295 31.6226C81.7207 31.6185 81.7057 31.6185 81.6903 31.6185C81.6698 31.6286 81.6492 31.6396 81.6282 31.6506C81.6249 31.651 81.6235 31.651 81.6203 31.6519C81.6478 31.6387 81.6674 31.6286 81.6889 31.6181C81.6642 31.6176 81.6357 31.6213 81.6067 31.6313C80.6842 31.9426 79.7374 32.4103 78.7621 32.6483C78.3966 32.5861 77.8326 32.8506 77.3228 32.9408C77.1332 32.9742 77.172 32.9426 76.7014 33.042H76.4824C76.1309 33.1129 76.0996 33.1028 75.9044 33.1028L75.516 33.1129C74.9968 33.1202 75.2429 33.0845 74.7069 33.1129L74.6878 33.1193L74.5132 33.1028H74.4305C74.3628 33.0946 74.3147 33.1005 74.2624 33.1097C74.1952 33.1019 74.1247 33.0973 74.0468 33.1028C73.9884 33.1083 73.9268 33.106 73.867 33.1097C73.4296 33.0767 72.9104 33.0827 72.4543 33.0635C72.2727 33.0465 72.0962 33.0328 71.9216 33.0182C71.895 33.014 71.8656 33.0117 71.8403 33.0076H71.7932C71.7768 33.0067 71.7605 33.0049 71.7442 33.0035L71.739 32.9902L71.7232 32.9934L71.7194 32.9939L71.7115 32.9902L71.5738 32.9934H71.4594L71.31 32.9861L70.62 32.9408C70.2016 32.8822 69.6923 32.7797 69.2964 32.6987C67.8785 32.4048 66.7641 31.7508 65.7739 31.0945C65.8304 31.1137 65.878 31.1274 65.906 31.1311C64.9499 30.1978 64.0889 29.4262 63.3816 28.3346C63.2486 28.1236 63.0833 27.5354 63.0632 27.2649C62.8844 26.0205 62.8233 24.6204 63.0236 23.1503C63.0035 23.2519 62.9801 23.3553 62.9577 23.4578C62.982 23.2271 63.0203 22.9859 63.0889 22.7255C63.0927 22.7113 63.0959 22.6967 63.0997 22.6825C63.074 22.8386 63.0455 22.9956 63.0236 23.1503C63.5852 20.4169 64.933 17.8085 66.7641 15.5443C67.6371 14.4568 68.5265 13.4361 69.4649 12.5029L69.8202 12.1583C69.9444 12.0406 70.0373 11.9486 70.1825 11.82L70.2329 11.7752L70.2399 11.7697L70.2903 11.7299L70.3015 11.7198L70.3221 11.6992L70.4071 11.6182L70.5812 11.4534L70.9472 11.123C71.4496 10.6845 71.4342 10.1307 71.9804 9.71188C72.8801 9.03724 73.1779 8.49853 74.2046 8.05549C74.2046 8.05549 74.2592 7.96486 74.2046 8.05549C75.4749 7.49939 76.7084 6.46545 77.9848 5.86496C79.3023 5.24433 80.5446 4.26715 81.835 3.9399C83.1208 3.62226 85.2815 2.85516 86.6223 2.99705C87.2712 2.93343 87.9734 2.87484 88.515 3.149C88.5817 3.13893 88.7951 3.11834 89.1994 3.51836C89.417 3.59571 89.4599 3.81128 89.8521 4.0113C90.2466 4.17973 90.6948 4.3532 90.677 4.30376C90.2106 3.91884 90.0342 3.88314 89.8684 3.56459C89.7321 3.24466 88.9818 2.64096 88.9664 2.67163C89.9613 2.81031 90.0342 3.26709 90.5734 3.63645C90.6887 3.71425 90.791 3.90465 90.8951 4.02686C90.8937 4.02777 91.0066 4.17607 91.1332 4.29369L91.361 4.53536C91.5828 4.6539 91.8965 4.78343 92.0337 4.75414C92.1775 4.83103 92.2098 4.75002 92.3358 5.03836C92.481 4.56602 91.3213 3.56962 91.9273 3.98841Z" fill="#B7924C"/>
</svg>
