<svg xmlns="http://www.w3.org/2000/svg" width="256.854" height="78.597" viewBox="0 0 256.854 78.597">
  <g id="MCCY_logo_full_colour_FA" data-name="MCCY logo full colour FA" transform="translate(0.01 -0.004)">
    <path id="Path_1288" data-name="Path 1288" d="M-50.858,608.722c.136.039.328-.085.3,0,.22-.313.574-.131.456-.4.046-.074.292-.379.138-.144l.256-.279h-.172c-.038-.256.459-.179.418-.479l-.59.4-.013-.087a.479.479,0,0,1-.323.256c0-.041-.256.295-.279.185-.354.231-.149.4-.356.649a.4.4,0,0,1,.162-.1Z" transform="translate(51.01 -530.219)"/>
    <path id="Path_1289" data-name="Path 1289" d="M240.83,495.223V488.13h1.413l1.679,5.022c.156.469.269.818.338,1.051.082-.256.208-.638.379-1.138l1.7-4.935H247.6v7.093h-.9v-5.937l-2.051,5.937H243.8l-2.051-6.04v6.04Z" transform="translate(-166.023 -441.509)"/>
    <path id="Path_1290" data-name="Path 1290" d="M272.73,489.1v-1h.872v1Zm0,6.094v-5.127h.872v5.127Z" transform="translate(-189.746 -441.487)"/>
    <path id="Path_1291" data-name="Path 1291" d="M281.3,500.587V495.46h.784v.731a1.848,1.848,0,0,1,1.636-.846,2.179,2.179,0,0,1,.856.167,1.361,1.361,0,0,1,.582.438,1.7,1.7,0,0,1,.272.643,5.133,5.133,0,0,1,.049.846v3.148h-.872v-3.125a2.308,2.308,0,0,0-.1-.8.838.838,0,0,0-.359-.42,1.153,1.153,0,0,0-.608-.156,1.42,1.42,0,0,0-.961.351,1.8,1.8,0,0,0-.405,1.341v2.807Z" transform="translate(-196.119 -446.873)"/>
    <path id="Path_1292" data-name="Path 1292" d="M302.83,489.1v-1h.869v1Zm0,6.094v-5.127h.869v5.127Z" transform="translate(-212.13 -441.487)"/>
    <path id="Path_1293" data-name="Path 1293" d="M310,498.976l.861-.136a1.207,1.207,0,0,0,.4.795,1.425,1.425,0,0,0,.928.274,1.364,1.364,0,0,0,.89-.256.731.731,0,0,0,.292-.574.528.528,0,0,0-.256-.464,3.7,3.7,0,0,0-.89-.295,8.066,8.066,0,0,1-1.328-.42,1.266,1.266,0,0,1-.754-1.177,1.33,1.33,0,0,1,.159-.638,1.389,1.389,0,0,1,.428-.484,1.794,1.794,0,0,1,.554-.256,2.635,2.635,0,0,1,.751-.105,2.994,2.994,0,0,1,1.064.174,1.433,1.433,0,0,1,.674.472,1.815,1.815,0,0,1,.3.8l-.851.115a.938.938,0,0,0-.328-.595,1.233,1.233,0,0,0-.787-.223,1.415,1.415,0,0,0-.856.2.574.574,0,0,0-.256.464.49.49,0,0,0,.105.305.77.77,0,0,0,.336.233c.087.031.344.105.769.22a11.077,11.077,0,0,1,1.282.4,1.31,1.31,0,0,1,.574.456,1.281,1.281,0,0,1,.208.746,1.466,1.466,0,0,1-.256.82,1.635,1.635,0,0,1-.733.595,2.667,2.667,0,0,1-1.084.213,2.423,2.423,0,0,1-1.538-.418,1.925,1.925,0,0,1-.659-1.243Z" transform="translate(-217.462 -446.795)"/>
    <path id="Path_1294" data-name="Path 1294" d="M331.242,494.905l.126.769a3.1,3.1,0,0,1-.659.079,1.492,1.492,0,0,1-.736-.151.822.822,0,0,1-.367-.395,3.077,3.077,0,0,1-.108-1.025v-2.958h-.638v-.679h.638v-1.282l.866-.513v1.794h.877v.679h-.877v3a1.519,1.519,0,0,0,.046.479.346.346,0,0,0,.151.169.582.582,0,0,0,.3.064A2.847,2.847,0,0,0,331.242,494.905Z" transform="translate(-231.487 -441.97)"/>
    <path id="Path_1295" data-name="Path 1295" d="M341.43,500.563v-5.127h.784v.769a2.12,2.12,0,0,1,.554-.72.974.974,0,0,1,.559-.174,1.711,1.711,0,0,1,.9.282l-.3.808a1.249,1.249,0,0,0-.638-.19.841.841,0,0,0-.513.172.936.936,0,0,0-.323.477,3.378,3.378,0,0,0-.146,1.025v2.679Z" transform="translate(-240.834 -446.848)"/>
    <path id="Path_1296" data-name="Path 1296" d="M352.844,502.869l-.095-.818a1.856,1.856,0,0,0,.5.079.953.953,0,0,0,.464-.1.787.787,0,0,0,.287-.272,4.387,4.387,0,0,0,.256-.649c.015-.049.041-.118.077-.213l-1.951-5.15h.938l1.069,2.976c.141.379.256.769.374,1.192a11.089,11.089,0,0,1,.359-1.172l1.1-3h.872l-1.956,5.227a10.653,10.653,0,0,1-.487,1.166,1.761,1.761,0,0,1-.533.633,1.261,1.261,0,0,1-.718.2A1.737,1.737,0,0,1,352.844,502.869Z" transform="translate(-248.977 -447.176)"/>
    <path id="Path_1297" data-name="Path 1297" d="M383.15,497.983a2.621,2.621,0,0,1,.795-2.115,2.387,2.387,0,0,1,1.618-.572,2.307,2.307,0,0,1,1.73.695,2.646,2.646,0,0,1,.674,1.92,3.4,3.4,0,0,1-.3,1.559,2.118,2.118,0,0,1-.866.877,2.516,2.516,0,0,1-1.241.315,2.307,2.307,0,0,1-1.746-.692A2.715,2.715,0,0,1,383.15,497.983Zm.9,0a2.187,2.187,0,0,0,.431,1.479,1.438,1.438,0,0,0,2.164,0,2.244,2.244,0,0,0,.431-1.5,2.135,2.135,0,0,0-.433-1.446,1.436,1.436,0,0,0-2.161,0A2.162,2.162,0,0,0,384.047,497.983Z" transform="translate(-271.859 -446.837)"/>
    <path id="Path_1298" data-name="Path 1298" d="M404.5,494.859V490.4h-.769v-.679h.769v-.546a2.374,2.374,0,0,1,.092-.769,1.115,1.115,0,0,1,.444-.549,1.587,1.587,0,0,1,.887-.213,4.423,4.423,0,0,1,.815.087l-.131.769a2.859,2.859,0,0,0-.513-.049.769.769,0,0,0-.561.169.931.931,0,0,0-.164.633v.474h.995v.679h-1v4.461Z" transform="translate(-287.164 -441.145)"/>
    <path id="Path_1299" data-name="Path 1299" d="M432.111,492.375l.938.236a3.174,3.174,0,0,1-1.061,1.766,2.933,2.933,0,0,1-1.876.6,3.363,3.363,0,0,1-1.866-.467,2.9,2.9,0,0,1-1.092-1.351,4.818,4.818,0,0,1-.377-1.9,4.166,4.166,0,0,1,.426-1.935,2.886,2.886,0,0,1,1.2-1.251,3.5,3.5,0,0,1,1.72-.431,2.9,2.9,0,0,1,1.794.543,2.82,2.82,0,0,1,1.013,1.538l-.925.218a2.174,2.174,0,0,0-.715-1.128,1.91,1.91,0,0,0-1.182-.354,2.289,2.289,0,0,0-1.366.392,2.074,2.074,0,0,0-.769,1.051,4.235,4.235,0,0,0-.223,1.364,4.3,4.3,0,0,0,.256,1.579,1.953,1.953,0,0,0,.82,1.01,2.289,2.289,0,0,0,1.2.333,2.023,2.023,0,0,0,1.336-.454A2.348,2.348,0,0,0,432.111,492.375Z" transform="translate(-304.301 -441.147)"/>
    <path id="Path_1300" data-name="Path 1300" d="M458.634,500.89v-.754a1.884,1.884,0,0,1-1.63.872,2.1,2.1,0,0,1-.851-.174,1.421,1.421,0,0,1-.585-.438,1.637,1.637,0,0,1-.269-.646,4.382,4.382,0,0,1-.054-.813V495.75h.872V498.6a5.033,5.033,0,0,0,.054.92.913.913,0,0,0,.349.541,1.079,1.079,0,0,0,.659.195,1.433,1.433,0,0,0,.733-.2,1.12,1.12,0,0,0,.487-.549,2.737,2.737,0,0,0,.144-1V495.75h.872v5.127Z" transform="translate(-325.472 -447.176)"/>
    <path id="Path_1301" data-name="Path 1301" d="M476.76,495.223V488.13h.869v7.093Z" transform="translate(-341.472 -441.509)"/>
    <path id="Path_1302" data-name="Path 1302" d="M485.931,494.905l.126.769a3.1,3.1,0,0,1-.659.079,1.492,1.492,0,0,1-.736-.151.836.836,0,0,1-.367-.395,3.077,3.077,0,0,1-.108-1.025v-2.958h-.638v-.679h.628v-1.282l.866-.513v1.794h.877v.679h-.877v3a1.519,1.519,0,0,0,.046.479.359.359,0,0,0,.151.169.589.589,0,0,0,.3.064A2.816,2.816,0,0,0,485.931,494.905Z" transform="translate(-346.521 -441.97)"/>
    <path id="Path_1303" data-name="Path 1303" d="M499.51,500.89v-.754a1.884,1.884,0,0,1-1.63.872,2.085,2.085,0,0,1-.849-.174,1.431,1.431,0,0,1-.587-.438,1.718,1.718,0,0,1-.256-.646,4.693,4.693,0,0,1-.051-.813V495.75h.869V498.6a5.028,5.028,0,0,0,.054.92.926.926,0,0,0,.349.541,1.079,1.079,0,0,0,.659.195,1.435,1.435,0,0,0,.736-.2,1.133,1.133,0,0,0,.487-.549,2.747,2.747,0,0,0,.141-1V495.75h.872v5.127Z" transform="translate(-355.88 -447.176)"/>
    <path id="Path_1304" data-name="Path 1304" d="M517.63,500.563v-5.127h.784v.769a2.12,2.12,0,0,1,.554-.72.974.974,0,0,1,.559-.174,1.7,1.7,0,0,1,.895.282l-.3.808a1.249,1.249,0,0,0-.638-.19.841.841,0,0,0-.513.172.938.938,0,0,0-.326.477,3.381,3.381,0,0,0-.144,1.025v2.679Z" transform="translate(-371.865 -446.848)"/>
    <path id="Path_1305" data-name="Path 1305" d="M533.219,498.905l.9.11a2.212,2.212,0,0,1-.789,1.225,2.674,2.674,0,0,1-3.261-.256,2.719,2.719,0,0,1-.659-1.948,2.849,2.849,0,0,1,.667-2.015,2.263,2.263,0,0,1,1.733-.715,2.194,2.194,0,0,1,1.684.7,2.782,2.782,0,0,1,.654,1.974v.233H530.3a1.981,1.981,0,0,0,.479,1.3,1.425,1.425,0,0,0,1.074.449,1.338,1.338,0,0,0,.818-.256A1.676,1.676,0,0,0,533.219,498.905Zm-2.861-1.41h2.869a1.746,1.746,0,0,0-.328-.972,1.336,1.336,0,0,0-1.079-.513,1.4,1.4,0,0,0-1.01.4,1.592,1.592,0,0,0-.451,1.082Z" transform="translate(-380.625 -446.844)"/>
    <path id="Path_1306" data-name="Path 1306" d="M552.759,512.922v-.992h.992v.992a1.794,1.794,0,0,1-.192.884,1.281,1.281,0,0,1-.615.513l-.244-.374a.817.817,0,0,0,.408-.354,1.537,1.537,0,0,0,.146-.677Z" transform="translate(-397.945 -459.208)"/>
    <path id="Path_1307" data-name="Path 1307" d="M578.232,492.375l.938.236a3.174,3.174,0,0,1-1.061,1.766,2.933,2.933,0,0,1-1.877.6,3.363,3.363,0,0,1-1.866-.467,2.913,2.913,0,0,1-1.092-1.351,4.817,4.817,0,0,1-.377-1.9,4.2,4.2,0,0,1,.426-1.935,2.887,2.887,0,0,1,1.2-1.251,3.5,3.5,0,0,1,1.72-.431,2.9,2.9,0,0,1,1.795.543,2.82,2.82,0,0,1,1.013,1.538l-.925.218a2.174,2.174,0,0,0-.715-1.128,1.91,1.91,0,0,0-1.182-.354,2.307,2.307,0,0,0-1.366.392,2.074,2.074,0,0,0-.769,1.051,4.237,4.237,0,0,0-.223,1.364,4.3,4.3,0,0,0,.256,1.579,1.967,1.967,0,0,0,.82,1.01,2.307,2.307,0,0,0,1.2.333,2.023,2.023,0,0,0,1.336-.454A2.333,2.333,0,0,0,578.232,492.375Z" transform="translate(-412.963 -441.147)"/>
    <path id="Path_1308" data-name="Path 1308" d="M600.19,497.982a2.656,2.656,0,0,1,.792-2.115,2.392,2.392,0,0,1,1.618-.572,2.307,2.307,0,0,1,1.733.695,2.653,2.653,0,0,1,.679,1.92,3.4,3.4,0,0,1-.3,1.559,2.118,2.118,0,0,1-.866.884,2.515,2.515,0,0,1-1.241.315,2.307,2.307,0,0,1-1.746-.692A2.737,2.737,0,0,1,600.19,497.982Zm.895,0a2.187,2.187,0,0,0,.431,1.479,1.438,1.438,0,0,0,2.164,0,2.243,2.243,0,0,0,.431-1.5,2.136,2.136,0,0,0-.433-1.446,1.436,1.436,0,0,0-2.161,0A2.162,2.162,0,0,0,601.085,497.982Z" transform="translate(-433.26 -446.837)"/>
    <path id="Path_1309" data-name="Path 1309" d="M623,500.583v-5.127h.769v.723a1.812,1.812,0,0,1,1.559-.838,1.679,1.679,0,0,1,.936.238,1.256,1.256,0,0,1,.513.661,1.848,1.848,0,0,1,1.589-.9,1.561,1.561,0,0,1,1.174.423,1.809,1.809,0,0,1,.413,1.3v3.515h-.867v-3.238a2.364,2.364,0,0,0-.085-.751.733.733,0,0,0-.308-.372.971.971,0,0,0-.513-.138,1.21,1.21,0,0,0-.9.359,1.589,1.589,0,0,0-.359,1.154v2.987h-.872V497.25a1.456,1.456,0,0,0-.213-.872.8.8,0,0,0-.695-.29,1.282,1.282,0,0,0-.682.192,1.087,1.087,0,0,0-.451.567,3.155,3.155,0,0,0-.141,1.074v2.666Z" transform="translate(-450.223 -446.868)"/>
    <path id="Path_1310" data-name="Path 1310" d="M655.16,500.583v-5.127h.769v.723a1.812,1.812,0,0,1,1.559-.838,1.685,1.685,0,0,1,.936.238,1.256,1.256,0,0,1,.513.661,1.846,1.846,0,0,1,1.587-.9,1.566,1.566,0,0,1,1.177.423,1.81,1.81,0,0,1,.413,1.3v3.515h-.841v-3.238a2.364,2.364,0,0,0-.085-.751.733.733,0,0,0-.308-.372.972.972,0,0,0-.513-.138,1.21,1.21,0,0,0-.9.359,1.589,1.589,0,0,0-.359,1.154v2.987h-.872V497.25a1.477,1.477,0,0,0-.213-.872.8.8,0,0,0-.7-.29,1.282,1.282,0,0,0-.679.192,1.1,1.1,0,0,0-.454.567,3.234,3.234,0,0,0-.138,1.074v2.666Z" transform="translate(-474.139 -446.868)"/>
    <path id="Path_1311" data-name="Path 1311" d="M690.712,500.89v-.754a1.884,1.884,0,0,1-1.633.872,2.1,2.1,0,0,1-.849-.174,1.421,1.421,0,0,1-.584-.438,1.639,1.639,0,0,1-.256-.646,4.4,4.4,0,0,1-.054-.813V495.75h.872V498.6a5.03,5.03,0,0,0,.054.92.9.9,0,0,0,.349.541,1.071,1.071,0,0,0,.656.195,1.435,1.435,0,0,0,.736-.2,1.12,1.12,0,0,0,.487-.549,2.739,2.739,0,0,0,.144-1V495.75h.872v5.127Z" transform="translate(-498.065 -447.176)"/>
    <path id="Path_1312" data-name="Path 1312" d="M708.87,500.587V495.46h.784v.731a1.848,1.848,0,0,1,1.636-.846,2.158,2.158,0,0,1,.854.167,1.384,1.384,0,0,1,.585.438,1.7,1.7,0,0,1,.269.643,4.884,4.884,0,0,1,.049.846v3.148h-.872v-3.125a2.388,2.388,0,0,0-.1-.8.856.856,0,0,0-.362-.42,1.141,1.141,0,0,0-.607-.156,1.42,1.42,0,0,0-.961.351,1.748,1.748,0,0,0-.4,1.341v2.807Z" transform="translate(-514.08 -446.873)"/>
    <path id="Path_1313" data-name="Path 1313" d="M730.39,489.1v-1h.872v1Zm0,6.094v-5.127h.872v5.127Z" transform="translate(-530.083 -441.487)"/>
    <path id="Path_1314" data-name="Path 1314" d="M739.472,494.905l.126.769a3.075,3.075,0,0,1-.659.079,1.492,1.492,0,0,1-.736-.151.836.836,0,0,1-.367-.395,3.073,3.073,0,0,1-.108-1.025v-2.958h-.638v-.679h.638v-1.282l.866-.513v1.794h.877v.679h-.867v3a1.518,1.518,0,0,0,.046.479.359.359,0,0,0,.151.169.59.59,0,0,0,.3.064A2.813,2.813,0,0,0,739.472,494.905Z" transform="translate(-535.066 -441.97)"/>
    <path id="Path_1315" data-name="Path 1315" d="M748.211,502.869l-.095-.818a1.856,1.856,0,0,0,.5.079.954.954,0,0,0,.464-.1.787.787,0,0,0,.287-.272,4.193,4.193,0,0,0,.256-.649l.079-.213-1.951-5.15h.938l1.069,2.976c.138.379.256.769.374,1.192a11.7,11.7,0,0,1,.356-1.172l1.1-3h.872l-1.956,5.227a10.031,10.031,0,0,1-.49,1.166,1.732,1.732,0,0,1-.531.633,1.261,1.261,0,0,1-.718.2A1.738,1.738,0,0,1,748.211,502.869Z" transform="translate(-542.993 -447.176)"/>
    <path id="Path_1316" data-name="Path 1316" d="M782.276,499.91a3.248,3.248,0,0,1-.931.579,2.654,2.654,0,0,1-.961.172,1.866,1.866,0,0,1-1.3-.415,1.364,1.364,0,0,1-.454-1.056,1.441,1.441,0,0,1,.62-1.192,2.124,2.124,0,0,1,.628-.285,5.8,5.8,0,0,1,.769-.131,8.106,8.106,0,0,0,1.553-.3v-.228a.959.959,0,0,0-.256-.751,1.461,1.461,0,0,0-.992-.295,1.538,1.538,0,0,0-.907.215,1.323,1.323,0,0,0-.433.769l-.851-.118a2.1,2.1,0,0,1,.4-.895,1.679,1.679,0,0,1,.769-.513,3.424,3.424,0,0,1,1.164-.182,3.11,3.11,0,0,1,1.072.154,1.438,1.438,0,0,1,.6.39,1.4,1.4,0,0,1,.269.595,4.7,4.7,0,0,1,.044.8v1.161a12.539,12.539,0,0,0,.056,1.538,1.946,1.946,0,0,0,.22.615h-.91A1.851,1.851,0,0,1,782.276,499.91Zm-.072-1.946a6.464,6.464,0,0,1-1.43.323,3.447,3.447,0,0,0-.769.174.759.759,0,0,0-.2,1.279,1.141,1.141,0,0,0,.769.231,1.8,1.8,0,0,0,.895-.218,1.366,1.366,0,0,0,.577-.6,2.072,2.072,0,0,0,.141-.869Z" transform="translate(-565.955 -446.829)"/>
    <path id="Path_1317" data-name="Path 1317" d="M801.28,500.587V495.46h.784v.731a1.848,1.848,0,0,1,1.636-.846,2.159,2.159,0,0,1,.854.167,1.369,1.369,0,0,1,.585.438,1.694,1.694,0,0,1,.256.643,4.872,4.872,0,0,1,.049.846v3.148h-.872v-3.125a2.389,2.389,0,0,0-.1-.8.843.843,0,0,0-.362-.42,1.141,1.141,0,0,0-.608-.156,1.418,1.418,0,0,0-.959.351,1.737,1.737,0,0,0-.405,1.341v2.807Z" transform="translate(-582.801 -446.873)"/>
    <path id="Path_1318" data-name="Path 1318" d="M825.206,495.231v-.649a1.6,1.6,0,0,1-1.438.769,2,2,0,0,1-1.128-.341,2.235,2.235,0,0,1-.8-.946,3.251,3.251,0,0,1-.282-1.395,3.647,3.647,0,0,1,.256-1.4,2.007,2.007,0,0,1,.769-.961,2.051,2.051,0,0,1,1.146-.333,1.718,1.718,0,0,1,1.418.708V488.14h.866v7.091Zm-2.753-2.564a2.234,2.234,0,0,0,.415,1.474,1.248,1.248,0,0,0,.984.49,1.236,1.236,0,0,0,.969-.467,2.209,2.209,0,0,0,.4-1.425,2.36,2.36,0,0,0-.408-1.538,1.246,1.246,0,0,0-1-.495,1.2,1.2,0,0,0-.969.474A2.3,2.3,0,0,0,822.453,492.667Z" transform="translate(-597.88 -441.516)"/>
    <path id="Path_1319" data-name="Path 1319" d="M855.325,495.223v-3l-2.735-4.089h1.143l1.4,2.138q.387.6.723,1.2.319-.554.769-1.254L858,488.13H859.1l-2.833,4.089v3Z" transform="translate(-620.957 -441.509)"/>
    <path id="Path_1320" data-name="Path 1320" d="M879.55,497.982a2.652,2.652,0,0,1,.795-2.115,2.379,2.379,0,0,1,1.615-.572,2.307,2.307,0,0,1,1.733.695,2.645,2.645,0,0,1,.674,1.92,3.4,3.4,0,0,1-.3,1.559,2.118,2.118,0,0,1-.866.877,2.525,2.525,0,0,1-1.243.315,2.307,2.307,0,0,1-1.743-.692A2.737,2.737,0,0,1,879.55,497.982Zm.895,0a2.187,2.187,0,0,0,.431,1.479,1.438,1.438,0,0,0,2.164,0,2.243,2.243,0,0,0,.431-1.5,2.122,2.122,0,0,0-.433-1.446,1.434,1.434,0,0,0-2.161,0,2.137,2.137,0,0,0-.441,1.474Z" transform="translate(-641.006 -446.837)"/>
    <path id="Path_1321" data-name="Path 1321" d="M905.662,500.89v-.754a1.885,1.885,0,0,1-1.63.872,2.1,2.1,0,0,1-.851-.174,1.438,1.438,0,0,1-.584-.438,1.636,1.636,0,0,1-.256-.646,4.385,4.385,0,0,1-.054-.813V495.75h.872V498.6a5.036,5.036,0,0,0,.054.92.912.912,0,0,0,.349.541,1.079,1.079,0,0,0,.659.195,1.443,1.443,0,0,0,.736-.2,1.128,1.128,0,0,0,.484-.549,2.681,2.681,0,0,0,.144-1V495.75h.872v5.127Z" transform="translate(-657.912 -447.176)"/>
    <path id="Path_1322" data-name="Path 1322" d="M924.369,494.905l.126.769a3.077,3.077,0,0,1-.656.079,1.486,1.486,0,0,1-.736-.151.84.84,0,0,1-.369-.395,3.1,3.1,0,0,1-.105-1.025v-2.958H922v-.679h.641v-1.282l.866-.513v1.794h.874v.679h-.874v3a1.541,1.541,0,0,0,.031.482.359.359,0,0,0,.151.169.589.589,0,0,0,.3.064A2.769,2.769,0,0,0,924.369,494.905Z" transform="translate(-672.574 -441.97)"/>
    <path id="Path_1323" data-name="Path 1323" d="M934.56,495.223V488.13h.882v2.546a1.949,1.949,0,0,1,1.538-.708,2.069,2.069,0,0,1,.992.226,1.331,1.331,0,0,1,.6.62,2.894,2.894,0,0,1,.179,1.154v3.256h-.877v-3.256a1.339,1.339,0,0,0-.285-.951,1.043,1.043,0,0,0-.8-.3,1.41,1.41,0,0,0-.728.2,1.136,1.136,0,0,0-.487.543,2.5,2.5,0,0,0-.146.949v2.82Z" transform="translate(-681.914 -441.509)"/>
    <path id="Path_1324" data-name="Path 1324" d="M834.44,350.62" transform="translate(-607.46 -339.25)"/>
    <path id="Path_1325" data-name="Path 1325" d="M785.252,324.115a11.58,11.58,0,0,1,2.123-2.9,10.122,10.122,0,0,0,1.779-2.212,22.623,22.623,0,0,1,1.815-1.935,10.383,10.383,0,0,0,1.753-2.279,51.06,51.06,0,0,1,4.325-5.248c.979-1.156,3.807-1.1,3.438-2.915-.238-1.51-5.865,2.289-7.8,4.581a33.609,33.609,0,0,1-4.573,4.407c-2.276,2.051-4.776,5.878-7.893,2.963-2.284-2.135-4.689-3.535-7.127-6.224-1.538-1.679-7.132-6.622-8.378-5.973s.9,2.415,2.448,2.9c1.418.446,3.425,3.866,4.171,4.7,1.794,2.015,2.256,2.894,4.022,4.817,1.1,1.2,1.2,1.1,2.051,2.171,1.061,1.331.859,2.069.71,2.341-.695,1.259-.925,1.587-1.561,2.9-.313.654-1,1.659-1.331,2.289a4.891,4.891,0,0,1-1.243,1.679c-2.438,2.346-3.574,5.219-5.6,7.947-1.841,2.484-3.812,4.83-4.727,7.629a5.528,5.528,0,0,0-.256,2.064c.105,1.138.592.382,1.482-.9.543-.787,1.464-1.025,1.5-1.451.044-.608-.344-.218-.285-.579s3.015-2.717,3.263-2.963a27.322,27.322,0,0,1,2.71-2.548c1.356-1.048,1.677-2.307,2.82-3.492a34.882,34.882,0,0,1,4.066-2.987c1.5-1.118,1.025-2,1.6-3.284.664-1.448,3.5-4,3.7-4.271,0,0,.513-.574.936-1.159" transform="translate(-554.626 -306.28)"/>
    <path id="Path_1326" data-name="Path 1326" d="M837.567,338.6c.7-.451.79-1.133,1.2-1.733.256-.387,1.369-1.282.341-2.143a4.358,4.358,0,0,0-1.835-.913c-1.328-.21-.569.626-.731,1.233-.126.472-.484.679-.638,1.172a3.13,3.13,0,0,0,.044,1.584c.1.6.231,1.2.954,1.1a2.323,2.323,0,0,0,.669-.3" transform="translate(-608.479 -326.728)"/>
    <path id="Path_1327" data-name="Path 1327" d="M667.362,319.136a6.818,6.818,0,0,0-.041-1.718,10.946,10.946,0,0,0-1.692-4.207c-2.038-3.712-6.939-5.2-6.986-5.212a15.154,15.154,0,0,0-4.527-.5h0a23.379,23.379,0,0,0-12.323,3.076,20.845,20.845,0,0,0-8.434,9.813,21.224,21.224,0,0,0-.887,13.41,18.764,18.764,0,0,0,4.1,8.019,19.816,19.816,0,0,0,7.252,5.194,22.412,22.412,0,0,0,8.788,1.82,17.539,17.539,0,0,0,7.2-1.553,14.819,14.819,0,0,0,5.432-3.894c1.3-1.553,1.9-2.612,1.771-3.161a1.025,1.025,0,0,0-.5-.595,1.7,1.7,0,0,0-.915-.256,1.251,1.251,0,0,0-1.054.636c-2.674,4.1-6.263,6.188-10.667,6.188a10.626,10.626,0,0,1-8.437-3.845,19.871,19.871,0,0,1-4.389-8.613c-.569-2.015-.992-8-.09-11.226.5-1.794,1.915-6.219,4.291-8.793,1.459-1.579,4.479-4.22,8.306-4.117h.323a13.44,13.44,0,0,1,6.442,1.51l.074.046c1.7,1.061,3.463,2.161,4.13,4.886a16.39,16.39,0,0,1,.213,2.894,1.282,1.282,0,0,0,1.19,1.315,1.456,1.456,0,0,0,.149,0,1.3,1.3,0,0,0,.874-.3,1.159,1.159,0,0,0,.387-.769h0a.086.086,0,0,0,0-.026v-.028Z" transform="translate(-456.763 -307.184)"/>
    <path id="Path_1328" data-name="Path 1328" d="M282.462,317.371a1.177,1.177,0,0,0,1.479,1.83l-.028.026q5.64-5.348,7.462-5.35.846,0,.846,1.079,0,.846-2.348,10.559l-5.64,23.892h6.634l4.056-17.368a29.944,29.944,0,0,1,3.5-9.506,23.142,23.142,0,0,1,6.091-6.793,10.852,10.852,0,0,1,4.276-2.207c1.407-.095,1.633.433,1.725.787a2.668,2.668,0,0,1-.015,1.361c-.059.308-.256,1.477-.769,3.543L302.34,349.4h6.77c1.025-4.871,2.887-12.689,4.983-20.419a25.271,25.271,0,0,1,3.286-7.744,20.3,20.3,0,0,1,5.565-5.84c1.218-.923,2.581-1.871,3.41-1.871a2.2,2.2,0,0,1,2.335,2.174q0,1.689-2.394,9.621-3.192,10.559-3.845,13.587a25.323,25.323,0,0,0-.659,5.278,6.066,6.066,0,0,0,1.082,3.825,3.13,3.13,0,0,0,2.487,1.387,9.607,9.607,0,0,0,4.6-1.6,44.086,44.086,0,0,0,5.163-4.222q2.723-2.489,3.709-3.286a1.21,1.21,0,0,0,.287-.831,1.133,1.133,0,0,0-1.13-1.131,1.118,1.118,0,0,0-.7.244h0a45.1,45.1,0,0,1-5.678,4.871,3.1,3.1,0,0,1-1.735.564q-1.315,0-1.315-1.6,0-2.346,3.709-14.5,2.953-9.808,3.425-11.736a14.357,14.357,0,0,0,.469-3.333,4.867,4.867,0,0,0-1.079-3.474,4.026,4.026,0,0,0-3.053-1.128,14.259,14.259,0,0,0-7.814,2c-3.394,2.051-7.045,6.1-7.642,8.229a30.464,30.464,0,0,0,1.407-6.714,3.806,3.806,0,0,0-.8-2.674,3.052,3.052,0,0,0-2.341-.846c-11.28,0-16.537,8.9-16.9,10.344.277-1.11-.018.126,1.225-5.127a23.85,23.85,0,0,0,.751-3.615,1.466,1.466,0,0,0-.492-1.174,2.246,2.246,0,0,0-1.487-.423q-2.407,0-6.593,2.207a35.762,35.762,0,0,0-8.9,6.9" transform="translate(-196.658 -307.734)"/>
    <path id="Path_1329" data-name="Path 1329" d="M655.63,331.888a.717.717,0,0,0,.077-.038" transform="translate(-474.488 -325.292)"/>
    <path id="Path_1330" data-name="Path 1330" d="M509.014,413.472a46.65,46.65,0,0,1-1.559-5.942,18.01,18.01,0,0,0,1.256,6.1c.533,1.287,2.333,4.043,2.676,3.517A16.13,16.13,0,0,1,509.014,413.472Z" transform="translate(-364.294 -381.571)"/>
    <path id="Path_1331" data-name="Path 1331" d="M507.577,375.56c-1.871,2.628-2.779,8.831-1.841,10.382a15.2,15.2,0,0,1,.438-6.5Z" transform="translate(-362.742 -357.797)"/>
    <path id="Path_1332" data-name="Path 1332" d="M507.682,397.2c-.392,1.62-.277,4.1.192,4.581C507.721,400.163,508.1,399.94,507.682,397.2Z" transform="translate(-364.291 -373.889)"/>
    <path id="Path_1333" data-name="Path 1333" d="M580.1,440.852a11.831,11.831,0,0,1,1.3-.538c.087-.136.256-.236.415-.454l-.179.044a12.9,12.9,0,0,1-2.064.556,6.449,6.449,0,0,0-.8.382A9.9,9.9,0,0,0,580.1,440.852Z" transform="translate(-417.339 -405.613)"/>
    <path id="Path_1334" data-name="Path 1334" d="M588.4,441.539C587.63,442.707,589.32,441.282,588.4,441.539Z" transform="translate(-424.339 -406.838)"/>
    <path id="Path_1335" data-name="Path 1335" d="M618.928,156.708l-.136-.018h-.4Z" transform="translate(-459.871 -116.519)"/>
    <path id="Path_1336" data-name="Path 1336" d="M532.444,435.006a7.51,7.51,0,0,0,1.643,1.084,14.973,14.973,0,0,1-3.007-2.32c.092.138.123.328.226.464A4.679,4.679,0,0,1,532.444,435.006Z" transform="translate(-381.867 -401.084)"/>
    <path id="Path_1337" data-name="Path 1337" d="M541.949,309.867a4.806,4.806,0,0,1,1.6,1.584,5.872,5.872,0,0,1,.513,1.22l.077.318c-.131-.123-.185-.372-.308-.464l-.187-.21h0c-.618-.436.564.6.415,1.092-.128-.3-.159-.215-.308-.295a1.461,1.461,0,0,1-.685-.228l-.233-.256a2.321,2.321,0,0,1-.256-.279,2.425,2.425,0,0,0-.328-.405c-.549-.385-.623-.859-1.638-1a3.333,3.333,0,0,1,.92.931c.169.331.349.369.823.769a3.212,3.212,0,0,1-.841-.305c-.4-.177-.443-.431-.667-.513-.41-.415-.628-.395-.7-.385a3.547,3.547,0,0,0-1.93-.156c-1.366-.149-3.571.649-4.871.979s-2.584,1.359-3.927,2h0c-1.3.623-2.564,1.7-3.845,2.279h0a10.182,10.182,0,0,0-2.269,1.723c-.559.436-.541,1.013-1.054,1.469l-.387.359-.177.172-.087.085-.021.02h0l-.051.041h0l-.051.046c-.149.133-.241.228-.369.351l-.372.369a37.5,37.5,0,0,0-2.756,3.163,18.924,18.924,0,0,0-3.814,7.916,12.207,12.207,0,0,1,.964-3.563,15.506,15.506,0,0,1,.892-1.461,10.292,10.292,0,0,0-.838,1.474,13.223,13.223,0,0,0-.951,3.107c-.256,1-.11,1.72-.305,2.638-.092.149-.172.138-.192.295-.123,1.09-.341,2.128.174,2.856.079-.018.2.661.331.484a4.451,4.451,0,0,0,1.443,1.769,1.9,1.9,0,0,0,.938.428,10.56,10.56,0,0,0,3.943,1.907c.4.085.923.192,1.348.256l.7.049h.413l.023.013c-.036.038.087.028-.056,0h.062l.015.044-.136-.038a15.468,15.468,0,0,0,2.474.113c.807-.085.966.692,2.517-.051-1.2.464-2.13.182-3.448.244l-2.051-.031a6.886,6.886,0,0,0-1.712-.131c-.256,0-.359-.315-.61-.341a17.473,17.473,0,0,0,2.24.418l.579.064h.087l-.062-.015h.064l.172.018a1.7,1.7,0,0,0,.256,0h1.025a11.177,11.177,0,0,0,2.276.187l-.046.021a12.405,12.405,0,0,1-1.83.272l-1.633-.256a10.477,10.477,0,0,0-1.664-.151,2.983,2.983,0,0,0-.4.018q-.4,0-.792-.023a14.282,14.282,0,0,0,1.42.256c.241.036.482.067.725.095l.182.021h.177l-.056-.013h0c.131,0,.3.033.4.033.228,0,.543.018.808.015s.554-.015.825-.036c.338.046.682.085,1.025.11a1.132,1.132,0,0,0-.11.064,1.9,1.9,0,0,0-.672.592c-.218.287-.354.6-.115.749a13.708,13.708,0,0,0,3.984-.413c1.2-.292,2.066-.628,2.076-.582.126.146-.882.633-1.925.974s-2.117.541-2.03.579c.256.026.513.038.769.041-.233.095-.464.185-.679.282a14.068,14.068,0,0,0-1.561.2,4.7,4.7,0,0,1-1.982.243c-.346-.018-.7-.051-1.043-.079l-.546-.049c-.185,0-.369-.023-.556-.028a19.007,19.007,0,0,1-3.138.338c-.067.161-.713-.6-.6-.364-1-.446-2.051-1.107-2.733-.982l-.118.138c-.067-.046-.131-.256-.256-.308-.738-.615-1.389-1.11-2.033-1.635a5.73,5.73,0,0,1-1.459-1.372c-.336-.574-.418-.323-.379-.543.049.113,0-.015.064.11s-.167-.195-.079-.074a9.928,9.928,0,0,0,3.412,3.409c.126.038.328.095.513.156l.256.205a1.118,1.118,0,0,1,.123-.036,14.6,14.6,0,0,0,3.845,1.348,40.22,40.22,0,0,0,6.388,1.282,22.126,22.126,0,0,1-3.243.077c.946-.256,2.6.092,3.791-.049h.546c.695,0,.346-.223.564-.238l.282-.092a6.381,6.381,0,0,0,1.294-.226c3.692-.846,6.035-2.171,9.608-3.7-.028.128-.29.272-.338.408a16.828,16.828,0,0,0-3.3,2.166c1.025-.372,1.656-.8,2.607-1.225.018.049-.256.179-.32.244.292-.12-.679.328,0-.015-.482.615-.828.379-.964.82-1.794.618.344.136.015.32a24.82,24.82,0,0,1-5.57,2.094,19.478,19.478,0,0,1-6.27.241,14.858,14.858,0,0,0,5.606-1,23.648,23.648,0,0,1-6.206.931c-.513-.069-1.041-.159-1.538-.256s-1-.223-1.489-.349a28.845,28.845,0,0,1-2.9-.9,18.461,18.461,0,0,1-5.348-2.979,8.637,8.637,0,0,1-2.1-2.51,12.463,12.463,0,0,1-1.354-3.7,21.684,21.684,0,0,1-.39-3.9c-.026-1.243-.092.126-.138-.892-.313,1.751-.113.238-.454,1.456.023-.584.233-3.979.238-4.5a27.275,27.275,0,0,1,3.922-8.316,28.727,28.727,0,0,1,2.84-3.52c.531-.551,1.087-1.087,1.677-1.6q.443-.39.91-.769l.838-.643c.792-.592.943-.843,1.694-1.318a11.992,11.992,0,0,1,1.156-.674c.272-.079.638-.136.61-.144,1.318-.61.869.738,2.443-.19a33.517,33.517,0,0,1,4.171-1.592c1.756-.556,3.43-1.648,5.64-1.666a12.855,12.855,0,0,1,4.278-.513,6.619,6.619,0,0,1,3.827.951m-2.535.208a8.322,8.322,0,0,0-3.415.241,7.073,7.073,0,0,1,1.715-.1c.238-.092.526.031,1.713-.133Zm-7.962.8c1.425-.754,6.07-1.461,8.25-1.269a.134.134,0,0,0,.031-.064,8.729,8.729,0,0,0-2.82-.062c-.931.131-4.535.361-5.447,1.4Zm-3.261-.815.041.015L528.2,310Zm-5.87,2.915c-.695.244-.574.331-1.612,1.072a9.33,9.33,0,0,0-1.7,1.607c-.161.136-.323.277-.49.428l-.031.028-.015.015h0c.177-.136.049-.038.09-.067h0l-.049.044-.1.09-.238.213c-.31.282-.6.561-.879.849a25.448,25.448,0,0,0-2.925,3.648c-.356.554-.628,1.174-.943,1.743-.441.882-.979,1.81-1.4,2.715a6.618,6.618,0,0,0-.731,2.492c-.013.231-.187.62-.115.884a16.407,16.407,0,0,1,2.4-5.43,18.882,18.882,0,0,1,1.025-1.894c.62-.874.936-1.464,1.484-2.143l-.572.341c1.107-1.025,1.282-2.051,2.615-2.881-.064-.061.19-.161.354-.285l.144-.141-.031-.123.018-.015h0c.077-.059-.113.274-.095.256v-.195h.195c.115-.095.238-.2.354-.285.228-.167.428-.436.646-.577a8.352,8.352,0,0,0,1.154-.841c.854-.633.928-.533,1.582-1.079a2.3,2.3,0,0,0,.405-.285c.182-.172-.256.069.182-.172m-9.436,18.932a8.666,8.666,0,0,1,1.861-5.383c.39-.618,1.128-1.766,1.692-2.82a13.688,13.688,0,0,1,3.3-3.422c-2.051.746-3.466,2.879-4.127,3.927s-1.372,2.323-2.007,3.512a6.923,6.923,0,0,0-.879,2.564,2.083,2.083,0,0,0,.19,1.625Zm5.009,9.972a4.5,4.5,0,0,1-1.666-.769,10.957,10.957,0,0,0,1.7.772Zm-6.775-2.64a12.787,12.787,0,0,0,2.307,2.82,9.91,9.91,0,0,0,2.963,1.841c.815.323,1.633.746,2.494,1.064a5.534,5.534,0,0,0,2.6.415l.895-.044-1.025-.167a11.8,11.8,0,0,1-1.469-.71l.256.021h0a7.69,7.69,0,0,0-1.346-.41c-.185-.028-.372-.064-.559-.1a9.633,9.633,0,0,1-2.917-1.128,8.249,8.249,0,0,1-2.356-1.736,9.139,9.139,0,0,1-2.143-3.148,4.129,4.129,0,0,0,.333,1.287Z" transform="translate(-364.473 -308.172)"/>
    <path id="Path_1338" data-name="Path 1338" d="M557.436,448.623a21.239,21.239,0,0,0,2.338-.646,16.586,16.586,0,0,0,1.81-.549c1.412-.528,2.82-1.11,4.358-1.746s-.969.238.484-.559c-.013-.277-7.2,3.194-.956-.049.859-.633,1.538-1.041-.046-.385a18.843,18.843,0,0,1-4.807,1.413l-.072.041a6.708,6.708,0,0,1-2.535.684,18.808,18.808,0,0,1-2.874.382,11.048,11.048,0,0,1-2.82-.141,10.588,10.588,0,0,0-2.587-.046,16.132,16.132,0,0,0,3.492.969C554.526,448.267,556.008,448.946,557.436,448.623Z" transform="translate(-395.736 -408.957)"/>
    <path id="Path_1339" data-name="Path 1339" d="M508.992,416.63a15.891,15.891,0,0,0,.241,3.058c1.038,3.612,1.4,3.509,2.792,4.958a21.9,21.9,0,0,1-2.435-5.1A11.69,11.69,0,0,1,508.992,416.63Z" transform="translate(-365.44 -388.338)"/>
    <path id="Path_1340" data-name="Path 1340" d="M517.177,438.172c-.931-.626-3.453-4.191-3.7-4.422.287,3.717,5.994,6.952,8.2,7.757a23.665,23.665,0,0,0,2.766.687c.459.085.915.161,1.369.22s.956.113,1.425.141a18.868,18.868,0,0,0,5.547-.477l1.2-.279a22.337,22.337,0,0,1-7.5-.156c-.808-.162-1.582-.346-2.361-.564a25.4,25.4,0,0,1-4.535-1.7,20,20,0,0,1-4.248-3.348c-.092-.087-.395-.054-.487-.149a15.637,15.637,0,0,0,3.792,3.533,17.212,17.212,0,0,0,3.9,1.795A18.352,18.352,0,0,1,517.177,438.172Z" transform="translate(-368.779 -401.07)"/>
    <path id="Path_1341" data-name="Path 1341" d="M576.24,459.849c.185.015.367.023.549.028a3.908,3.908,0,0,0,.631-.087l-.382-.021C576.771,459.8,576.507,459.829,576.24,459.849Z" transform="translate(-415.45 -420.419)"/>
    <path id="Path_1342" data-name="Path 1342" d="M546.8,444.172l.513.041c-.533-.123-1.692-.479-2.212-.664-.813-.377-1.523-.4-2.246-.769A9.525,9.525,0,0,0,546.8,444.172Z" transform="translate(-390.62 -407.785)"/>
    <path id="Path_1343" data-name="Path 1343" d="M531.373,402.921a5.88,5.88,0,0,0,.631,3.117,6.24,6.24,0,0,0,2.051,2.307c.11.023.543.213.659.228a16.9,16.9,0,0,1-2.576-2.91,3.541,3.541,0,0,1-.323-1.113,15.638,15.638,0,0,1-.041-4.281,12.912,12.912,0,0,0-.366,2.169Z" transform="translate(-382.083 -376.172)"/>
    <path id="Path_1344" data-name="Path 1344" d="M562.8,441.482a.5.5,0,0,0-.164-.023h-.031l.1.028C562.777,441.516,562.807,441.5,562.8,441.482Z" transform="translate(-405.314 -406.802)"/>
    <path id="Path_1345" data-name="Path 1345" d="M613.508,135.19l-.038-.01.028.013.008,0Z" transform="translate(-456.213 -100.523)"/>
    <path id="Path_1346" data-name="Path 1346" d="M581.616,424.755m-2.123,1.9c-.484.22.167.136-.3.367-.385.192-.769.372-1.115.559.813-.31,1.046-.469,1.794-.8a1.739,1.739,0,0,1,.223-.12s.113-.059.12-.067c-.072.049-.018.018.079-.036a1.669,1.669,0,0,0,.218-.113c.018,0-.123.138-.141.149-.1.051-.033.033-.1.087-.015,0,.018.033,0,0a1.529,1.529,0,0,1-.226.131,15.165,15.165,0,0,1-1.825.877h0a.648.648,0,0,1-.292.144l-.049.015c-.392.118-.8.277-1.195.385a1.094,1.094,0,0,1-.238.113c-.292.144-.587.287-.907.42a.1.1,0,0,1,.064.015c.018.028-.044.072-.138.1l-.141.046.428-.108h.059c.149-.044.3-.092.446-.144a24.407,24.407,0,0,0,3.4-1.5.11.11,0,0,1,.067-.023c.018,0,.026,0,0,.02a12.84,12.84,0,0,1-1.794,1.161A29.082,29.082,0,0,1,575,429.585c-1.182.341-2.264.695-3.54,1.025a34.094,34.094,0,0,1-5.383.895,2.329,2.329,0,0,1-1.495-.161c-.069-.1.072-.205.338-.287H564.5a2.027,2.027,0,0,1-.613-.092l-.19-.064a7.617,7.617,0,0,1-.851-.369l.041-.054-.046-.013a.513.513,0,0,1-.287-.141l.013-.067a.485.485,0,0,1,.215-.21.087.087,0,0,1,.036-.079c-.1-.064-.146-.133-.074-.21-.056-.018-.046-.046.021-.064h.082a.542.542,0,0,0-.085-.038h-.09l-.282-.023a.841.841,0,0,1-.179-.054c-.128-.115-.128-.115-.108-.164l.026-.015-.138-.023a.211.211,0,0,1-.062-.046c0-.028,0-.028-.023-.038a.026.026,0,0,1,0-.018c.059-.031.059-.031.059-.039s.023.018.023.018h.11l.151.023h.049a1.116,1.116,0,0,0,.2,0h.441c.015,0,.061-.026.072-.021a.182.182,0,0,1,.082,0h.108l.074-.015h.015l.32-.069h.1c-.028,0,0-.033-.021-.036-.372-.038-.769-.054-1.164-.077-.069,0-.131-.013-.141-.033s.038-.041.108-.044a11.713,11.713,0,0,1,2.564-.118l.646-.023h.156l-.141-.031h-.09a12.225,12.225,0,0,1-1.446-.031,6.556,6.556,0,0,1-.726-.072,5.026,5.026,0,0,1-.592-.046c0-.018.551-.021.613-.023.61.11,1.625.044,2.307.131a1.392,1.392,0,0,1,.331-.031h.085l.21.02c.113,0-.323.061-.218.064l.205-.074a8.067,8.067,0,0,1,.825,0h.395a2.049,2.049,0,0,0,.59-.061h.223a5.1,5.1,0,0,1,.636-.105,5.872,5.872,0,0,1,1.466-.305c.995-.256,1.961-.736,2.9-1.059a.2.2,0,0,1,.126,0c.018.013,0,.036-.049.054-.651.256.628-.369-.064-.023.631-.128-.731.441-.113.256l.231-.074c.074-.026.156-.044.238-.064.769-.238,1.523-.474,2.264-.769.631-.256,1.172-.513,1.774-.79.846-.4,1.515-.667,2.425-1.025.118-.051.351-.19.408-.162s0,.09-.11.141a40.889,40.889,0,0,1-5.512,2.346l-.659.205s.241-.079.256-.077-.208.133-.228.159l.769-.218c.649-.256,1.282-.541,2.02-.784.513-.164,1-.292,1.5-.428l1.538-.741c.021-.013,0,.036.015.038s-.015.072-.036.082c-.349.2-.513.285-.9.472a.282.282,0,0,1,.195.038c.033.033.018.079-.036.128l.285-.108a.184.184,0,0,1,.136,0c.021.015,0,.046-.067.067l-1.156.433q-.661.29-1.341.556a.621.621,0,0,1,.223.026h0l.213-.079m.513.072c-.256.19-.531.382-.813.577l.71-.418m1.7-1.361c-.351.156,0,.179-.351.328l-.108.056.256-.02.279-.128m.543-.554-.054.033m-2.246.9,2.189-1.025-15.381,3.9h-.023l.082.013.131.062Zm-1.384.328h0l-.069-.038Zm.4-.538a2.269,2.269,0,0,1,.338.113c.082-.013.167-.02.256-.026l.7-.02c-.033-.023.02-.023.046-.028l.085-.013H577.9c-.251,0-13.656,2.817-13.871,2.8Zm-1.141,1.318.123-.187-.136.179Z" transform="translate(-404.789 -394.277)"/>
    <path id="Path_1347" data-name="Path 1347" d="M554.843,324.85c-1,.172-2.1,1.09-3.225,1.6a31.207,31.207,0,0,0-2.707,1.766,5.232,5.232,0,0,0-1.941,2.151,4.335,4.335,0,0,1,1.187-1.21,9.9,9.9,0,0,1,.925-.713c.326-.182.769-.6,1.092-.79.718-.413,1.333-.731,2.051-1.113a10.107,10.107,0,0,0,1.264-.9" transform="translate(-393.684 -320.086)"/>
    <path id="Path_1348" data-name="Path 1348" d="M564.17,324.024a1.677,1.677,0,0,1,.467-.395.63.63,0,0,1,.41.1l.31.21-.623.31-.574-.038Z" transform="translate(-406.467 -319.176)"/>
    <path id="Path_1349" data-name="Path 1349" d="M621.364,425.966a.553.553,0,0,1,.143-.123,3.754,3.754,0,0,1,.679-.395,4.529,4.529,0,0,1,.623-.179,4.462,4.462,0,0,0,.549-.156,2.4,2.4,0,0,0,.326-.192,1.043,1.043,0,0,1,.567-.218c.138,0,.244,0,.256-.172-.11.277-.326.444-.364.754a.925.925,0,0,1-.256.654c-.8.605-.536.513-.425.656.062.082-.2.018-.308.064a2.71,2.71,0,0,1-.392.154,4.359,4.359,0,0,0-1.21.533.482.482,0,0,1-.556.033c-.138-.105.026-.526-.023-.664-.072-.2.041-.354.023-.59.069,0,.154-.09.226-.1.033-.079.092-.046.133-.108" transform="translate(-448.69 -394.213)"/>
    <path id="Path_1350" data-name="Path 1350" d="M601.075,30.937l-.1.105-.187.138-.015-.169.128-.151Z" transform="translate(-446.768 -22.946)"/>
    <path id="Path_1351" data-name="Path 1351" d="M587.769,446.719a6.328,6.328,0,0,1,1.635-.613,6.145,6.145,0,0,1,.661-.154c.274-.072.541-.231.81-.318a19.589,19.589,0,0,0,1.912-.561,9.594,9.594,0,0,0,2.266-.943c-.708.669-1.282.8-1.538,1.336-.282.615-.874.659-1.189.915a5.268,5.268,0,0,1-1.91.9c-.715.133-.42.569-1.1.836-.256.1-.469-.077-.728.018a3.391,3.391,0,0,1-.743.128,2.633,2.633,0,0,1-.961-.023,15.921,15.921,0,0,0-2.4-.015c.487-.195,2.248-.728,2.728-.979a4.577,4.577,0,0,0,.8-.526,3.133,3.133,0,0,1,.472-.256,5.342,5.342,0,0,1,.664-.308c.12-.051.241-.174.374-.167" transform="translate(-421.578 -408.789)"/>
    <path id="Path_1352" data-name="Path 1352" d="M539.184,449.489a18.987,18.987,0,0,1-2.143-.864c-.215-.062-1.282-.146-1.351-.315.085.925.92.8,1.607,1.159a5.239,5.239,0,0,0,2.143.608c-.556-.21-.513-.672-.987-.925a2.329,2.329,0,0,0-.9-.315" transform="translate(-385.295 -411.897)"/>
    <path id="Path_1353" data-name="Path 1353" d="M574.441,445.178a6.548,6.548,0,0,0,1.577-.285c.669-.141,1.351-.205,2.018-.356.769-.174,1.571-.236,2.335-.446a4.612,4.612,0,0,0,.736-.29,5.466,5.466,0,0,1,.769-.187c.151-.046.718-.208.769-.364-.654.572-1.156,1.256-1.861,1.774-1.169.861-2.951.931-4.358.954a15.436,15.436,0,0,1-3.348.028c-.413-.108.726-.526.636-.908.226,0,1.794.1,1.843-.128" transform="translate(-413.031 -408.134)"/>
    <path id="Path_1354" data-name="Path 1354" d="M505.884,411.955a4.529,4.529,0,0,0,.328,1.42,6.614,6.614,0,0,1,.295.787c.051.236.179.477.233.72.149.664.382,1.248.482,1.93a8.1,8.1,0,0,0,.449,1.141,4.012,4.012,0,0,0,.349,1.09c0-.256,0,.274-.141.079a7.659,7.659,0,0,1-.715-1.489c-.049-.223-.218-.546-.269-.769-.133-.592-.313-1.11-.477-1.684-.059-.21-.149-.431-.205-.641a7.564,7.564,0,0,1-.285-1.087,10.274,10.274,0,0,1-.151-1.513" transform="translate(-363.049 -384.851)"/>
    <path id="Path_1355" data-name="Path 1355" d="M626.59,442.406a1.539,1.539,0,0,1,.436-.59,2.947,2.947,0,0,1,.556-.277c-.256.815-.679.538-.992.866" transform="translate(-452.893 -406.863)"/>
    <path id="Path_1356" data-name="Path 1356" d="M620.69,446.855c.046-.118.469-.595.59-.572a.443.443,0,0,0,.32-.031c.172-.1.461-.1.6-.213a.972.972,0,0,1-.461.423.713.713,0,0,1-.364.115,1.579,1.579,0,0,1-.192-.031,1.824,1.824,0,0,0-.485.279" transform="translate(-448.505 -410.209)"/>
    <path id="Path_1357" data-name="Path 1357" d="M615.533,441.183c.177-.256.566-.351.81-.484.146-.079.287-.164.433-.233a7.505,7.505,0,0,0,1.056-.513,1,1,0,0,0,.256-.213,3.2,3.2,0,0,1-.728.851c-.233.156-.551.156-.792.292a1.9,1.9,0,0,1-.592.141,3.721,3.721,0,0,0-.446.149" transform="translate(-444.668 -405.524)"/>
    <path id="Path_1358" data-name="Path 1358" d="M642.984,325.274c-.031-.361-.272-.292-.367-.5-.18-.392-.472-.228-.61-.574-.072.185-.026.064.056.277.059.151.18.192.336.4a2.944,2.944,0,0,1,.513.915c.131-.146.072-.318.082-.526" transform="translate(-464.331 -319.603)"/>
    <path id="Path_1359" data-name="Path 1359" d="M618.08,452.518a1.738,1.738,0,0,1,.769-.308c.031.213-.323.449-.513.426.054-.205-.172-.1-.256-.133" transform="translate(-446.564 -414.797)"/>
    <path id="Path_1360" data-name="Path 1360" d="M647.2,326.993c0-.223-.038-.182-.179-.313a.582.582,0,0,0-.461-.074c0,.092.072.123.105.2a.977.977,0,0,1,.033.21c.028.11.092.031.2-.038.056-.036.1.074.164.044s.1,0,.141-.031" transform="translate(-467.743 -321.378)"/>
    <path id="Path_1361" data-name="Path 1361" d="M557.6,83.359v2.133l-.272,2.756.367,2.738-.005.984-.426-.582-.561-2.917.159-2.292.385-1.953.256-.946" transform="translate(-413.996 -61.928)"/>
  </g>
</svg>
