<svg xmlns="http://www.w3.org/2000/svg" viewBox="0 0 710.07 217.66"><defs><style>.cls-1{fill:#73797c;}.cls-2{fill:#fbba00;}.cls-3{fill:#e73137;}.cls-4{fill:#be9f56;}.cls-5{fill:#fff;}.cls-6{fill:#fffffe;}.cls-7{fill:#fdfcfb;}</style></defs><g id="Layer_2" data-name="Layer 2"><g id="Layer_1-2" data-name="Layer 1"><path class="cls-1" d="M0,209.52V181.84H5.51l6.55,19.6c.61,1.83,1,3.19,1.32,4.1.32-1,.81-2.49,1.48-4.44l6.62-19.26h4.93v27.68H22.88V186.36l-8,23.16H11.53L3.53,186v23.56Z"/><path class="cls-1" d="M31.9,185.75v-3.91h3.4v3.91Zm0,23.77V189.47h3.4v20.05Z"/><path class="cls-1" d="M40.48,209.52V189.47h3.05v2.85a7.22,7.22,0,0,1,6.39-3.3,8.49,8.49,0,0,1,3.33.65,5.16,5.16,0,0,1,2.27,1.71,6.4,6.4,0,0,1,1.06,2.51,19,19,0,0,1,.19,3.3v12.33h-3.4V197.33a9,9,0,0,0-.4-3.11,3.23,3.23,0,0,0-1.4-1.64A4.5,4.5,0,0,0,49.2,192a5.5,5.5,0,0,0-3.75,1.38q-1.58,1.38-1.58,5.23v11Z"/><path class="cls-1" d="M62,185.75v-3.91h3.4v3.91Zm0,23.77V189.47h3.4v20.05Z"/><path class="cls-1" d="M69.21,203.54l3.36-.53a4.65,4.65,0,0,0,1.58,3.09,5.46,5.46,0,0,0,3.61,1.08,5.37,5.37,0,0,0,3.48-1A2.88,2.88,0,0,0,82.37,204a2.07,2.07,0,0,0-1-1.81A14.76,14.76,0,0,0,77.89,201a31.47,31.47,0,0,1-5.18-1.64,4.91,4.91,0,0,1-2.93-4.59,5.16,5.16,0,0,1,.61-2.49,5.42,5.42,0,0,1,1.67-1.89,7.26,7.26,0,0,1,2.16-1,10.29,10.29,0,0,1,2.94-.4,11.67,11.67,0,0,1,4.14.68,5.53,5.53,0,0,1,2.63,1.84,7.21,7.21,0,0,1,1.18,3.1l-3.33.46a3.66,3.66,0,0,0-1.31-2.42,4.8,4.8,0,0,0-3.07-.87,5.52,5.52,0,0,0-3.34.78,2.24,2.24,0,0,0-1,1.81,1.86,1.86,0,0,0,.42,1.19,2.92,2.92,0,0,0,1.3.9q.51.19,3,.87a43.19,43.19,0,0,1,5,1.58,5.11,5.11,0,0,1,2.24,1.78,5,5,0,0,1,.81,2.91,5.72,5.72,0,0,1-1,3.2A6.4,6.4,0,0,1,82,209.15a10.4,10.4,0,0,1-4.23.82,9.47,9.47,0,0,1-6-1.62A7.58,7.58,0,0,1,69.21,203.54Z"/><path class="cls-1" d="M97.32,206.48l.49,3a12.77,12.77,0,0,1-2.57.31,5.82,5.82,0,0,1-2.87-.59,3.26,3.26,0,0,1-1.43-1.54,12,12,0,0,1-.42-4V192.11H88v-2.64h2.49v-5l3.38-2v7h3.42v2.64H93.9v11.73a5.92,5.92,0,0,0,.18,1.87,1.5,1.5,0,0,0,.59.66,2.31,2.31,0,0,0,1.16.24A10.69,10.69,0,0,0,97.32,206.48Z"/><path class="cls-1" d="M100.6,209.52V189.47h3.06v3a8.27,8.27,0,0,1,2.16-2.81A3.82,3.82,0,0,1,108,189a6.65,6.65,0,0,1,3.5,1.09l-1.17,3.16a4.88,4.88,0,0,0-2.5-.74,3.24,3.24,0,0,0-2,.67,3.65,3.65,0,0,0-1.26,1.86,13.16,13.16,0,0,0-.57,4v10.5Z"/><path class="cls-1" d="M113.37,217.24l-.38-3.19a7.6,7.6,0,0,0,1.94.3,3.79,3.79,0,0,0,1.82-.37,3.21,3.21,0,0,0,1.11-1.06,17.1,17.1,0,0,0,1-2.53c.06-.19.16-.47.3-.83l-7.61-20.09h3.66l4.18,11.61q.81,2.21,1.45,4.65a45.67,45.67,0,0,1,1.4-4.57l4.28-11.69H130l-7.63,20.39a39.56,39.56,0,0,1-1.9,4.55,6.74,6.74,0,0,1-2.08,2.46,4.84,4.84,0,0,1-2.79.79A6.69,6.69,0,0,1,113.37,217.24Z"/><path class="cls-1" d="M142.33,199.5q0-5.58,3.09-8.25a9.33,9.33,0,0,1,6.31-2.23,9,9,0,0,1,6.76,2.71,10.29,10.29,0,0,1,2.62,7.48A13.33,13.33,0,0,1,160,205.3a8.21,8.21,0,0,1-3.38,3.45,9.91,9.91,0,0,1-4.84,1.22,9,9,0,0,1-6.81-2.7Q142.32,204.57,142.33,199.5Zm3.49,0c0,2.56.56,4.49,1.68,5.76a5.59,5.59,0,0,0,8.44,0q1.68-1.92,1.68-5.87a8.24,8.24,0,0,0-1.69-5.63,5.6,5.6,0,0,0-8.43,0Q145.82,195.65,145.82,199.5Z"/><path class="cls-1" d="M165.91,209.52V192.11h-3v-2.64h3v-2.13a9.26,9.26,0,0,1,.36-3,4.35,4.35,0,0,1,1.72-2.15,6.31,6.31,0,0,1,3.47-.82,17.24,17.24,0,0,1,3.17.34l-.51,3a11.05,11.05,0,0,0-2-.19,3,3,0,0,0-2.19.66,3.56,3.56,0,0,0-.64,2.47v1.85h3.9v2.64h-3.9v17.41Z"/><path class="cls-1" d="M206.76,199.82l3.66.92a12.35,12.35,0,0,1-4.14,6.88A11.44,11.44,0,0,1,199,210a13.06,13.06,0,0,1-7.27-1.82,11.3,11.3,0,0,1-4.27-5.28,18.71,18.71,0,0,1-1.46-7.42,16.33,16.33,0,0,1,1.65-7.54,11.39,11.39,0,0,1,4.7-4.89,13.77,13.77,0,0,1,6.71-1.67,11.31,11.31,0,0,1,7,2.12,11,11,0,0,1,3.95,5.94l-3.61.85a8.57,8.57,0,0,0-2.79-4.4,7.51,7.51,0,0,0-4.61-1.37,9,9,0,0,0-5.33,1.53,8,8,0,0,0-3,4.1,16.52,16.52,0,0,0-.87,5.32,16.81,16.81,0,0,0,1,6.16,7.67,7.67,0,0,0,3.2,3.94,9,9,0,0,0,4.7,1.3,7.84,7.84,0,0,0,5.21-1.78A9,9,0,0,0,206.76,199.82Z"/><path class="cls-1" d="M227.64,209.52v-2.94a7.34,7.34,0,0,1-6.36,3.39,8,8,0,0,1-3.32-.68,5.51,5.51,0,0,1-2.28-1.7,6.39,6.39,0,0,1-1.05-2.52,17.17,17.17,0,0,1-.21-3.18V189.47h3.4v11.12a19.62,19.62,0,0,0,.21,3.59,3.54,3.54,0,0,0,1.36,2.1,4.21,4.21,0,0,0,2.57.77,5.54,5.54,0,0,0,2.87-.79,4.33,4.33,0,0,0,1.89-2.13,10.53,10.53,0,0,0,.56-3.92V189.47h3.4v20.05Z"/><path class="cls-1" d="M235.93,209.52V181.84h3.4v27.68Z"/><path class="cls-1" d="M252,206.48l.49,3a12.68,12.68,0,0,1-2.56.31,5.8,5.8,0,0,1-2.87-.59,3.28,3.28,0,0,1-1.44-1.54,12.09,12.09,0,0,1-.41-4V192.11h-2.5v-2.64h2.5v-5l3.38-2v7H252v2.64H248.6v11.73a6,6,0,0,0,.17,1.87,1.5,1.5,0,0,0,.59.66,2.31,2.31,0,0,0,1.16.24A10.57,10.57,0,0,0,252,206.48Z"/><path class="cls-1" d="M268.47,209.52v-2.94a7.34,7.34,0,0,1-6.36,3.39,8,8,0,0,1-3.31-.68,5.48,5.48,0,0,1-2.29-1.7,6.53,6.53,0,0,1-1-2.52,17.17,17.17,0,0,1-.21-3.18V189.47h3.4v11.12a19.62,19.62,0,0,0,.21,3.59,3.52,3.52,0,0,0,1.35,2.1,4.23,4.23,0,0,0,2.57.77,5.52,5.52,0,0,0,2.87-.79,4.31,4.31,0,0,0,1.9-2.13,10.74,10.74,0,0,0,.56-3.92V189.47h3.39v20.05Z"/><path class="cls-1" d="M276.8,209.52V189.47h3.06v3A8.27,8.27,0,0,1,282,189.7a3.8,3.8,0,0,1,2.18-.68,6.59,6.59,0,0,1,3.49,1.09l-1.17,3.16a4.87,4.87,0,0,0-2.49-.74,3.22,3.22,0,0,0-2,.67,3.73,3.73,0,0,0-1.27,1.86,13.49,13.49,0,0,0-.56,4v10.5Z"/><path class="cls-1" d="M303.44,203.06l3.51.44a8.52,8.52,0,0,1-3.08,4.77,10.41,10.41,0,0,1-12.71-1q-2.58-2.7-2.58-7.59,0-5.07,2.61-7.86a8.81,8.81,0,0,1,6.75-2.79,8.56,8.56,0,0,1,6.57,2.74q2.55,2.73,2.55,7.7c0,.2,0,.5,0,.9h-15a7.71,7.71,0,0,0,1.87,5.06,5.57,5.57,0,0,0,4.19,1.76,5.22,5.22,0,0,0,3.19-1A6.58,6.58,0,0,0,303.44,203.06Zm-11.16-5.49h11.2a6.78,6.78,0,0,0-1.29-3.79,5.2,5.2,0,0,0-4.21-2,5.4,5.4,0,0,0-3.93,1.57A6.15,6.15,0,0,0,292.28,197.57Z"/><path class="cls-1" d="M312.1,209.52v-3.87H316v3.87a7,7,0,0,1-.75,3.45,5,5,0,0,1-2.4,2l-.94-1.46a3.23,3.23,0,0,0,1.58-1.39,5.9,5.9,0,0,0,.57-2.63Z"/><path class="cls-1" d="M352.88,199.82l3.66.92a12.3,12.3,0,0,1-4.14,6.88,11.42,11.42,0,0,1-7.32,2.37,13.08,13.08,0,0,1-7.27-1.82,11.36,11.36,0,0,1-4.27-5.28,18.71,18.71,0,0,1-1.46-7.42,16.33,16.33,0,0,1,1.65-7.54,11.39,11.39,0,0,1,4.7-4.89,13.77,13.77,0,0,1,6.71-1.67,11.36,11.36,0,0,1,7,2.12,11,11,0,0,1,3.94,5.94l-3.6.85a8.64,8.64,0,0,0-2.8-4.4,7.48,7.48,0,0,0-4.6-1.37,9,9,0,0,0-5.34,1.53,8,8,0,0,0-3,4.1,16.52,16.52,0,0,0-.87,5.32,17,17,0,0,0,1,6.16,7.67,7.67,0,0,0,3.2,3.94,9.07,9.07,0,0,0,4.7,1.3,7.84,7.84,0,0,0,5.21-1.78A9,9,0,0,0,352.88,199.82Z"/><path class="cls-1" d="M359.36,199.5q0-5.58,3.09-8.25a9.33,9.33,0,0,1,6.31-2.23,9,9,0,0,1,6.76,2.71,10.29,10.29,0,0,1,2.62,7.48A13.33,13.33,0,0,1,377,205.3a8.21,8.21,0,0,1-3.38,3.45,9.91,9.91,0,0,1-4.84,1.22,9,9,0,0,1-6.81-2.7Q359.36,204.57,359.36,199.5Zm3.49,0c0,2.56.56,4.49,1.68,5.76a5.59,5.59,0,0,0,8.44,0q1.68-1.92,1.68-5.87a8.29,8.29,0,0,0-1.69-5.63,5.6,5.6,0,0,0-8.43,0Q362.85,195.65,362.85,199.5Z"/><path class="cls-1" d="M382.12,209.52V189.47h3v2.81a7.1,7.1,0,0,1,6.08-3.26,6.66,6.66,0,0,1,3.66.92,5,5,0,0,1,2,2.59A7.19,7.19,0,0,1,403.1,189a6.11,6.11,0,0,1,4.59,1.65q1.6,1.65,1.6,5.09v13.76h-3.38V196.89a9.23,9.23,0,0,0-.33-2.93,2.86,2.86,0,0,0-1.2-1.45,3.79,3.79,0,0,0-2-.55,4.73,4.73,0,0,0-3.51,1.41,6.2,6.2,0,0,0-1.39,4.5v11.65H394v-13a5.72,5.72,0,0,0-.83-3.39,3.15,3.15,0,0,0-2.72-1.14,5,5,0,0,0-2.65.76,4.26,4.26,0,0,0-1.77,2.21,12.27,12.27,0,0,0-.55,4.19v10.4Z"/><path class="cls-1" d="M414.33,209.52V189.47h3v2.81a7.1,7.1,0,0,1,6.08-3.26,6.63,6.63,0,0,1,3.65.92,5,5,0,0,1,2,2.59,7.21,7.21,0,0,1,6.2-3.51,6.1,6.1,0,0,1,4.58,1.65,7.06,7.06,0,0,1,1.61,5.09v13.76h-3.38V196.89a9.23,9.23,0,0,0-.33-2.93,2.86,2.86,0,0,0-1.2-1.45,3.79,3.79,0,0,0-2-.55,4.73,4.73,0,0,0-3.51,1.41,6.2,6.2,0,0,0-1.4,4.5v11.65h-3.4v-13a5.65,5.65,0,0,0-.83-3.39,3.13,3.13,0,0,0-2.72-1.14,5,5,0,0,0-2.65.76,4.24,4.24,0,0,0-1.76,2.21,12.27,12.27,0,0,0-.55,4.19v10.4Z"/><path class="cls-1" d="M459.68,209.52v-2.94a7.34,7.34,0,0,1-6.36,3.39,8,8,0,0,1-3.32-.68,5.51,5.51,0,0,1-2.28-1.7,6.39,6.39,0,0,1-1.05-2.52,17.17,17.17,0,0,1-.21-3.18V189.47h3.4v11.12a19.62,19.62,0,0,0,.21,3.59,3.54,3.54,0,0,0,1.36,2.1,4.21,4.21,0,0,0,2.57.77,5.54,5.54,0,0,0,2.87-.79,4.33,4.33,0,0,0,1.89-2.13,10.74,10.74,0,0,0,.56-3.92V189.47h3.4v20.05Z"/><path class="cls-1" d="M468,209.52V189.47h3.06v2.85a7.21,7.21,0,0,1,6.38-3.3,8.42,8.42,0,0,1,3.33.65,5.19,5.19,0,0,1,2.28,1.71,6.71,6.71,0,0,1,1.06,2.51,20.37,20.37,0,0,1,.18,3.3v12.33h-3.39V197.33a9.27,9.27,0,0,0-.4-3.11,3.25,3.25,0,0,0-1.41-1.64,4.45,4.45,0,0,0-2.37-.62,5.49,5.49,0,0,0-3.74,1.38c-1.06.92-1.58,2.66-1.58,5.23v11Z"/><path class="cls-1" d="M489.56,185.75v-3.91H493v3.91Zm0,23.77V189.47H493v20.05Z"/><path class="cls-1" d="M505.55,206.48l.49,3a12.68,12.68,0,0,1-2.56.31,5.8,5.8,0,0,1-2.87-.59,3.28,3.28,0,0,1-1.44-1.54,12.37,12.37,0,0,1-.41-4V192.11h-2.49v-2.64h2.49v-5l3.38-2v7h3.41v2.64h-3.41v11.73a5.92,5.92,0,0,0,.18,1.87,1.47,1.47,0,0,0,.58.66,2.31,2.31,0,0,0,1.16.24A10.57,10.57,0,0,0,505.55,206.48Z"/><path class="cls-1" d="M508.73,217.24l-.38-3.19a7.6,7.6,0,0,0,1.94.3,3.72,3.72,0,0,0,1.81-.37,3.16,3.16,0,0,0,1.12-1.06,17.1,17.1,0,0,0,1-2.53c.06-.19.16-.47.3-.83L507,189.47h3.66l4.18,11.61q.81,2.21,1.45,4.65a43.2,43.2,0,0,1,1.4-4.57l4.28-11.69h3.4l-7.63,20.39a41.51,41.51,0,0,1-1.9,4.55,6.74,6.74,0,0,1-2.08,2.46,4.84,4.84,0,0,1-2.79.79A6.69,6.69,0,0,1,508.73,217.24Z"/><path class="cls-1" d="M552,207.05a12.67,12.67,0,0,1-3.63,2.26,10.53,10.53,0,0,1-3.75.66,7.29,7.29,0,0,1-5.08-1.61,5.34,5.34,0,0,1-1.77-4.13,5.56,5.56,0,0,1,2.43-4.64,8.11,8.11,0,0,1,2.44-1.11,22.92,22.92,0,0,1,3-.51,31.64,31.64,0,0,0,6.06-1.17c0-.47,0-.76,0-.89a3.76,3.76,0,0,0-1-2.93,5.73,5.73,0,0,0-3.87-1.15,6,6,0,0,0-3.54.84,5.11,5.11,0,0,0-1.69,3l-3.33-.45a8.2,8.2,0,0,1,1.5-3.44,6.46,6.46,0,0,1,3-2,13.18,13.18,0,0,1,4.55-.71,12.11,12.11,0,0,1,4.17.6,5.55,5.55,0,0,1,2.36,1.52,5.47,5.47,0,0,1,1.06,2.32,19.39,19.39,0,0,1,.17,3.13v4.53a49.53,49.53,0,0,0,.21,6,7.65,7.65,0,0,0,.86,2.41h-3.55A7.22,7.22,0,0,1,552,207.05Zm-.28-7.59a24.93,24.93,0,0,1-5.55,1.28,12.65,12.65,0,0,0-3,.68,2.89,2.89,0,0,0-1.34,1.11,2.85,2.85,0,0,0-.48,1.61,2.93,2.93,0,0,0,1,2.27,4.45,4.45,0,0,0,3,.9,7,7,0,0,0,3.5-.86,5.24,5.24,0,0,0,2.24-2.35,8.1,8.1,0,0,0,.55-3.4Z"/><path class="cls-1" d="M560.45,209.52V189.47h3.06v2.85a7.21,7.21,0,0,1,6.38-3.3,8.5,8.5,0,0,1,3.34.65,5.16,5.16,0,0,1,2.27,1.71,6.55,6.55,0,0,1,1.06,2.51,20.05,20.05,0,0,1,.19,3.3v12.33h-3.4V197.33a9,9,0,0,0-.4-3.11,3.2,3.2,0,0,0-1.41-1.64,4.44,4.44,0,0,0-2.36-.62,5.5,5.5,0,0,0-3.75,1.38q-1.57,1.38-1.58,5.23v11Z"/><path class="cls-1" d="M595,209.52V207a6.23,6.23,0,0,1-5.6,3,7.87,7.87,0,0,1-4.41-1.32,8.72,8.72,0,0,1-3.12-3.69,12.84,12.84,0,0,1-1.1-5.45,14.17,14.17,0,0,1,1-5.44,7.84,7.84,0,0,1,7.48-5,6.66,6.66,0,0,1,3.22.76,6.79,6.79,0,0,1,2.31,2v-9.93h3.38v27.68Zm-10.74-10q0,3.86,1.63,5.76a4.9,4.9,0,0,0,3.83,1.91,4.82,4.82,0,0,0,3.78-1.82q1.56-1.83,1.56-5.56,0-4.12-1.58-6a4.88,4.88,0,0,0-3.91-1.93,4.72,4.72,0,0,0-3.79,1.85Q584.23,195.54,584.22,199.51Z"/><path class="cls-1" d="M622.43,209.52V197.8l-10.66-16h4.45l5.46,8.35q1.5,2.34,2.81,4.68,1.25-2.18,3-4.89l5.36-8.14h4.27l-11,16v11.72Z"/><path class="cls-1" d="M638.73,199.5q0-5.58,3.09-8.25a9.33,9.33,0,0,1,6.31-2.23,9,9,0,0,1,6.76,2.71,10.33,10.33,0,0,1,2.62,7.48,13.33,13.33,0,0,1-1.16,6.09,8.26,8.26,0,0,1-3.38,3.45,9.91,9.91,0,0,1-4.84,1.22,9,9,0,0,1-6.81-2.7Q638.73,204.57,638.73,199.5Zm3.49,0c0,2.56.56,4.49,1.68,5.76a5.59,5.59,0,0,0,8.44,0q1.68-1.92,1.68-5.87a8.29,8.29,0,0,0-1.69-5.63,5.6,5.6,0,0,0-8.43,0Q642.22,195.65,642.22,199.5Z"/><path class="cls-1" d="M674.63,209.52v-2.94a7.34,7.34,0,0,1-6.36,3.39,8,8,0,0,1-3.31-.68,5.48,5.48,0,0,1-2.29-1.7,6.7,6.7,0,0,1-1-2.52,18.35,18.35,0,0,1-.2-3.18V189.47h3.39v11.12a19.62,19.62,0,0,0,.21,3.59,3.58,3.58,0,0,0,1.36,2.1,4.21,4.21,0,0,0,2.57.77,5.52,5.52,0,0,0,2.87-.79,4.36,4.36,0,0,0,1.9-2.13,10.78,10.78,0,0,0,.55-3.92V189.47h3.4v20.05Z"/><path class="cls-1" d="M690.41,206.48l.5,3a12.86,12.86,0,0,1-2.57.31,5.8,5.8,0,0,1-2.87-.59,3.28,3.28,0,0,1-1.44-1.54,12.37,12.37,0,0,1-.41-4V192.11h-2.49v-2.64h2.49v-5l3.38-2v7h3.41v2.64H687v11.73a5.92,5.92,0,0,0,.18,1.87,1.47,1.47,0,0,0,.58.66,2.31,2.31,0,0,0,1.16.24A10.57,10.57,0,0,0,690.41,206.48Z"/><path class="cls-1" d="M693.74,209.52V181.84h3.4v9.93a7.59,7.59,0,0,1,6-2.75,8.07,8.07,0,0,1,3.87.88,5.14,5.14,0,0,1,2.35,2.42,11.22,11.22,0,0,1,.71,4.5v12.7h-3.4v-12.7a5.22,5.22,0,0,0-1.11-3.71,4.06,4.06,0,0,0-3.12-1.17,5.53,5.53,0,0,0-2.84.79,4.43,4.43,0,0,0-1.9,2.12,9.75,9.75,0,0,0-.56,3.7v11Z"/><path class="cls-2" d="M607.83,69.55c2.47-4.3,4.51-7.67,8.28-11.29a39.43,39.43,0,0,0,6.94-8.63c2.43-3.65,4.8-4.67,7.08-7.55,3.07-3.89,1.4-.41,6.84-8.89,4.88-7.61,12.23-15,16.87-20.47,3.82-4.51,14.86-4.3,13.42-11.38-.94-5.88-22.89,8.94-30.42,17.88-7.92,9.4-11.44,11.41-17.83,17.19-8.89,8-18.64,22.92-30.8,11.56-8.91-8.34-18.29-13.79-27.8-24.28C554.46,17.13,532.59-2.15,527.74.38s3.49,9.43,9.54,11.33c5.53,1.74,13.36,15.08,16.27,18.33,7,7.86,8.8,11.28,15.69,18.79,4.31,4.69,4.68,4.29,8,8.46,4.15,5.2,3.35,8.08,2.77,9.14-2.7,4.91-3.61,6.18-6.08,11.31-1.23,2.55-3.93,6.46-5.2,8.93a19.18,19.18,0,0,1-4.85,6.55c-9.5,9.15-13.93,20.35-21.83,31-7.17,9.69-14.87,18.84-18.43,29.76a21.35,21.35,0,0,0-1,8.05c.41,4.44,2.31,1.49,5.78-3.51,2.12-3.06,5.72-4,5.84-5.65.17-2.37-1.34-.85-1.11-2.26S544.92,140,545.9,139.05c3.77-3.72,6.19-6.57,10.56-10,5.3-4.09,6.54-9,11-13.61,4.29-4.41,11-8,15.86-11.65,5.86-4.36,4-7.79,6.26-12.82,2.59-5.64,13.67-15.61,14.45-16.65,0,0,2-2.24,3.65-4.52"/><path class="cls-2" d="M601.83,46.31c2.74-1.76,3.09-4.42,4.68-6.76,1-1.51,5.33-5,1.32-8.36a17,17,0,0,0-7.16-3.56c-5.17-.82-2.22,2.44-2.85,4.81-.49,1.83-1.88,2.65-2.49,4.57-.69,2.18-.19,4.06.17,6.17.39,2.36.9,4.71,3.72,4.3a8.94,8.94,0,0,0,2.61-1.17"/><path class="cls-3" d="M529.71,46.61a25.68,25.68,0,0,0-.16-6.7A42.53,42.53,0,0,0,523,23.5C515,9,495.89,3.22,495.7,3.17c-5.89-1.56-7.23-1.64-17.66-1.95v0c-18.87,0-35,4.05-48.08,12-14.91,9.14-25.67,21.66-32.9,38.28-6.71,15.41-7.93,34-3.45,52.3a73.11,73.11,0,0,0,16,31.29,77.38,77.38,0,0,0,28.29,20.26,87.43,87.43,0,0,0,34.28,7.1,68.39,68.39,0,0,0,28.1-6.06c9-4,16.11-9.14,21.2-15.19s7.42-10.19,6.9-12.33a3.94,3.94,0,0,0-1.94-2.32,6.65,6.65,0,0,0-3.57-1,4.88,4.88,0,0,0-4.11,2.48c-10.43,16-24.43,24.14-41.61,24.14-13.3,0-24.37-5-32.9-15-9.62-11.22-13.32-20.12-17.13-33.6-2.22-7.87-3.86-31.22-.35-43.8,1.95-7,7.47-24.25,16.74-34.29,5.7-6.17,17.48-16.47,32.4-16.06h1.3v0c10.13.19,19.52,2.39,25.13,5.89l.29.17c6.64,4.15,13.51,8.44,16.11,19.07.9,3.66.83,11.28.83,11.28A5,5,0,0,0,524.18,51l.58,0a5.1,5.1,0,0,0,3.42-1.16,4.61,4.61,0,0,0,1.51-3h0a.34.34,0,0,0,0-.1.43.43,0,0,0,0-.11Z"/><path class="cls-1" d="M42.91,37.58a4.58,4.58,0,0,0,5.76,7.11l-.11.09q22-20.86,29.11-20.86,3.3,0,3.3,4.21,0,3.3-9.15,41.19l-22,93.19H75.69L91.51,94.77q5.67-24.9,13.61-37.08c5.3-8.11,11.69-17.82,23.76-26.49,6.94-5.12,13.4-8.4,16.68-8.61,5.49-.37,6.37,1.69,6.74,3.07a10.41,10.41,0,0,1-.07,5.31c-.23,1.2-1,5.76-3,13.81L120.44,162.51h26.42c4-19,11.25-49.49,19.43-79.64,3.66-13.79,8.3-23.59,12.82-30.21,6.21-9.1,9.8-13.76,21.71-22.78,4.75-3.6,10.07-7.3,13.31-7.3,5.93,0,9.1,4.33,9.1,8.48q0,6.59-9.34,37.53-12.45,41.19-15,53a98.85,98.85,0,0,0-2.56,20.6q0,9.52,4.21,14.92t9.7,5.4q7.32,0,17.94-6.22,5.51-3.3,20.15-16.48,10.6-9.7,14.46-12.81a4.67,4.67,0,0,0,1.12-3.24,4.41,4.41,0,0,0-4.41-4.41,4.36,4.36,0,0,0-2.74,1v0a176,176,0,0,1-22.16,19,12.1,12.1,0,0,1-6.77,2.2q-5.13,0-5.13-6.23,0-9.15,14.47-56.57,11.52-38.26,13.36-45.78a56,56,0,0,0,1.83-13q0-9.14-4.21-13.55T236.22,2c-5.75,0-17.55,0-30.48,7.82-13.24,8-27.48,23.81-29.8,32.09,3.47-12.38,5.48-21,5.48-26.18q0-7.14-3.11-10.43T169.18,2c-44,0-64.51,34.69-65.93,40.35,1.09-4.33-.07.49,4.78-20,1.67-7,2.93-11.65,2.93-14.09A5.72,5.72,0,0,0,109,3.65Q107.1,2,103.25,2q-9.39,0-25.73,8.61C61.05,19.29,50.32,30,42.82,37.54"/><path class="cls-4" d="M414.81,25.75a1.92,1.92,0,0,0,.29-.14"/><path class="cls-4" d="M272.72,124.43c-2.06-5.48-4.45-15.21-6.08-23.18-.3,7.39,2.82,18.76,4.9,23.78s9.11,15.77,10.44,13.72C279.14,134.93,274.23,129.08,272.72,124.43Z"/><path class="cls-4" d="M273.21,69.28c-7.3,10.25-10.84,34.45-7.18,40.5-1.9-9.48.26-19.94,1.71-25.35Z"/><path class="cls-4" d="M267.55,90.92c-1.54,6.31-1.09,16,.75,17.87C267.7,102.48,269.18,101.6,267.55,90.92Z"/><path class="cls-4" d="M343.12,137.44a47.66,47.66,0,0,1,5.08-2.09c.35-.53,1-.92,1.62-1.77l-.7.16a49.2,49.2,0,0,1-8,2.18A27.65,27.65,0,0,0,338,137.4,37.15,37.15,0,0,0,343.12,137.44Z"/><path class="cls-4" d="M348.2,135.35c-3,4.56,3.59-1,0,0Z"/><polygon class="cls-4" points="328.65 156.76 328.12 156.69 326.55 156.69 328.65 156.76"/><path class="cls-4" d="M295.57,132.31a29.14,29.14,0,0,0,6.41,4.22,57.7,57.7,0,0,1-11.73-9c.36.55.48,1.29.88,1.82A18,18,0,0,1,295.57,132.31Z"/><path class="cls-4" d="M400.51,6.59a19.07,19.07,0,0,1,6.25,6.19,23.28,23.28,0,0,1,2,4.75l.31,1.25c-.51-.48-.73-1.46-1.21-1.81l-.73-.82,0,0c-2.41-1.7,2.2,2.34,1.63,4.26-.51-1.17-.63-.84-1.2-1.15a5.7,5.7,0,0,1-2.68-.89l-.91-1a9,9,0,0,1-.95-1.09,9.07,9.07,0,0,0-1.28-1.58c-2.14-1.5-2.43-3.35-6.39-3.92A12.84,12.84,0,0,1,399,14.47c.66,1.29,1.36,1.44,3.22,3,.07.2-1.72-.51-3.28-1.19s-1.74-1.69-2.6-2c-1.61-1.62-2.46-1.54-2.73-1.5-2.15-1.11-4.95-.87-7.53-.62C380.71,11.59,372.11,14.7,367,16s-10.08,5.3-15.32,7.81h0c-5.08,2.44-10,6.64-15,8.9h0c-4.09,1.79-5.27,4-8.85,6.72-2.17,1.7-2.11,3.95-4.11,5.73l-1.46,1.34-.69.66-.34.33-.08.09,0,0-.21.16,0,0-.2.19c-.58.52-.95.89-1.45,1.37l-1.41,1.4A148.31,148.31,0,0,0,307,63.09c-7.28,9.19-12.65,19.78-14.88,30.87a47.48,47.48,0,0,1,3.76-13.89,64.35,64.35,0,0,1,3.48-5.71,40.83,40.83,0,0,0-3.27,5.76c-2.05,3.76-2.71,8.23-3.71,12.12S292,99,291.21,102.52c-.36.59-.67.55-.74,1.16-.48,4.25-1.34,8.3.68,11.14.31-.07.78,2.57,1.28,1.89,1.06,2.83,3.33,5,5.63,6.9a7.51,7.51,0,0,0,3.66,1.67c4.28,2.95,9.08,6.11,15.38,7.44,1.58.33,3.6.74,5.27,1l2.74.19.6,0h.45l.55,0,.09,0c-.14.15.34.11-.22,0h.18l.06,0,.06.17-.53-.15c3,.18,6.5.77,9.65.44s3.77,2.7,9.82-.21c-4.7,1.81-8.31.72-13.45,1l-8-.12a27.37,27.37,0,0,0-6.68-.52c-1,0-1.4-1.23-2.38-1.32a71.81,71.81,0,0,0,8.74,1.63l2.26.25.29,0h.05l-.24-.05h.26l.66.07a8.16,8.16,0,0,0,1,0c1.28,0,2.71,0,4,0a44.37,44.37,0,0,0,8.88.73l-.17.08a48.72,48.72,0,0,1-7.15,1.06l-6.36-1a41.1,41.1,0,0,0-6.5-.59c-.53,0-1,0-1.55.07-1,0-2.07,0-3.09-.09,1.81.42,3.66.76,5.54,1,.94.14,1.88.26,2.83.37l.72.08.35,0,.18,0h.16l-.22-.05h0c.51.05,1.19.14,1.55.14.89,0,2.12.07,3.16.06s2.15-.06,3.21-.14c1.32.18,2.66.33,4,.42-.15.09-.3.17-.43.26A7.29,7.29,0,0,0,334.9,140c-.85,1.12-1.37,2.33-.45,2.91a53.12,53.12,0,0,0,15.54-1.6c4.67-1.14,8.06-2.45,8.1-2.27.49.57-3.44,2.47-7.51,3.8s-8.26,2.11-7.92,2.25c1,.1,2,.16,3,.17-.92.37-1.82.72-2.66,1.1-2,.47-4.72.14-6.09.77a18.48,18.48,0,0,1-7.73,1c-1.35-.07-2.73-.2-4.07-.31l-2.12-.19c-.72,0-1.45-.09-2.18-.11-3.72.08-7.64,1.83-12.24,1.31-.25.64-2.78-2.34-2.36-1.41-3.91-1.74-8.05-4.32-10.65-3.83l-.47.54c-.26-.18-.5-1-1-1.21-2.88-2.4-5.42-4.32-7.93-6.37s-3.43-2.29-5.69-5.35c-1.31-2.24-1.63-1.26-1.47-2.12.18.44,0-.07.25.43s-.66-.76-.32-.29a38.75,38.75,0,0,0,13.2,13.1c.48.15,1.27.36,2,.6l1,.8a3.92,3.92,0,0,1,.49-.13c4.94,2.37,10.47,4.63,14.94,5.26,8.12,1.85,16.49,4.49,24.93,5a85.08,85.08,0,0,1-12.66.29c3.7-1,10.15.37,14.79-.18.72,0,1.42,0,2.14,0,2.7,0,1.34-.87,2.19-.93l1.1-.36c2.76-.43,2.46-.12,5-.88,14.4-3.3,23.54-8.47,37.48-14.44-.1.51-1.13,1.07-1.32,1.6-6.56,3.29-7.84,4.72-12.87,8.45,4-1.45,6.46-3.11,10.17-4.78.07.18-1,.7-1.25,1,1.14-.47-2.65,1.28,0-.06-1.88,2.4-3.22,1.47-3.76,3.2-7,2.41,1.34.52.07,1.25-8.85,4.41-12.21,5.49-21.74,8.16-8.66,1.53-15.86,2.07-24.46,1,8.66.2,14.77-1.47,21.88-3.9a92.39,92.39,0,0,1-24.11,3.55c-2-.27-4.06-.63-6-1s-3.89-.87-5.81-1.36a112.51,112.51,0,0,1-11.33-3.5,72.15,72.15,0,0,1-20.84-11.57,33.85,33.85,0,0,1-8.2-9.79A48.62,48.62,0,0,1,270.64,115a84.55,84.55,0,0,1-1.51-15.22c-.11-4.85-.36.49-.55-3.49-1.22,6.84-.44.94-1.77,5.69.09-2.28.91-15.52.93-17.57A106.4,106.4,0,0,1,283,52a112.25,112.25,0,0,1,11.17-13.73c2.07-2.16,4.24-4.24,6.54-6.26q1.72-1.5,3.55-2.95l3.27-2.5c3.09-2.31,3.69-3.29,6.61-5.14a48.62,48.62,0,0,1,4.52-2.63c1.05-.31,2.48-.54,2.37-.56,5.14-2.38,3.39,2.87,9.53-.74,6.21-3,9.07-3.66,16.28-6.21,6.84-2.18,13.38-6.43,22-6.5,3.4-1.52,14.48-2.53,16.69-2,4-.79,10.66,1.2,14.94,3.71m-9.9.81c-.22,0-7.5-1.12-13.31.94.14.08,5.09-.91,6.68-.38C384.86,7.44,386,7.92,390.61,7.28Zm-31.06,3.13c5.56-2.94,23.68-5.7,32.18-4.95a.52.52,0,0,0,.12-.25,33.77,33.77,0,0,0-11-.24C377.17,5.44,363.11,6.34,359.55,10.41ZM346.83,7.23l.16,0-.06-.14ZM323.94,18.6c-2.71.95-2.25,1.29-6.3,4.18A36.39,36.39,0,0,0,311,29.05c-.63.53-1.26,1.08-1.91,1.67l-.12.11-.06.06,0,0c.69-.52.19-.14.34-.25h0l-.19.17-.39.35-.93.83c-1.21,1.1-2.33,2.18-3.43,3.31a99.26,99.26,0,0,0-11.41,14.23c-1.39,2.16-2.45,4.58-3.68,6.8-1.72,3.44-3.82,7.06-5.46,10.59s-2.83,7-2.85,9.72c-.06.9-.74,2.41-.46,3.45,1.08-6.78,5.09-14.13,9.36-21.18,1.43-2,1.9-4.82,4-7.39,2.42-3.41,3.65-5.71,5.79-8.36l-2.23,1.33c4.32-4,5-8,10.2-11.24-.24-.24.74-.64,1.38-1.11l.56-.55-.12-.49.07-.05,0,0h0c.3-.23-.44,1.07-.36,1l0-.76,0,0,.76,0c.46-.37.93-.78,1.38-1.11.9-.65,1.68-1.7,2.52-2.26a31.75,31.75,0,0,0,4.5-3.27c3.33-2.47,3.62-2.08,6.18-4.22a9.17,9.17,0,0,0,1.57-1.1c.71-.67-1.05.27.71-.67M290,92.47c-.23-8.62,3.18-15.22,7.26-21,1.52-2.41,4.41-6.89,6.6-11,2.89-4.43,9.67-11.7,12.89-13.36-8,2.92-13.52,11.24-16.1,15.33s-5.35,9.06-7.84,13.7a27.2,27.2,0,0,0-3.43,10C288.79,89.33,288.74,89.45,290,92.47Zm19.54,38.9a17.61,17.61,0,0,1-6.5-3.05A42.73,42.73,0,0,0,309.54,131.37Zm-26.43-10.31a49.7,49.7,0,0,0,9,11,38.48,38.48,0,0,0,11.56,7.19c3.18,1.26,6.38,2.91,9.73,4.14A21.62,21.62,0,0,0,323.55,145l3.49-.17-4-.65a46.65,46.65,0,0,1-5.85-2.74l1,.08h0a30,30,0,0,0-5.25-1.61c-.72-.1-1.45-.24-2.17-.39a37.29,37.29,0,0,1-11.39-4.41c-3.43-2-2.11-.55-9.19-6.76a35.79,35.79,0,0,1-8.36-12.28C282.06,117.5,282.32,119.77,283.11,121.06Z"/><path class="cls-4" d="M339,154.73c3.45-.43,6-1.81,9.11-2.52a64,64,0,0,0,7.06-2.14c5.51-2.06,11-4.33,17-6.81s-3.78.92,1.89-2.18c-.05-1.08-28.09,12.46-3.72-.2,3.34-2.46,6-4-.19-1.49s-12.39,4.71-18.75,5.51l-.28.16c-2.54,1.47-6.12,2.26-9.89,2.67s-5.7,1.43-11.21,1.49c-3.59.56-7.27-.17-11-.55a40.9,40.9,0,0,0-10.1-.18c4.94,2.12,8.53,2.7,13.62,3.78S333.39,156,339,154.73Z"/><path class="cls-4" d="M268.19,110.34a62.06,62.06,0,0,0,.94,11.94c4,14.08,5.44,13.69,10.89,19.34a85,85,0,0,1-9.51-19.92C269.46,117.87,268.85,117.18,268.19,110.34Z"/><path class="cls-4" d="M287.07,144.72c-3.62-2.44-13.47-16.35-14.42-17.25,1.12,14.5,23.38,27.12,32,30.25a92.27,92.27,0,0,0,10.78,2.69q2.69.5,5.34.86c1.83.25,3.73.44,5.56.55A73.7,73.7,0,0,0,348,160l4.67-1.1a87.29,87.29,0,0,1-19.58.7,88.85,88.85,0,0,1-9.68-1.3c-3.15-.63-6.16-1.36-9.21-2.2a99.39,99.39,0,0,1-17.69-6.63c-5.68-2.83-11.72-8.46-16.57-13.06-.35-.34-1.54-.21-1.9-.59a61,61,0,0,0,14.79,13.79,67.36,67.36,0,0,0,15.23,7C300.68,154.53,294.14,149.74,287.07,144.72Z"/><path class="cls-4" d="M335.42,153.8c.71.06,1.42.09,2.13.11s1.65-.21,2.46-.34l-1.49-.09C337.49,153.61,336.45,153.72,335.42,153.8Z"/><path class="cls-4" d="M317.42,141.93l1.95.16c-2.08-.48-6.6-1.87-8.62-2.59-3.18-1.47-5.95-1.57-8.77-3C306.92,139.35,312.75,141.72,317.42,141.93Z"/><path class="cls-4" d="M290.56,104.33c-.11,5.49.61,8.44,2.45,12.15a24.3,24.3,0,0,0,8,9c.43.09,2.12.83,2.57.89-3.81-3.79-7.23-6.92-10.05-11.35a13.79,13.79,0,0,1-1.26-4.35,61,61,0,0,1-.16-16.7c-.55,2.79-1.38,5.71-1.43,8.46Z"/><path class="cls-4" d="M322.54,135.26a2.58,2.58,0,0,0-.64-.09l-.12.05.38.1C322.43,135.4,322.56,135.34,322.54,135.26Z"/><polygon class="cls-4" points="321.78 135.22 321.63 135.18 321.74 135.23 321.77 135.22 321.78 135.22"/><path class="cls-4" d="M389.69,126.3c-1.89.86.65.53-1.17,1.43-1.51.75-3,1.45-4.35,2.18,3.16-1.22,4.07-1.83,7-3.15a7.2,7.2,0,0,1,.86-.46s.44-.23.47-.26c-.28.19-.06.07.31-.14a8.23,8.23,0,0,0,.85-.44c.07,0-.48.53-.55.58-.38.2-.13.13-.39.34-.06,0,.08.12,0,0a5.93,5.93,0,0,1-.88.51,60.72,60.72,0,0,1-7.12,3.42c0,.05,0,0,0,0a2.53,2.53,0,0,1-1.14.56l-.19.06c-1.52.45-3.1,1.08-4.66,1.5a4.26,4.26,0,0,1-.93.44c-1.13.56-2.29,1.11-3.54,1.64a.38.38,0,0,1,.25.06c.07.11-.16.28-.54.39l-.55.17,1.67-.41.23-.05,1.74-.56a94,94,0,0,0,13.25-5.87.53.53,0,0,1,.26-.08c.08,0,.1,0,0,.08a50.12,50.12,0,0,1-7,4.53,113.48,113.48,0,0,1-11.45,4.93c-4.61,1.33-8.83,2.71-13.81,4a134.16,134.16,0,0,1-21,3.49c-2.73.32-5.37,0-5.83-.63-.27-.39.29-.8,1.33-1.12l-.66,0-1,0a8.17,8.17,0,0,1-2.38-.36l-.75-.25a31.75,31.75,0,0,1-3.32-1.44l.16-.21-.17-.06a1.94,1.94,0,0,1-1.13-.55l.05-.25a1.84,1.84,0,0,1,.84-.82.33.33,0,0,1,.15-.31c-.4-.25-.58-.52-.29-.82-.23-.07-.19-.18.07-.25a1.55,1.55,0,0,1,.32,0h0a1.75,1.75,0,0,0-.33-.15l-.35,0-1.09-.08a3.27,3.27,0,0,1-.71-.21c-.5-.45-.5-.45-.41-.64l.09-.06-.54-.09a.82.82,0,0,1-.19-.07c0-.11,0-.11-.08-.15a.17.17,0,0,1,0-.07c.23-.12.23-.12.23-.15s.09.07.09.07h.44l.58.09h.25v0l-.06,0h0a5.69,5.69,0,0,0,.77,0l.51,0s.35,0,.35,0l.86,0c.07,0,.24-.1.28-.08a.89.89,0,0,1,.32-.05h.42l.29-.06h.06l1.25-.27.58,0-.17,0c-.12,0,0-.13-.09-.14-1.45-.16-3-.21-4.54-.31-.26,0-.51,0-.55-.12s.16-.16.42-.17a45.74,45.74,0,0,1,10-.47c.83,0,1.68,0,2.52-.08l-.13,0h.74l-.54-.13-.36,0c-1.95.11-3.77,0-5.64-.11-1-.05-1.88-.18-2.83-.28a17.31,17.31,0,0,1-2.3-.19c0-.07,2.14-.08,2.38-.08,2.38.43,6.34.16,9,.51a5.36,5.36,0,0,1,1.28-.12h.33l.82.08c.44,0-1.25.24-.85.25l.8-.29c2.13-.11,1.15,0,3.22,0l1.54,0a7.75,7.75,0,0,0,2.3-.25h.87c1.88-.4,1.72-.27,2.48-.41,2-.36,4.27-1.44,5.73-1.19,3.88-1,7.64-2.86,11.32-4.12a.76.76,0,0,1,.48,0c.08.05,0,.14-.19.2-2.53,1,2.45-1.43-.24-.08,2.46-.5-2.86,1.72-.45,1l.9-.3c.29-.09.61-.17.93-.24,3.05-.93,5.94-1.85,8.83-3,2.46-1,4.57-2,6.92-3.08,3.3-1.57,5.91-2.6,9.47-4,.45-.2,1.36-.74,1.58-.64s0,.36-.43.56c-6.9,3.3-13.47,6.59-21.49,9.15l-2.58.8s.94-.31,1-.3-.81.52-.89.62l3-.85c2.53-1,5-2.11,7.89-3.06,2-.65,3.91-1.14,5.85-1.67l6-2.9c.08,0,0,.15.07.16s-.07.28-.15.32c-1.35.77-2,1.11-3.51,1.84a1.07,1.07,0,0,1,.77.15c.12.13.06.31-.15.5l1.11-.42a.75.75,0,0,1,.54,0c.07.06-.05.18-.27.26L386.48,125c-1.72.74-3.46,1.47-5.22,2.17a2.39,2.39,0,0,1,.86.1h0L383,127m2,.28c-1,.75-2.07,1.5-3.16,2.26l2.76-1.63m6.62-5.32c-1.37.62,0,.71-1.37,1.29l-.42.22,1-.08,1.09-.5m2.12-2.17-.21.14m-60.18,14.71-.09,0,.33.05.5.24Zm-5.4,1.28h0l-.28-.14Zm1.56-2.09a7.18,7.18,0,0,1,1.31.44,7.9,7.9,0,0,1,1-.1l2.73-.08c-.14-.09.07-.09.18-.11l.32-.06c-.95,0-1.91,0-2.88,0S330.22,135.43,329.39,135.36Zm-4.46,5.13.49-.72-.54.7Z"/><path class="cls-5" d="M336.85,18.57c-3.91.67-8.19,4.25-12.58,6.24-3.85,1.75-6.93,4.78-10.56,6.89-3.94,2.31-5.58,5.08-7.56,8.39,2.2-2.87,2.75-3.39,4.62-4.71a40,40,0,0,1,3.61-2.78c1.28-.71,3-2.35,4.26-3.08,2.81-1.61,5.2-2.85,8.05-4.34,2.41-1.26,2.56-1.91,4.93-3.53"/><path class="cls-6" d="M323.38,18.89a6.47,6.47,0,0,1,1.81-1.53,2.44,2.44,0,0,1,1.6.38l1.21.82-2.43,1.21-2.24-.15Z"/><path class="cls-4" d="M381.77,123.84a2,2,0,0,1,.57-.47,14,14,0,0,1,2.65-1.55,18.54,18.54,0,0,1,2.42-.69,16.94,16.94,0,0,0,2.14-.61,8.79,8.79,0,0,0,1.27-.75,4.07,4.07,0,0,1,2.21-.85c.54,0,1,0,1-.68-.43,1.08-1.27,1.74-1.42,3a3.64,3.64,0,0,1-1,2.54c-3.12,2.36-2.1,2-1.66,2.57.23.32-.8.07-1.21.25a10.12,10.12,0,0,1-1.53.6,17.09,17.09,0,0,0-4.72,2.08,1.88,1.88,0,0,1-2.17.12c-.53-.4.11-2-.08-2.58-.28-.79.15-1.38.08-2.3.28,0,.6-.35.89-.39.12-.31.35-.18.51-.42"/><polygon class="cls-7" points="310.12 31.16 309.72 31.57 308.99 32.11 308.93 31.45 309.43 30.86 310.12 31.16"/><path class="cls-4" d="M356.48,148c1.68-1.3,4.41-1.65,6.39-2.39a21.24,21.24,0,0,1,2.57-.6c1.07-.29,2.11-.9,3.17-1.25,2.47-.8,5.09-1.13,7.45-2.18,2.18-1,7.17-2,8.85-3.68-2.76,2.61-5,3.13-6,5.21-1.1,2.4-3.41,2.57-4.64,3.56a20.42,20.42,0,0,1-7.44,3.53c-2.79.53-1.65,2.23-4.31,3.27-1,.39-1.83-.3-2.84.07a13.14,13.14,0,0,1-2.89.5,10.32,10.32,0,0,1-3.76-.09c-1.58-.4-7.55-.13-9.36-.06,1.89-.76,8.76-2.85,10.63-3.82a18.45,18.45,0,0,0,3.12-2.05,12.23,12.23,0,0,1,1.84-1,22.25,22.25,0,0,1,2.59-1.2c.48-.2.94-.68,1.46-.66"/><path class="cls-4" d="M308.49,146.62c-3-.65-5.52-2.37-8.36-3.36-.84-.25-5-.57-5.27-1.23.33,3.61,3.6,3.12,6.27,4.51a20.38,20.38,0,0,0,8.36,2.38c-2.17-.82-2-2.62-3.84-3.61a9,9,0,0,0-3.51-1.23"/><path class="cls-4" d="M337.83,144.49c2,.1,4.26-.71,6.15-1.11,2.61-.55,5.27-.8,7.88-1.39,3-.68,6.13-.92,9.1-1.74a19,19,0,0,0,2.87-1.13,21.71,21.71,0,0,1,3-.74c.6-.17,2.8-.8,3-1.41-2.54,2.22-4.51,4.89-7.26,6.92-4.56,3.36-11.51,3.62-17,3.72-2.66,0-9.71,1-13.06.11-1.61-.42,2.83-2.05,2.48-3.54.88-.05,7,.39,7.19-.51"/><path class="cls-4" d="M265.37,105.76a17.67,17.67,0,0,0,1.28,5.54,27.66,27.66,0,0,1,1.16,3.07c.19.92.69,1.86.9,2.81.58,2.59,1.5,4.87,1.88,7.53.25,1.74,1.26,2.76,1.76,4.45.32,1.11.63,3.32,1.36,4.25,0-1,0,1.07-.56.31a29.88,29.88,0,0,1-2.79-5.81c-.19-.87-.85-2.13-1.05-3-.52-2.31-1.22-4.34-1.85-6.57-.24-.82-.59-1.69-.81-2.5a29.65,29.65,0,0,1-1.11-4.25c-.68-5.93-.59-5.25-.59-5.89"/><path class="cls-4" d="M385.76,138.64a5.94,5.94,0,0,1,1.7-2.3,11.8,11.8,0,0,1,2.17-1.08c-1,3.18-2.65,2.1-3.87,3.38"/><path class="cls-4" d="M379.86,142.93c.18-.45,1.83-2.32,2.3-2.23a1.68,1.68,0,0,0,1.25-.11c.67-.39,1.8-.38,2.36-.84a3.72,3.72,0,0,1-1.8,1.66,2.77,2.77,0,0,1-1.41.45c-.3,0-.48-.09-.76-.12a7.06,7.06,0,0,0-1.89,1.08"/><path class="cls-4" d="M374.71,139.09c.69-1,2.21-1.37,3.17-1.89.56-.31,1.11-.64,1.69-.91a28.66,28.66,0,0,0,4.11-2,3.67,3.67,0,0,0,1-.82,12.63,12.63,0,0,1-2.84,3.32c-.9.61-2.14.61-3.09,1.14a7.72,7.72,0,0,1-2.31.55,13.46,13.46,0,0,0-1.74.58"/><path class="cls-4" d="M405.09,22.11C405,20.69,404,21,403.66,20.16c-.7-1.53-1.84-.89-2.38-2.24-.28.72-.1.24.23,1.08.22.59.69.75,1.3,1.57.5.67,2,2.78,1.95,3.56.51-.56.28-1.23.32-2"/><path class="cls-4" d="M377.26,147.12a6.94,6.94,0,0,1,3-1.2c.12.84-1.26,1.76-2,1.67.22-.8-.67-.38-1-.52"/><path class="cls-4" d="M408.23,21.89c0-.87-.15-.71-.7-1.22s-1.2-.33-1.8-.29c0,.36.28.48.42.78a4.75,4.75,0,0,1,.12.83c.11.43.36.11.77-.15.22-.14.4.29.64.17s.4,0,.55-.12"/><polyline class="cls-4" points="268.36 83.59 268.36 91.91 267.3 102.66 268.74 113.34 268.71 117.18 267.05 114.91 264.86 103.53 265.49 94.59 266.99 86.97 267.99 83.28"/></g></g></svg>