<svg xmlns="http://www.w3.org/2000/svg" width="182.404" height="51.969" viewBox="0 0 182.404 51.969">
  <defs>
    <style>
      .cls-1 {
        opacity: 0.5;
      }
    </style>
  </defs>
  <g id="StartupX_-_Main_Logo_1_" data-name="StartupX - Main Logo (1)" transform="translate(-0.02 0.044)">
    <g id="Group_579" data-name="Group 579" transform="translate(0.02 10.416)">
      <path id="Path_1362" data-name="Path 1362" d="M269.843,680.565a38.63,38.63,0,0,0-6.384-2.006,18.383,18.383,0,0,1-5.175-1.738,2.718,2.718,0,0,1-1.374-2.477,3.557,3.557,0,0,1,1.589-3.079,7.741,7.741,0,0,1,4.533-1.173,14.043,14.043,0,0,1,8.912,3.229l.365.29,2.172-4.742-.191-.182a13.349,13.349,0,0,0-4.939-2.8,19.935,19.935,0,0,0-6.317-1,15.679,15.679,0,0,0-6.437,1.249,10.366,10.366,0,0,0-4.348,3.466,8.755,8.755,0,0,0-1.543,5.08,7.224,7.224,0,0,0,2.8,6.121c1.8,1.361,4.706,2.481,8.626,3.329a20.533,20.533,0,0,1,5.271,1.722,2.59,2.59,0,0,1,1.459,2.371,3.2,3.2,0,0,1-1.6,2.871,8.906,8.906,0,0,1-4.786,1.074,16.911,16.911,0,0,1-5.262-.786,16.053,16.053,0,0,1-4.617-2.448l-.356-.268-2.223,4.742.217.182a15.777,15.777,0,0,0,5.412,2.807,23.077,23.077,0,0,0,6.785.974,17.866,17.866,0,0,0,6.707-1.158,9.893,9.893,0,0,0,4.423-3.323,8.53,8.53,0,0,0,1.547-5.063,7,7,0,0,0-1.381-4.421A9.748,9.748,0,0,0,269.843,680.565Z" transform="translate(-250.02 -664.889)"/>
      <path id="Path_1363" data-name="Path 1363" d="M406.146,676.29l-6.165,2.07v5.251H395.76v4.815h4.221v9.733a8.721,8.721,0,0,0,2.1,6.256,7.97,7.97,0,0,0,6,2.2,10.63,10.63,0,0,0,3.606-.547l.239-.088v-5.043l-.467.139a7.356,7.356,0,0,1-2.072.332c-2.216,0-3.249-1.115-3.249-3.509v-9.472h5.837v-4.815h-5.837Z" transform="translate(-369.177 -674.21)"/>
      <path id="Path_1364" data-name="Path 1364" d="M513.787,716.352a7.542,7.542,0,0,0-2.337-1.961,9.13,9.13,0,0,0-4.438-1.067,9.392,9.392,0,0,0-5.248,1.518,10.1,10.1,0,0,0-3.588,4.239,14.392,14.392,0,0,0-1.277,6.18,14.182,14.182,0,0,0,1.253,6.118,9.594,9.594,0,0,0,3.573,4.111,9.769,9.769,0,0,0,5.29,1.448,9.151,9.151,0,0,0,4.438-1.067,7.519,7.519,0,0,0,2.337-1.961v2.679h6.074v-22.7h-6.078Zm-10.667,8.909a8.294,8.294,0,0,1,1.425-5.151,4.609,4.609,0,0,1,3.913-1.8,4.679,4.679,0,0,1,3.936,1.735,8.19,8.19,0,0,1,1.4,5.127,8,8,0,0,1-1.4,5.04,4.61,4.61,0,0,1-3.894,1.735,4.771,4.771,0,0,1-3.962-1.7A7.762,7.762,0,0,1,503.12,725.261Z" transform="translate(-451.869 -704.489)"/>
      <path id="Path_1365" data-name="Path 1365" d="M654.442,716.239c-3.925.182-5.54,1.84-6.065,2.623l.126-2.594H642.34l.055,22.7h6.12V726.725a6.5,6.5,0,0,1,4.874-5.629,9.118,9.118,0,0,1,3.7-.035l.049-4.529A9.194,9.194,0,0,0,654.442,716.239Z" transform="translate(-570.78 -706.867)"/>
      <path id="Path_1366" data-name="Path 1366" d="M747.854,676.29l-6.163,2.07v5.251H737.47v4.815h4.221v9.733a8.729,8.729,0,0,0,2.1,6.256,7.971,7.971,0,0,0,6.006,2.2,10.627,10.627,0,0,0,3.6-.547l.239-.088v-5.043l-.465.139a7.356,7.356,0,0,1-2.072.332c-2.218,0-3.25-1.115-3.25-3.509v-9.472h5.837v-4.815h-5.837Z" transform="translate(-648.558 -674.21)"/>
      <path id="Path_1367" data-name="Path 1367" d="M856.773,728.382a5.612,5.612,0,0,1-1.341,3.933,4.574,4.574,0,0,1-3.562,1.459,3.459,3.459,0,0,1-2.749-1.007,5.042,5.042,0,0,1-.892-3.283V715.65l-6.12,2.057v11.719c0,6.247,2.829,9.414,8.412,9.414a8.573,8.573,0,0,0,4.177-1,7.352,7.352,0,0,0,2.249-1.915v2.568h6.034V715.654l-6.2,2.054Z" transform="translate(-734.112 -706.391)"/>
      <path id="Path_1368" data-name="Path 1368" d="M994.931,719.08a10.179,10.179,0,0,0-3.56-4.239,9.288,9.288,0,0,0-5.228-1.518,9.168,9.168,0,0,0-4.71,1.2,7.148,7.148,0,0,0-2.213,2.006l.122-2.638H973.16l.089,32.1h6.12V733.909a7.516,7.516,0,0,0,2.335,1.961,9.151,9.151,0,0,0,4.438,1.067,9.363,9.363,0,0,0,8.814-5.56,14.187,14.187,0,0,0,1.253-6.118A14.393,14.393,0,0,0,994.931,719.08Zm-4.925,6.18a7.808,7.808,0,0,1-1.4,4.994,5.4,5.4,0,0,1-7.878-.02,8.01,8.01,0,0,1-1.4-5.06,8.147,8.147,0,0,1,1.4-5.127,4.72,4.72,0,0,1,3.98-1.735,4.569,4.569,0,0,1,3.889,1.795,8.4,8.4,0,0,1,1.4,5.153Z" transform="translate(-841.258 -704.487)"/>
    </g>
    <g id="Group_582" data-name="Group 582" transform="translate(155.061 -0.044)">
      <g id="Group_580" data-name="Group 580" transform="translate(7.656)">
        <path id="Path_1369" data-name="Path 1369" d="M1177.857,698.189a1.931,1.931,0,0,0,2.736,0l5.8-5.8a1.932,1.932,0,0,0,0-2.736l-4.97-4.972-8.533,8.533Z" transform="translate(-1167.254 -670.611)"/>
        <path id="Path_1370" data-name="Path 1370" d="M1156.155,621.621l4.97-4.97a1.932,1.932,0,0,0,0-2.736l-5.8-5.8a1.931,1.931,0,0,0-2.736,0l-4.97,4.97-3.577,3.577a7.008,7.008,0,0,0,0,9.91l3.577,3.577,4.13,4.13S1147.547,630.231,1156.155,621.621Z" transform="translate(-1141.989 -607.546)"/>
      </g>
      <path id="Path_1371" data-name="Path 1371" class="cls-1" d="M1156.155,621.621l4.97-4.97a1.932,1.932,0,0,0,0-2.736l-5.8-5.8a1.931,1.931,0,0,0-2.736,0l-4.97,4.97-3.577,3.577a7.008,7.008,0,0,0,0,9.91l3.577,3.577,4.13,4.13S1147.547,630.231,1156.155,621.621Z" transform="translate(-1134.333 -607.546)"/>
      <g id="Group_581" data-name="Group 581" transform="translate(0 0.005)">
        <path id="Path_1372" data-name="Path 1372" d="M1109.121,608.144a1.932,1.932,0,0,0-2.736,0l-5.8,5.8a1.932,1.932,0,0,0,0,2.736l4.97,4.97,8.533-8.531Z" transform="translate(-1100.017 -607.576)"/>
        <path id="Path_1373" data-name="Path 1373" d="M1105.575,628.01l-4.97,4.978a1.932,1.932,0,0,0,0,2.736l5.8,5.8a1.932,1.932,0,0,0,2.736,0l4.97-4.97,3.577-3.577a7.008,7.008,0,0,0,0-9.91l-3.577-3.577-4.13-4.13S1114.182,619.4,1105.575,628.01Z" transform="translate(-1100.033 -613.94)"/>
      </g>
    </g>
  </g>
</svg>
